<?xml version="1.0" encoding="us-ascii" standalone="no"?><svg xmlns="http://www.w3.org/2000/svg" xmlns:xlink="http://www.w3.org/1999/xlink" contentStyleType="text/css" height="235px" preserveAspectRatio="none" style="width:568px;height:235px;background:#FFFFFF;" version="1.1" viewBox="0 0 568 235" width="568px" zoomAndPan="magnify"><defs/><g><!--class Circulo--><g id="elem_Circulo"><rect codeLine="1" fill="#F1F1F1" height="113.9531" id="Circulo" rx="2.5" ry="2.5" style="stroke:#181818;stroke-width:0.5;" width="554" x="7" y="115"/><ellipse cx="255.25" cy="131" fill="#ADD1B2" rx="11" ry="11" style="stroke:#181818;stroke-width:1.0;"/><path d="M257.7231,137.1431 Q257.1421,137.4419 256.5029,137.5913 Q255.8638,137.7407 255.1582,137.7407 Q252.6514,137.7407 251.3315,136.0889 Q250.0117,134.437 250.0117,131.3159 Q250.0117,128.1865 251.3315,126.5347 Q252.6514,124.8828 255.1582,124.8828 Q255.8638,124.8828 256.5112,125.0322 Q257.1587,125.1816 257.7231,125.4805 L257.7231,128.2031 Q257.0923,127.6221 256.4988,127.3523 Q255.9053,127.0825 255.2744,127.0825 Q253.9297,127.0825 253.2449,128.1492 Q252.5601,129.2158 252.5601,131.3159 Q252.5601,133.4077 253.2449,134.4744 Q253.9297,135.541 255.2744,135.541 Q255.9053,135.541 256.4988,135.2712 Q257.0923,135.0015 257.7231,134.4204 Z " fill="#000000"/><text fill="#000000" font-family="sans-serif" font-size="14" lengthAdjust="spacing" textLength="49" x="275.75" y="136.291">Circulo</text><line style="stroke:#181818;stroke-width:0.5;" x1="8" x2="560" y1="147" y2="147"/><line style="stroke:#181818;stroke-width:0.5;" x1="8" x2="560" y1="155" y2="155"/><ellipse cx="18" cy="168.7441" fill="#84BE84" rx="3" ry="3" style="stroke:#038048;stroke-width:1.0;"/><text fill="#000000" font-family="sans-serif" font-size="14" lengthAdjust="spacing" textLength="243" x="27" y="172.5352">Circulo(paiRef:Objeto, _rotulo:char)</text><ellipse cx="18" cy="185.2324" fill="#84BE84" rx="3" ry="3" style="stroke:#038048;stroke-width:1.0;"/><text fill="#000000" font-family="sans-serif" font-size="14" lengthAdjust="spacing" textLength="528" x="27" y="189.0234">Circulo(paiRef:Objeto, _rotulo:char, _raio:double, ptoDeslocamento:Ponto4D)</text><ellipse cx="18" cy="201.7207" fill="#84BE84" rx="3" ry="3" style="stroke:#038048;stroke-width:1.0;"/><text fill="#000000" font-family="sans-serif" font-size="14" lengthAdjust="spacing" textLength="296" x="27" y="205.5117">Atualizar(ptoDeslocamento:Ponto4D) : void</text><ellipse cx="18" cy="218.209" fill="#84BE84" rx="3" ry="3" style="stroke:#038048;stroke-width:1.0;"/><text fill="#000000" font-family="sans-serif" font-size="14" lengthAdjust="spacing" textLength="196" x="27" y="222">&#171;override&#187; ToString() : string</text></g><!--class Objeto--><g id="elem_Objeto"><rect fill="#F1F1F1" height="48" id="Objeto" rx="2.5" ry="2.5" style="stroke:#181818;stroke-width:0.5;" width="78" x="245" y="7"/><ellipse cx="260" cy="23" fill="#ADD1B2" rx="11" ry="11" style="stroke:#181818;stroke-width:1.0;"/><path d="M262.4731,29.1431 Q261.8921,29.4419 261.2529,29.5913 Q260.6138,29.7407 259.9082,29.7407 Q257.4014,29.7407 256.0815,28.0889 Q254.7617,26.437 254.7617,23.3159 Q254.7617,20.1865 256.0815,18.5347 Q257.4014,16.8828 259.9082,16.8828 Q260.6138,16.8828 261.2612,17.0322 Q261.9087,17.1816 262.4731,17.4805 L262.4731,20.2031 Q261.8423,19.6221 261.2488,19.3523 Q260.6553,19.0825 260.0244,19.0825 Q258.6797,19.0825 257.9949,20.1492 Q257.3101,21.2158 257.3101,23.3159 Q257.3101,25.4077 257.9949,26.4744 Q258.6797,27.541 260.0244,27.541 Q260.6553,27.541 261.2488,27.2712 Q261.8423,27.0015 262.4731,26.4204 Z " fill="#000000"/><text fill="#000000" font-family="sans-serif" font-size="14" lengthAdjust="spacing" textLength="46" x="274" y="28.291">Objeto</text><line style="stroke:#181818;stroke-width:0.5;" x1="246" x2="322" y1="39" y2="39"/><line style="stroke:#181818;stroke-width:0.5;" x1="246" x2="322" y1="47" y2="47"/></g><!--reverse link Objeto to Circulo--><g id="link_Objeto_Circulo"><path codeLine="7" d="M284,73.26 C284,89.49 284,93.87 284,114.63 " fill="none" id="Objeto-backto-Circulo" style="stroke:#181818;stroke-width:1.0;"/><polygon fill="none" points="284,55.26,278,73.26,290,73.26,284,55.26" style="stroke:#181818;stroke-width:1.0;"/></g><!--SRC=[ZOwz2i9048JxFCMM4PFEwWW1CRsYzhAvhBfoPiFUNGf_tjr4JIcunR0pV0nZ7NeFArORdS0zWU7caqyxv2qTpRg-K90C3YfXY8qzeyx-HqU7BAQHM3lAe0jIaNTYyKfj4BEHGHVLrBWC4HtVKDDV81ZeXPilNnJIaoetL9QmbrrGRa_f2FdtcpoJpoee7da-3Nu1]--></g></svg>