<?xml version="1.0" encoding="us-ascii" standalone="no"?><svg xmlns="http://www.w3.org/2000/svg" xmlns:xlink="http://www.w3.org/1999/xlink" contentStyleType="text/css" height="202px" preserveAspectRatio="none" style="width:278px;height:202px;background:#FFFFFF;" version="1.1" viewBox="0 0 278 202" width="278px" zoomAndPan="magnify"><defs/><g><!--class Cubo--><g id="elem_Cubo"><rect codeLine="1" fill="#F1F1F1" height="80.9766" id="Cubo" rx="2.5" ry="2.5" style="stroke:#181818;stroke-width:0.5;" width="264" x="7" y="115"/><ellipse cx="116.25" cy="131" fill="#ADD1B2" rx="11" ry="11" style="stroke:#181818;stroke-width:1.0;"/><path d="M118.7231,137.1431 Q118.1421,137.4419 117.5029,137.5913 Q116.8638,137.7407 116.1582,137.7407 Q113.6514,137.7407 112.3315,136.0889 Q111.0117,134.437 111.0117,131.3159 Q111.0117,128.1865 112.3315,126.5347 Q113.6514,124.8828 116.1582,124.8828 Q116.8638,124.8828 117.5112,125.0322 Q118.1587,125.1816 118.7231,125.4805 L118.7231,128.2031 Q118.0923,127.6221 117.4988,127.3523 Q116.9053,127.0825 116.2744,127.0825 Q114.9297,127.0825 114.2449,128.1492 Q113.5601,129.2158 113.5601,131.3159 Q113.5601,133.4077 114.2449,134.4744 Q114.9297,135.541 116.2744,135.541 Q116.9053,135.541 117.4988,135.2712 Q118.0923,135.0015 118.7231,134.4204 Z " fill="#000000"/><text fill="#000000" font-family="sans-serif" font-size="14" lengthAdjust="spacing" textLength="37" x="136.75" y="136.291">Cubo</text><line style="stroke:#181818;stroke-width:0.5;" x1="8" x2="270" y1="147" y2="147"/><line style="stroke:#181818;stroke-width:0.5;" x1="8" x2="270" y1="155" y2="155"/><ellipse cx="18" cy="168.7441" fill="#84BE84" rx="3" ry="3" style="stroke:#038048;stroke-width:1.0;"/><text fill="#000000" font-family="sans-serif" font-size="14" lengthAdjust="spacing" textLength="238" x="27" y="172.5352">Cubo(_paiRef:Objeto, _rotulo:char)</text><ellipse cx="18" cy="185.2324" fill="#84BE84" rx="3" ry="3" style="stroke:#038048;stroke-width:1.0;"/><text fill="#000000" font-family="sans-serif" font-size="14" lengthAdjust="spacing" textLength="196" x="27" y="189.0234">&#171;override&#187; ToString() : string</text></g><!--class Objeto--><g id="elem_Objeto"><rect fill="#F1F1F1" height="48" id="Objeto" rx="2.5" ry="2.5" style="stroke:#181818;stroke-width:0.5;" width="78" x="100" y="7"/><ellipse cx="115" cy="23" fill="#ADD1B2" rx="11" ry="11" style="stroke:#181818;stroke-width:1.0;"/><path d="M117.4731,29.1431 Q116.8921,29.4419 116.2529,29.5913 Q115.6138,29.7407 114.9082,29.7407 Q112.4014,29.7407 111.0815,28.0889 Q109.7617,26.437 109.7617,23.3159 Q109.7617,20.1865 111.0815,18.5347 Q112.4014,16.8828 114.9082,16.8828 Q115.6138,16.8828 116.2612,17.0322 Q116.9087,17.1816 117.4731,17.4805 L117.4731,20.2031 Q116.8423,19.6221 116.2488,19.3523 Q115.6553,19.0825 115.0244,19.0825 Q113.6797,19.0825 112.9949,20.1492 Q112.3101,21.2158 112.3101,23.3159 Q112.3101,25.4077 112.9949,26.4744 Q113.6797,27.541 115.0244,27.541 Q115.6553,27.541 116.2488,27.2712 Q116.8423,27.0015 117.4731,26.4204 Z " fill="#000000"/><text fill="#000000" font-family="sans-serif" font-size="14" lengthAdjust="spacing" textLength="46" x="129" y="28.291">Objeto</text><line style="stroke:#181818;stroke-width:0.5;" x1="101" x2="177" y1="39" y2="39"/><line style="stroke:#181818;stroke-width:0.5;" x1="101" x2="177" y1="47" y2="47"/></g><!--reverse link Objeto to Cubo--><g id="link_Objeto_Cubo"><path codeLine="5" d="M139,73.33 C139,90.13 139,95.2 139,114.86 " fill="none" id="Objeto-backto-Cubo" style="stroke:#181818;stroke-width:1.0;"/><polygon fill="none" points="139,55.33,133,73.33,145,73.33,139,55.33" style="stroke:#181818;stroke-width:1.0;"/></g><!--SRC=[Iyv9B2vMS2vDobUevb800cqmHoE-834pA3NDoZyfAxKaNqSXlYY_f3Gdtoev8x584whGnYQ_BBMeA3CbrSvE8IG_kAGeCozTGrF1Ig4OpEIgvO9eLx2fqTK5cmi0]--></g></svg>