<?xml version="1.0" encoding="us-ascii" standalone="no"?><svg xmlns="http://www.w3.org/2000/svg" xmlns:xlink="http://www.w3.org/1999/xlink" contentStyleType="text/css" height="615px" preserveAspectRatio="none" style="width:2227px;height:615px;background:#FFFFFF;" version="1.1" viewBox="0 0 2227 615" width="2227px" zoomAndPan="magnify"><defs/><g><!--class Poligono--><g id="elem_Poligono"><rect codeLine="1" fill="#F1F1F1" height="80.9766" id="Poligono" rx="2.5" ry="2.5" style="stroke:#181818;stroke-width:0.5;" width="513" x="7" y="510.72"/><ellipse cx="228.75" cy="526.72" fill="#ADD1B2" rx="11" ry="11" style="stroke:#181818;stroke-width:1.0;"/><path d="M231.2231,532.8631 Q230.6421,533.1619 230.0029,533.3113 Q229.3638,533.4607 228.6582,533.4607 Q226.1514,533.4607 224.8315,531.8089 Q223.5117,530.157 223.5117,527.0359 Q223.5117,523.9065 224.8315,522.2547 Q226.1514,520.6028 228.6582,520.6028 Q229.3638,520.6028 230.0112,520.7522 Q230.6587,520.9016 231.2231,521.2005 L231.2231,523.9231 Q230.5923,523.3421 229.9988,523.0723 Q229.4053,522.8025 228.7744,522.8025 Q227.4297,522.8025 226.7449,523.8692 Q226.0601,524.9358 226.0601,527.0359 Q226.0601,529.1277 226.7449,530.1944 Q227.4297,531.261 228.7744,531.261 Q229.4053,531.261 229.9988,530.9912 Q230.5923,530.7215 231.2231,530.1404 Z " fill="#000000"/><text fill="#000000" font-family="sans-serif" font-size="14" lengthAdjust="spacing" textLength="61" x="249.25" y="532.011">Poligono</text><line style="stroke:#181818;stroke-width:0.5;" x1="8" x2="519" y1="542.72" y2="542.72"/><line style="stroke:#181818;stroke-width:0.5;" x1="8" x2="519" y1="550.72" y2="550.72"/><ellipse cx="18" cy="564.4641" fill="#84BE84" rx="3" ry="3" style="stroke:#038048;stroke-width:1.0;"/><text fill="#000000" font-family="sans-serif" font-size="14" lengthAdjust="spacing" textLength="487" x="27" y="568.2552">Poligono(_paiRef:Objeto, _rotulo:char, pontosPoligono:List&lt;Ponto4D&gt;)</text><ellipse cx="18" cy="580.9524" fill="#84BE84" rx="3" ry="3" style="stroke:#038048;stroke-width:1.0;"/><text fill="#000000" font-family="sans-serif" font-size="14" lengthAdjust="spacing" textLength="196" x="27" y="584.7434">&#171;override&#187; ToString() : string</text></g><!--class Objeto--><g id="elem_Objeto"><rect codeLine="1" fill="#F1F1F1" height="427.2305" id="Objeto" rx="2.5" ry="2.5" style="stroke:#181818;stroke-width:0.5;" width="473" x="517" y="7"/><ellipse cx="726.25" cy="23" fill="#ADD1B2" rx="11" ry="11" style="stroke:#181818;stroke-width:1.0;"/><path d="M728.7231,29.1431 Q728.1421,29.4419 727.5029,29.5913 Q726.8638,29.7407 726.1582,29.7407 Q723.6514,29.7407 722.3315,28.0889 Q721.0117,26.437 721.0117,23.3159 Q721.0117,20.1865 722.3315,18.5347 Q723.6514,16.8828 726.1582,16.8828 Q726.8638,16.8828 727.5112,17.0322 Q728.1587,17.1816 728.7231,17.4805 L728.7231,20.2031 Q728.0923,19.6221 727.4988,19.3523 Q726.9053,19.0825 726.2744,19.0825 Q724.9297,19.0825 724.2449,20.1492 Q723.5601,21.2158 723.5601,23.3159 Q723.5601,25.4077 724.2449,26.4744 Q724.9297,27.541 726.2744,27.541 Q726.9053,27.541 727.4988,27.2712 Q728.0923,27.0015 728.7231,26.4204 Z " fill="#000000"/><text fill="#000000" font-family="sans-serif" font-size="14" lengthAdjust="spacing" textLength="46" x="746.75" y="28.291">Objeto</text><line style="stroke:#181818;stroke-width:0.5;" x1="518" x2="989" y1="39" y2="39"/><ellipse cx="528" cy="52.7441" fill="none" rx="3" ry="3" style="stroke:#038048;stroke-width:1.0;"/><text fill="#000000" font-family="sans-serif" font-size="14" lengthAdjust="spacing" textLength="127" x="537" y="56.5352">Rotulo : char &#171;get&#187;</text><ellipse cx="528" cy="69.2324" fill="none" rx="3" ry="3" style="stroke:#038048;stroke-width:1.0;"/><text fill="#000000" font-family="sans-serif" font-size="14" lengthAdjust="spacing" textLength="245" x="537" y="73.0234">PrimitivaTamanho : float &#171;get&#187; &#171;set&#187;</text><line style="stroke:#181818;stroke-width:0.5;" x1="518" x2="989" y1="79.9766" y2="79.9766"/><ellipse cx="528" cy="93.7207" fill="#84BE84" rx="3" ry="3" style="stroke:#038048;stroke-width:1.0;"/><text fill="#000000" font-family="sans-serif" font-size="14" lengthAdjust="spacing" textLength="91" x="537" y="97.5117">Bbox() : BBox</text><ellipse cx="528" cy="110.209" fill="#84BE84" rx="3" ry="3" style="stroke:#038048;stroke-width:1.0;"/><text fill="#000000" font-family="sans-serif" font-size="14" lengthAdjust="spacing" textLength="239" x="537" y="114">TrocaEixoRotacao(eixo:char) : void</text><ellipse cx="528" cy="126.6973" fill="#84BE84" rx="3" ry="3" style="stroke:#038048;stroke-width:1.0;"/><text fill="#000000" font-family="sans-serif" font-size="14" lengthAdjust="spacing" textLength="383" x="537" y="130.4883">Objeto(_paiRef:Objeto, _rotulo:char, objetoFilho:Objeto)</text><ellipse cx="528" cy="143.1855" fill="#84BE84" rx="3" ry="3" style="stroke:#038048;stroke-width:1.0;"/><text fill="#000000" font-family="sans-serif" font-size="14" lengthAdjust="spacing" textLength="159" x="537" y="146.9766">ObjetoAtualizar() : void</text><ellipse cx="528" cy="159.6738" fill="#84BE84" rx="3" ry="3" style="stroke:#038048;stroke-width:1.0;"/><text fill="#000000" font-family="sans-serif" font-size="14" lengthAdjust="spacing" textLength="447" x="537" y="163.4648">Desenhar(matrizGrafo:Transformacao4D, _camera:Camera) : void</text><ellipse cx="528" cy="176.1621" fill="#84BE84" rx="3" ry="3" style="stroke:#038048;stroke-width:1.0;"/><text fill="#000000" font-family="sans-serif" font-size="14" lengthAdjust="spacing" textLength="232" x="537" y="179.9531">FilhoAdicionar(filho:Objeto) : void</text><ellipse cx="528" cy="192.6504" fill="#84BE84" rx="3" ry="3" style="stroke:#038048;stroke-width:1.0;"/><text fill="#000000" font-family="sans-serif" font-size="14" lengthAdjust="spacing" textLength="176" x="537" y="196.4414">PontosId(id:int) : Ponto4D</text><ellipse cx="528" cy="209.1387" fill="#84BE84" rx="3" ry="3" style="stroke:#038048;stroke-width:1.0;"/><text fill="#000000" font-family="sans-serif" font-size="14" lengthAdjust="spacing" textLength="250" x="537" y="212.9297">PontosAdicionar(pto:Ponto4D) : void</text><ellipse cx="528" cy="225.627" fill="#84BE84" rx="3" ry="3" style="stroke:#038048;stroke-width:1.0;"/><text fill="#000000" font-family="sans-serif" font-size="14" lengthAdjust="spacing" textLength="314" x="537" y="229.418">PontosAlterar(pto:Ponto4D, posicao:int) : void</text><ellipse cx="528" cy="242.1152" fill="#84BE84" rx="3" ry="3" style="stroke:#038048;stroke-width:1.0;"/><text fill="#000000" font-family="sans-serif" font-size="14" lengthAdjust="spacing" textLength="260" x="537" y="245.9063">GrafocenaBusca(_rotulo:char) : Objeto</text><ellipse cx="528" cy="258.6035" fill="#84BE84" rx="3" ry="3" style="stroke:#038048;stroke-width:1.0;"/><text fill="#000000" font-family="sans-serif" font-size="14" lengthAdjust="spacing" textLength="365" x="537" y="262.3945">GrafocenaBuscaProximo(objetoAtual:Objeto) : Objeto</text><ellipse cx="528" cy="275.0918" fill="#84BE84" rx="3" ry="3" style="stroke:#038048;stroke-width:1.0;"/><text fill="#000000" font-family="sans-serif" font-size="14" lengthAdjust="spacing" textLength="243" x="537" y="278.8828">GrafocenaImprimir(idt:String) : void</text><ellipse cx="528" cy="291.5801" fill="#84BE84" rx="3" ry="3" style="stroke:#038048;stroke-width:1.0;"/><text fill="#000000" font-family="sans-serif" font-size="14" lengthAdjust="spacing" textLength="153" x="537" y="295.3711">MatrizImprimir() : void</text><ellipse cx="528" cy="308.0684" fill="#84BE84" rx="3" ry="3" style="stroke:#038048;stroke-width:1.0;"/><text fill="#000000" font-family="sans-serif" font-size="14" lengthAdjust="spacing" textLength="220" x="537" y="311.8594">MatrizAtribuirIdentidade() : void</text><ellipse cx="528" cy="324.5566" fill="#84BE84" rx="3" ry="3" style="stroke:#038048;stroke-width:1.0;"/><text fill="#000000" font-family="sans-serif" font-size="14" lengthAdjust="spacing" textLength="406" x="537" y="328.3477">MatrizTranslacaoXYZ(tx:double, ty:double, tz:double) : void</text><ellipse cx="528" cy="341.0449" fill="#84BE84" rx="3" ry="3" style="stroke:#038048;stroke-width:1.0;"/><text fill="#000000" font-family="sans-serif" font-size="14" lengthAdjust="spacing" textLength="382" x="537" y="344.8359">MatrizEscalaXYZ(Sx:double, Sy:double, Sz:double) : void</text><ellipse cx="528" cy="357.5332" fill="#84BE84" rx="3" ry="3" style="stroke:#038048;stroke-width:1.0;"/><text fill="#000000" font-family="sans-serif" font-size="14" lengthAdjust="spacing" textLength="416" x="537" y="361.3242">MatrizEscalaXYZBBox(Sx:double, Sy:double, Sz:double) : void</text><ellipse cx="528" cy="374.0215" fill="#84BE84" rx="3" ry="3" style="stroke:#038048;stroke-width:1.0;"/><text fill="#000000" font-family="sans-serif" font-size="14" lengthAdjust="spacing" textLength="279" x="537" y="377.8125">MatrizRotacaoEixo(angulo:double) : void</text><ellipse cx="528" cy="390.5098" fill="#84BE84" rx="3" ry="3" style="stroke:#038048;stroke-width:1.0;"/><text fill="#000000" font-family="sans-serif" font-size="14" lengthAdjust="spacing" textLength="249" x="537" y="394.3008">MatrizRotacao(angulo:double) : void</text><ellipse cx="528" cy="406.998" fill="#84BE84" rx="3" ry="3" style="stroke:#038048;stroke-width:1.0;"/><text fill="#000000" font-family="sans-serif" font-size="14" lengthAdjust="spacing" textLength="291" x="537" y="410.7891">MatrizRotacaoZBBox(angulo:double) : void</text><ellipse cx="528" cy="423.4863" fill="#84BE84" rx="3" ry="3" style="stroke:#038048;stroke-width:1.0;"/><text fill="#000000" font-family="sans-serif" font-size="14" lengthAdjust="spacing" textLength="120" x="537" y="427.2773">OnUnload() : void</text></g><!--class Mundo--><g id="elem_Mundo"><rect codeLine="1" fill="#F1F1F1" height="64.4883" id="Mundo" rx="2.5" ry="2.5" style="stroke:#181818;stroke-width:0.5;" width="696" x="1524.5" y="518.96"/><ellipse cx="1844.25" cy="534.96" fill="#ADD1B2" rx="11" ry="11" style="stroke:#181818;stroke-width:1.0;"/><path d="M1846.7231,541.1031 Q1846.1421,541.4019 1845.5029,541.5513 Q1844.8638,541.7007 1844.1582,541.7007 Q1841.6514,541.7007 1840.3315,540.0489 Q1839.0117,538.397 1839.0117,535.2759 Q1839.0117,532.1465 1840.3315,530.4947 Q1841.6514,528.8428 1844.1582,528.8428 Q1844.8638,528.8428 1845.5112,528.9922 Q1846.1587,529.1416 1846.7231,529.4405 L1846.7231,532.1631 Q1846.0923,531.5821 1845.4988,531.3123 Q1844.9053,531.0425 1844.2744,531.0425 Q1842.9297,531.0425 1842.2449,532.1092 Q1841.5601,533.1758 1841.5601,535.2759 Q1841.5601,537.3677 1842.2449,538.4344 Q1842.9297,539.501 1844.2744,539.501 Q1844.9053,539.501 1845.4988,539.2312 Q1846.0923,538.9615 1846.7231,538.3804 Z " fill="#000000"/><text fill="#000000" font-family="sans-serif" font-size="14" lengthAdjust="spacing" textLength="48" x="1864.75" y="540.251">Mundo</text><line style="stroke:#181818;stroke-width:0.5;" x1="1525.5" x2="2219.5" y1="550.96" y2="550.96"/><line style="stroke:#181818;stroke-width:0.5;" x1="1525.5" x2="2219.5" y1="558.96" y2="558.96"/><ellipse cx="1535.5" cy="572.7041" fill="#84BE84" rx="3" ry="3" style="stroke:#038048;stroke-width:1.0;"/><text fill="#000000" font-family="sans-serif" font-size="14" lengthAdjust="spacing" textLength="670" x="1544.5" y="576.4952">Mundo(gameWindowSettings:GameWindowSettings, nativeWindowSettings:NativeWindowSettings)</text></g><!--class GameWindow--><g id="elem_GameWindow"><rect fill="#F1F1F1" height="48" id="GameWindow" rx="2.5" ry="2.5" style="stroke:#181818;stroke-width:0.5;" width="125" x="1810" y="196.61"/><ellipse cx="1825" cy="212.61" fill="#ADD1B2" rx="11" ry="11" style="stroke:#181818;stroke-width:1.0;"/><path d="M1827.4731,218.7531 Q1826.8921,219.0519 1826.2529,219.2013 Q1825.6138,219.3507 1824.9082,219.3507 Q1822.4014,219.3507 1821.0815,217.6989 Q1819.7617,216.047 1819.7617,212.9259 Q1819.7617,209.7965 1821.0815,208.1447 Q1822.4014,206.4928 1824.9082,206.4928 Q1825.6138,206.4928 1826.2612,206.6422 Q1826.9087,206.7916 1827.4731,207.0905 L1827.4731,209.8131 Q1826.8423,209.2321 1826.2488,208.9623 Q1825.6553,208.6925 1825.0244,208.6925 Q1823.6797,208.6925 1822.9949,209.7592 Q1822.3101,210.8258 1822.3101,212.9259 Q1822.3101,215.0177 1822.9949,216.0844 Q1823.6797,217.151 1825.0244,217.151 Q1825.6553,217.151 1826.2488,216.8812 Q1826.8423,216.6115 1827.4731,216.0304 Z " fill="#000000"/><text fill="#000000" font-family="sans-serif" font-size="14" lengthAdjust="spacing" textLength="93" x="1839" y="217.901">GameWindow</text><line style="stroke:#181818;stroke-width:0.5;" x1="1811" x2="1934" y1="228.61" y2="228.61"/><line style="stroke:#181818;stroke-width:0.5;" x1="1811" x2="1934" y1="236.61" y2="236.61"/></g><!--class PrimitiveType--><g id="elem_PrimitiveType"><rect fill="#F1F1F1" height="48" id="PrimitiveType" rx="2.5" ry="2.5" style="stroke:#181818;stroke-width:0.5;" width="124" x="554.5" y="527.2"/><ellipse cx="569.5" cy="543.2" fill="#ADD1B2" rx="11" ry="11" style="stroke:#181818;stroke-width:1.0;"/><path d="M571.9731,549.3431 Q571.3921,549.6419 570.7529,549.7913 Q570.1138,549.9407 569.4082,549.9407 Q566.9014,549.9407 565.5815,548.2889 Q564.2617,546.637 564.2617,543.5159 Q564.2617,540.3865 565.5815,538.7347 Q566.9014,537.0828 569.4082,537.0828 Q570.1138,537.0828 570.7612,537.2322 Q571.4087,537.3816 571.9731,537.6805 L571.9731,540.4031 Q571.3423,539.8221 570.7488,539.5523 Q570.1553,539.2825 569.5244,539.2825 Q568.1797,539.2825 567.4949,540.3492 Q566.8101,541.4158 566.8101,543.5159 Q566.8101,545.6077 567.4949,546.6744 Q568.1797,547.741 569.5244,547.741 Q570.1553,547.741 570.7488,547.4712 Q571.3423,547.2015 571.9731,546.6204 Z " fill="#000000"/><text fill="#000000" font-family="sans-serif" font-size="14" lengthAdjust="spacing" textLength="92" x="583.5" y="548.491">PrimitiveType</text><line style="stroke:#181818;stroke-width:0.5;" x1="555.5" x2="677.5" y1="559.2" y2="559.2"/><line style="stroke:#181818;stroke-width:0.5;" x1="555.5" x2="677.5" y1="567.2" y2="567.2"/></g><!--class Shader--><g id="elem_Shader"><rect fill="#F1F1F1" height="48" id="Shader" rx="2.5" ry="2.5" style="stroke:#181818;stroke-width:0.5;" width="80" x="713.5" y="527.2"/><ellipse cx="728.5" cy="543.2" fill="#ADD1B2" rx="11" ry="11" style="stroke:#181818;stroke-width:1.0;"/><path d="M730.9731,549.3431 Q730.3921,549.6419 729.7529,549.7913 Q729.1138,549.9407 728.4082,549.9407 Q725.9014,549.9407 724.5815,548.2889 Q723.2617,546.637 723.2617,543.5159 Q723.2617,540.3865 724.5815,538.7347 Q725.9014,537.0828 728.4082,537.0828 Q729.1138,537.0828 729.7612,537.2322 Q730.4087,537.3816 730.9731,537.6805 L730.9731,540.4031 Q730.3423,539.8221 729.7488,539.5523 Q729.1553,539.2825 728.5244,539.2825 Q727.1797,539.2825 726.4949,540.3492 Q725.8101,541.4158 725.8101,543.5159 Q725.8101,545.6077 726.4949,546.6744 Q727.1797,547.741 728.5244,547.741 Q729.1553,547.741 729.7488,547.4712 Q730.3423,547.2015 730.9731,546.6204 Z " fill="#000000"/><text fill="#000000" font-family="sans-serif" font-size="14" lengthAdjust="spacing" textLength="48" x="742.5" y="548.491">Shader</text><line style="stroke:#181818;stroke-width:0.5;" x1="714.5" x2="792.5" y1="559.2" y2="559.2"/><line style="stroke:#181818;stroke-width:0.5;" x1="714.5" x2="792.5" y1="567.2" y2="567.2"/></g><!--class Cubo--><g id="elem_Cubo"><rect codeLine="1" fill="#F1F1F1" height="80.9766" id="Cubo" rx="2.5" ry="2.5" style="stroke:#181818;stroke-width:0.5;" width="264" x="828.5" y="510.72"/><ellipse cx="937.75" cy="526.72" fill="#ADD1B2" rx="11" ry="11" style="stroke:#181818;stroke-width:1.0;"/><path d="M940.2231,532.8631 Q939.6421,533.1619 939.0029,533.3113 Q938.3638,533.4607 937.6582,533.4607 Q935.1514,533.4607 933.8315,531.8089 Q932.5117,530.157 932.5117,527.0359 Q932.5117,523.9065 933.8315,522.2547 Q935.1514,520.6028 937.6582,520.6028 Q938.3638,520.6028 939.0112,520.7522 Q939.6587,520.9016 940.2231,521.2005 L940.2231,523.9231 Q939.5923,523.3421 938.9988,523.0723 Q938.4053,522.8025 937.7744,522.8025 Q936.4297,522.8025 935.7449,523.8692 Q935.0601,524.9358 935.0601,527.0359 Q935.0601,529.1277 935.7449,530.1944 Q936.4297,531.261 937.7744,531.261 Q938.4053,531.261 938.9988,530.9912 Q939.5923,530.7215 940.2231,530.1404 Z " fill="#000000"/><text fill="#000000" font-family="sans-serif" font-size="14" lengthAdjust="spacing" textLength="37" x="958.25" y="532.011">Cubo</text><line style="stroke:#181818;stroke-width:0.5;" x1="829.5" x2="1091.5" y1="542.72" y2="542.72"/><line style="stroke:#181818;stroke-width:0.5;" x1="829.5" x2="1091.5" y1="550.72" y2="550.72"/><ellipse cx="839.5" cy="564.4641" fill="#84BE84" rx="3" ry="3" style="stroke:#038048;stroke-width:1.0;"/><text fill="#000000" font-family="sans-serif" font-size="14" lengthAdjust="spacing" textLength="238" x="848.5" y="568.2552">Cubo(_paiRef:Objeto, _rotulo:char)</text><ellipse cx="839.5" cy="580.9524" fill="#84BE84" rx="3" ry="3" style="stroke:#038048;stroke-width:1.0;"/><text fill="#000000" font-family="sans-serif" font-size="14" lengthAdjust="spacing" textLength="196" x="848.5" y="584.7434">&#171;override&#187; ToString() : string</text></g><!--class Ponto--><g id="elem_Ponto"><rect codeLine="1" fill="#F1F1F1" height="113.9531" id="Ponto" rx="2.5" ry="2.5" style="stroke:#181818;stroke-width:0.5;" width="361" x="1128" y="494.23"/><ellipse cx="1284.25" cy="510.23" fill="#ADD1B2" rx="11" ry="11" style="stroke:#181818;stroke-width:1.0;"/><path d="M1286.7231,516.3731 Q1286.1421,516.6719 1285.5029,516.8213 Q1284.8638,516.9707 1284.1582,516.9707 Q1281.6514,516.9707 1280.3315,515.3189 Q1279.0117,513.667 1279.0117,510.5459 Q1279.0117,507.4165 1280.3315,505.7647 Q1281.6514,504.1128 1284.1582,504.1128 Q1284.8638,504.1128 1285.5112,504.2622 Q1286.1587,504.4116 1286.7231,504.7105 L1286.7231,507.4331 Q1286.0923,506.8521 1285.4988,506.5823 Q1284.9053,506.3125 1284.2744,506.3125 Q1282.9297,506.3125 1282.2449,507.3792 Q1281.5601,508.4458 1281.5601,510.5459 Q1281.5601,512.6377 1282.2449,513.7044 Q1282.9297,514.771 1284.2744,514.771 Q1284.9053,514.771 1285.4988,514.5012 Q1286.0923,514.2315 1286.7231,513.6504 Z " fill="#000000"/><text fill="#000000" font-family="sans-serif" font-size="14" lengthAdjust="spacing" textLength="40" x="1304.75" y="515.521">Ponto</text><line style="stroke:#181818;stroke-width:0.5;" x1="1129" x2="1488" y1="526.23" y2="526.23"/><line style="stroke:#181818;stroke-width:0.5;" x1="1129" x2="1488" y1="534.23" y2="534.23"/><ellipse cx="1139" cy="547.9741" fill="#84BE84" rx="3" ry="3" style="stroke:#038048;stroke-width:1.0;"/><text fill="#000000" font-family="sans-serif" font-size="14" lengthAdjust="spacing" textLength="241" x="1148" y="551.7652">Ponto(_paiRef:Objeto, _rotulo:char)</text><ellipse cx="1139" cy="564.4624" fill="#84BE84" rx="3" ry="3" style="stroke:#038048;stroke-width:1.0;"/><text fill="#000000" font-family="sans-serif" font-size="14" lengthAdjust="spacing" textLength="335" x="1148" y="568.2534">Ponto(_paiRef:Objeto, _rotulo:char, pto:Ponto4D)</text><ellipse cx="1139" cy="580.9507" fill="#84BE84" rx="3" ry="3" style="stroke:#038048;stroke-width:1.0;"/><text fill="#000000" font-family="sans-serif" font-size="14" lengthAdjust="spacing" textLength="113" x="1148" y="584.7417">Atualizar() : void</text><ellipse cx="1139" cy="597.439" fill="#84BE84" rx="3" ry="3" style="stroke:#038048;stroke-width:1.0;"/><text fill="#000000" font-family="sans-serif" font-size="14" lengthAdjust="spacing" textLength="196" x="1148" y="601.23">&#171;override&#187; ToString() : string</text></g><!--class Program--><g id="elem_Program"><rect codeLine="1" fill="#F1F1F1" height="56.6211" id="Program" rx="2.5" ry="2.5" style="stroke:#181818;stroke-width:0.5;" width="91" x="1970" y="192.3"/><ellipse cx="1985" cy="212.6105" fill="#ADD1B2" rx="11" ry="11" style="stroke:#181818;stroke-width:1.0;"/><path d="M1987.4731,218.7536 Q1986.8921,219.0524 1986.2529,219.2019 Q1985.6138,219.3513 1984.9082,219.3513 Q1982.4014,219.3513 1981.0815,217.6994 Q1979.7617,216.0476 1979.7617,212.9265 Q1979.7617,209.7971 1981.0815,208.1452 Q1982.4014,206.4934 1984.9082,206.4934 Q1985.6138,206.4934 1986.2612,206.6428 Q1986.9087,206.7922 1987.4731,207.091 L1987.4731,209.8137 Q1986.8423,209.2326 1986.2488,208.9628 Q1985.6553,208.6931 1985.0244,208.6931 Q1983.6797,208.6931 1982.9949,209.7597 Q1982.3101,210.8264 1982.3101,212.9265 Q1982.3101,215.0183 1982.9949,216.0849 Q1983.6797,217.1516 1985.0244,217.1516 Q1985.6553,217.1516 1986.2488,216.8818 Q1986.8423,216.612 1987.4731,216.031 Z " fill="#000000"/><text fill="#000000" font-family="sans-serif" font-size="12" font-style="italic" lengthAdjust="spacing" textLength="42" x="2007.5" y="208.9016">&#171;static&#187;</text><text fill="#000000" font-family="sans-serif" font-size="14" lengthAdjust="spacing" textLength="59" x="1999" y="224.968">Program</text><line style="stroke:#181818;stroke-width:0.5;" x1="1971" x2="2060" y1="232.9211" y2="232.9211"/><line style="stroke:#181818;stroke-width:0.5;" x1="1971" x2="2060" y1="240.9211" y2="240.9211"/></g><!--reverse link Objeto to Poligono--><g id="link_Objeto_Poligono"><path codeLine="5" d="M501.801,390.3963 C429.921,438.6063 372.03,477.42 323.04,510.27 " fill="none" id="Objeto-backto-Poligono" style="stroke:#181818;stroke-width:1.0;"/><polygon fill="none" points="516.75,380.37,498.4589,385.4133,505.1431,395.3793,516.75,380.37" style="stroke:#181818;stroke-width:1.0;"/></g><!--reverse link GameWindow to Mundo--><g id="link_GameWindow_Mundo"><path codeLine="4" d="M1872.5,262.98 C1872.5,320.82 1872.5,452.73 1872.5,518.5 " fill="none" id="GameWindow-backto-Mundo" style="stroke:#181818;stroke-width:1.0;"/><polygon fill="none" points="1872.5,244.98,1866.5,262.98,1878.5,262.98,1872.5,244.98" style="stroke:#181818;stroke-width:1.0;"/></g><!--link Objeto to PrimitiveType--><g id="link_Objeto_PrimitiveType"><path codeLine="26" d="M664.8,434.35 C649.16,471.86 637.3806,500.1328 628.5006,521.4128 " fill="none" id="Objeto-to-PrimitiveType" style="stroke:#181818;stroke-width:1.0;"/><polygon fill="#181818" points="626.19,526.95,633.3475,520.1846,628.1155,522.3356,625.9645,517.1037,626.19,526.95" style="stroke:#181818;stroke-width:1.0;"/><text fill="#000000" font-family="sans-serif" font-size="13" lengthAdjust="spacing" textLength="83" x="535.0387" y="516.4222">PrimitivaTipo</text></g><!--link Objeto to Shader--><g id="link_Objeto_Shader"><path codeLine="27" d="M753.5,434.35 C753.5,471.86 753.5,499.67 753.5,520.95 " fill="none" id="Objeto-to-Shader" style="stroke:#181818;stroke-width:1.0;"/><polygon fill="#181818" points="753.5,526.95,757.5,517.95,753.5,521.95,749.5,517.95,753.5,526.95" style="stroke:#181818;stroke-width:1.0;"/><text fill="#000000" font-family="sans-serif" font-size="13" lengthAdjust="spacing" textLength="64" x="681.3" y="516.4222">shaderCor</text></g><!--reverse link Objeto to Cubo--><g id="link_Objeto_Cubo"><path codeLine="5" d="M897.113,449.5807 C915.303,478.4607 922.51,489.91 935.4,510.37 " fill="none" id="Objeto-backto-Cubo" style="stroke:#181818;stroke-width:1.0;"/><polygon fill="none" points="887.52,434.35,892.0361,452.7784,902.1899,446.383,887.52,434.35" style="stroke:#181818;stroke-width:1.0;"/></g><!--reverse link Objeto to Ponto--><g id="link_Objeto_Ponto"><path codeLine="7" d="M1005.9696,371.0891 C1084.4896,417.5691 1151.94,457.51 1213.42,493.91 " fill="none" id="Objeto-backto-Ponto" style="stroke:#181818;stroke-width:1.0;"/><polygon fill="none" points="990.48,361.92,1002.9132,376.2523,1009.026,365.9259,990.48,361.92" style="stroke:#181818;stroke-width:1.0;"/></g><!--SRC=[dOwx2i8m58PtdyBkaZW8TN48iOY3jOEu5cEF9IKv9-GY-lOwwH2ruFhz5xv2uzca3gQCDsHqJqZC9MicnJlO9UnokbS3n1pBf7BO47weDfvwVx8P9pNmDQZKSuIuP7FEwkeWoODmRdO47pJXwleCc0W1h39t4QFNAaK8usToqzQBjhg1TOPU3rkyqEzj-Ksa_4Ea71Tv0000]--></g></svg>