<?xml version="1.0" encoding="us-ascii" standalone="no"?><svg xmlns="http://www.w3.org/2000/svg" xmlns:xlink="http://www.w3.org/1999/xlink" contentStyleType="text/css" height="186px" preserveAspectRatio="none" style="width:710px;height:186px;background:#FFFFFF;" version="1.1" viewBox="0 0 710 186" width="710px" zoomAndPan="magnify"><defs/><g><!--class Mundo--><g id="elem_Mundo"><rect codeLine="1" fill="#F1F1F1" height="64.4883" id="Mundo" rx="2.5" ry="2.5" style="stroke:#181818;stroke-width:0.5;" width="696" x="7" y="115"/><ellipse cx="326.75" cy="131" fill="#ADD1B2" rx="11" ry="11" style="stroke:#181818;stroke-width:1.0;"/><path d="M329.2231,137.1431 Q328.6421,137.4419 328.0029,137.5913 Q327.3638,137.7407 326.6582,137.7407 Q324.1514,137.7407 322.8315,136.0889 Q321.5117,134.437 321.5117,131.3159 Q321.5117,128.1865 322.8315,126.5347 Q324.1514,124.8828 326.6582,124.8828 Q327.3638,124.8828 328.0112,125.0322 Q328.6587,125.1816 329.2231,125.4805 L329.2231,128.2031 Q328.5923,127.6221 327.9988,127.3523 Q327.4053,127.0825 326.7744,127.0825 Q325.4297,127.0825 324.7449,128.1492 Q324.0601,129.2158 324.0601,131.3159 Q324.0601,133.4077 324.7449,134.4744 Q325.4297,135.541 326.7744,135.541 Q327.4053,135.541 327.9988,135.2712 Q328.5923,135.0015 329.2231,134.4204 Z " fill="#000000"/><text fill="#000000" font-family="sans-serif" font-size="14" lengthAdjust="spacing" textLength="48" x="347.25" y="136.291">Mundo</text><line style="stroke:#181818;stroke-width:0.5;" x1="8" x2="702" y1="147" y2="147"/><line style="stroke:#181818;stroke-width:0.5;" x1="8" x2="702" y1="155" y2="155"/><ellipse cx="18" cy="168.7441" fill="#84BE84" rx="3" ry="3" style="stroke:#038048;stroke-width:1.0;"/><text fill="#000000" font-family="sans-serif" font-size="14" lengthAdjust="spacing" textLength="670" x="27" y="172.5352">Mundo(gameWindowSettings:GameWindowSettings, nativeWindowSettings:NativeWindowSettings)</text></g><!--class GameWindow--><g id="elem_GameWindow"><rect fill="#F1F1F1" height="48" id="GameWindow" rx="2.5" ry="2.5" style="stroke:#181818;stroke-width:0.5;" width="125" x="292.5" y="7"/><ellipse cx="307.5" cy="23" fill="#ADD1B2" rx="11" ry="11" style="stroke:#181818;stroke-width:1.0;"/><path d="M309.9731,29.1431 Q309.3921,29.4419 308.7529,29.5913 Q308.1138,29.7407 307.4082,29.7407 Q304.9014,29.7407 303.5815,28.0889 Q302.2617,26.437 302.2617,23.3159 Q302.2617,20.1865 303.5815,18.5347 Q304.9014,16.8828 307.4082,16.8828 Q308.1138,16.8828 308.7612,17.0322 Q309.4087,17.1816 309.9731,17.4805 L309.9731,20.2031 Q309.3423,19.6221 308.7488,19.3523 Q308.1553,19.0825 307.5244,19.0825 Q306.1797,19.0825 305.4949,20.1492 Q304.8101,21.2158 304.8101,23.3159 Q304.8101,25.4077 305.4949,26.4744 Q306.1797,27.541 307.5244,27.541 Q308.1553,27.541 308.7488,27.2712 Q309.3423,27.0015 309.9731,26.4204 Z " fill="#000000"/><text fill="#000000" font-family="sans-serif" font-size="14" lengthAdjust="spacing" textLength="93" x="321.5" y="28.291">GameWindow</text><line style="stroke:#181818;stroke-width:0.5;" x1="293.5" x2="416.5" y1="39" y2="39"/><line style="stroke:#181818;stroke-width:0.5;" x1="293.5" x2="416.5" y1="47" y2="47"/></g><!--reverse link GameWindow to Mundo--><g id="link_GameWindow_Mundo"><path codeLine="4" d="M355,73.4 C355,90.5 355,95.89 355,114.65 " fill="none" id="GameWindow-backto-Mundo" style="stroke:#181818;stroke-width:1.0;"/><polygon fill="none" points="355,55.4,349,73.4,361,73.4,355,55.4" style="stroke:#181818;stroke-width:1.0;"/></g><!--SRC=[Iyv9B2vMy2tDIybNgEPI009j24yZFJ4tDJmJo2eFJYqfoSnBBxPonn3IKSXBBCaiGrVeXqLGawkM2s60WasDhYx49W00]--></g></svg>