<?xml version="1.0" encoding="us-ascii" standalone="no"?><svg xmlns="http://www.w3.org/2000/svg" xmlns:xlink="http://www.w3.org/1999/xlink" contentStyleType="text/css" height="549px" preserveAspectRatio="none" style="width:487px;height:549px;background:#FFFFFF;" version="1.1" viewBox="0 0 487 549" width="487px" zoomAndPan="magnify"><defs/><g><!--class Objeto--><g id="elem_Objeto"><rect codeLine="1" fill="#F1F1F1" height="427.2305" id="Objeto" rx="2.5" ry="2.5" style="stroke:#181818;stroke-width:0.5;" width="473" x="7" y="7"/><ellipse cx="216.25" cy="23" fill="#ADD1B2" rx="11" ry="11" style="stroke:#181818;stroke-width:1.0;"/><path d="M218.7231,29.1431 Q218.1421,29.4419 217.5029,29.5913 Q216.8638,29.7407 216.1582,29.7407 Q213.6514,29.7407 212.3315,28.0889 Q211.0117,26.437 211.0117,23.3159 Q211.0117,20.1865 212.3315,18.5347 Q213.6514,16.8828 216.1582,16.8828 Q216.8638,16.8828 217.5112,17.0322 Q218.1587,17.1816 218.7231,17.4805 L218.7231,20.2031 Q218.0923,19.6221 217.4988,19.3523 Q216.9053,19.0825 216.2744,19.0825 Q214.9297,19.0825 214.2449,20.1492 Q213.5601,21.2158 213.5601,23.3159 Q213.5601,25.4077 214.2449,26.4744 Q214.9297,27.541 216.2744,27.541 Q216.9053,27.541 217.4988,27.2712 Q218.0923,27.0015 218.7231,26.4204 Z " fill="#000000"/><text fill="#000000" font-family="sans-serif" font-size="14" lengthAdjust="spacing" textLength="46" x="236.75" y="28.291">Objeto</text><line style="stroke:#181818;stroke-width:0.5;" x1="8" x2="479" y1="39" y2="39"/><ellipse cx="18" cy="52.7441" fill="none" rx="3" ry="3" style="stroke:#038048;stroke-width:1.0;"/><text fill="#000000" font-family="sans-serif" font-size="14" lengthAdjust="spacing" textLength="127" x="27" y="56.5352">Rotulo : char &#171;get&#187;</text><ellipse cx="18" cy="69.2324" fill="none" rx="3" ry="3" style="stroke:#038048;stroke-width:1.0;"/><text fill="#000000" font-family="sans-serif" font-size="14" lengthAdjust="spacing" textLength="245" x="27" y="73.0234">PrimitivaTamanho : float &#171;get&#187; &#171;set&#187;</text><line style="stroke:#181818;stroke-width:0.5;" x1="8" x2="479" y1="79.9766" y2="79.9766"/><ellipse cx="18" cy="93.7207" fill="#84BE84" rx="3" ry="3" style="stroke:#038048;stroke-width:1.0;"/><text fill="#000000" font-family="sans-serif" font-size="14" lengthAdjust="spacing" textLength="91" x="27" y="97.5117">Bbox() : BBox</text><ellipse cx="18" cy="110.209" fill="#84BE84" rx="3" ry="3" style="stroke:#038048;stroke-width:1.0;"/><text fill="#000000" font-family="sans-serif" font-size="14" lengthAdjust="spacing" textLength="239" x="27" y="114">TrocaEixoRotacao(eixo:char) : void</text><ellipse cx="18" cy="126.6973" fill="#84BE84" rx="3" ry="3" style="stroke:#038048;stroke-width:1.0;"/><text fill="#000000" font-family="sans-serif" font-size="14" lengthAdjust="spacing" textLength="383" x="27" y="130.4883">Objeto(_paiRef:Objeto, _rotulo:char, objetoFilho:Objeto)</text><ellipse cx="18" cy="143.1855" fill="#84BE84" rx="3" ry="3" style="stroke:#038048;stroke-width:1.0;"/><text fill="#000000" font-family="sans-serif" font-size="14" lengthAdjust="spacing" textLength="159" x="27" y="146.9766">ObjetoAtualizar() : void</text><ellipse cx="18" cy="159.6738" fill="#84BE84" rx="3" ry="3" style="stroke:#038048;stroke-width:1.0;"/><text fill="#000000" font-family="sans-serif" font-size="14" lengthAdjust="spacing" textLength="447" x="27" y="163.4648">Desenhar(matrizGrafo:Transformacao4D, _camera:Camera) : void</text><ellipse cx="18" cy="176.1621" fill="#84BE84" rx="3" ry="3" style="stroke:#038048;stroke-width:1.0;"/><text fill="#000000" font-family="sans-serif" font-size="14" lengthAdjust="spacing" textLength="232" x="27" y="179.9531">FilhoAdicionar(filho:Objeto) : void</text><ellipse cx="18" cy="192.6504" fill="#84BE84" rx="3" ry="3" style="stroke:#038048;stroke-width:1.0;"/><text fill="#000000" font-family="sans-serif" font-size="14" lengthAdjust="spacing" textLength="176" x="27" y="196.4414">PontosId(id:int) : Ponto4D</text><ellipse cx="18" cy="209.1387" fill="#84BE84" rx="3" ry="3" style="stroke:#038048;stroke-width:1.0;"/><text fill="#000000" font-family="sans-serif" font-size="14" lengthAdjust="spacing" textLength="250" x="27" y="212.9297">PontosAdicionar(pto:Ponto4D) : void</text><ellipse cx="18" cy="225.627" fill="#84BE84" rx="3" ry="3" style="stroke:#038048;stroke-width:1.0;"/><text fill="#000000" font-family="sans-serif" font-size="14" lengthAdjust="spacing" textLength="314" x="27" y="229.418">PontosAlterar(pto:Ponto4D, posicao:int) : void</text><ellipse cx="18" cy="242.1152" fill="#84BE84" rx="3" ry="3" style="stroke:#038048;stroke-width:1.0;"/><text fill="#000000" font-family="sans-serif" font-size="14" lengthAdjust="spacing" textLength="260" x="27" y="245.9063">GrafocenaBusca(_rotulo:char) : Objeto</text><ellipse cx="18" cy="258.6035" fill="#84BE84" rx="3" ry="3" style="stroke:#038048;stroke-width:1.0;"/><text fill="#000000" font-family="sans-serif" font-size="14" lengthAdjust="spacing" textLength="365" x="27" y="262.3945">GrafocenaBuscaProximo(objetoAtual:Objeto) : Objeto</text><ellipse cx="18" cy="275.0918" fill="#84BE84" rx="3" ry="3" style="stroke:#038048;stroke-width:1.0;"/><text fill="#000000" font-family="sans-serif" font-size="14" lengthAdjust="spacing" textLength="243" x="27" y="278.8828">GrafocenaImprimir(idt:String) : void</text><ellipse cx="18" cy="291.5801" fill="#84BE84" rx="3" ry="3" style="stroke:#038048;stroke-width:1.0;"/><text fill="#000000" font-family="sans-serif" font-size="14" lengthAdjust="spacing" textLength="153" x="27" y="295.3711">MatrizImprimir() : void</text><ellipse cx="18" cy="308.0684" fill="#84BE84" rx="3" ry="3" style="stroke:#038048;stroke-width:1.0;"/><text fill="#000000" font-family="sans-serif" font-size="14" lengthAdjust="spacing" textLength="220" x="27" y="311.8594">MatrizAtribuirIdentidade() : void</text><ellipse cx="18" cy="324.5566" fill="#84BE84" rx="3" ry="3" style="stroke:#038048;stroke-width:1.0;"/><text fill="#000000" font-family="sans-serif" font-size="14" lengthAdjust="spacing" textLength="406" x="27" y="328.3477">MatrizTranslacaoXYZ(tx:double, ty:double, tz:double) : void</text><ellipse cx="18" cy="341.0449" fill="#84BE84" rx="3" ry="3" style="stroke:#038048;stroke-width:1.0;"/><text fill="#000000" font-family="sans-serif" font-size="14" lengthAdjust="spacing" textLength="382" x="27" y="344.8359">MatrizEscalaXYZ(Sx:double, Sy:double, Sz:double) : void</text><ellipse cx="18" cy="357.5332" fill="#84BE84" rx="3" ry="3" style="stroke:#038048;stroke-width:1.0;"/><text fill="#000000" font-family="sans-serif" font-size="14" lengthAdjust="spacing" textLength="416" x="27" y="361.3242">MatrizEscalaXYZBBox(Sx:double, Sy:double, Sz:double) : void</text><ellipse cx="18" cy="374.0215" fill="#84BE84" rx="3" ry="3" style="stroke:#038048;stroke-width:1.0;"/><text fill="#000000" font-family="sans-serif" font-size="14" lengthAdjust="spacing" textLength="279" x="27" y="377.8125">MatrizRotacaoEixo(angulo:double) : void</text><ellipse cx="18" cy="390.5098" fill="#84BE84" rx="3" ry="3" style="stroke:#038048;stroke-width:1.0;"/><text fill="#000000" font-family="sans-serif" font-size="14" lengthAdjust="spacing" textLength="249" x="27" y="394.3008">MatrizRotacao(angulo:double) : void</text><ellipse cx="18" cy="406.998" fill="#84BE84" rx="3" ry="3" style="stroke:#038048;stroke-width:1.0;"/><text fill="#000000" font-family="sans-serif" font-size="14" lengthAdjust="spacing" textLength="291" x="27" y="410.7891">MatrizRotacaoZBBox(angulo:double) : void</text><ellipse cx="18" cy="423.4863" fill="#84BE84" rx="3" ry="3" style="stroke:#038048;stroke-width:1.0;"/><text fill="#000000" font-family="sans-serif" font-size="14" lengthAdjust="spacing" textLength="120" x="27" y="427.2773">OnUnload() : void</text></g><!--class PrimitiveType--><g id="elem_PrimitiveType"><rect fill="#F1F1F1" height="48" id="PrimitiveType" rx="2.5" ry="2.5" style="stroke:#181818;stroke-width:0.5;" width="124" x="113.5" y="494.23"/><ellipse cx="128.5" cy="510.23" fill="#ADD1B2" rx="11" ry="11" style="stroke:#181818;stroke-width:1.0;"/><path d="M130.9731,516.3731 Q130.3921,516.6719 129.7529,516.8213 Q129.1138,516.9707 128.4082,516.9707 Q125.9014,516.9707 124.5815,515.3189 Q123.2617,513.667 123.2617,510.5459 Q123.2617,507.4165 124.5815,505.7647 Q125.9014,504.1128 128.4082,504.1128 Q129.1138,504.1128 129.7612,504.2622 Q130.4087,504.4116 130.9731,504.7105 L130.9731,507.4331 Q130.3423,506.8521 129.7488,506.5823 Q129.1553,506.3125 128.5244,506.3125 Q127.1797,506.3125 126.4949,507.3792 Q125.8101,508.4458 125.8101,510.5459 Q125.8101,512.6377 126.4949,513.7044 Q127.1797,514.771 128.5244,514.771 Q129.1553,514.771 129.7488,514.5012 Q130.3423,514.2315 130.9731,513.6504 Z " fill="#000000"/><text fill="#000000" font-family="sans-serif" font-size="14" lengthAdjust="spacing" textLength="92" x="142.5" y="515.521">PrimitiveType</text><line style="stroke:#181818;stroke-width:0.5;" x1="114.5" x2="236.5" y1="526.23" y2="526.23"/><line style="stroke:#181818;stroke-width:0.5;" x1="114.5" x2="236.5" y1="534.23" y2="534.23"/></g><!--class Shader--><g id="elem_Shader"><rect fill="#F1F1F1" height="48" id="Shader" rx="2.5" ry="2.5" style="stroke:#181818;stroke-width:0.5;" width="80" x="272.5" y="494.23"/><ellipse cx="287.5" cy="510.23" fill="#ADD1B2" rx="11" ry="11" style="stroke:#181818;stroke-width:1.0;"/><path d="M289.9731,516.3731 Q289.3921,516.6719 288.7529,516.8213 Q288.1138,516.9707 287.4082,516.9707 Q284.9014,516.9707 283.5815,515.3189 Q282.2617,513.667 282.2617,510.5459 Q282.2617,507.4165 283.5815,505.7647 Q284.9014,504.1128 287.4082,504.1128 Q288.1138,504.1128 288.7612,504.2622 Q289.4087,504.4116 289.9731,504.7105 L289.9731,507.4331 Q289.3423,506.8521 288.7488,506.5823 Q288.1553,506.3125 287.5244,506.3125 Q286.1797,506.3125 285.4949,507.3792 Q284.8101,508.4458 284.8101,510.5459 Q284.8101,512.6377 285.4949,513.7044 Q286.1797,514.771 287.5244,514.771 Q288.1553,514.771 288.7488,514.5012 Q289.3423,514.2315 289.9731,513.6504 Z " fill="#000000"/><text fill="#000000" font-family="sans-serif" font-size="14" lengthAdjust="spacing" textLength="48" x="301.5" y="515.521">Shader</text><line style="stroke:#181818;stroke-width:0.5;" x1="273.5" x2="351.5" y1="526.23" y2="526.23"/><line style="stroke:#181818;stroke-width:0.5;" x1="273.5" x2="351.5" y1="534.23" y2="534.23"/></g><!--link Objeto to PrimitiveType--><g id="link_Objeto_PrimitiveType"><path codeLine="26" d="M194.53,434.49 C189.11,458.08 185.6657,473.0529 182.2457,487.9129 " fill="none" id="Objeto-to-PrimitiveType" style="stroke:#181818;stroke-width:1.0;"/><polygon fill="#181818" points="180.9,493.76,186.8167,485.8864,182.0214,488.8874,179.0205,484.0921,180.9,493.76" style="stroke:#181818;stroke-width:1.0;"/><text fill="#000000" font-family="sans-serif" font-size="13" lengthAdjust="spacing" textLength="83" x="89.1006" y="483.5735">PrimitivaTipo</text></g><!--link Objeto to Shader--><g id="link_Objeto_Shader"><path codeLine="27" d="M293.19,434.49 C298.69,458.08 302.1856,473.0572 305.6556,487.9172 " fill="none" id="Objeto-to-Shader" style="stroke:#181818;stroke-width:1.0;"/><polygon fill="#181818" points="307.02,493.76,308.8687,484.0862,305.883,488.891,301.0782,485.9054,307.02,493.76" style="stroke:#181818;stroke-width:1.0;"/><text fill="#000000" font-family="sans-serif" font-size="13" lengthAdjust="spacing" textLength="64" x="237.664" y="483.4601">shaderCor</text></g><!--SRC=[dPHDJ-Cm48Rl_0gh9wCjDquMgjHIG3sig4XNOlU2fh7JpihnHBQ3GbVxtx7TG98g0aGEoSH-PkQTyKUkmJbsl_shFB5_PomyFzW3-LeJ4opVWsLNLplbPxDsRcsnH8_Fi84Ip3vIXIRmRrZukXw-s5B3pmEqM53JZcqivN233OKya0Dn5MmHSqNmcL2su54MVwe07rGXZhzJzcIJlkGnPPH6Rr7lgINE1-vpNuF60rX-4dsfd38X12_1MppSMIX8R2mOLv0jex3BPKYMGwaiYElqEGcHiiubvaWc12hw8eRacemdjv8SfK3ZusmQkbmEW2vMvKcqn6YekVP1pu2RieeS1jrl6NfEgRfS6LZKBWVURs4aZvf7sRMb1alYr7MpL-AuuwgiuZQneLelij1TiplHypFr_9qRdPs7rxP6kvBAU9GWrJYNrap71Nly_OVxHaYgjrfDcN_fp4DhZaQu2NLgYDvPvvrrtjdNlECU_rQ4zY34Cy71xEBAV4v_dJmA-mY_DxzCECMoQ_3_i_PIkBYOiKbtwh6YoVibe3OlbHg0RX-MoLwJdR0icQy0]--></g></svg>