<?xml version="1.0" encoding="us-ascii" standalone="no"?><svg xmlns="http://www.w3.org/2000/svg" xmlns:xlink="http://www.w3.org/1999/xlink" contentStyleType="text/css" height="235px" preserveAspectRatio="none" style="width:375px;height:235px;background:#FFFFFF;" version="1.1" viewBox="0 0 375 235" width="375px" zoomAndPan="magnify"><defs/><g><!--class Ponto--><g id="elem_Ponto"><rect codeLine="1" fill="#F1F1F1" height="113.9531" id="Ponto" rx="2.5" ry="2.5" style="stroke:#181818;stroke-width:0.5;" width="361" x="7" y="115"/><ellipse cx="163.25" cy="131" fill="#ADD1B2" rx="11" ry="11" style="stroke:#181818;stroke-width:1.0;"/><path d="M165.7231,137.1431 Q165.1421,137.4419 164.5029,137.5913 Q163.8638,137.7407 163.1582,137.7407 Q160.6514,137.7407 159.3315,136.0889 Q158.0117,134.437 158.0117,131.3159 Q158.0117,128.1865 159.3315,126.5347 Q160.6514,124.8828 163.1582,124.8828 Q163.8638,124.8828 164.5112,125.0322 Q165.1587,125.1816 165.7231,125.4805 L165.7231,128.2031 Q165.0923,127.6221 164.4988,127.3523 Q163.9053,127.0825 163.2744,127.0825 Q161.9297,127.0825 161.2449,128.1492 Q160.5601,129.2158 160.5601,131.3159 Q160.5601,133.4077 161.2449,134.4744 Q161.9297,135.541 163.2744,135.541 Q163.9053,135.541 164.4988,135.2712 Q165.0923,135.0015 165.7231,134.4204 Z " fill="#000000"/><text fill="#000000" font-family="sans-serif" font-size="14" lengthAdjust="spacing" textLength="40" x="183.75" y="136.291">Ponto</text><line style="stroke:#181818;stroke-width:0.5;" x1="8" x2="367" y1="147" y2="147"/><line style="stroke:#181818;stroke-width:0.5;" x1="8" x2="367" y1="155" y2="155"/><ellipse cx="18" cy="168.7441" fill="#84BE84" rx="3" ry="3" style="stroke:#038048;stroke-width:1.0;"/><text fill="#000000" font-family="sans-serif" font-size="14" lengthAdjust="spacing" textLength="241" x="27" y="172.5352">Ponto(_paiRef:Objeto, _rotulo:char)</text><ellipse cx="18" cy="185.2324" fill="#84BE84" rx="3" ry="3" style="stroke:#038048;stroke-width:1.0;"/><text fill="#000000" font-family="sans-serif" font-size="14" lengthAdjust="spacing" textLength="335" x="27" y="189.0234">Ponto(_paiRef:Objeto, _rotulo:char, pto:Ponto4D)</text><ellipse cx="18" cy="201.7207" fill="#84BE84" rx="3" ry="3" style="stroke:#038048;stroke-width:1.0;"/><text fill="#000000" font-family="sans-serif" font-size="14" lengthAdjust="spacing" textLength="113" x="27" y="205.5117">Atualizar() : void</text><ellipse cx="18" cy="218.209" fill="#84BE84" rx="3" ry="3" style="stroke:#038048;stroke-width:1.0;"/><text fill="#000000" font-family="sans-serif" font-size="14" lengthAdjust="spacing" textLength="196" x="27" y="222">&#171;override&#187; ToString() : string</text></g><!--class Objeto--><g id="elem_Objeto"><rect fill="#F1F1F1" height="48" id="Objeto" rx="2.5" ry="2.5" style="stroke:#181818;stroke-width:0.5;" width="78" x="148.5" y="7"/><ellipse cx="163.5" cy="23" fill="#ADD1B2" rx="11" ry="11" style="stroke:#181818;stroke-width:1.0;"/><path d="M165.9731,29.1431 Q165.3921,29.4419 164.7529,29.5913 Q164.1138,29.7407 163.4082,29.7407 Q160.9014,29.7407 159.5815,28.0889 Q158.2617,26.437 158.2617,23.3159 Q158.2617,20.1865 159.5815,18.5347 Q160.9014,16.8828 163.4082,16.8828 Q164.1138,16.8828 164.7612,17.0322 Q165.4087,17.1816 165.9731,17.4805 L165.9731,20.2031 Q165.3423,19.6221 164.7488,19.3523 Q164.1553,19.0825 163.5244,19.0825 Q162.1797,19.0825 161.4949,20.1492 Q160.8101,21.2158 160.8101,23.3159 Q160.8101,25.4077 161.4949,26.4744 Q162.1797,27.541 163.5244,27.541 Q164.1553,27.541 164.7488,27.2712 Q165.3423,27.0015 165.9731,26.4204 Z " fill="#000000"/><text fill="#000000" font-family="sans-serif" font-size="14" lengthAdjust="spacing" textLength="46" x="177.5" y="28.291">Objeto</text><line style="stroke:#181818;stroke-width:0.5;" x1="149.5" x2="225.5" y1="39" y2="39"/><line style="stroke:#181818;stroke-width:0.5;" x1="149.5" x2="225.5" y1="47" y2="47"/></g><!--reverse link Objeto to Ponto--><g id="link_Objeto_Ponto"><path codeLine="7" d="M187.5,73.26 C187.5,89.49 187.5,93.87 187.5,114.63 " fill="none" id="Objeto-backto-Ponto" style="stroke:#181818;stroke-width:1.0;"/><polygon fill="none" points="187.5,55.26,181.5,73.26,193.5,73.26,187.5,55.26" style="stroke:#181818;stroke-width:1.0;"/></g><!--SRC=[Iyv9B2vM2CZFAybNgEPI009j24yZlY0nCoWrpSe_AIkr95z78RuelwGq9zygEIEnI9DebJeA1INvLc1r9YumROubfOavcLM9HHgQ2bOAPVcPAL096vlyijIYeioKL3ixXP3yu9AYpBnqiA9YC9EhbWjYYO9DZQukn7e0]--></g></svg>