<?xml version="1.0" encoding="us-ascii" standalone="no"?><svg xmlns="http://www.w3.org/2000/svg" xmlns:xlink="http://www.w3.org/1999/xlink" contentStyleType="text/css" height="195px" preserveAspectRatio="none" style="width:716px;height:195px;background:#FFFFFF;" version="1.1" viewBox="0 0 716 195" width="716px" zoomAndPan="magnify"><defs/><g><!--class Window--><g id="elem_Window"><rect codeLine="1" fill="#F1F1F1" height="64.4883" id="Window" rx="2.5" ry="2.5" style="stroke:#181818;stroke-width:0.5;" width="702" x="7" y="123.62"/><ellipse cx="326.75" cy="139.62" fill="#ADD1B2" rx="11" ry="11" style="stroke:#181818;stroke-width:1.0;"/><path d="M329.2231,145.7631 Q328.6421,146.0619 328.0029,146.2113 Q327.3638,146.3607 326.6582,146.3607 Q324.1514,146.3607 322.8315,144.7089 Q321.5117,143.057 321.5117,139.9359 Q321.5117,136.8065 322.8315,135.1547 Q324.1514,133.5028 326.6582,133.5028 Q327.3638,133.5028 328.0112,133.6522 Q328.6587,133.8016 329.2231,134.1005 L329.2231,136.8231 Q328.5923,136.2421 327.9988,135.9723 Q327.4053,135.7025 326.7744,135.7025 Q325.4297,135.7025 324.7449,136.7692 Q324.0601,137.8358 324.0601,139.9359 Q324.0601,142.0277 324.7449,143.0944 Q325.4297,144.161 326.7744,144.161 Q327.4053,144.161 327.9988,143.8912 Q328.5923,143.6215 329.2231,143.0404 Z " fill="#000000"/><text fill="#000000" font-family="sans-serif" font-size="14" lengthAdjust="spacing" textLength="54" x="347.25" y="144.911">Window</text><line style="stroke:#181818;stroke-width:0.5;" x1="8" x2="708" y1="155.62" y2="155.62"/><line style="stroke:#181818;stroke-width:0.5;" x1="8" x2="708" y1="163.62" y2="163.62"/><ellipse cx="18" cy="177.3641" fill="#84BE84" rx="3" ry="3" style="stroke:#038048;stroke-width:1.0;"/><text fill="#000000" font-family="sans-serif" font-size="14" lengthAdjust="spacing" textLength="676" x="27" y="181.1552">Window(gameWindowSettings:GameWindowSettings, nativeWindowSettings:NativeWindowSettings)</text></g><!--class GameWindow--><g id="elem_GameWindow"><rect fill="#F1F1F1" height="48" id="GameWindow" rx="2.5" ry="2.5" style="stroke:#181818;stroke-width:0.5;" width="125" x="295.5" y="11.31"/><ellipse cx="310.5" cy="27.31" fill="#ADD1B2" rx="11" ry="11" style="stroke:#181818;stroke-width:1.0;"/><path d="M312.9731,33.4531 Q312.3921,33.7519 311.7529,33.9013 Q311.1138,34.0507 310.4082,34.0507 Q307.9014,34.0507 306.5815,32.3989 Q305.2617,30.747 305.2617,27.6259 Q305.2617,24.4965 306.5815,22.8447 Q307.9014,21.1928 310.4082,21.1928 Q311.1138,21.1928 311.7612,21.3422 Q312.4087,21.4916 312.9731,21.7905 L312.9731,24.5131 Q312.3423,23.9321 311.7488,23.6623 Q311.1553,23.3925 310.5244,23.3925 Q309.1797,23.3925 308.4949,24.4592 Q307.8101,25.5258 307.8101,27.6259 Q307.8101,29.7177 308.4949,30.7844 Q309.1797,31.851 310.5244,31.851 Q311.1553,31.851 311.7488,31.5812 Q312.3423,31.3115 312.9731,30.7304 Z " fill="#000000"/><text fill="#000000" font-family="sans-serif" font-size="14" lengthAdjust="spacing" textLength="93" x="324.5" y="32.601">GameWindow</text><line style="stroke:#181818;stroke-width:0.5;" x1="296.5" x2="419.5" y1="43.31" y2="43.31"/><line style="stroke:#181818;stroke-width:0.5;" x1="296.5" x2="419.5" y1="51.31" y2="51.31"/></g><!--class Program--><g id="elem_Program"><rect codeLine="1" fill="#F1F1F1" height="56.6211" id="Program" rx="2.5" ry="2.5" style="stroke:#181818;stroke-width:0.5;" width="91" x="455.5" y="7"/><ellipse cx="470.5" cy="27.3105" fill="#ADD1B2" rx="11" ry="11" style="stroke:#181818;stroke-width:1.0;"/><path d="M472.9731,33.4536 Q472.3921,33.7524 471.7529,33.9019 Q471.1138,34.0513 470.4082,34.0513 Q467.9014,34.0513 466.5815,32.3994 Q465.2617,30.7476 465.2617,27.6265 Q465.2617,24.4971 466.5815,22.8452 Q467.9014,21.1934 470.4082,21.1934 Q471.1138,21.1934 471.7612,21.3428 Q472.4087,21.4922 472.9731,21.791 L472.9731,24.5137 Q472.3423,23.9326 471.7488,23.6628 Q471.1553,23.3931 470.5244,23.3931 Q469.1797,23.3931 468.4949,24.4597 Q467.8101,25.5264 467.8101,27.6265 Q467.8101,29.7183 468.4949,30.7849 Q469.1797,31.8516 470.5244,31.8516 Q471.1553,31.8516 471.7488,31.5818 Q472.3423,31.312 472.9731,30.731 Z " fill="#000000"/><text fill="#000000" font-family="sans-serif" font-size="12" font-style="italic" lengthAdjust="spacing" textLength="42" x="493" y="23.6016">&#171;static&#187;</text><text fill="#000000" font-family="sans-serif" font-size="14" lengthAdjust="spacing" textLength="59" x="484.5" y="39.668">Program</text><line style="stroke:#181818;stroke-width:0.5;" x1="456.5" x2="545.5" y1="47.6211" y2="47.6211"/><line style="stroke:#181818;stroke-width:0.5;" x1="456.5" x2="545.5" y1="55.6211" y2="55.6211"/></g><!--reverse link GameWindow to Window--><g id="link_GameWindow_Window"><path codeLine="4" d="M358,77.73 C358,95.95 358,103.41 358,123.41 " fill="none" id="GameWindow-backto-Window" style="stroke:#181818;stroke-width:1.0;"/><polygon fill="none" points="358,59.73,352,77.73,364,77.73,358,59.73" style="stroke:#181818;stroke-width:1.0;"/></g><!--SRC=[KypCIyufJKbLqDCFpynBoI_NAoZDpU5IH0W75EMd5oNcOeZd9sNfkwGcbQRhvwMMMEWPwElvkOOuvnUbEXOKw8Ib5XLdvkVPbW4bz1oBYrDpat8g7KjAYZAJIajIYmaRPgZhN9IQM9APb-u8THVC5C-yj7omVW00]--></g></svg>