<?xml version="1.0" encoding="us-ascii" standalone="no"?><svg xmlns="http://www.w3.org/2000/svg" xmlns:xlink="http://www.w3.org/1999/xlink" contentStyleType="text/css" height="367px" preserveAspectRatio="none" style="width:416px;height:367px;background:#FFFFFF;" version="1.1" viewBox="0 0 416 367" width="416px" zoomAndPan="magnify"><defs/><g><!--class Objeto--><g id="elem_Objeto"><rect codeLine="1" fill="#F1F1F1" height="245.8594" id="Objeto" rx="2.5" ry="2.5" style="stroke:#181818;stroke-width:0.5;" width="402" x="7" y="7"/><ellipse cx="180.75" cy="23" fill="#ADD1B2" rx="11" ry="11" style="stroke:#181818;stroke-width:1.0;"/><path d="M183.2231,29.1431 Q182.6421,29.4419 182.0029,29.5913 Q181.3638,29.7407 180.6582,29.7407 Q178.1514,29.7407 176.8315,28.0889 Q175.5117,26.437 175.5117,23.3159 Q175.5117,20.1865 176.8315,18.5347 Q178.1514,16.8828 180.6582,16.8828 Q181.3638,16.8828 182.0112,17.0322 Q182.6587,17.1816 183.2231,17.4805 L183.2231,20.2031 Q182.5923,19.6221 181.9988,19.3523 Q181.4053,19.0825 180.7744,19.0825 Q179.4297,19.0825 178.7449,20.1492 Q178.0601,21.2158 178.0601,23.3159 Q178.0601,25.4077 178.7449,26.4744 Q179.4297,27.541 180.7744,27.541 Q181.4053,27.541 181.9988,27.2712 Q182.5923,27.0015 183.2231,26.4204 Z " fill="#000000"/><text fill="#000000" font-family="sans-serif" font-size="14" lengthAdjust="spacing" textLength="46" x="201.25" y="28.291">Objeto</text><line style="stroke:#181818;stroke-width:0.5;" x1="8" x2="408" y1="39" y2="39"/><ellipse cx="18" cy="52.7441" fill="none" rx="3" ry="3" style="stroke:#038048;stroke-width:1.0;"/><text fill="#000000" font-family="sans-serif" font-size="14" lengthAdjust="spacing" textLength="245" x="27" y="56.5352">PrimitivaTamanho : float &#171;get&#187; &#171;set&#187;</text><line style="stroke:#181818;stroke-width:0.5;" x1="8" x2="408" y1="63.4883" y2="63.4883"/><ellipse cx="18" cy="77.2324" fill="#84BE84" rx="3" ry="3" style="stroke:#038048;stroke-width:1.0;"/><text fill="#000000" font-family="sans-serif" font-size="14" lengthAdjust="spacing" textLength="91" x="27" y="81.0234">Bbox() : BBox</text><ellipse cx="18" cy="93.7207" fill="#84BE84" rx="3" ry="3" style="stroke:#038048;stroke-width:1.0;"/><text fill="#000000" font-family="sans-serif" font-size="14" lengthAdjust="spacing" textLength="376" x="27" y="97.5117">Objeto(paiRef:Objeto, _rotulo:char, objetoFilho:Objeto)</text><ellipse cx="18" cy="110.209" fill="#84BE84" rx="3" ry="3" style="stroke:#038048;stroke-width:1.0;"/><text fill="#000000" font-family="sans-serif" font-size="14" lengthAdjust="spacing" textLength="159" x="27" y="114">ObjetoAtualizar() : void</text><ellipse cx="18" cy="126.6973" fill="#84BE84" rx="3" ry="3" style="stroke:#038048;stroke-width:1.0;"/><text fill="#000000" font-family="sans-serif" font-size="14" lengthAdjust="spacing" textLength="116" x="27" y="130.4883">Desenhar() : void</text><ellipse cx="18" cy="143.1855" fill="#84BE84" rx="3" ry="3" style="stroke:#038048;stroke-width:1.0;"/><text fill="#000000" font-family="sans-serif" font-size="14" lengthAdjust="spacing" textLength="232" x="27" y="146.9766">FilhoAdicionar(filho:Objeto) : void</text><ellipse cx="18" cy="159.6738" fill="#84BE84" rx="3" ry="3" style="stroke:#038048;stroke-width:1.0;"/><text fill="#000000" font-family="sans-serif" font-size="14" lengthAdjust="spacing" textLength="176" x="27" y="163.4648">PontosId(id:int) : Ponto4D</text><ellipse cx="18" cy="176.1621" fill="#84BE84" rx="3" ry="3" style="stroke:#038048;stroke-width:1.0;"/><text fill="#000000" font-family="sans-serif" font-size="14" lengthAdjust="spacing" textLength="250" x="27" y="179.9531">PontosAdicionar(pto:Ponto4D) : void</text><ellipse cx="18" cy="192.6504" fill="#84BE84" rx="3" ry="3" style="stroke:#038048;stroke-width:1.0;"/><text fill="#000000" font-family="sans-serif" font-size="14" lengthAdjust="spacing" textLength="314" x="27" y="196.4414">PontosAlterar(pto:Ponto4D, posicao:int) : void</text><ellipse cx="18" cy="209.1387" fill="#84BE84" rx="3" ry="3" style="stroke:#038048;stroke-width:1.0;"/><text fill="#000000" font-family="sans-serif" font-size="14" lengthAdjust="spacing" textLength="260" x="27" y="212.9297">GrafocenaBusca(_rotulo:char) : Objeto</text><ellipse cx="18" cy="225.627" fill="#84BE84" rx="3" ry="3" style="stroke:#038048;stroke-width:1.0;"/><text fill="#000000" font-family="sans-serif" font-size="14" lengthAdjust="spacing" textLength="243" x="27" y="229.418">GrafocenaImprimir(idt:String) : void</text><ellipse cx="18" cy="242.1152" fill="#84BE84" rx="3" ry="3" style="stroke:#038048;stroke-width:1.0;"/><text fill="#000000" font-family="sans-serif" font-size="14" lengthAdjust="spacing" textLength="120" x="27" y="245.9063">OnUnload() : void</text></g><!--class PrimitiveType--><g id="elem_PrimitiveType"><rect fill="#F1F1F1" height="48" id="PrimitiveType" rx="2.5" ry="2.5" style="stroke:#181818;stroke-width:0.5;" width="124" x="78" y="312.86"/><ellipse cx="93" cy="328.86" fill="#ADD1B2" rx="11" ry="11" style="stroke:#181818;stroke-width:1.0;"/><path d="M95.4731,335.0031 Q94.8921,335.3019 94.2529,335.4513 Q93.6138,335.6007 92.9082,335.6007 Q90.4014,335.6007 89.0815,333.9489 Q87.7617,332.297 87.7617,329.1759 Q87.7617,326.0465 89.0815,324.3947 Q90.4014,322.7428 92.9082,322.7428 Q93.6138,322.7428 94.2612,322.8922 Q94.9087,323.0416 95.4731,323.3405 L95.4731,326.0631 Q94.8423,325.4821 94.2488,325.2123 Q93.6553,324.9425 93.0244,324.9425 Q91.6797,324.9425 90.9949,326.0092 Q90.3101,327.0758 90.3101,329.1759 Q90.3101,331.2677 90.9949,332.3344 Q91.6797,333.401 93.0244,333.401 Q93.6553,333.401 94.2488,333.1312 Q94.8423,332.8615 95.4731,332.2804 Z " fill="#000000"/><text fill="#000000" font-family="sans-serif" font-size="14" lengthAdjust="spacing" textLength="92" x="107" y="334.151">PrimitiveType</text><line style="stroke:#181818;stroke-width:0.5;" x1="79" x2="201" y1="344.86" y2="344.86"/><line style="stroke:#181818;stroke-width:0.5;" x1="79" x2="201" y1="352.86" y2="352.86"/></g><!--class Shader--><g id="elem_Shader"><rect fill="#F1F1F1" height="48" id="Shader" rx="2.5" ry="2.5" style="stroke:#181818;stroke-width:0.5;" width="80" x="237" y="312.86"/><ellipse cx="252" cy="328.86" fill="#ADD1B2" rx="11" ry="11" style="stroke:#181818;stroke-width:1.0;"/><path d="M254.4731,335.0031 Q253.8921,335.3019 253.2529,335.4513 Q252.6138,335.6007 251.9082,335.6007 Q249.4014,335.6007 248.0815,333.9489 Q246.7617,332.297 246.7617,329.1759 Q246.7617,326.0465 248.0815,324.3947 Q249.4014,322.7428 251.9082,322.7428 Q252.6138,322.7428 253.2612,322.8922 Q253.9087,323.0416 254.4731,323.3405 L254.4731,326.0631 Q253.8423,325.4821 253.2488,325.2123 Q252.6553,324.9425 252.0244,324.9425 Q250.6797,324.9425 249.9949,326.0092 Q249.3101,327.0758 249.3101,329.1759 Q249.3101,331.2677 249.9949,332.3344 Q250.6797,333.401 252.0244,333.401 Q252.6553,333.401 253.2488,333.1312 Q253.8423,332.8615 254.4731,332.2804 Z " fill="#000000"/><text fill="#000000" font-family="sans-serif" font-size="14" lengthAdjust="spacing" textLength="48" x="266" y="334.151">Shader</text><line style="stroke:#181818;stroke-width:0.5;" x1="238" x2="316" y1="344.86" y2="344.86"/><line style="stroke:#181818;stroke-width:0.5;" x1="238" x2="316" y1="352.86" y2="352.86"/></g><!--link Objeto to PrimitiveType--><g id="link_Objeto_PrimitiveType"><path codeLine="15" d="M167.46,253.1 C159.9,275.9 154.6696,291.6553 149.5796,306.9953 " fill="none" id="Objeto-to-PrimitiveType" style="stroke:#181818;stroke-width:1.0;"/><polygon fill="#181818" points="147.69,312.69,154.3208,305.4077,149.2646,307.9444,146.7279,302.8882,147.69,312.69" style="stroke:#181818;stroke-width:1.0;"/><text fill="#000000" font-family="sans-serif" font-size="13" lengthAdjust="spacing" textLength="83" x="56.0262" y="302.1827">PrimitivaTipo</text></g><!--link Objeto to Shader--><g id="link_Objeto_Shader"><path codeLine="16" d="M249.13,253.1 C256.81,275.9 262.1137,291.6642 267.2837,307.0042 " fill="none" id="Objeto-to-Shader" style="stroke:#181818;stroke-width:1.0;"/><polygon fill="#181818" points="269.2,312.69,270.1161,302.8838,267.6031,307.9519,262.5351,305.4389,269.2,312.69" style="stroke:#181818;stroke-width:1.0;"/><text fill="#000000" font-family="sans-serif" font-size="13" lengthAdjust="spacing" textLength="84" x="207.5021" y="302.1209">shaderObjeto</text></g><!--SRC=[RP7DQiCm48JlUGhXaqETMqyY66n2Iqu9JNek6qcEjzXQ8SaXRUcxL_vfRQVHPTdPRqT28ofmZkrExyeJ-rgmS1xOtcAD7YzmX1fqIOopeYBmRBq-Av-ceRgs3dX-ecky352UqtNGUiVO0BweWlTTmjui-QOYBagm2QDEVSAgf85OphOptq25ds0xymkX7CORvPGk_-kTLIPH8EamBQRESt9FsfFRoXWbH-tRQISzRcR0w6KyyO6uQvLLNjavbp133WNGxmsJfMSB1Gcb8M-SW7ZwBotPl_cMtTQc3SQ6Htj-y1Rr-SPsfrzr24gE7_Ez6B9ThL8MZS6YeUWlPtNyC6e6kXAaihqIiKFN_G00]--></g></svg>