<?xml version="1.0" encoding="us-ascii" standalone="no"?><svg xmlns="http://www.w3.org/2000/svg" xmlns:xlink="http://www.w3.org/1999/xlink" contentStyleType="text/css" height="202px" preserveAspectRatio="none" style="width:580px;height:202px;background:#FFFFFF;" version="1.1" viewBox="0 0 580 202" width="580px" zoomAndPan="magnify"><defs/><g><!--class Retangulo--><g id="elem_Retangulo"><rect codeLine="1" fill="#F1F1F1" height="80.9766" id="Retangulo" rx="2.5" ry="2.5" style="stroke:#181818;stroke-width:0.5;" width="566" x="7" y="115"/><ellipse cx="250.75" cy="131" fill="#ADD1B2" rx="11" ry="11" style="stroke:#181818;stroke-width:1.0;"/><path d="M253.2231,137.1431 Q252.6421,137.4419 252.0029,137.5913 Q251.3638,137.7407 250.6582,137.7407 Q248.1514,137.7407 246.8315,136.0889 Q245.5117,134.437 245.5117,131.3159 Q245.5117,128.1865 246.8315,126.5347 Q248.1514,124.8828 250.6582,124.8828 Q251.3638,124.8828 252.0112,125.0322 Q252.6587,125.1816 253.2231,125.4805 L253.2231,128.2031 Q252.5923,127.6221 251.9988,127.3523 Q251.4053,127.0825 250.7744,127.0825 Q249.4297,127.0825 248.7449,128.1492 Q248.0601,129.2158 248.0601,131.3159 Q248.0601,133.4077 248.7449,134.4744 Q249.4297,135.541 250.7744,135.541 Q251.4053,135.541 251.9988,135.2712 Q252.5923,135.0015 253.2231,134.4204 Z " fill="#000000"/><text fill="#000000" font-family="sans-serif" font-size="14" lengthAdjust="spacing" textLength="70" x="271.25" y="136.291">Retangulo</text><line style="stroke:#181818;stroke-width:0.5;" x1="8" x2="572" y1="147" y2="147"/><line style="stroke:#181818;stroke-width:0.5;" x1="8" x2="572" y1="155" y2="155"/><ellipse cx="18" cy="168.7441" fill="#84BE84" rx="3" ry="3" style="stroke:#038048;stroke-width:1.0;"/><text fill="#000000" font-family="sans-serif" font-size="14" lengthAdjust="spacing" textLength="540" x="27" y="172.5352">Retangulo(paiRef:Objeto, _rotulo:char, ptoInfEsq:Ponto4D, ptoSupDir:Ponto4D)</text><ellipse cx="18" cy="185.2324" fill="#84BE84" rx="3" ry="3" style="stroke:#038048;stroke-width:1.0;"/><text fill="#000000" font-family="sans-serif" font-size="14" lengthAdjust="spacing" textLength="196" x="27" y="189.0234">&#171;override&#187; ToString() : string</text></g><!--class Objeto--><g id="elem_Objeto"><rect fill="#F1F1F1" height="48" id="Objeto" rx="2.5" ry="2.5" style="stroke:#181818;stroke-width:0.5;" width="78" x="251" y="7"/><ellipse cx="266" cy="23" fill="#ADD1B2" rx="11" ry="11" style="stroke:#181818;stroke-width:1.0;"/><path d="M268.4731,29.1431 Q267.8921,29.4419 267.2529,29.5913 Q266.6138,29.7407 265.9082,29.7407 Q263.4014,29.7407 262.0815,28.0889 Q260.7617,26.437 260.7617,23.3159 Q260.7617,20.1865 262.0815,18.5347 Q263.4014,16.8828 265.9082,16.8828 Q266.6138,16.8828 267.2612,17.0322 Q267.9087,17.1816 268.4731,17.4805 L268.4731,20.2031 Q267.8423,19.6221 267.2488,19.3523 Q266.6553,19.0825 266.0244,19.0825 Q264.6797,19.0825 263.9949,20.1492 Q263.3101,21.2158 263.3101,23.3159 Q263.3101,25.4077 263.9949,26.4744 Q264.6797,27.541 266.0244,27.541 Q266.6553,27.541 267.2488,27.2712 Q267.8423,27.0015 268.4731,26.4204 Z " fill="#000000"/><text fill="#000000" font-family="sans-serif" font-size="14" lengthAdjust="spacing" textLength="46" x="280" y="28.291">Objeto</text><line style="stroke:#181818;stroke-width:0.5;" x1="252" x2="328" y1="39" y2="39"/><line style="stroke:#181818;stroke-width:0.5;" x1="252" x2="328" y1="47" y2="47"/></g><!--reverse link Objeto to Retangulo--><g id="link_Objeto_Retangulo"><path codeLine="5" d="M290,73.33 C290,90.13 290,95.2 290,114.86 " fill="none" id="Objeto-backto-Retangulo" style="stroke:#181818;stroke-width:1.0;"/><polygon fill="none" points="290,55.33,284,73.33,296,73.33,290,55.33" style="stroke:#181818;stroke-width:1.0;"/></g><!--SRC=[Iyv9B2vM24ejISnBByt9LwZcKW02ROI8Ha5YPb1gcfL_KbPgIRwEGdnHVWbGs2ev8x58Hw6W9DypBysrkD0g83-l9D_41ImKN5hWaba44zA46cbZar-MMbIKcP9gPwSGaXzSKfIPbwwXgM2bK0ncSjLoGInHiAdHrKMu0000]--></g></svg>