<?xml version="1.0" encoding="us-ascii" standalone="no"?><svg xmlns="http://www.w3.org/2000/svg" xmlns:xlink="http://www.w3.org/1999/xlink" contentStyleType="text/css" height="134px" preserveAspectRatio="none" style="width:291px;height:134px;background:#FFFFFF;" version="1.1" viewBox="0 0 291 134" width="291px" zoomAndPan="magnify"><defs/><g><!--class Texture--><g id="elem_Texture"><rect codeLine="1" fill="#F1F1F1" height="113.9531" id="Texture" rx="2.5" ry="2.5" style="stroke:#181818;stroke-width:0.5;" width="270" x="7" y="7"/><ellipse cx="110.75" cy="23" fill="#ADD1B2" rx="11" ry="11" style="stroke:#181818;stroke-width:1.0;"/><path d="M113.2231,29.1431 Q112.6421,29.4419 112.0029,29.5913 Q111.3638,29.7407 110.6582,29.7407 Q108.1514,29.7407 106.8315,28.0889 Q105.5117,26.437 105.5117,23.3159 Q105.5117,20.1865 106.8315,18.5347 Q108.1514,16.8828 110.6582,16.8828 Q111.3638,16.8828 112.0112,17.0322 Q112.6587,17.1816 113.2231,17.4805 L113.2231,20.2031 Q112.5923,19.6221 111.9988,19.3523 Q111.4053,19.0825 110.7744,19.0825 Q109.4297,19.0825 108.7449,20.1492 Q108.0601,21.2158 108.0601,23.3159 Q108.0601,25.4077 108.7449,26.4744 Q109.4297,27.541 110.7744,27.541 Q111.4053,27.541 111.9988,27.2712 Q112.5923,27.0015 113.2231,26.4204 Z " fill="#000000"/><text fill="#000000" font-family="sans-serif" font-size="14" lengthAdjust="spacing" textLength="54" x="131.25" y="28.291">Texture</text><line style="stroke:#181818;stroke-width:0.5;" x1="8" x2="276" y1="39" y2="39"/><ellipse cx="18" cy="52.7441" fill="none" rx="3" ry="3" style="stroke:#038048;stroke-width:1.0;"/><text fill="#000000" font-family="sans-serif" font-size="14" lengthAdjust="spacing" textLength="156" x="27" y="56.5352">&#171;readonly&#187; Handle : int</text><line style="stroke:#181818;stroke-width:0.5;" x1="8" x2="276" y1="63.4883" y2="63.4883"/><ellipse cx="18" cy="77.2324" fill="#84BE84" rx="3" ry="3" style="stroke:#038048;stroke-width:1.0;"/><text fill="#000000" font-family="sans-serif" font-size="14" lengthAdjust="spacing" text-decoration="underline" textLength="244" x="27" y="81.0234">LoadFromFile(path:string) : Texture</text><ellipse cx="18" cy="93.7207" fill="#84BE84" rx="3" ry="3" style="stroke:#038048;stroke-width:1.0;"/><text fill="#000000" font-family="sans-serif" font-size="14" lengthAdjust="spacing" textLength="147" x="27" y="97.5117">Texture(glHandle:int)</text><ellipse cx="18" cy="110.209" fill="#84BE84" rx="3" ry="3" style="stroke:#038048;stroke-width:1.0;"/><text fill="#000000" font-family="sans-serif" font-size="14" lengthAdjust="spacing" textLength="189" x="27" y="114">Use(unit:TextureUnit) : void</text></g><!--SRC=[BOon2iCm34JtV8L6X_w12Hb3XuxD1uXOf09NBfPI6aB-lIxLJNVStLiogiATFhPLWgE3fWiCGoLCHV8-Zd15IPaW0ejvVwYXyNB2hM2QQdbEd2cyq1vHhRAiVPixr2-Umfh_lDXelNUpKjY4BVfeRlv7U1TEtVa5]--></g></svg>