<?xml version="1.0" encoding="us-ascii" standalone="no"?><svg xmlns="http://www.w3.org/2000/svg" xmlns:xlink="http://www.w3.org/1999/xlink" contentStyleType="text/css" height="450px" preserveAspectRatio="none" style="width:2584px;height:450px;background:#FFFFFF;" version="1.1" viewBox="0 0 2584 450" width="2584px" zoomAndPan="magnify"><defs/><g><!--class Mundo--><g id="elem_Mundo"><rect codeLine="1" fill="#F1F1F1" height="64.4883" id="Mundo" rx="2.5" ry="2.5" style="stroke:#181818;stroke-width:0.5;" width="696" x="7" y="354.08"/><ellipse cx="326.75" cy="370.08" fill="#ADD1B2" rx="11" ry="11" style="stroke:#181818;stroke-width:1.0;"/><path d="M329.2231,376.2231 Q328.6421,376.5219 328.0029,376.6713 Q327.3638,376.8207 326.6582,376.8207 Q324.1514,376.8207 322.8315,375.1689 Q321.5117,373.517 321.5117,370.3959 Q321.5117,367.2665 322.8315,365.6147 Q324.1514,363.9628 326.6582,363.9628 Q327.3638,363.9628 328.0112,364.1122 Q328.6587,364.2616 329.2231,364.5605 L329.2231,367.2831 Q328.5923,366.7021 327.9988,366.4323 Q327.4053,366.1625 326.7744,366.1625 Q325.4297,366.1625 324.7449,367.2292 Q324.0601,368.2958 324.0601,370.3959 Q324.0601,372.4877 324.7449,373.5544 Q325.4297,374.621 326.7744,374.621 Q327.4053,374.621 327.9988,374.3512 Q328.5923,374.0815 329.2231,373.5004 Z " fill="#000000"/><text fill="#000000" font-family="sans-serif" font-size="14" lengthAdjust="spacing" textLength="48" x="347.25" y="375.371">Mundo</text><line style="stroke:#181818;stroke-width:0.5;" x1="8" x2="702" y1="386.08" y2="386.08"/><line style="stroke:#181818;stroke-width:0.5;" x1="8" x2="702" y1="394.08" y2="394.08"/><ellipse cx="18" cy="407.8241" fill="#84BE84" rx="3" ry="3" style="stroke:#038048;stroke-width:1.0;"/><text fill="#000000" font-family="sans-serif" font-size="14" lengthAdjust="spacing" textLength="670" x="27" y="411.6152">Mundo(gameWindowSettings:GameWindowSettings, nativeWindowSettings:NativeWindowSettings)</text></g><!--class GameWindow--><g id="elem_GameWindow"><rect fill="#F1F1F1" height="48" id="GameWindow" rx="2.5" ry="2.5" style="stroke:#181818;stroke-width:0.5;" width="125" x="292.5" y="114.17"/><ellipse cx="307.5" cy="130.17" fill="#ADD1B2" rx="11" ry="11" style="stroke:#181818;stroke-width:1.0;"/><path d="M309.9731,136.3131 Q309.3921,136.6119 308.7529,136.7613 Q308.1138,136.9107 307.4082,136.9107 Q304.9014,136.9107 303.5815,135.2589 Q302.2617,133.607 302.2617,130.4859 Q302.2617,127.3565 303.5815,125.7047 Q304.9014,124.0528 307.4082,124.0528 Q308.1138,124.0528 308.7612,124.2022 Q309.4087,124.3516 309.9731,124.6505 L309.9731,127.3731 Q309.3423,126.7921 308.7488,126.5223 Q308.1553,126.2525 307.5244,126.2525 Q306.1797,126.2525 305.4949,127.3192 Q304.8101,128.3858 304.8101,130.4859 Q304.8101,132.5777 305.4949,133.6444 Q306.1797,134.711 307.5244,134.711 Q308.1553,134.711 308.7488,134.4412 Q309.3423,134.1715 309.9731,133.5904 Z " fill="#000000"/><text fill="#000000" font-family="sans-serif" font-size="14" lengthAdjust="spacing" textLength="93" x="321.5" y="135.461">GameWindow</text><line style="stroke:#181818;stroke-width:0.5;" x1="293.5" x2="416.5" y1="146.17" y2="146.17"/><line style="stroke:#181818;stroke-width:0.5;" x1="293.5" x2="416.5" y1="154.17" y2="154.17"/></g><!--class Retangulo--><g id="elem_Retangulo"><rect codeLine="1" fill="#F1F1F1" height="97.4648" id="Retangulo" rx="2.5" ry="2.5" style="stroke:#181818;stroke-width:0.5;" width="573" x="738.5" y="337.59"/><ellipse cx="985.75" cy="353.59" fill="#ADD1B2" rx="11" ry="11" style="stroke:#181818;stroke-width:1.0;"/><path d="M988.2231,359.7331 Q987.6421,360.0319 987.0029,360.1813 Q986.3638,360.3307 985.6582,360.3307 Q983.1514,360.3307 981.8315,358.6789 Q980.5117,357.027 980.5117,353.9059 Q980.5117,350.7765 981.8315,349.1247 Q983.1514,347.4728 985.6582,347.4728 Q986.3638,347.4728 987.0112,347.6222 Q987.6587,347.7716 988.2231,348.0705 L988.2231,350.7931 Q987.5923,350.2121 986.9988,349.9423 Q986.4053,349.6725 985.7744,349.6725 Q984.4297,349.6725 983.7449,350.7392 Q983.0601,351.8058 983.0601,353.9059 Q983.0601,355.9977 983.7449,357.0644 Q984.4297,358.131 985.7744,358.131 Q986.4053,358.131 986.9988,357.8612 Q987.5923,357.5915 988.2231,357.0104 Z " fill="#000000"/><text fill="#000000" font-family="sans-serif" font-size="14" lengthAdjust="spacing" textLength="70" x="1006.25" y="358.881">Retangulo</text><line style="stroke:#181818;stroke-width:0.5;" x1="739.5" x2="1310.5" y1="369.59" y2="369.59"/><line style="stroke:#181818;stroke-width:0.5;" x1="739.5" x2="1310.5" y1="377.59" y2="377.59"/><ellipse cx="749.5" cy="391.3341" fill="#84BE84" rx="3" ry="3" style="stroke:#038048;stroke-width:1.0;"/><text fill="#000000" font-family="sans-serif" font-size="14" lengthAdjust="spacing" textLength="271" x="758.5" y="395.1252">Retangulo(_paiRef:Objeto, _rotulo:char)</text><ellipse cx="749.5" cy="407.8224" fill="#84BE84" rx="3" ry="3" style="stroke:#038048;stroke-width:1.0;"/><text fill="#000000" font-family="sans-serif" font-size="14" lengthAdjust="spacing" textLength="547" x="758.5" y="411.6134">Retangulo(_paiRef:Objeto, _rotulo:char, ptoInfEsq:Ponto4D, ptoSupDir:Ponto4D)</text><ellipse cx="749.5" cy="424.3107" fill="#84BE84" rx="3" ry="3" style="stroke:#038048;stroke-width:1.0;"/><text fill="#000000" font-family="sans-serif" font-size="14" lengthAdjust="spacing" textLength="196" x="758.5" y="428.1017">&#171;override&#187; ToString() : string</text></g><!--class Objeto--><g id="elem_Objeto"><rect codeLine="1" fill="#F1F1F1" height="262.3477" id="Objeto" rx="2.5" ry="2.5" style="stroke:#181818;stroke-width:0.5;" width="409" x="1340.5" y="7"/><ellipse cx="1517.75" cy="23" fill="#ADD1B2" rx="11" ry="11" style="stroke:#181818;stroke-width:1.0;"/><path d="M1520.2231,29.1431 Q1519.6421,29.4419 1519.0029,29.5913 Q1518.3638,29.7407 1517.6582,29.7407 Q1515.1514,29.7407 1513.8315,28.0889 Q1512.5117,26.437 1512.5117,23.3159 Q1512.5117,20.1865 1513.8315,18.5347 Q1515.1514,16.8828 1517.6582,16.8828 Q1518.3638,16.8828 1519.0112,17.0322 Q1519.6587,17.1816 1520.2231,17.4805 L1520.2231,20.2031 Q1519.5923,19.6221 1518.9988,19.3523 Q1518.4053,19.0825 1517.7744,19.0825 Q1516.4297,19.0825 1515.7449,20.1492 Q1515.0601,21.2158 1515.0601,23.3159 Q1515.0601,25.4077 1515.7449,26.4744 Q1516.4297,27.541 1517.7744,27.541 Q1518.4053,27.541 1518.9988,27.2712 Q1519.5923,27.0015 1520.2231,26.4204 Z " fill="#000000"/><text fill="#000000" font-family="sans-serif" font-size="14" lengthAdjust="spacing" textLength="46" x="1538.25" y="28.291">Objeto</text><line style="stroke:#181818;stroke-width:0.5;" x1="1341.5" x2="1748.5" y1="39" y2="39"/><ellipse cx="1351.5" cy="52.7441" fill="none" rx="3" ry="3" style="stroke:#038048;stroke-width:1.0;"/><text fill="#000000" font-family="sans-serif" font-size="14" lengthAdjust="spacing" textLength="245" x="1360.5" y="56.5352">PrimitivaTamanho : float &#171;get&#187; &#171;set&#187;</text><line style="stroke:#181818;stroke-width:0.5;" x1="1341.5" x2="1748.5" y1="63.4883" y2="63.4883"/><ellipse cx="1351.5" cy="77.2324" fill="#84BE84" rx="3" ry="3" style="stroke:#038048;stroke-width:1.0;"/><text fill="#000000" font-family="sans-serif" font-size="14" lengthAdjust="spacing" textLength="91" x="1360.5" y="81.0234">Bbox() : BBox</text><ellipse cx="1351.5" cy="93.7207" fill="#84BE84" rx="3" ry="3" style="stroke:#038048;stroke-width:1.0;"/><text fill="#000000" font-family="sans-serif" font-size="14" lengthAdjust="spacing" textLength="383" x="1360.5" y="97.5117">Objeto(_paiRef:Objeto, _rotulo:char, objetoFilho:Objeto)</text><ellipse cx="1351.5" cy="110.209" fill="#84BE84" rx="3" ry="3" style="stroke:#038048;stroke-width:1.0;"/><text fill="#000000" font-family="sans-serif" font-size="14" lengthAdjust="spacing" textLength="159" x="1360.5" y="114">ObjetoAtualizar() : void</text><ellipse cx="1351.5" cy="126.6973" fill="#84BE84" rx="3" ry="3" style="stroke:#038048;stroke-width:1.0;"/><text fill="#000000" font-family="sans-serif" font-size="14" lengthAdjust="spacing" textLength="116" x="1360.5" y="130.4883">Desenhar() : void</text><ellipse cx="1351.5" cy="143.1855" fill="#84BE84" rx="3" ry="3" style="stroke:#038048;stroke-width:1.0;"/><text fill="#000000" font-family="sans-serif" font-size="14" lengthAdjust="spacing" textLength="232" x="1360.5" y="146.9766">FilhoAdicionar(filho:Objeto) : void</text><ellipse cx="1351.5" cy="159.6738" fill="#84BE84" rx="3" ry="3" style="stroke:#038048;stroke-width:1.0;"/><text fill="#000000" font-family="sans-serif" font-size="14" lengthAdjust="spacing" textLength="176" x="1360.5" y="163.4648">PontosId(id:int) : Ponto4D</text><ellipse cx="1351.5" cy="176.1621" fill="#84BE84" rx="3" ry="3" style="stroke:#038048;stroke-width:1.0;"/><text fill="#000000" font-family="sans-serif" font-size="14" lengthAdjust="spacing" textLength="250" x="1360.5" y="179.9531">PontosAdicionar(pto:Ponto4D) : void</text><ellipse cx="1351.5" cy="192.6504" fill="#84BE84" rx="3" ry="3" style="stroke:#038048;stroke-width:1.0;"/><text fill="#000000" font-family="sans-serif" font-size="14" lengthAdjust="spacing" textLength="314" x="1360.5" y="196.4414">PontosAlterar(pto:Ponto4D, posicao:int) : void</text><ellipse cx="1351.5" cy="209.1387" fill="#84BE84" rx="3" ry="3" style="stroke:#038048;stroke-width:1.0;"/><text fill="#000000" font-family="sans-serif" font-size="14" lengthAdjust="spacing" textLength="260" x="1360.5" y="212.9297">GrafocenaBusca(_rotulo:char) : Objeto</text><ellipse cx="1351.5" cy="225.627" fill="#84BE84" rx="3" ry="3" style="stroke:#038048;stroke-width:1.0;"/><text fill="#000000" font-family="sans-serif" font-size="14" lengthAdjust="spacing" textLength="365" x="1360.5" y="229.418">GrafocenaBuscaProximo(objetoAtual:Objeto) : Objeto</text><ellipse cx="1351.5" cy="242.1152" fill="#84BE84" rx="3" ry="3" style="stroke:#038048;stroke-width:1.0;"/><text fill="#000000" font-family="sans-serif" font-size="14" lengthAdjust="spacing" textLength="242" x="1360.5" y="245.9063">GrafocenaImprimir(idt:string) : void</text><ellipse cx="1351.5" cy="258.6035" fill="#84BE84" rx="3" ry="3" style="stroke:#038048;stroke-width:1.0;"/><text fill="#000000" font-family="sans-serif" font-size="14" lengthAdjust="spacing" textLength="120" x="1360.5" y="262.3945">OnUnload() : void</text></g><!--class PrimitiveType--><g id="elem_PrimitiveType"><rect fill="#F1F1F1" height="48" id="PrimitiveType" rx="2.5" ry="2.5" style="stroke:#181818;stroke-width:0.5;" width="124" x="1346" y="362.32"/><ellipse cx="1361" cy="378.32" fill="#ADD1B2" rx="11" ry="11" style="stroke:#181818;stroke-width:1.0;"/><path d="M1363.4731,384.4631 Q1362.8921,384.7619 1362.2529,384.9113 Q1361.6138,385.0607 1360.9082,385.0607 Q1358.4014,385.0607 1357.0815,383.4089 Q1355.7617,381.757 1355.7617,378.6359 Q1355.7617,375.5065 1357.0815,373.8547 Q1358.4014,372.2028 1360.9082,372.2028 Q1361.6138,372.2028 1362.2612,372.3522 Q1362.9087,372.5016 1363.4731,372.8005 L1363.4731,375.5231 Q1362.8423,374.9421 1362.2488,374.6723 Q1361.6553,374.4025 1361.0244,374.4025 Q1359.6797,374.4025 1358.9949,375.4692 Q1358.3101,376.5358 1358.3101,378.6359 Q1358.3101,380.7277 1358.9949,381.7944 Q1359.6797,382.861 1361.0244,382.861 Q1361.6553,382.861 1362.2488,382.5912 Q1362.8423,382.3215 1363.4731,381.7404 Z " fill="#000000"/><text fill="#000000" font-family="sans-serif" font-size="14" lengthAdjust="spacing" textLength="92" x="1375" y="383.611">PrimitiveType</text><line style="stroke:#181818;stroke-width:0.5;" x1="1347" x2="1469" y1="394.32" y2="394.32"/><line style="stroke:#181818;stroke-width:0.5;" x1="1347" x2="1469" y1="402.32" y2="402.32"/></g><!--class Shader--><g id="elem_Shader"><rect fill="#F1F1F1" height="48" id="Shader" rx="2.5" ry="2.5" style="stroke:#181818;stroke-width:0.5;" width="80" x="1505" y="362.32"/><ellipse cx="1520" cy="378.32" fill="#ADD1B2" rx="11" ry="11" style="stroke:#181818;stroke-width:1.0;"/><path d="M1522.4731,384.4631 Q1521.8921,384.7619 1521.2529,384.9113 Q1520.6138,385.0607 1519.9082,385.0607 Q1517.4014,385.0607 1516.0815,383.4089 Q1514.7617,381.757 1514.7617,378.6359 Q1514.7617,375.5065 1516.0815,373.8547 Q1517.4014,372.2028 1519.9082,372.2028 Q1520.6138,372.2028 1521.2612,372.3522 Q1521.9087,372.5016 1522.4731,372.8005 L1522.4731,375.5231 Q1521.8423,374.9421 1521.2488,374.6723 Q1520.6553,374.4025 1520.0244,374.4025 Q1518.6797,374.4025 1517.9949,375.4692 Q1517.3101,376.5358 1517.3101,378.6359 Q1517.3101,380.7277 1517.9949,381.7944 Q1518.6797,382.861 1520.0244,382.861 Q1520.6553,382.861 1521.2488,382.5912 Q1521.8423,382.3215 1522.4731,381.7404 Z " fill="#000000"/><text fill="#000000" font-family="sans-serif" font-size="14" lengthAdjust="spacing" textLength="48" x="1534" y="383.611">Shader</text><line style="stroke:#181818;stroke-width:0.5;" x1="1506" x2="1584" y1="394.32" y2="394.32"/><line style="stroke:#181818;stroke-width:0.5;" x1="1506" x2="1584" y1="402.32" y2="402.32"/></g><!--class Ponto--><g id="elem_Ponto"><rect codeLine="1" fill="#F1F1F1" height="113.9531" id="Ponto" rx="2.5" ry="2.5" style="stroke:#181818;stroke-width:0.5;" width="361" x="1620.5" y="329.35"/><ellipse cx="1776.75" cy="345.35" fill="#ADD1B2" rx="11" ry="11" style="stroke:#181818;stroke-width:1.0;"/><path d="M1779.2231,351.4931 Q1778.6421,351.7919 1778.0029,351.9413 Q1777.3638,352.0907 1776.6582,352.0907 Q1774.1514,352.0907 1772.8315,350.4389 Q1771.5117,348.787 1771.5117,345.6659 Q1771.5117,342.5365 1772.8315,340.8847 Q1774.1514,339.2328 1776.6582,339.2328 Q1777.3638,339.2328 1778.0112,339.3822 Q1778.6587,339.5316 1779.2231,339.8305 L1779.2231,342.5531 Q1778.5923,341.9721 1777.9988,341.7023 Q1777.4053,341.4325 1776.7744,341.4325 Q1775.4297,341.4325 1774.7449,342.4992 Q1774.0601,343.5658 1774.0601,345.6659 Q1774.0601,347.7577 1774.7449,348.8244 Q1775.4297,349.891 1776.7744,349.891 Q1777.4053,349.891 1777.9988,349.6212 Q1778.5923,349.3515 1779.2231,348.7704 Z " fill="#000000"/><text fill="#000000" font-family="sans-serif" font-size="14" lengthAdjust="spacing" textLength="40" x="1797.25" y="350.641">Ponto</text><line style="stroke:#181818;stroke-width:0.5;" x1="1621.5" x2="1980.5" y1="361.35" y2="361.35"/><line style="stroke:#181818;stroke-width:0.5;" x1="1621.5" x2="1980.5" y1="369.35" y2="369.35"/><ellipse cx="1631.5" cy="383.0941" fill="#84BE84" rx="3" ry="3" style="stroke:#038048;stroke-width:1.0;"/><text fill="#000000" font-family="sans-serif" font-size="14" lengthAdjust="spacing" textLength="241" x="1640.5" y="386.8852">Ponto(_paiRef:Objeto, _rotulo:char)</text><ellipse cx="1631.5" cy="399.5824" fill="#84BE84" rx="3" ry="3" style="stroke:#038048;stroke-width:1.0;"/><text fill="#000000" font-family="sans-serif" font-size="14" lengthAdjust="spacing" textLength="335" x="1640.5" y="403.3734">Ponto(_paiRef:Objeto, _rotulo:char, pto:Ponto4D)</text><ellipse cx="1631.5" cy="416.0707" fill="#84BE84" rx="3" ry="3" style="stroke:#038048;stroke-width:1.0;"/><text fill="#000000" font-family="sans-serif" font-size="14" lengthAdjust="spacing" textLength="113" x="1640.5" y="419.8617">Atualizar() : void</text><ellipse cx="1631.5" cy="432.559" fill="#84BE84" rx="3" ry="3" style="stroke:#038048;stroke-width:1.0;"/><text fill="#000000" font-family="sans-serif" font-size="14" lengthAdjust="spacing" textLength="196" x="1640.5" y="436.35">&#171;override&#187; ToString() : string</text></g><!--class Circulo--><g id="elem_Circulo"><rect codeLine="1" fill="#F1F1F1" height="113.9531" id="Circulo" rx="2.5" ry="2.5" style="stroke:#181818;stroke-width:0.5;" width="561" x="2016.5" y="329.35"/><ellipse cx="2268.25" cy="345.35" fill="#ADD1B2" rx="11" ry="11" style="stroke:#181818;stroke-width:1.0;"/><path d="M2270.7231,351.4931 Q2270.1421,351.7919 2269.5029,351.9413 Q2268.8638,352.0907 2268.1582,352.0907 Q2265.6514,352.0907 2264.3315,350.4389 Q2263.0117,348.787 2263.0117,345.6659 Q2263.0117,342.5365 2264.3315,340.8847 Q2265.6514,339.2328 2268.1582,339.2328 Q2268.8638,339.2328 2269.5112,339.3822 Q2270.1587,339.5316 2270.7231,339.8305 L2270.7231,342.5531 Q2270.0923,341.9721 2269.4988,341.7023 Q2268.9053,341.4325 2268.2744,341.4325 Q2266.9297,341.4325 2266.2449,342.4992 Q2265.5601,343.5658 2265.5601,345.6659 Q2265.5601,347.7577 2266.2449,348.8244 Q2266.9297,349.891 2268.2744,349.891 Q2268.9053,349.891 2269.4988,349.6212 Q2270.0923,349.3515 2270.7231,348.7704 Z " fill="#000000"/><text fill="#000000" font-family="sans-serif" font-size="14" lengthAdjust="spacing" textLength="49" x="2288.75" y="350.641">Circulo</text><line style="stroke:#181818;stroke-width:0.5;" x1="2017.5" x2="2576.5" y1="361.35" y2="361.35"/><line style="stroke:#181818;stroke-width:0.5;" x1="2017.5" x2="2576.5" y1="369.35" y2="369.35"/><ellipse cx="2027.5" cy="383.0941" fill="#84BE84" rx="3" ry="3" style="stroke:#038048;stroke-width:1.0;"/><text fill="#000000" font-family="sans-serif" font-size="14" lengthAdjust="spacing" textLength="344" x="2036.5" y="386.8852">Circulo(_paiRef:Objeto, _rotulo:char, _raio:double)</text><ellipse cx="2027.5" cy="399.5824" fill="#84BE84" rx="3" ry="3" style="stroke:#038048;stroke-width:1.0;"/><text fill="#000000" font-family="sans-serif" font-size="14" lengthAdjust="spacing" textLength="535" x="2036.5" y="403.3734">Circulo(_paiRef:Objeto, _rotulo:char, _raio:double, ptoDeslocamento:Ponto4D)</text><ellipse cx="2027.5" cy="416.0707" fill="#84BE84" rx="3" ry="3" style="stroke:#038048;stroke-width:1.0;"/><text fill="#000000" font-family="sans-serif" font-size="14" lengthAdjust="spacing" textLength="296" x="2036.5" y="419.8617">Atualizar(ptoDeslocamento:Ponto4D) : void</text><ellipse cx="2027.5" cy="432.559" fill="#84BE84" rx="3" ry="3" style="stroke:#038048;stroke-width:1.0;"/><text fill="#000000" font-family="sans-serif" font-size="14" lengthAdjust="spacing" textLength="196" x="2036.5" y="436.35">&#171;override&#187; ToString() : string</text></g><!--class Program--><g id="elem_Program"><rect codeLine="1" fill="#F1F1F1" height="56.6211" id="Program" rx="2.5" ry="2.5" style="stroke:#181818;stroke-width:0.5;" width="91" x="1784.5" y="109.86"/><ellipse cx="1799.5" cy="130.1705" fill="#ADD1B2" rx="11" ry="11" style="stroke:#181818;stroke-width:1.0;"/><path d="M1801.9731,136.3136 Q1801.3921,136.6124 1800.7529,136.7619 Q1800.1138,136.9113 1799.4082,136.9113 Q1796.9014,136.9113 1795.5815,135.2594 Q1794.2617,133.6076 1794.2617,130.4865 Q1794.2617,127.3571 1795.5815,125.7052 Q1796.9014,124.0534 1799.4082,124.0534 Q1800.1138,124.0534 1800.7612,124.2028 Q1801.4087,124.3522 1801.9731,124.651 L1801.9731,127.3737 Q1801.3423,126.7926 1800.7488,126.5228 Q1800.1553,126.2531 1799.5244,126.2531 Q1798.1797,126.2531 1797.4949,127.3197 Q1796.8101,128.3864 1796.8101,130.4865 Q1796.8101,132.5783 1797.4949,133.6449 Q1798.1797,134.7116 1799.5244,134.7116 Q1800.1553,134.7116 1800.7488,134.4418 Q1801.3423,134.172 1801.9731,133.591 Z " fill="#000000"/><text fill="#000000" font-family="sans-serif" font-size="12" font-style="italic" lengthAdjust="spacing" textLength="42" x="1822" y="126.4616">&#171;static&#187;</text><text fill="#000000" font-family="sans-serif" font-size="14" lengthAdjust="spacing" textLength="59" x="1813.5" y="142.528">Program</text><line style="stroke:#181818;stroke-width:0.5;" x1="1785.5" x2="1874.5" y1="150.4811" y2="150.4811"/><line style="stroke:#181818;stroke-width:0.5;" x1="1785.5" x2="1874.5" y1="158.4811" y2="158.4811"/></g><!--reverse link GameWindow to Mundo--><g id="link_GameWindow_Mundo"><path codeLine="4" d="M355,180.33 C355,224.61 355,303.35 355,353.6 " fill="none" id="GameWindow-backto-Mundo" style="stroke:#181818;stroke-width:1.0;"/><polygon fill="none" points="355,162.33,349,180.33,361,180.33,355,162.33" style="stroke:#181818;stroke-width:1.0;"/></g><!--reverse link Objeto to Retangulo--><g id="link_Objeto_Retangulo"><path codeLine="6" d="M1323.9614,243.8028 C1250.6314,278.5228 1187.43,308.43 1126.63,337.22 " fill="none" id="Objeto-backto-Retangulo" style="stroke:#181818;stroke-width:1.0;"/><polygon fill="none" points="1340.23,236.1,1321.3938,238.3799,1326.529,249.2257,1340.23,236.1" style="stroke:#181818;stroke-width:1.0;"/></g><!--link Objeto to PrimitiveType--><g id="link_Objeto_PrimitiveType"><path codeLine="16" d="M1472.29,269.82 C1452.43,305.49 1435.9797,335.0683 1423.7697,356.9883 " fill="none" id="Objeto-to-PrimitiveType" style="stroke:#181818;stroke-width:1.0;"/><polygon fill="#181818" points="1420.85,362.23,1428.7241,356.314,1423.2831,357.8619,1421.7352,352.421,1420.85,362.23" style="stroke:#181818;stroke-width:1.0;"/><text fill="#000000" font-family="sans-serif" font-size="13" lengthAdjust="spacing" textLength="83" x="1330.5084" y="351.7432">PrimitivaTipo</text></g><!--link Objeto to Shader--><g id="link_Objeto_Shader"><path codeLine="17" d="M1545,269.82 C1545,305.49 1545,334.31 1545,356.23 " fill="none" id="Objeto-to-Shader" style="stroke:#181818;stroke-width:1.0;"/><polygon fill="#181818" points="1545,362.23,1549,353.23,1545,357.23,1541,353.23,1545,362.23" style="stroke:#181818;stroke-width:1.0;"/><text fill="#000000" font-family="sans-serif" font-size="13" lengthAdjust="spacing" textLength="84" x="1476.1586" y="351.5951">ShaderObjeto</text></g><!--reverse link Objeto to Ponto--><g id="link_Objeto_Ponto"><path codeLine="7" d="M1693.8471,282.2938 C1715.5071,303.1138 1723.89,311.18 1742.45,329.03 " fill="none" id="Objeto-backto-Ponto" style="stroke:#181818;stroke-width:1.0;"/><polygon fill="none" points="1680.87,269.82,1689.6891,286.6195,1698.005,277.9681,1680.87,269.82" style="stroke:#181818;stroke-width:1.0;"/></g><!--reverse link Objeto to Circulo--><g id="link_Objeto_Circulo"><path codeLine="7" d="M1766.2977,269.4029 C1772.0477,271.8929 1761.28,267.11 1767,269.35 C1814.09,287.77 1914.92,311.14 2016.12,332.07 " fill="none" id="Objeto-backto-Circulo" style="stroke:#181818;stroke-width:1.0;"/><polygon fill="none" points="1749.78,262.25,1763.9134,274.9088,1768.682,263.897,1749.78,262.25" style="stroke:#181818;stroke-width:1.0;"/></g><!--SRC=[fOwz3e8m54Ptdq9sROrHu-90q1W7aHZZIYXSIKcvbzos_hozBke0nC7rV3adNw0nDxw0eP1xZmM9njTc47pf4Lo6fJVjvQ0gS6sS47RGI7FU5KcOIixg5YTLoJKeNqe4jnGJAUBDAIA6i6b6Ps2h2LVNro12Qw5MvX4wnrfv1_PtBDgcyJITVzmTNgZJOZ2GMNXxDutZ-sBszvcURE-j9m00]--></g></svg>