<?xml version="1.0" encoding="us-ascii" standalone="no"?><svg xmlns="http://www.w3.org/2000/svg" xmlns:xlink="http://www.w3.org/1999/xlink" contentStyleType="text/css" height="483px" preserveAspectRatio="none" style="width:1328px;height:483px;background:#FFFFFF;" version="1.1" viewBox="0 0 1328 483" width="1328px" zoomAndPan="magnify"><defs/><g><!--class SrPalito--><g id="elem_SrPalito"><rect codeLine="1" fill="#F1F1F1" height="146.9297" id="SrPalito" rx="2.5" ry="2.5" style="stroke:#181818;stroke-width:0.5;" width="309" x="7" y="329.35"/><ellipse cx="131.25" cy="345.35" fill="#ADD1B2" rx="11" ry="11" style="stroke:#181818;stroke-width:1.0;"/><path d="M133.7231,351.4931 Q133.1421,351.7919 132.5029,351.9413 Q131.8638,352.0907 131.1582,352.0907 Q128.6514,352.0907 127.3315,350.4389 Q126.0117,348.787 126.0117,345.6659 Q126.0117,342.5365 127.3315,340.8847 Q128.6514,339.2328 131.1582,339.2328 Q131.8638,339.2328 132.5112,339.3822 Q133.1587,339.5316 133.7231,339.8305 L133.7231,342.5531 Q133.0923,341.9721 132.4988,341.7023 Q131.9053,341.4325 131.2744,341.4325 Q129.9297,341.4325 129.2449,342.4992 Q128.5601,343.5658 128.5601,345.6659 Q128.5601,347.7577 129.2449,348.8244 Q129.9297,349.891 131.2744,349.891 Q131.9053,349.891 132.4988,349.6212 Q133.0923,349.3515 133.7231,348.7704 Z " fill="#000000"/><text fill="#000000" font-family="sans-serif" font-size="14" lengthAdjust="spacing" textLength="52" x="151.75" y="350.641">SrPalito</text><line style="stroke:#181818;stroke-width:0.5;" x1="8" x2="315" y1="361.35" y2="361.35"/><line style="stroke:#181818;stroke-width:0.5;" x1="8" x2="315" y1="369.35" y2="369.35"/><ellipse cx="18" cy="383.0941" fill="#84BE84" rx="3" ry="3" style="stroke:#038048;stroke-width:1.0;"/><text fill="#000000" font-family="sans-serif" font-size="14" lengthAdjust="spacing" textLength="253" x="27" y="386.8852">SrPalito(_paiRef:Objeto, _rotulo:char)</text><ellipse cx="18" cy="399.5824" fill="#84BE84" rx="3" ry="3" style="stroke:#038048;stroke-width:1.0;"/><text fill="#000000" font-family="sans-serif" font-size="14" lengthAdjust="spacing" textLength="113" x="27" y="403.3734">Atualizar() : void</text><ellipse cx="18" cy="416.0707" fill="#84BE84" rx="3" ry="3" style="stroke:#038048;stroke-width:1.0;"/><text fill="#000000" font-family="sans-serif" font-size="14" lengthAdjust="spacing" textLength="218" x="27" y="419.8617">AtualizarPe(peInc:double) : void</text><ellipse cx="18" cy="432.559" fill="#84BE84" rx="3" ry="3" style="stroke:#038048;stroke-width:1.0;"/><text fill="#000000" font-family="sans-serif" font-size="14" lengthAdjust="spacing" textLength="242" x="27" y="436.35">AtualizarRaio(raioInc:double) : void</text><ellipse cx="18" cy="449.0473" fill="#84BE84" rx="3" ry="3" style="stroke:#038048;stroke-width:1.0;"/><text fill="#000000" font-family="sans-serif" font-size="14" lengthAdjust="spacing" textLength="283" x="27" y="452.8383">AtualizarAngulo(anguloInc:double) : void</text><ellipse cx="18" cy="465.5355" fill="#84BE84" rx="3" ry="3" style="stroke:#038048;stroke-width:1.0;"/><text fill="#000000" font-family="sans-serif" font-size="14" lengthAdjust="spacing" textLength="196" x="27" y="469.3266">&#171;override&#187; ToString() : string</text></g><!--class Objeto--><g id="elem_Objeto"><rect codeLine="1" fill="#F1F1F1" height="262.3477" id="Objeto" rx="2.5" ry="2.5" style="stroke:#181818;stroke-width:0.5;" width="409" x="209" y="7"/><ellipse cx="386.25" cy="23" fill="#ADD1B2" rx="11" ry="11" style="stroke:#181818;stroke-width:1.0;"/><path d="M388.7231,29.1431 Q388.1421,29.4419 387.5029,29.5913 Q386.8638,29.7407 386.1582,29.7407 Q383.6514,29.7407 382.3315,28.0889 Q381.0117,26.437 381.0117,23.3159 Q381.0117,20.1865 382.3315,18.5347 Q383.6514,16.8828 386.1582,16.8828 Q386.8638,16.8828 387.5112,17.0322 Q388.1587,17.1816 388.7231,17.4805 L388.7231,20.2031 Q388.0923,19.6221 387.4988,19.3523 Q386.9053,19.0825 386.2744,19.0825 Q384.9297,19.0825 384.2449,20.1492 Q383.5601,21.2158 383.5601,23.3159 Q383.5601,25.4077 384.2449,26.4744 Q384.9297,27.541 386.2744,27.541 Q386.9053,27.541 387.4988,27.2712 Q388.0923,27.0015 388.7231,26.4204 Z " fill="#000000"/><text fill="#000000" font-family="sans-serif" font-size="14" lengthAdjust="spacing" textLength="46" x="406.75" y="28.291">Objeto</text><line style="stroke:#181818;stroke-width:0.5;" x1="210" x2="617" y1="39" y2="39"/><ellipse cx="220" cy="52.7441" fill="none" rx="3" ry="3" style="stroke:#038048;stroke-width:1.0;"/><text fill="#000000" font-family="sans-serif" font-size="14" lengthAdjust="spacing" textLength="245" x="229" y="56.5352">PrimitivaTamanho : float &#171;get&#187; &#171;set&#187;</text><line style="stroke:#181818;stroke-width:0.5;" x1="210" x2="617" y1="63.4883" y2="63.4883"/><ellipse cx="220" cy="77.2324" fill="#84BE84" rx="3" ry="3" style="stroke:#038048;stroke-width:1.0;"/><text fill="#000000" font-family="sans-serif" font-size="14" lengthAdjust="spacing" textLength="91" x="229" y="81.0234">Bbox() : BBox</text><ellipse cx="220" cy="93.7207" fill="#84BE84" rx="3" ry="3" style="stroke:#038048;stroke-width:1.0;"/><text fill="#000000" font-family="sans-serif" font-size="14" lengthAdjust="spacing" textLength="383" x="229" y="97.5117">Objeto(_paiRef:Objeto, _rotulo:char, objetoFilho:Objeto)</text><ellipse cx="220" cy="110.209" fill="#84BE84" rx="3" ry="3" style="stroke:#038048;stroke-width:1.0;"/><text fill="#000000" font-family="sans-serif" font-size="14" lengthAdjust="spacing" textLength="159" x="229" y="114">ObjetoAtualizar() : void</text><ellipse cx="220" cy="126.6973" fill="#84BE84" rx="3" ry="3" style="stroke:#038048;stroke-width:1.0;"/><text fill="#000000" font-family="sans-serif" font-size="14" lengthAdjust="spacing" textLength="116" x="229" y="130.4883">Desenhar() : void</text><ellipse cx="220" cy="143.1855" fill="#84BE84" rx="3" ry="3" style="stroke:#038048;stroke-width:1.0;"/><text fill="#000000" font-family="sans-serif" font-size="14" lengthAdjust="spacing" textLength="232" x="229" y="146.9766">FilhoAdicionar(filho:Objeto) : void</text><ellipse cx="220" cy="159.6738" fill="#84BE84" rx="3" ry="3" style="stroke:#038048;stroke-width:1.0;"/><text fill="#000000" font-family="sans-serif" font-size="14" lengthAdjust="spacing" textLength="176" x="229" y="163.4648">PontosId(id:int) : Ponto4D</text><ellipse cx="220" cy="176.1621" fill="#84BE84" rx="3" ry="3" style="stroke:#038048;stroke-width:1.0;"/><text fill="#000000" font-family="sans-serif" font-size="14" lengthAdjust="spacing" textLength="250" x="229" y="179.9531">PontosAdicionar(pto:Ponto4D) : void</text><ellipse cx="220" cy="192.6504" fill="#84BE84" rx="3" ry="3" style="stroke:#038048;stroke-width:1.0;"/><text fill="#000000" font-family="sans-serif" font-size="14" lengthAdjust="spacing" textLength="314" x="229" y="196.4414">PontosAlterar(pto:Ponto4D, posicao:int) : void</text><ellipse cx="220" cy="209.1387" fill="#84BE84" rx="3" ry="3" style="stroke:#038048;stroke-width:1.0;"/><text fill="#000000" font-family="sans-serif" font-size="14" lengthAdjust="spacing" textLength="260" x="229" y="212.9297">GrafocenaBusca(_rotulo:char) : Objeto</text><ellipse cx="220" cy="225.627" fill="#84BE84" rx="3" ry="3" style="stroke:#038048;stroke-width:1.0;"/><text fill="#000000" font-family="sans-serif" font-size="14" lengthAdjust="spacing" textLength="365" x="229" y="229.418">GrafocenaBuscaProximo(objetoAtual:Objeto) : Objeto</text><ellipse cx="220" cy="242.1152" fill="#84BE84" rx="3" ry="3" style="stroke:#038048;stroke-width:1.0;"/><text fill="#000000" font-family="sans-serif" font-size="14" lengthAdjust="spacing" textLength="242" x="229" y="245.9063">GrafocenaImprimir(idt:string) : void</text><ellipse cx="220" cy="258.6035" fill="#84BE84" rx="3" ry="3" style="stroke:#038048;stroke-width:1.0;"/><text fill="#000000" font-family="sans-serif" font-size="14" lengthAdjust="spacing" textLength="120" x="229" y="262.3945">OnUnload() : void</text></g><!--class Mundo--><g id="elem_Mundo"><rect codeLine="1" fill="#F1F1F1" height="64.4883" id="Mundo" rx="2.5" ry="2.5" style="stroke:#181818;stroke-width:0.5;" width="696" x="625.5" y="370.57"/><ellipse cx="945.25" cy="386.57" fill="#ADD1B2" rx="11" ry="11" style="stroke:#181818;stroke-width:1.0;"/><path d="M947.7231,392.7131 Q947.1421,393.0119 946.5029,393.1613 Q945.8638,393.3107 945.1582,393.3107 Q942.6514,393.3107 941.3315,391.6589 Q940.0117,390.007 940.0117,386.8859 Q940.0117,383.7565 941.3315,382.1047 Q942.6514,380.4528 945.1582,380.4528 Q945.8638,380.4528 946.5112,380.6022 Q947.1587,380.7516 947.7231,381.0505 L947.7231,383.7731 Q947.0923,383.1921 946.4988,382.9223 Q945.9053,382.6525 945.2744,382.6525 Q943.9297,382.6525 943.2449,383.7192 Q942.5601,384.7858 942.5601,386.8859 Q942.5601,388.9777 943.2449,390.0444 Q943.9297,391.111 945.2744,391.111 Q945.9053,391.111 946.4988,390.8412 Q947.0923,390.5715 947.7231,389.9904 Z " fill="#000000"/><text fill="#000000" font-family="sans-serif" font-size="14" lengthAdjust="spacing" textLength="48" x="965.75" y="391.861">Mundo</text><line style="stroke:#181818;stroke-width:0.5;" x1="626.5" x2="1320.5" y1="402.57" y2="402.57"/><line style="stroke:#181818;stroke-width:0.5;" x1="626.5" x2="1320.5" y1="410.57" y2="410.57"/><ellipse cx="636.5" cy="424.3141" fill="#84BE84" rx="3" ry="3" style="stroke:#038048;stroke-width:1.0;"/><text fill="#000000" font-family="sans-serif" font-size="14" lengthAdjust="spacing" textLength="670" x="645.5" y="428.1052">Mundo(gameWindowSettings:GameWindowSettings, nativeWindowSettings:NativeWindowSettings)</text></g><!--class GameWindow--><g id="elem_GameWindow"><rect fill="#F1F1F1" height="48" id="GameWindow" rx="2.5" ry="2.5" style="stroke:#181818;stroke-width:0.5;" width="125" x="911" y="114.18"/><ellipse cx="926" cy="130.18" fill="#ADD1B2" rx="11" ry="11" style="stroke:#181818;stroke-width:1.0;"/><path d="M928.4731,136.3231 Q927.8921,136.6219 927.2529,136.7713 Q926.6138,136.9207 925.9082,136.9207 Q923.4014,136.9207 922.0815,135.2689 Q920.7617,133.617 920.7617,130.4959 Q920.7617,127.3665 922.0815,125.7147 Q923.4014,124.0628 925.9082,124.0628 Q926.6138,124.0628 927.2612,124.2122 Q927.9087,124.3616 928.4731,124.6605 L928.4731,127.3831 Q927.8423,126.8021 927.2488,126.5323 Q926.6553,126.2625 926.0244,126.2625 Q924.6797,126.2625 923.9949,127.3292 Q923.3101,128.3958 923.3101,130.4959 Q923.3101,132.5877 923.9949,133.6544 Q924.6797,134.721 926.0244,134.721 Q926.6553,134.721 927.2488,134.4512 Q927.8423,134.1815 928.4731,133.6004 Z " fill="#000000"/><text fill="#000000" font-family="sans-serif" font-size="14" lengthAdjust="spacing" textLength="93" x="940" y="135.471">GameWindow</text><line style="stroke:#181818;stroke-width:0.5;" x1="912" x2="1035" y1="146.18" y2="146.18"/><line style="stroke:#181818;stroke-width:0.5;" x1="912" x2="1035" y1="154.18" y2="154.18"/></g><!--class PrimitiveType--><g id="elem_PrimitiveType"><rect fill="#F1F1F1" height="48" id="PrimitiveType" rx="2.5" ry="2.5" style="stroke:#181818;stroke-width:0.5;" width="124" x="351.5" y="378.82"/><ellipse cx="366.5" cy="394.82" fill="#ADD1B2" rx="11" ry="11" style="stroke:#181818;stroke-width:1.0;"/><path d="M368.9731,400.9631 Q368.3921,401.2619 367.7529,401.4113 Q367.1138,401.5607 366.4082,401.5607 Q363.9014,401.5607 362.5815,399.9089 Q361.2617,398.257 361.2617,395.1359 Q361.2617,392.0065 362.5815,390.3547 Q363.9014,388.7028 366.4082,388.7028 Q367.1138,388.7028 367.7612,388.8522 Q368.4087,389.0016 368.9731,389.3005 L368.9731,392.0231 Q368.3423,391.4421 367.7488,391.1723 Q367.1553,390.9025 366.5244,390.9025 Q365.1797,390.9025 364.4949,391.9692 Q363.8101,393.0358 363.8101,395.1359 Q363.8101,397.2277 364.4949,398.2944 Q365.1797,399.361 366.5244,399.361 Q367.1553,399.361 367.7488,399.0912 Q368.3423,398.8215 368.9731,398.2404 Z " fill="#000000"/><text fill="#000000" font-family="sans-serif" font-size="14" lengthAdjust="spacing" textLength="92" x="380.5" y="400.111">PrimitiveType</text><line style="stroke:#181818;stroke-width:0.5;" x1="352.5" x2="474.5" y1="410.82" y2="410.82"/><line style="stroke:#181818;stroke-width:0.5;" x1="352.5" x2="474.5" y1="418.82" y2="418.82"/></g><!--class Shader--><g id="elem_Shader"><rect fill="#F1F1F1" height="48" id="Shader" rx="2.5" ry="2.5" style="stroke:#181818;stroke-width:0.5;" width="80" x="510.5" y="378.82"/><ellipse cx="525.5" cy="394.82" fill="#ADD1B2" rx="11" ry="11" style="stroke:#181818;stroke-width:1.0;"/><path d="M527.9731,400.9631 Q527.3921,401.2619 526.7529,401.4113 Q526.1138,401.5607 525.4082,401.5607 Q522.9014,401.5607 521.5815,399.9089 Q520.2617,398.257 520.2617,395.1359 Q520.2617,392.0065 521.5815,390.3547 Q522.9014,388.7028 525.4082,388.7028 Q526.1138,388.7028 526.7612,388.8522 Q527.4087,389.0016 527.9731,389.3005 L527.9731,392.0231 Q527.3423,391.4421 526.7488,391.1723 Q526.1553,390.9025 525.5244,390.9025 Q524.1797,390.9025 523.4949,391.9692 Q522.8101,393.0358 522.8101,395.1359 Q522.8101,397.2277 523.4949,398.2944 Q524.1797,399.361 525.5244,399.361 Q526.1553,399.361 526.7488,399.0912 Q527.3423,398.8215 527.9731,398.2404 Z " fill="#000000"/><text fill="#000000" font-family="sans-serif" font-size="14" lengthAdjust="spacing" textLength="48" x="539.5" y="400.111">Shader</text><line style="stroke:#181818;stroke-width:0.5;" x1="511.5" x2="589.5" y1="410.82" y2="410.82"/><line style="stroke:#181818;stroke-width:0.5;" x1="511.5" x2="589.5" y1="418.82" y2="418.82"/></g><!--class Program--><g id="elem_Program"><rect codeLine="1" fill="#F1F1F1" height="56.6211" id="Program" rx="2.5" ry="2.5" style="stroke:#181818;stroke-width:0.5;" width="91" x="1071" y="109.87"/><ellipse cx="1086" cy="130.1805" fill="#ADD1B2" rx="11" ry="11" style="stroke:#181818;stroke-width:1.0;"/><path d="M1088.4731,136.3236 Q1087.8921,136.6224 1087.2529,136.7719 Q1086.6138,136.9213 1085.9082,136.9213 Q1083.4014,136.9213 1082.0815,135.2694 Q1080.7617,133.6176 1080.7617,130.4965 Q1080.7617,127.3671 1082.0815,125.7152 Q1083.4014,124.0634 1085.9082,124.0634 Q1086.6138,124.0634 1087.2612,124.2128 Q1087.9087,124.3622 1088.4731,124.661 L1088.4731,127.3837 Q1087.8423,126.8026 1087.2488,126.5328 Q1086.6553,126.2631 1086.0244,126.2631 Q1084.6797,126.2631 1083.9949,127.3297 Q1083.3101,128.3964 1083.3101,130.4965 Q1083.3101,132.5883 1083.9949,133.6549 Q1084.6797,134.7216 1086.0244,134.7216 Q1086.6553,134.7216 1087.2488,134.4518 Q1087.8423,134.182 1088.4731,133.601 Z " fill="#000000"/><text fill="#000000" font-family="sans-serif" font-size="12" font-style="italic" lengthAdjust="spacing" textLength="42" x="1108.5" y="126.4716">&#171;static&#187;</text><text fill="#000000" font-family="sans-serif" font-size="14" lengthAdjust="spacing" textLength="59" x="1100" y="142.538">Program</text><line style="stroke:#181818;stroke-width:0.5;" x1="1072" x2="1161" y1="150.4911" y2="150.4911"/><line style="stroke:#181818;stroke-width:0.5;" x1="1072" x2="1161" y1="158.4911" y2="158.4911"/></g><!--reverse link Objeto to SrPalito--><g id="link_Objeto_SrPalito"><path codeLine="9" d="M275.7766,282.717 C256.2566,303.057 249.18,310.43 231.49,328.87 " fill="none" id="Objeto-backto-SrPalito" style="stroke:#181818;stroke-width:1.0;"/><polygon fill="none" points="288.24,269.73,271.4475,278.5625,280.1056,286.8715,288.24,269.73" style="stroke:#181818;stroke-width:1.0;"/></g><!--reverse link GameWindow to Mundo--><g id="link_GameWindow_Mundo"><path codeLine="4" d="M973.5,180.48 C973.5,227.69 973.5,316.63 973.5,370.12 " fill="none" id="GameWindow-backto-Mundo" style="stroke:#181818;stroke-width:1.0;"/><polygon fill="none" points="973.5,162.48,967.5,180.48,979.5,180.48,973.5,162.48" style="stroke:#181818;stroke-width:1.0;"/></g><!--link Objeto to PrimitiveType--><g id="link_Objeto_PrimitiveType"><path codeLine="16" d="M413.5,269.73 C413.5,311.44 413.5,347.25 413.5,372.34 " fill="none" id="Objeto-to-PrimitiveType" style="stroke:#181818;stroke-width:1.0;"/><polygon fill="#181818" points="413.5,378.34,417.5,369.34,413.5,373.34,409.5,369.34,413.5,378.34" style="stroke:#181818;stroke-width:1.0;"/><text fill="#000000" font-family="sans-serif" font-size="13" lengthAdjust="spacing" textLength="83" x="320.3844" y="368.1511">PrimitivaTipo</text></g><!--link Objeto to Shader--><g id="link_Objeto_Shader"><path codeLine="17" d="M481.6,269.73 C503.36,311.44 522.3963,347.9296 535.4763,373.0196 " fill="none" id="Objeto-to-Shader" style="stroke:#181818;stroke-width:1.0;"/><polygon fill="#181818" points="538.25,378.34,537.6365,368.5103,535.9386,373.9063,530.5426,372.2085,538.25,378.34" style="stroke:#181818;stroke-width:1.0;"/><text fill="#000000" font-family="sans-serif" font-size="13" lengthAdjust="spacing" textLength="84" x="474.3671" y="368.0892">ShaderObjeto</text></g><!--SRC=[KypCIyufJKbLqDCFBWf8pCaioTShACtDuL94IFYMvgLWYledPQLYKHnGb9zUb9YB8PwVbANlaffKcgwVbrfYeMUWh-Vd6kASNvJgM52W4vPQL9oPdsTR1fJGSomkJirDogbqB2afoamgBKaj9coOitkydr6yCLolPrvQFbPTHQavgOd5gJ1zvPbvkXLc9XGx1eUnE9q50000]--></g></svg>