<?xml version="1.0" encoding="us-ascii" standalone="no"?><svg xmlns="http://www.w3.org/2000/svg" xmlns:xlink="http://www.w3.org/1999/xlink" contentStyleType="text/css" height="466px" preserveAspectRatio="none" style="width:2353px;height:466px;background:#FFFFFF;" version="1.1" viewBox="0 0 2353 466" width="2353px" zoomAndPan="magnify"><defs/><g><!--class Poligono--><g id="elem_Poligono"><rect codeLine="1" fill="#F1F1F1" height="80.9766" id="Poligono" rx="2.5" ry="2.5" style="stroke:#181818;stroke-width:0.5;" width="513" x="7" y="354.08"/><ellipse cx="228.75" cy="370.08" fill="#ADD1B2" rx="11" ry="11" style="stroke:#181818;stroke-width:1.0;"/><path d="M231.2231,376.2231 Q230.6421,376.5219 230.0029,376.6713 Q229.3638,376.8207 228.6582,376.8207 Q226.1514,376.8207 224.8315,375.1689 Q223.5117,373.517 223.5117,370.3959 Q223.5117,367.2665 224.8315,365.6147 Q226.1514,363.9628 228.6582,363.9628 Q229.3638,363.9628 230.0112,364.1122 Q230.6587,364.2616 231.2231,364.5605 L231.2231,367.2831 Q230.5923,366.7021 229.9988,366.4323 Q229.4053,366.1625 228.7744,366.1625 Q227.4297,366.1625 226.7449,367.2292 Q226.0601,368.2958 226.0601,370.3959 Q226.0601,372.4877 226.7449,373.5544 Q227.4297,374.621 228.7744,374.621 Q229.4053,374.621 229.9988,374.3512 Q230.5923,374.0815 231.2231,373.5004 Z " fill="#000000"/><text fill="#000000" font-family="sans-serif" font-size="14" lengthAdjust="spacing" textLength="61" x="249.25" y="375.371">Poligono</text><line style="stroke:#181818;stroke-width:0.5;" x1="8" x2="519" y1="386.08" y2="386.08"/><line style="stroke:#181818;stroke-width:0.5;" x1="8" x2="519" y1="394.08" y2="394.08"/><ellipse cx="18" cy="407.8241" fill="#84BE84" rx="3" ry="3" style="stroke:#038048;stroke-width:1.0;"/><text fill="#000000" font-family="sans-serif" font-size="14" lengthAdjust="spacing" textLength="487" x="27" y="411.6152">Poligono(_paiRef:Objeto, _rotulo:char, pontosPoligono:List&lt;Ponto4D&gt;)</text><ellipse cx="18" cy="424.3124" fill="#84BE84" rx="3" ry="3" style="stroke:#038048;stroke-width:1.0;"/><text fill="#000000" font-family="sans-serif" font-size="14" lengthAdjust="spacing" textLength="196" x="27" y="428.1034">&#171;override&#187; ToString() : string</text></g><!--class Objeto--><g id="elem_Objeto"><rect codeLine="1" fill="#F1F1F1" height="262.3477" id="Objeto" rx="2.5" ry="2.5" style="stroke:#181818;stroke-width:0.5;" width="409" x="837" y="7"/><ellipse cx="1014.25" cy="23" fill="#ADD1B2" rx="11" ry="11" style="stroke:#181818;stroke-width:1.0;"/><path d="M1016.7231,29.1431 Q1016.1421,29.4419 1015.5029,29.5913 Q1014.8638,29.7407 1014.1582,29.7407 Q1011.6514,29.7407 1010.3315,28.0889 Q1009.0117,26.437 1009.0117,23.3159 Q1009.0117,20.1865 1010.3315,18.5347 Q1011.6514,16.8828 1014.1582,16.8828 Q1014.8638,16.8828 1015.5112,17.0322 Q1016.1587,17.1816 1016.7231,17.4805 L1016.7231,20.2031 Q1016.0923,19.6221 1015.4988,19.3523 Q1014.9053,19.0825 1014.2744,19.0825 Q1012.9297,19.0825 1012.2449,20.1492 Q1011.5601,21.2158 1011.5601,23.3159 Q1011.5601,25.4077 1012.2449,26.4744 Q1012.9297,27.541 1014.2744,27.541 Q1014.9053,27.541 1015.4988,27.2712 Q1016.0923,27.0015 1016.7231,26.4204 Z " fill="#000000"/><text fill="#000000" font-family="sans-serif" font-size="14" lengthAdjust="spacing" textLength="46" x="1034.75" y="28.291">Objeto</text><line style="stroke:#181818;stroke-width:0.5;" x1="838" x2="1245" y1="39" y2="39"/><ellipse cx="848" cy="52.7441" fill="none" rx="3" ry="3" style="stroke:#038048;stroke-width:1.0;"/><text fill="#000000" font-family="sans-serif" font-size="14" lengthAdjust="spacing" textLength="245" x="857" y="56.5352">PrimitivaTamanho : float &#171;get&#187; &#171;set&#187;</text><line style="stroke:#181818;stroke-width:0.5;" x1="838" x2="1245" y1="63.4883" y2="63.4883"/><ellipse cx="848" cy="77.2324" fill="#84BE84" rx="3" ry="3" style="stroke:#038048;stroke-width:1.0;"/><text fill="#000000" font-family="sans-serif" font-size="14" lengthAdjust="spacing" textLength="91" x="857" y="81.0234">Bbox() : BBox</text><ellipse cx="848" cy="93.7207" fill="#84BE84" rx="3" ry="3" style="stroke:#038048;stroke-width:1.0;"/><text fill="#000000" font-family="sans-serif" font-size="14" lengthAdjust="spacing" textLength="383" x="857" y="97.5117">Objeto(_paiRef:Objeto, _rotulo:char, objetoFilho:Objeto)</text><ellipse cx="848" cy="110.209" fill="#84BE84" rx="3" ry="3" style="stroke:#038048;stroke-width:1.0;"/><text fill="#000000" font-family="sans-serif" font-size="14" lengthAdjust="spacing" textLength="159" x="857" y="114">ObjetoAtualizar() : void</text><ellipse cx="848" cy="126.6973" fill="#84BE84" rx="3" ry="3" style="stroke:#038048;stroke-width:1.0;"/><text fill="#000000" font-family="sans-serif" font-size="14" lengthAdjust="spacing" textLength="116" x="857" y="130.4883">Desenhar() : void</text><ellipse cx="848" cy="143.1855" fill="#84BE84" rx="3" ry="3" style="stroke:#038048;stroke-width:1.0;"/><text fill="#000000" font-family="sans-serif" font-size="14" lengthAdjust="spacing" textLength="232" x="857" y="146.9766">FilhoAdicionar(filho:Objeto) : void</text><ellipse cx="848" cy="159.6738" fill="#84BE84" rx="3" ry="3" style="stroke:#038048;stroke-width:1.0;"/><text fill="#000000" font-family="sans-serif" font-size="14" lengthAdjust="spacing" textLength="176" x="857" y="163.4648">PontosId(id:int) : Ponto4D</text><ellipse cx="848" cy="176.1621" fill="#84BE84" rx="3" ry="3" style="stroke:#038048;stroke-width:1.0;"/><text fill="#000000" font-family="sans-serif" font-size="14" lengthAdjust="spacing" textLength="250" x="857" y="179.9531">PontosAdicionar(pto:Ponto4D) : void</text><ellipse cx="848" cy="192.6504" fill="#84BE84" rx="3" ry="3" style="stroke:#038048;stroke-width:1.0;"/><text fill="#000000" font-family="sans-serif" font-size="14" lengthAdjust="spacing" textLength="314" x="857" y="196.4414">PontosAlterar(pto:Ponto4D, posicao:int) : void</text><ellipse cx="848" cy="209.1387" fill="#84BE84" rx="3" ry="3" style="stroke:#038048;stroke-width:1.0;"/><text fill="#000000" font-family="sans-serif" font-size="14" lengthAdjust="spacing" textLength="260" x="857" y="212.9297">GrafocenaBusca(_rotulo:char) : Objeto</text><ellipse cx="848" cy="225.627" fill="#84BE84" rx="3" ry="3" style="stroke:#038048;stroke-width:1.0;"/><text fill="#000000" font-family="sans-serif" font-size="14" lengthAdjust="spacing" textLength="365" x="857" y="229.418">GrafocenaBuscaProximo(objetoAtual:Objeto) : Objeto</text><ellipse cx="848" cy="242.1152" fill="#84BE84" rx="3" ry="3" style="stroke:#038048;stroke-width:1.0;"/><text fill="#000000" font-family="sans-serif" font-size="14" lengthAdjust="spacing" textLength="242" x="857" y="245.9063">GrafocenaImprimir(idt:string) : void</text><ellipse cx="848" cy="258.6035" fill="#84BE84" rx="3" ry="3" style="stroke:#038048;stroke-width:1.0;"/><text fill="#000000" font-family="sans-serif" font-size="14" lengthAdjust="spacing" textLength="120" x="857" y="262.3945">OnUnload() : void</text></g><!--class Mundo--><g id="elem_Mundo"><rect codeLine="1" fill="#F1F1F1" height="64.4883" id="Mundo" rx="2.5" ry="2.5" style="stroke:#181818;stroke-width:0.5;" width="696" x="1650.5" y="362.33"/><ellipse cx="1970.25" cy="378.33" fill="#ADD1B2" rx="11" ry="11" style="stroke:#181818;stroke-width:1.0;"/><path d="M1972.7231,384.4731 Q1972.1421,384.7719 1971.5029,384.9213 Q1970.8638,385.0707 1970.1582,385.0707 Q1967.6514,385.0707 1966.3315,383.4189 Q1965.0117,381.767 1965.0117,378.6459 Q1965.0117,375.5165 1966.3315,373.8647 Q1967.6514,372.2128 1970.1582,372.2128 Q1970.8638,372.2128 1971.5112,372.3622 Q1972.1587,372.5116 1972.7231,372.8105 L1972.7231,375.5331 Q1972.0923,374.9521 1971.4988,374.6823 Q1970.9053,374.4125 1970.2744,374.4125 Q1968.9297,374.4125 1968.2449,375.4792 Q1967.5601,376.5458 1967.5601,378.6459 Q1967.5601,380.7377 1968.2449,381.8044 Q1968.9297,382.871 1970.2744,382.871 Q1970.9053,382.871 1971.4988,382.6012 Q1972.0923,382.3315 1972.7231,381.7504 Z " fill="#000000"/><text fill="#000000" font-family="sans-serif" font-size="14" lengthAdjust="spacing" textLength="48" x="1990.75" y="383.621">Mundo</text><line style="stroke:#181818;stroke-width:0.5;" x1="1651.5" x2="2345.5" y1="394.33" y2="394.33"/><line style="stroke:#181818;stroke-width:0.5;" x1="1651.5" x2="2345.5" y1="402.33" y2="402.33"/><ellipse cx="1661.5" cy="416.0741" fill="#84BE84" rx="3" ry="3" style="stroke:#038048;stroke-width:1.0;"/><text fill="#000000" font-family="sans-serif" font-size="14" lengthAdjust="spacing" textLength="670" x="1670.5" y="419.8652">Mundo(gameWindowSettings:GameWindowSettings, nativeWindowSettings:NativeWindowSettings)</text></g><!--class GameWindow--><g id="elem_GameWindow"><rect fill="#F1F1F1" height="48" id="GameWindow" rx="2.5" ry="2.5" style="stroke:#181818;stroke-width:0.5;" width="125" x="1936" y="114.17"/><ellipse cx="1951" cy="130.17" fill="#ADD1B2" rx="11" ry="11" style="stroke:#181818;stroke-width:1.0;"/><path d="M1953.4731,136.3131 Q1952.8921,136.6119 1952.2529,136.7613 Q1951.6138,136.9107 1950.9082,136.9107 Q1948.4014,136.9107 1947.0815,135.2589 Q1945.7617,133.607 1945.7617,130.4859 Q1945.7617,127.3565 1947.0815,125.7047 Q1948.4014,124.0528 1950.9082,124.0528 Q1951.6138,124.0528 1952.2612,124.2022 Q1952.9087,124.3516 1953.4731,124.6505 L1953.4731,127.3731 Q1952.8423,126.7921 1952.2488,126.5223 Q1951.6553,126.2525 1951.0244,126.2525 Q1949.6797,126.2525 1948.9949,127.3192 Q1948.3101,128.3858 1948.3101,130.4859 Q1948.3101,132.5777 1948.9949,133.6444 Q1949.6797,134.711 1951.0244,134.711 Q1951.6553,134.711 1952.2488,134.4412 Q1952.8423,134.1715 1953.4731,133.5904 Z " fill="#000000"/><text fill="#000000" font-family="sans-serif" font-size="14" lengthAdjust="spacing" textLength="93" x="1965" y="135.461">GameWindow</text><line style="stroke:#181818;stroke-width:0.5;" x1="1937" x2="2060" y1="146.17" y2="146.17"/><line style="stroke:#181818;stroke-width:0.5;" x1="1937" x2="2060" y1="154.17" y2="154.17"/></g><!--class Spline--><g id="elem_Spline"><rect codeLine="1" fill="#F1F1F1" height="130.4414" id="Spline" rx="2.5" ry="2.5" style="stroke:#181818;stroke-width:0.5;" width="389" x="555" y="329.35"/><ellipse cx="724.25" cy="345.35" fill="#ADD1B2" rx="11" ry="11" style="stroke:#181818;stroke-width:1.0;"/><path d="M726.7231,351.4931 Q726.1421,351.7919 725.5029,351.9413 Q724.8638,352.0907 724.1582,352.0907 Q721.6514,352.0907 720.3315,350.4389 Q719.0117,348.787 719.0117,345.6659 Q719.0117,342.5365 720.3315,340.8847 Q721.6514,339.2328 724.1582,339.2328 Q724.8638,339.2328 725.5112,339.3822 Q726.1587,339.5316 726.7231,339.8305 L726.7231,342.5531 Q726.0923,341.9721 725.4988,341.7023 Q724.9053,341.4325 724.2744,341.4325 Q722.9297,341.4325 722.2449,342.4992 Q721.5601,343.5658 721.5601,345.6659 Q721.5601,347.7577 722.2449,348.8244 Q722.9297,349.891 724.2744,349.891 Q724.9053,349.891 725.4988,349.6212 Q726.0923,349.3515 726.7231,348.7704 Z " fill="#000000"/><text fill="#000000" font-family="sans-serif" font-size="14" lengthAdjust="spacing" textLength="42" x="744.75" y="350.641">Spline</text><line style="stroke:#181818;stroke-width:0.5;" x1="556" x2="943" y1="361.35" y2="361.35"/><line style="stroke:#181818;stroke-width:0.5;" x1="556" x2="943" y1="369.35" y2="369.35"/><ellipse cx="566" cy="383.0941" fill="#84BE84" rx="3" ry="3" style="stroke:#038048;stroke-width:1.0;"/><text fill="#000000" font-family="sans-serif" font-size="14" lengthAdjust="spacing" textLength="182" x="575" y="386.8852">SplineQtdPto(inc:int) : void</text><ellipse cx="566" cy="399.5824" fill="#84BE84" rx="3" ry="3" style="stroke:#038048;stroke-width:1.0;"/><text fill="#000000" font-family="sans-serif" font-size="14" lengthAdjust="spacing" textLength="243" x="575" y="403.3734">Spline(_paiRef:Objeto, _rotulo:char)</text><ellipse cx="566" cy="416.0707" fill="#84BE84" rx="3" ry="3" style="stroke:#038048;stroke-width:1.0;"/><text fill="#000000" font-family="sans-serif" font-size="14" lengthAdjust="spacing" textLength="113" x="575" y="419.8617">Atualizar() : void</text><ellipse cx="566" cy="432.559" fill="#84BE84" rx="3" ry="3" style="stroke:#038048;stroke-width:1.0;"/><text fill="#000000" font-family="sans-serif" font-size="14" lengthAdjust="spacing" textLength="363" x="575" y="436.35">AtualizarSpline(ptoInc:Ponto4D, proximo:bool) : void</text><ellipse cx="566" cy="449.0473" fill="#84BE84" rx="3" ry="3" style="stroke:#038048;stroke-width:1.0;"/><text fill="#000000" font-family="sans-serif" font-size="14" lengthAdjust="spacing" textLength="196" x="575" y="452.8383">&#171;override&#187; ToString() : string</text></g><!--class PrimitiveType--><g id="elem_PrimitiveType"><rect fill="#F1F1F1" height="48" id="PrimitiveType" rx="2.5" ry="2.5" style="stroke:#181818;stroke-width:0.5;" width="124" x="979.5" y="370.57"/><ellipse cx="994.5" cy="386.57" fill="#ADD1B2" rx="11" ry="11" style="stroke:#181818;stroke-width:1.0;"/><path d="M996.9731,392.7131 Q996.3921,393.0119 995.7529,393.1613 Q995.1138,393.3107 994.4082,393.3107 Q991.9014,393.3107 990.5815,391.6589 Q989.2617,390.007 989.2617,386.8859 Q989.2617,383.7565 990.5815,382.1047 Q991.9014,380.4528 994.4082,380.4528 Q995.1138,380.4528 995.7612,380.6022 Q996.4087,380.7516 996.9731,381.0505 L996.9731,383.7731 Q996.3423,383.1921 995.7488,382.9223 Q995.1553,382.6525 994.5244,382.6525 Q993.1797,382.6525 992.4949,383.7192 Q991.8101,384.7858 991.8101,386.8859 Q991.8101,388.9777 992.4949,390.0444 Q993.1797,391.111 994.5244,391.111 Q995.1553,391.111 995.7488,390.8412 Q996.3423,390.5715 996.9731,389.9904 Z " fill="#000000"/><text fill="#000000" font-family="sans-serif" font-size="14" lengthAdjust="spacing" textLength="92" x="1008.5" y="391.861">PrimitiveType</text><line style="stroke:#181818;stroke-width:0.5;" x1="980.5" x2="1102.5" y1="402.57" y2="402.57"/><line style="stroke:#181818;stroke-width:0.5;" x1="980.5" x2="1102.5" y1="410.57" y2="410.57"/></g><!--class Shader--><g id="elem_Shader"><rect fill="#F1F1F1" height="48" id="Shader" rx="2.5" ry="2.5" style="stroke:#181818;stroke-width:0.5;" width="80" x="1138.5" y="370.57"/><ellipse cx="1153.5" cy="386.57" fill="#ADD1B2" rx="11" ry="11" style="stroke:#181818;stroke-width:1.0;"/><path d="M1155.9731,392.7131 Q1155.3921,393.0119 1154.7529,393.1613 Q1154.1138,393.3107 1153.4082,393.3107 Q1150.9014,393.3107 1149.5815,391.6589 Q1148.2617,390.007 1148.2617,386.8859 Q1148.2617,383.7565 1149.5815,382.1047 Q1150.9014,380.4528 1153.4082,380.4528 Q1154.1138,380.4528 1154.7612,380.6022 Q1155.4087,380.7516 1155.9731,381.0505 L1155.9731,383.7731 Q1155.3423,383.1921 1154.7488,382.9223 Q1154.1553,382.6525 1153.5244,382.6525 Q1152.1797,382.6525 1151.4949,383.7192 Q1150.8101,384.7858 1150.8101,386.8859 Q1150.8101,388.9777 1151.4949,390.0444 Q1152.1797,391.111 1153.5244,391.111 Q1154.1553,391.111 1154.7488,390.8412 Q1155.3423,390.5715 1155.9731,389.9904 Z " fill="#000000"/><text fill="#000000" font-family="sans-serif" font-size="14" lengthAdjust="spacing" textLength="48" x="1167.5" y="391.861">Shader</text><line style="stroke:#181818;stroke-width:0.5;" x1="1139.5" x2="1217.5" y1="402.57" y2="402.57"/><line style="stroke:#181818;stroke-width:0.5;" x1="1139.5" x2="1217.5" y1="410.57" y2="410.57"/></g><!--class Ponto--><g id="elem_Ponto"><rect codeLine="1" fill="#F1F1F1" height="113.9531" id="Ponto" rx="2.5" ry="2.5" style="stroke:#181818;stroke-width:0.5;" width="361" x="1254" y="337.59"/><ellipse cx="1410.25" cy="353.59" fill="#ADD1B2" rx="11" ry="11" style="stroke:#181818;stroke-width:1.0;"/><path d="M1412.7231,359.7331 Q1412.1421,360.0319 1411.5029,360.1813 Q1410.8638,360.3307 1410.1582,360.3307 Q1407.6514,360.3307 1406.3315,358.6789 Q1405.0117,357.027 1405.0117,353.9059 Q1405.0117,350.7765 1406.3315,349.1247 Q1407.6514,347.4728 1410.1582,347.4728 Q1410.8638,347.4728 1411.5112,347.6222 Q1412.1587,347.7716 1412.7231,348.0705 L1412.7231,350.7931 Q1412.0923,350.2121 1411.4988,349.9423 Q1410.9053,349.6725 1410.2744,349.6725 Q1408.9297,349.6725 1408.2449,350.7392 Q1407.5601,351.8058 1407.5601,353.9059 Q1407.5601,355.9977 1408.2449,357.0644 Q1408.9297,358.131 1410.2744,358.131 Q1410.9053,358.131 1411.4988,357.8612 Q1412.0923,357.5915 1412.7231,357.0104 Z " fill="#000000"/><text fill="#000000" font-family="sans-serif" font-size="14" lengthAdjust="spacing" textLength="40" x="1430.75" y="358.881">Ponto</text><line style="stroke:#181818;stroke-width:0.5;" x1="1255" x2="1614" y1="369.59" y2="369.59"/><line style="stroke:#181818;stroke-width:0.5;" x1="1255" x2="1614" y1="377.59" y2="377.59"/><ellipse cx="1265" cy="391.3341" fill="#84BE84" rx="3" ry="3" style="stroke:#038048;stroke-width:1.0;"/><text fill="#000000" font-family="sans-serif" font-size="14" lengthAdjust="spacing" textLength="241" x="1274" y="395.1252">Ponto(_paiRef:Objeto, _rotulo:char)</text><ellipse cx="1265" cy="407.8224" fill="#84BE84" rx="3" ry="3" style="stroke:#038048;stroke-width:1.0;"/><text fill="#000000" font-family="sans-serif" font-size="14" lengthAdjust="spacing" textLength="335" x="1274" y="411.6134">Ponto(_paiRef:Objeto, _rotulo:char, pto:Ponto4D)</text><ellipse cx="1265" cy="424.3107" fill="#84BE84" rx="3" ry="3" style="stroke:#038048;stroke-width:1.0;"/><text fill="#000000" font-family="sans-serif" font-size="14" lengthAdjust="spacing" textLength="113" x="1274" y="428.1017">Atualizar() : void</text><ellipse cx="1265" cy="440.799" fill="#84BE84" rx="3" ry="3" style="stroke:#038048;stroke-width:1.0;"/><text fill="#000000" font-family="sans-serif" font-size="14" lengthAdjust="spacing" textLength="196" x="1274" y="444.59">&#171;override&#187; ToString() : string</text></g><!--class Program--><g id="elem_Program"><rect codeLine="1" fill="#F1F1F1" height="56.6211" id="Program" rx="2.5" ry="2.5" style="stroke:#181818;stroke-width:0.5;" width="91" x="2096" y="109.86"/><ellipse cx="2111" cy="130.1705" fill="#ADD1B2" rx="11" ry="11" style="stroke:#181818;stroke-width:1.0;"/><path d="M2113.4731,136.3136 Q2112.8921,136.6124 2112.2529,136.7619 Q2111.6138,136.9113 2110.9082,136.9113 Q2108.4014,136.9113 2107.0815,135.2594 Q2105.7617,133.6076 2105.7617,130.4865 Q2105.7617,127.3571 2107.0815,125.7052 Q2108.4014,124.0534 2110.9082,124.0534 Q2111.6138,124.0534 2112.2612,124.2028 Q2112.9087,124.3522 2113.4731,124.651 L2113.4731,127.3737 Q2112.8423,126.7926 2112.2488,126.5228 Q2111.6553,126.2531 2111.0244,126.2531 Q2109.6797,126.2531 2108.9949,127.3197 Q2108.3101,128.3864 2108.3101,130.4865 Q2108.3101,132.5783 2108.9949,133.6449 Q2109.6797,134.7116 2111.0244,134.7116 Q2111.6553,134.7116 2112.2488,134.4418 Q2112.8423,134.172 2113.4731,133.591 Z " fill="#000000"/><text fill="#000000" font-family="sans-serif" font-size="12" font-style="italic" lengthAdjust="spacing" textLength="42" x="2133.5" y="126.4616">&#171;static&#187;</text><text fill="#000000" font-family="sans-serif" font-size="14" lengthAdjust="spacing" textLength="59" x="2125" y="142.528">Program</text><line style="stroke:#181818;stroke-width:0.5;" x1="2097" x2="2186" y1="150.4811" y2="150.4811"/><line style="stroke:#181818;stroke-width:0.5;" x1="2097" x2="2186" y1="158.4811" y2="158.4811"/></g><!--reverse link Objeto to Poligono--><g id="link_Objeto_Poligono"><path codeLine="5" d="M819.4715,211.7746 C676.0815,258.6646 506.43,314.13 385.75,353.6 " fill="none" id="Objeto-backto-Poligono" style="stroke:#181818;stroke-width:1.0;"/><polygon fill="none" points="836.58,206.18,817.6066,206.0718,821.3364,217.4775,836.58,206.18" style="stroke:#181818;stroke-width:1.0;"/></g><!--reverse link GameWindow to Mundo--><g id="link_GameWindow_Mundo"><path codeLine="4" d="M1998.5,180.65 C1998.5,226.53 1998.5,310.12 1998.5,361.9 " fill="none" id="GameWindow-backto-Mundo" style="stroke:#181818;stroke-width:1.0;"/><polygon fill="none" points="1998.5,162.65,1992.5,180.65,2004.5,180.65,1998.5,162.65" style="stroke:#181818;stroke-width:1.0;"/></g><!--reverse link Objeto to Spline--><g id="link_Objeto_Spline"><path codeLine="8" d="M878.0774,281.553 C854.4174,302.163 844.46,310.84 823.55,329.06 " fill="none" id="Objeto-backto-Spline" style="stroke:#181818;stroke-width:1.0;"/><polygon fill="none" points="891.65,269.73,874.1364,277.0288,882.0184,286.0772,891.65,269.73" style="stroke:#181818;stroke-width:1.0;"/></g><!--link Objeto to PrimitiveType--><g id="link_Objeto_PrimitiveType"><path codeLine="16" d="M1041.5,269.73 C1041.5,308.52 1041.5,340.9 1041.5,364.41 " fill="none" id="Objeto-to-PrimitiveType" style="stroke:#181818;stroke-width:1.0;"/><polygon fill="#181818" points="1041.5,370.41,1045.5,361.41,1041.5,365.41,1037.5,361.41,1041.5,370.41" style="stroke:#181818;stroke-width:1.0;"/><text fill="#000000" font-family="sans-serif" font-size="13" lengthAdjust="spacing" textLength="83" x="947.8656" y="359.9053">PrimitivaTipo</text></g><!--link Objeto to Shader--><g id="link_Objeto_Shader"><path codeLine="17" d="M1111.81,269.73 C1132.7,308.52 1150.5253,341.6172 1163.1853,365.1272 " fill="none" id="Objeto-to-Shader" style="stroke:#181818;stroke-width:1.0;"/><polygon fill="#181818" points="1166.03,370.41,1165.2847,360.5894,1163.6594,366.0077,1158.2411,364.3824,1166.03,370.41" style="stroke:#181818;stroke-width:1.0;"/><text fill="#000000" font-family="sans-serif" font-size="13" lengthAdjust="spacing" textLength="84" x="1103.1262" y="359.8434">ShaderObjeto</text></g><!--reverse link Objeto to Ponto--><g id="link_Objeto_Ponto"><path codeLine="7" d="M1258.2922,279.5087 C1295.0422,303.2887 1316.44,317.15 1347.56,337.29 " fill="none" id="Objeto-backto-Ponto" style="stroke:#181818;stroke-width:1.0;"/><polygon fill="none" points="1243.18,269.73,1255.0326,284.5461,1261.5517,274.4713,1243.18,269.73" style="stroke:#181818;stroke-width:1.0;"/></g><!--SRC=[fOwx2i9054HxlyBqkYiInCOYH14BOq2n3Lbp4pPixbtsuUFljL6BJR2mFJDdc4ZYHVaAnepdf6H3I4pxJesYRx3tM8Nqg9L42F11jE32TaxOHmqrfkm2JgBbQn2-uGXkoMQSPPjJIWOIhITdC5OIhgwlW2NMGYVK8t7EIE4TsDzZwRR8vaNySNTOKwzbG45fuUtT94xlY_ZlCmEpWxUU]--></g></svg>