<?xml version="1.0" encoding="us-ascii" standalone="no"?><svg xmlns="http://www.w3.org/2000/svg" xmlns:xlink="http://www.w3.org/1999/xlink" contentStyleType="text/css" height="433px" preserveAspectRatio="none" style="width:1745px;height:433px;background:#FFFFFF;" version="1.1" viewBox="0 0 1745 433" width="1745px" zoomAndPan="magnify"><defs/><g><!--class Mundo--><g id="elem_Mundo"><rect codeLine="1" fill="#F1F1F1" height="64.4883" id="Mundo" rx="2.5" ry="2.5" style="stroke:#181818;stroke-width:0.5;" width="696" x="7" y="345.83"/><ellipse cx="326.75" cy="361.83" fill="#ADD1B2" rx="11" ry="11" style="stroke:#181818;stroke-width:1.0;"/><path d="M329.2231,367.9731 Q328.6421,368.2719 328.0029,368.4213 Q327.3638,368.5707 326.6582,368.5707 Q324.1514,368.5707 322.8315,366.9189 Q321.5117,365.267 321.5117,362.1459 Q321.5117,359.0165 322.8315,357.3647 Q324.1514,355.7128 326.6582,355.7128 Q327.3638,355.7128 328.0112,355.8622 Q328.6587,356.0116 329.2231,356.3105 L329.2231,359.0331 Q328.5923,358.4521 327.9988,358.1823 Q327.4053,357.9125 326.7744,357.9125 Q325.4297,357.9125 324.7449,358.9792 Q324.0601,360.0458 324.0601,362.1459 Q324.0601,364.2377 324.7449,365.3044 Q325.4297,366.371 326.7744,366.371 Q327.4053,366.371 327.9988,366.1012 Q328.5923,365.8315 329.2231,365.2504 Z " fill="#000000"/><text fill="#000000" font-family="sans-serif" font-size="14" lengthAdjust="spacing" textLength="48" x="347.25" y="367.121">Mundo</text><line style="stroke:#181818;stroke-width:0.5;" x1="8" x2="702" y1="377.83" y2="377.83"/><line style="stroke:#181818;stroke-width:0.5;" x1="8" x2="702" y1="385.83" y2="385.83"/><ellipse cx="18" cy="399.5741" fill="#84BE84" rx="3" ry="3" style="stroke:#038048;stroke-width:1.0;"/><text fill="#000000" font-family="sans-serif" font-size="14" lengthAdjust="spacing" textLength="670" x="27" y="403.3652">Mundo(gameWindowSettings:GameWindowSettings, nativeWindowSettings:NativeWindowSettings)</text></g><!--class GameWindow--><g id="elem_GameWindow"><rect fill="#F1F1F1" height="48" id="GameWindow" rx="2.5" ry="2.5" style="stroke:#181818;stroke-width:0.5;" width="125" x="292.5" y="114.17"/><ellipse cx="307.5" cy="130.17" fill="#ADD1B2" rx="11" ry="11" style="stroke:#181818;stroke-width:1.0;"/><path d="M309.9731,136.3131 Q309.3921,136.6119 308.7529,136.7613 Q308.1138,136.9107 307.4082,136.9107 Q304.9014,136.9107 303.5815,135.2589 Q302.2617,133.607 302.2617,130.4859 Q302.2617,127.3565 303.5815,125.7047 Q304.9014,124.0528 307.4082,124.0528 Q308.1138,124.0528 308.7612,124.2022 Q309.4087,124.3516 309.9731,124.6505 L309.9731,127.3731 Q309.3423,126.7921 308.7488,126.5223 Q308.1553,126.2525 307.5244,126.2525 Q306.1797,126.2525 305.4949,127.3192 Q304.8101,128.3858 304.8101,130.4859 Q304.8101,132.5777 305.4949,133.6444 Q306.1797,134.711 307.5244,134.711 Q308.1553,134.711 308.7488,134.4412 Q309.3423,134.1715 309.9731,133.5904 Z " fill="#000000"/><text fill="#000000" font-family="sans-serif" font-size="14" lengthAdjust="spacing" textLength="93" x="321.5" y="135.461">GameWindow</text><line style="stroke:#181818;stroke-width:0.5;" x1="293.5" x2="416.5" y1="146.17" y2="146.17"/><line style="stroke:#181818;stroke-width:0.5;" x1="293.5" x2="416.5" y1="154.17" y2="154.17"/></g><!--class Retangulo--><g id="elem_Retangulo"><rect codeLine="1" fill="#F1F1F1" height="97.4648" id="Retangulo" rx="2.5" ry="2.5" style="stroke:#181818;stroke-width:0.5;" width="573" x="738.5" y="329.35"/><ellipse cx="985.75" cy="345.35" fill="#ADD1B2" rx="11" ry="11" style="stroke:#181818;stroke-width:1.0;"/><path d="M988.2231,351.4931 Q987.6421,351.7919 987.0029,351.9413 Q986.3638,352.0907 985.6582,352.0907 Q983.1514,352.0907 981.8315,350.4389 Q980.5117,348.787 980.5117,345.6659 Q980.5117,342.5365 981.8315,340.8847 Q983.1514,339.2328 985.6582,339.2328 Q986.3638,339.2328 987.0112,339.3822 Q987.6587,339.5316 988.2231,339.8305 L988.2231,342.5531 Q987.5923,341.9721 986.9988,341.7023 Q986.4053,341.4325 985.7744,341.4325 Q984.4297,341.4325 983.7449,342.4992 Q983.0601,343.5658 983.0601,345.6659 Q983.0601,347.7577 983.7449,348.8244 Q984.4297,349.891 985.7744,349.891 Q986.4053,349.891 986.9988,349.6212 Q987.5923,349.3515 988.2231,348.7704 Z " fill="#000000"/><text fill="#000000" font-family="sans-serif" font-size="14" lengthAdjust="spacing" textLength="70" x="1006.25" y="350.641">Retangulo</text><line style="stroke:#181818;stroke-width:0.5;" x1="739.5" x2="1310.5" y1="361.35" y2="361.35"/><line style="stroke:#181818;stroke-width:0.5;" x1="739.5" x2="1310.5" y1="369.35" y2="369.35"/><ellipse cx="749.5" cy="383.0941" fill="#84BE84" rx="3" ry="3" style="stroke:#038048;stroke-width:1.0;"/><text fill="#000000" font-family="sans-serif" font-size="14" lengthAdjust="spacing" textLength="271" x="758.5" y="386.8852">Retangulo(_paiRef:Objeto, _rotulo:char)</text><ellipse cx="749.5" cy="399.5824" fill="#84BE84" rx="3" ry="3" style="stroke:#038048;stroke-width:1.0;"/><text fill="#000000" font-family="sans-serif" font-size="14" lengthAdjust="spacing" textLength="547" x="758.5" y="403.3734">Retangulo(_paiRef:Objeto, _rotulo:char, ptoInfEsq:Ponto4D, ptoSupDir:Ponto4D)</text><ellipse cx="749.5" cy="416.0707" fill="#84BE84" rx="3" ry="3" style="stroke:#038048;stroke-width:1.0;"/><text fill="#000000" font-family="sans-serif" font-size="14" lengthAdjust="spacing" textLength="196" x="758.5" y="419.8617">&#171;override&#187; ToString() : string</text></g><!--class Objeto--><g id="elem_Objeto"><rect codeLine="1" fill="#F1F1F1" height="262.3477" id="Objeto" rx="2.5" ry="2.5" style="stroke:#181818;stroke-width:0.5;" width="409" x="1203.5" y="7"/><ellipse cx="1380.75" cy="23" fill="#ADD1B2" rx="11" ry="11" style="stroke:#181818;stroke-width:1.0;"/><path d="M1383.2231,29.1431 Q1382.6421,29.4419 1382.0029,29.5913 Q1381.3638,29.7407 1380.6582,29.7407 Q1378.1514,29.7407 1376.8315,28.0889 Q1375.5117,26.437 1375.5117,23.3159 Q1375.5117,20.1865 1376.8315,18.5347 Q1378.1514,16.8828 1380.6582,16.8828 Q1381.3638,16.8828 1382.0112,17.0322 Q1382.6587,17.1816 1383.2231,17.4805 L1383.2231,20.2031 Q1382.5923,19.6221 1381.9988,19.3523 Q1381.4053,19.0825 1380.7744,19.0825 Q1379.4297,19.0825 1378.7449,20.1492 Q1378.0601,21.2158 1378.0601,23.3159 Q1378.0601,25.4077 1378.7449,26.4744 Q1379.4297,27.541 1380.7744,27.541 Q1381.4053,27.541 1381.9988,27.2712 Q1382.5923,27.0015 1383.2231,26.4204 Z " fill="#000000"/><text fill="#000000" font-family="sans-serif" font-size="14" lengthAdjust="spacing" textLength="46" x="1401.25" y="28.291">Objeto</text><line style="stroke:#181818;stroke-width:0.5;" x1="1204.5" x2="1611.5" y1="39" y2="39"/><ellipse cx="1214.5" cy="52.7441" fill="none" rx="3" ry="3" style="stroke:#038048;stroke-width:1.0;"/><text fill="#000000" font-family="sans-serif" font-size="14" lengthAdjust="spacing" textLength="245" x="1223.5" y="56.5352">PrimitivaTamanho : float &#171;get&#187; &#171;set&#187;</text><line style="stroke:#181818;stroke-width:0.5;" x1="1204.5" x2="1611.5" y1="63.4883" y2="63.4883"/><ellipse cx="1214.5" cy="77.2324" fill="#84BE84" rx="3" ry="3" style="stroke:#038048;stroke-width:1.0;"/><text fill="#000000" font-family="sans-serif" font-size="14" lengthAdjust="spacing" textLength="91" x="1223.5" y="81.0234">Bbox() : BBox</text><ellipse cx="1214.5" cy="93.7207" fill="#84BE84" rx="3" ry="3" style="stroke:#038048;stroke-width:1.0;"/><text fill="#000000" font-family="sans-serif" font-size="14" lengthAdjust="spacing" textLength="383" x="1223.5" y="97.5117">Objeto(_paiRef:Objeto, _rotulo:char, objetoFilho:Objeto)</text><ellipse cx="1214.5" cy="110.209" fill="#84BE84" rx="3" ry="3" style="stroke:#038048;stroke-width:1.0;"/><text fill="#000000" font-family="sans-serif" font-size="14" lengthAdjust="spacing" textLength="159" x="1223.5" y="114">ObjetoAtualizar() : void</text><ellipse cx="1214.5" cy="126.6973" fill="#84BE84" rx="3" ry="3" style="stroke:#038048;stroke-width:1.0;"/><text fill="#000000" font-family="sans-serif" font-size="14" lengthAdjust="spacing" textLength="116" x="1223.5" y="130.4883">Desenhar() : void</text><ellipse cx="1214.5" cy="143.1855" fill="#84BE84" rx="3" ry="3" style="stroke:#038048;stroke-width:1.0;"/><text fill="#000000" font-family="sans-serif" font-size="14" lengthAdjust="spacing" textLength="232" x="1223.5" y="146.9766">FilhoAdicionar(filho:Objeto) : void</text><ellipse cx="1214.5" cy="159.6738" fill="#84BE84" rx="3" ry="3" style="stroke:#038048;stroke-width:1.0;"/><text fill="#000000" font-family="sans-serif" font-size="14" lengthAdjust="spacing" textLength="176" x="1223.5" y="163.4648">PontosId(id:int) : Ponto4D</text><ellipse cx="1214.5" cy="176.1621" fill="#84BE84" rx="3" ry="3" style="stroke:#038048;stroke-width:1.0;"/><text fill="#000000" font-family="sans-serif" font-size="14" lengthAdjust="spacing" textLength="250" x="1223.5" y="179.9531">PontosAdicionar(pto:Ponto4D) : void</text><ellipse cx="1214.5" cy="192.6504" fill="#84BE84" rx="3" ry="3" style="stroke:#038048;stroke-width:1.0;"/><text fill="#000000" font-family="sans-serif" font-size="14" lengthAdjust="spacing" textLength="314" x="1223.5" y="196.4414">PontosAlterar(pto:Ponto4D, posicao:int) : void</text><ellipse cx="1214.5" cy="209.1387" fill="#84BE84" rx="3" ry="3" style="stroke:#038048;stroke-width:1.0;"/><text fill="#000000" font-family="sans-serif" font-size="14" lengthAdjust="spacing" textLength="260" x="1223.5" y="212.9297">GrafocenaBusca(_rotulo:char) : Objeto</text><ellipse cx="1214.5" cy="225.627" fill="#84BE84" rx="3" ry="3" style="stroke:#038048;stroke-width:1.0;"/><text fill="#000000" font-family="sans-serif" font-size="14" lengthAdjust="spacing" textLength="365" x="1223.5" y="229.418">GrafocenaBuscaProximo(objetoAtual:Objeto) : Objeto</text><ellipse cx="1214.5" cy="242.1152" fill="#84BE84" rx="3" ry="3" style="stroke:#038048;stroke-width:1.0;"/><text fill="#000000" font-family="sans-serif" font-size="14" lengthAdjust="spacing" textLength="242" x="1223.5" y="245.9063">GrafocenaImprimir(idt:string) : void</text><ellipse cx="1214.5" cy="258.6035" fill="#84BE84" rx="3" ry="3" style="stroke:#038048;stroke-width:1.0;"/><text fill="#000000" font-family="sans-serif" font-size="14" lengthAdjust="spacing" textLength="120" x="1223.5" y="262.3945">OnUnload() : void</text></g><!--class PrimitiveType--><g id="elem_PrimitiveType"><rect fill="#F1F1F1" height="48" id="PrimitiveType" rx="2.5" ry="2.5" style="stroke:#181818;stroke-width:0.5;" width="124" x="1346" y="354.08"/><ellipse cx="1361" cy="370.08" fill="#ADD1B2" rx="11" ry="11" style="stroke:#181818;stroke-width:1.0;"/><path d="M1363.4731,376.2231 Q1362.8921,376.5219 1362.2529,376.6713 Q1361.6138,376.8207 1360.9082,376.8207 Q1358.4014,376.8207 1357.0815,375.1689 Q1355.7617,373.517 1355.7617,370.3959 Q1355.7617,367.2665 1357.0815,365.6147 Q1358.4014,363.9628 1360.9082,363.9628 Q1361.6138,363.9628 1362.2612,364.1122 Q1362.9087,364.2616 1363.4731,364.5605 L1363.4731,367.2831 Q1362.8423,366.7021 1362.2488,366.4323 Q1361.6553,366.1625 1361.0244,366.1625 Q1359.6797,366.1625 1358.9949,367.2292 Q1358.3101,368.2958 1358.3101,370.3959 Q1358.3101,372.4877 1358.9949,373.5544 Q1359.6797,374.621 1361.0244,374.621 Q1361.6553,374.621 1362.2488,374.3512 Q1362.8423,374.0815 1363.4731,373.5004 Z " fill="#000000"/><text fill="#000000" font-family="sans-serif" font-size="14" lengthAdjust="spacing" textLength="92" x="1375" y="375.371">PrimitiveType</text><line style="stroke:#181818;stroke-width:0.5;" x1="1347" x2="1469" y1="386.08" y2="386.08"/><line style="stroke:#181818;stroke-width:0.5;" x1="1347" x2="1469" y1="394.08" y2="394.08"/></g><!--class Shader--><g id="elem_Shader"><rect fill="#F1F1F1" height="48" id="Shader" rx="2.5" ry="2.5" style="stroke:#181818;stroke-width:0.5;" width="80" x="1505" y="354.08"/><ellipse cx="1520" cy="370.08" fill="#ADD1B2" rx="11" ry="11" style="stroke:#181818;stroke-width:1.0;"/><path d="M1522.4731,376.2231 Q1521.8921,376.5219 1521.2529,376.6713 Q1520.6138,376.8207 1519.9082,376.8207 Q1517.4014,376.8207 1516.0815,375.1689 Q1514.7617,373.517 1514.7617,370.3959 Q1514.7617,367.2665 1516.0815,365.6147 Q1517.4014,363.9628 1519.9082,363.9628 Q1520.6138,363.9628 1521.2612,364.1122 Q1521.9087,364.2616 1522.4731,364.5605 L1522.4731,367.2831 Q1521.8423,366.7021 1521.2488,366.4323 Q1520.6553,366.1625 1520.0244,366.1625 Q1518.6797,366.1625 1517.9949,367.2292 Q1517.3101,368.2958 1517.3101,370.3959 Q1517.3101,372.4877 1517.9949,373.5544 Q1518.6797,374.621 1520.0244,374.621 Q1520.6553,374.621 1521.2488,374.3512 Q1521.8423,374.0815 1522.4731,373.5004 Z " fill="#000000"/><text fill="#000000" font-family="sans-serif" font-size="14" lengthAdjust="spacing" textLength="48" x="1534" y="375.371">Shader</text><line style="stroke:#181818;stroke-width:0.5;" x1="1506" x2="1584" y1="386.08" y2="386.08"/><line style="stroke:#181818;stroke-width:0.5;" x1="1506" x2="1584" y1="394.08" y2="394.08"/></g><!--class Program--><g id="elem_Program"><rect codeLine="1" fill="#F1F1F1" height="56.6211" id="Program" rx="2.5" ry="2.5" style="stroke:#181818;stroke-width:0.5;" width="91" x="1647.5" y="109.86"/><ellipse cx="1662.5" cy="130.1705" fill="#ADD1B2" rx="11" ry="11" style="stroke:#181818;stroke-width:1.0;"/><path d="M1664.9731,136.3136 Q1664.3921,136.6124 1663.7529,136.7619 Q1663.1138,136.9113 1662.4082,136.9113 Q1659.9014,136.9113 1658.5815,135.2594 Q1657.2617,133.6076 1657.2617,130.4865 Q1657.2617,127.3571 1658.5815,125.7052 Q1659.9014,124.0534 1662.4082,124.0534 Q1663.1138,124.0534 1663.7612,124.2028 Q1664.4087,124.3522 1664.9731,124.651 L1664.9731,127.3737 Q1664.3423,126.7926 1663.7488,126.5228 Q1663.1553,126.2531 1662.5244,126.2531 Q1661.1797,126.2531 1660.4949,127.3197 Q1659.8101,128.3864 1659.8101,130.4865 Q1659.8101,132.5783 1660.4949,133.6449 Q1661.1797,134.7116 1662.5244,134.7116 Q1663.1553,134.7116 1663.7488,134.4418 Q1664.3423,134.172 1664.9731,133.591 Z " fill="#000000"/><text fill="#000000" font-family="sans-serif" font-size="12" font-style="italic" lengthAdjust="spacing" textLength="42" x="1685" y="126.4616">&#171;static&#187;</text><text fill="#000000" font-family="sans-serif" font-size="14" lengthAdjust="spacing" textLength="59" x="1676.5" y="142.528">Program</text><line style="stroke:#181818;stroke-width:0.5;" x1="1648.5" x2="1737.5" y1="150.4811" y2="150.4811"/><line style="stroke:#181818;stroke-width:0.5;" x1="1648.5" x2="1737.5" y1="158.4811" y2="158.4811"/></g><!--reverse link GameWindow to Mundo--><g id="link_GameWindow_Mundo"><path codeLine="4" d="M355,180.42 C355,223.33 355,297.01 355,345.5 " fill="none" id="GameWindow-backto-Mundo" style="stroke:#181818;stroke-width:1.0;"/><polygon fill="none" points="355,162.42,349,180.42,361,180.42,355,162.42" style="stroke:#181818;stroke-width:1.0;"/></g><!--reverse link Objeto to Retangulo--><g id="link_Objeto_Retangulo"><path codeLine="6" d="M1187.76,275.9783 C1151.83,298.2983 1131.83,310.72 1102.26,329.09 " fill="none" id="Objeto-backto-Retangulo" style="stroke:#181818;stroke-width:1.0;"/><polygon fill="none" points="1203.05,266.48,1184.5939,270.8816,1190.9261,281.0749,1203.05,266.48" style="stroke:#181818;stroke-width:1.0;"/></g><!--link Objeto to PrimitiveType--><g id="link_Objeto_PrimitiveType"><path codeLine="16" d="M1408,269.61 C1408,302.08 1408,327.39 1408,347.76 " fill="none" id="Objeto-to-PrimitiveType" style="stroke:#181818;stroke-width:1.0;"/><polygon fill="#181818" points="1408,353.76,1412,344.76,1408,348.76,1404,344.76,1408,353.76" style="stroke:#181818;stroke-width:1.0;"/><text fill="#000000" font-family="sans-serif" font-size="13" lengthAdjust="spacing" textLength="83" x="1314.3656" y="343.2143">PrimitivaTipo</text></g><!--link Objeto to Shader--><g id="link_Objeto_Shader"><path codeLine="17" d="M1483.11,269.61 C1501.81,302.08 1516.8459,328.1905 1528.5759,348.5605 " fill="none" id="Objeto-to-Shader" style="stroke:#181818;stroke-width:1.0;"/><polygon fill="#181818" points="1531.57,353.76,1530.5452,343.9646,1529.0749,349.4271,1523.6124,347.9568,1531.57,353.76" style="stroke:#181818;stroke-width:1.0;"/><text fill="#000000" font-family="sans-serif" font-size="13" lengthAdjust="spacing" textLength="84" x="1468.4723" y="343.2143">ShaderObjeto</text></g><!--SRC=[fOwz2i8m64LtdyBkcaWHSN4eLSJ1AYAk9R5VGqho9UJ7dxVNHHrYSN0zbtEucSIpYWqC2Tr6R0onKQj1zg4720n5LEcouns45E-T4OxfX1lUqINmA2X2c9C99TNgM1e7XRMZ4pWl3Iukpu4KteFcwbw4u2IF0VplMBckgxpEt-u6M_FLSg20UNXvLudZsspwzvcURE-j1m00]--></g></svg>