<?xml version="1.0" encoding="us-ascii" standalone="no"?><svg xmlns="http://www.w3.org/2000/svg" xmlns:xlink="http://www.w3.org/1999/xlink" contentStyleType="text/css" height="466px" preserveAspectRatio="none" style="width:4413px;height:466px;background:#FFFFFF;" version="1.1" viewBox="0 0 4413 466" width="4413px" zoomAndPan="magnify"><defs/><g><!--class Poligono--><g id="elem_Poligono"><rect codeLine="1" fill="#F1F1F1" height="80.9766" id="Poligono" rx="2.5" ry="2.5" style="stroke:#181818;stroke-width:0.5;" width="506" x="7" y="345.84"/><ellipse cx="225.25" cy="361.84" fill="#ADD1B2" rx="11" ry="11" style="stroke:#181818;stroke-width:1.0;"/><path d="M227.7231,367.9831 Q227.1421,368.2819 226.5029,368.4313 Q225.8638,368.5807 225.1582,368.5807 Q222.6514,368.5807 221.3315,366.9289 Q220.0117,365.277 220.0117,362.1559 Q220.0117,359.0265 221.3315,357.3747 Q222.6514,355.7228 225.1582,355.7228 Q225.8638,355.7228 226.5112,355.8722 Q227.1587,356.0216 227.7231,356.3205 L227.7231,359.0431 Q227.0923,358.4621 226.4988,358.1923 Q225.9053,357.9225 225.2744,357.9225 Q223.9297,357.9225 223.2449,358.9892 Q222.5601,360.0558 222.5601,362.1559 Q222.5601,364.2477 223.2449,365.3144 Q223.9297,366.381 225.2744,366.381 Q225.9053,366.381 226.4988,366.1112 Q227.0923,365.8415 227.7231,365.2604 Z " fill="#000000"/><text fill="#000000" font-family="sans-serif" font-size="14" lengthAdjust="spacing" textLength="61" x="245.75" y="367.131">Poligono</text><line style="stroke:#181818;stroke-width:0.5;" x1="8" x2="512" y1="377.84" y2="377.84"/><line style="stroke:#181818;stroke-width:0.5;" x1="8" x2="512" y1="385.84" y2="385.84"/><ellipse cx="18" cy="399.5841" fill="#84BE84" rx="3" ry="3" style="stroke:#038048;stroke-width:1.0;"/><text fill="#000000" font-family="sans-serif" font-size="14" lengthAdjust="spacing" textLength="480" x="27" y="403.3752">Poligono(paiRef:Objeto, _rotulo:char, pontosPoligono:List&lt;Ponto4D&gt;)</text><ellipse cx="18" cy="416.0724" fill="#84BE84" rx="3" ry="3" style="stroke:#038048;stroke-width:1.0;"/><text fill="#000000" font-family="sans-serif" font-size="14" lengthAdjust="spacing" textLength="196" x="27" y="419.8634">&#171;override&#187; ToString() : string</text></g><!--class Objeto--><g id="elem_Objeto"><rect codeLine="1" fill="#F1F1F1" height="245.8594" id="Objeto" rx="2.5" ry="2.5" style="stroke:#181818;stroke-width:0.5;" width="402" x="1779" y="7"/><ellipse cx="1952.75" cy="23" fill="#ADD1B2" rx="11" ry="11" style="stroke:#181818;stroke-width:1.0;"/><path d="M1955.2231,29.1431 Q1954.6421,29.4419 1954.0029,29.5913 Q1953.3638,29.7407 1952.6582,29.7407 Q1950.1514,29.7407 1948.8315,28.0889 Q1947.5117,26.437 1947.5117,23.3159 Q1947.5117,20.1865 1948.8315,18.5347 Q1950.1514,16.8828 1952.6582,16.8828 Q1953.3638,16.8828 1954.0112,17.0322 Q1954.6587,17.1816 1955.2231,17.4805 L1955.2231,20.2031 Q1954.5923,19.6221 1953.9988,19.3523 Q1953.4053,19.0825 1952.7744,19.0825 Q1951.4297,19.0825 1950.7449,20.1492 Q1950.0601,21.2158 1950.0601,23.3159 Q1950.0601,25.4077 1950.7449,26.4744 Q1951.4297,27.541 1952.7744,27.541 Q1953.4053,27.541 1953.9988,27.2712 Q1954.5923,27.0015 1955.2231,26.4204 Z " fill="#000000"/><text fill="#000000" font-family="sans-serif" font-size="14" lengthAdjust="spacing" textLength="46" x="1973.25" y="28.291">Objeto</text><line style="stroke:#181818;stroke-width:0.5;" x1="1780" x2="2180" y1="39" y2="39"/><ellipse cx="1790" cy="52.7441" fill="none" rx="3" ry="3" style="stroke:#038048;stroke-width:1.0;"/><text fill="#000000" font-family="sans-serif" font-size="14" lengthAdjust="spacing" textLength="245" x="1799" y="56.5352">PrimitivaTamanho : float &#171;get&#187; &#171;set&#187;</text><line style="stroke:#181818;stroke-width:0.5;" x1="1780" x2="2180" y1="63.4883" y2="63.4883"/><ellipse cx="1790" cy="77.2324" fill="#84BE84" rx="3" ry="3" style="stroke:#038048;stroke-width:1.0;"/><text fill="#000000" font-family="sans-serif" font-size="14" lengthAdjust="spacing" textLength="91" x="1799" y="81.0234">Bbox() : BBox</text><ellipse cx="1790" cy="93.7207" fill="#84BE84" rx="3" ry="3" style="stroke:#038048;stroke-width:1.0;"/><text fill="#000000" font-family="sans-serif" font-size="14" lengthAdjust="spacing" textLength="376" x="1799" y="97.5117">Objeto(paiRef:Objeto, _rotulo:char, objetoFilho:Objeto)</text><ellipse cx="1790" cy="110.209" fill="#84BE84" rx="3" ry="3" style="stroke:#038048;stroke-width:1.0;"/><text fill="#000000" font-family="sans-serif" font-size="14" lengthAdjust="spacing" textLength="159" x="1799" y="114">ObjetoAtualizar() : void</text><ellipse cx="1790" cy="126.6973" fill="#84BE84" rx="3" ry="3" style="stroke:#038048;stroke-width:1.0;"/><text fill="#000000" font-family="sans-serif" font-size="14" lengthAdjust="spacing" textLength="116" x="1799" y="130.4883">Desenhar() : void</text><ellipse cx="1790" cy="143.1855" fill="#84BE84" rx="3" ry="3" style="stroke:#038048;stroke-width:1.0;"/><text fill="#000000" font-family="sans-serif" font-size="14" lengthAdjust="spacing" textLength="232" x="1799" y="146.9766">FilhoAdicionar(filho:Objeto) : void</text><ellipse cx="1790" cy="159.6738" fill="#84BE84" rx="3" ry="3" style="stroke:#038048;stroke-width:1.0;"/><text fill="#000000" font-family="sans-serif" font-size="14" lengthAdjust="spacing" textLength="176" x="1799" y="163.4648">PontosId(id:int) : Ponto4D</text><ellipse cx="1790" cy="176.1621" fill="#84BE84" rx="3" ry="3" style="stroke:#038048;stroke-width:1.0;"/><text fill="#000000" font-family="sans-serif" font-size="14" lengthAdjust="spacing" textLength="250" x="1799" y="179.9531">PontosAdicionar(pto:Ponto4D) : void</text><ellipse cx="1790" cy="192.6504" fill="#84BE84" rx="3" ry="3" style="stroke:#038048;stroke-width:1.0;"/><text fill="#000000" font-family="sans-serif" font-size="14" lengthAdjust="spacing" textLength="314" x="1799" y="196.4414">PontosAlterar(pto:Ponto4D, posicao:int) : void</text><ellipse cx="1790" cy="209.1387" fill="#84BE84" rx="3" ry="3" style="stroke:#038048;stroke-width:1.0;"/><text fill="#000000" font-family="sans-serif" font-size="14" lengthAdjust="spacing" textLength="260" x="1799" y="212.9297">GrafocenaBusca(_rotulo:char) : Objeto</text><ellipse cx="1790" cy="225.627" fill="#84BE84" rx="3" ry="3" style="stroke:#038048;stroke-width:1.0;"/><text fill="#000000" font-family="sans-serif" font-size="14" lengthAdjust="spacing" textLength="243" x="1799" y="229.418">GrafocenaImprimir(idt:String) : void</text><ellipse cx="1790" cy="242.1152" fill="#84BE84" rx="3" ry="3" style="stroke:#038048;stroke-width:1.0;"/><text fill="#000000" font-family="sans-serif" font-size="14" lengthAdjust="spacing" textLength="120" x="1799" y="245.9063">OnUnload() : void</text></g><!--class SrPalito--><g id="elem_SrPalito"><rect codeLine="1" fill="#F1F1F1" height="146.9297" id="SrPalito" rx="2.5" ry="2.5" style="stroke:#181818;stroke-width:0.5;" width="309" x="548.5" y="312.86"/><ellipse cx="672.75" cy="328.86" fill="#ADD1B2" rx="11" ry="11" style="stroke:#181818;stroke-width:1.0;"/><path d="M675.2231,335.0031 Q674.6421,335.3019 674.0029,335.4513 Q673.3638,335.6007 672.6582,335.6007 Q670.1514,335.6007 668.8315,333.9489 Q667.5117,332.297 667.5117,329.1759 Q667.5117,326.0465 668.8315,324.3947 Q670.1514,322.7428 672.6582,322.7428 Q673.3638,322.7428 674.0112,322.8922 Q674.6587,323.0416 675.2231,323.3405 L675.2231,326.0631 Q674.5923,325.4821 673.9988,325.2123 Q673.4053,324.9425 672.7744,324.9425 Q671.4297,324.9425 670.7449,326.0092 Q670.0601,327.0758 670.0601,329.1759 Q670.0601,331.2677 670.7449,332.3344 Q671.4297,333.401 672.7744,333.401 Q673.4053,333.401 673.9988,333.1312 Q674.5923,332.8615 675.2231,332.2804 Z " fill="#000000"/><text fill="#000000" font-family="sans-serif" font-size="14" lengthAdjust="spacing" textLength="52" x="693.25" y="334.151">SrPalito</text><line style="stroke:#181818;stroke-width:0.5;" x1="549.5" x2="856.5" y1="344.86" y2="344.86"/><line style="stroke:#181818;stroke-width:0.5;" x1="549.5" x2="856.5" y1="352.86" y2="352.86"/><ellipse cx="559.5" cy="366.6041" fill="#84BE84" rx="3" ry="3" style="stroke:#038048;stroke-width:1.0;"/><text fill="#000000" font-family="sans-serif" font-size="14" lengthAdjust="spacing" textLength="246" x="568.5" y="370.3952">SrPalito(paiRef:Objeto, _rotulo:char)</text><ellipse cx="559.5" cy="383.0924" fill="#84BE84" rx="3" ry="3" style="stroke:#038048;stroke-width:1.0;"/><text fill="#000000" font-family="sans-serif" font-size="14" lengthAdjust="spacing" textLength="113" x="568.5" y="386.8834">Atualizar() : void</text><ellipse cx="559.5" cy="399.5807" fill="#84BE84" rx="3" ry="3" style="stroke:#038048;stroke-width:1.0;"/><text fill="#000000" font-family="sans-serif" font-size="14" lengthAdjust="spacing" textLength="218" x="568.5" y="403.3717">AtualizarPe(peInc:double) : void</text><ellipse cx="559.5" cy="416.069" fill="#84BE84" rx="3" ry="3" style="stroke:#038048;stroke-width:1.0;"/><text fill="#000000" font-family="sans-serif" font-size="14" lengthAdjust="spacing" textLength="242" x="568.5" y="419.86">AtualizarRaio(raioInc:double) : void</text><ellipse cx="559.5" cy="432.5573" fill="#84BE84" rx="3" ry="3" style="stroke:#038048;stroke-width:1.0;"/><text fill="#000000" font-family="sans-serif" font-size="14" lengthAdjust="spacing" textLength="283" x="568.5" y="436.3483">AtualizarAngulo(anguloInc:double) : void</text><ellipse cx="559.5" cy="449.0455" fill="#84BE84" rx="3" ry="3" style="stroke:#038048;stroke-width:1.0;"/><text fill="#000000" font-family="sans-serif" font-size="14" lengthAdjust="spacing" textLength="196" x="568.5" y="452.8366">&#171;override&#187; ToString() : string</text></g><!--class Mundo--><g id="elem_Mundo"><rect codeLine="1" fill="#F1F1F1" height="64.4883" id="Mundo" rx="2.5" ry="2.5" style="stroke:#181818;stroke-width:0.5;" width="696" x="3710" y="354.08"/><ellipse cx="4029.75" cy="370.08" fill="#ADD1B2" rx="11" ry="11" style="stroke:#181818;stroke-width:1.0;"/><path d="M4032.2231,376.2231 Q4031.6421,376.5219 4031.0029,376.6713 Q4030.3638,376.8207 4029.6582,376.8207 Q4027.1514,376.8207 4025.8315,375.1689 Q4024.5117,373.517 4024.5117,370.3959 Q4024.5117,367.2665 4025.8315,365.6147 Q4027.1514,363.9628 4029.6582,363.9628 Q4030.3638,363.9628 4031.0112,364.1122 Q4031.6587,364.2616 4032.2231,364.5605 L4032.2231,367.2831 Q4031.5923,366.7021 4030.9988,366.4323 Q4030.4053,366.1625 4029.7744,366.1625 Q4028.4297,366.1625 4027.7449,367.2292 Q4027.0601,368.2958 4027.0601,370.3959 Q4027.0601,372.4877 4027.7449,373.5544 Q4028.4297,374.621 4029.7744,374.621 Q4030.4053,374.621 4030.9988,374.3512 Q4031.5923,374.0815 4032.2231,373.5004 Z " fill="#000000"/><text fill="#000000" font-family="sans-serif" font-size="14" lengthAdjust="spacing" textLength="48" x="4050.25" y="375.371">Mundo</text><line style="stroke:#181818;stroke-width:0.5;" x1="3711" x2="4405" y1="386.08" y2="386.08"/><line style="stroke:#181818;stroke-width:0.5;" x1="3711" x2="4405" y1="394.08" y2="394.08"/><ellipse cx="3721" cy="407.8241" fill="#84BE84" rx="3" ry="3" style="stroke:#038048;stroke-width:1.0;"/><text fill="#000000" font-family="sans-serif" font-size="14" lengthAdjust="spacing" textLength="670" x="3730" y="411.6152">Mundo(gameWindowSettings:GameWindowSettings, nativeWindowSettings:NativeWindowSettings)</text></g><!--class GameWindow--><g id="elem_GameWindow"><rect fill="#F1F1F1" height="48" id="GameWindow" rx="2.5" ry="2.5" style="stroke:#181818;stroke-width:0.5;" width="125" x="3995.5" y="105.93"/><ellipse cx="4010.5" cy="121.93" fill="#ADD1B2" rx="11" ry="11" style="stroke:#181818;stroke-width:1.0;"/><path d="M4012.9731,128.0731 Q4012.3921,128.3719 4011.7529,128.5213 Q4011.1138,128.6707 4010.4082,128.6707 Q4007.9014,128.6707 4006.5815,127.0189 Q4005.2617,125.367 4005.2617,122.2459 Q4005.2617,119.1165 4006.5815,117.4647 Q4007.9014,115.8128 4010.4082,115.8128 Q4011.1138,115.8128 4011.7612,115.9622 Q4012.4087,116.1116 4012.9731,116.4105 L4012.9731,119.1331 Q4012.3423,118.5521 4011.7488,118.2823 Q4011.1553,118.0125 4010.5244,118.0125 Q4009.1797,118.0125 4008.4949,119.0792 Q4007.8101,120.1458 4007.8101,122.2459 Q4007.8101,124.3377 4008.4949,125.4044 Q4009.1797,126.471 4010.5244,126.471 Q4011.1553,126.471 4011.7488,126.2012 Q4012.3423,125.9315 4012.9731,125.3504 Z " fill="#000000"/><text fill="#000000" font-family="sans-serif" font-size="14" lengthAdjust="spacing" textLength="93" x="4024.5" y="127.221">GameWindow</text><line style="stroke:#181818;stroke-width:0.5;" x1="3996.5" x2="4119.5" y1="137.93" y2="137.93"/><line style="stroke:#181818;stroke-width:0.5;" x1="3996.5" x2="4119.5" y1="145.93" y2="145.93"/></g><!--class Spline--><g id="elem_Spline"><rect codeLine="1" fill="#F1F1F1" height="130.4414" id="Spline" rx="2.5" ry="2.5" style="stroke:#181818;stroke-width:0.5;" width="389" x="892.5" y="321.1"/><ellipse cx="1061.75" cy="337.1" fill="#ADD1B2" rx="11" ry="11" style="stroke:#181818;stroke-width:1.0;"/><path d="M1064.2231,343.2431 Q1063.6421,343.5419 1063.0029,343.6913 Q1062.3638,343.8407 1061.6582,343.8407 Q1059.1514,343.8407 1057.8315,342.1889 Q1056.5117,340.537 1056.5117,337.4159 Q1056.5117,334.2865 1057.8315,332.6347 Q1059.1514,330.9828 1061.6582,330.9828 Q1062.3638,330.9828 1063.0112,331.1322 Q1063.6587,331.2816 1064.2231,331.5805 L1064.2231,334.3031 Q1063.5923,333.7221 1062.9988,333.4523 Q1062.4053,333.1825 1061.7744,333.1825 Q1060.4297,333.1825 1059.7449,334.2492 Q1059.0601,335.3158 1059.0601,337.4159 Q1059.0601,339.5077 1059.7449,340.5744 Q1060.4297,341.641 1061.7744,341.641 Q1062.4053,341.641 1062.9988,341.3712 Q1063.5923,341.1015 1064.2231,340.5204 Z " fill="#000000"/><text fill="#000000" font-family="sans-serif" font-size="14" lengthAdjust="spacing" textLength="42" x="1082.25" y="342.391">Spline</text><line style="stroke:#181818;stroke-width:0.5;" x1="893.5" x2="1280.5" y1="353.1" y2="353.1"/><line style="stroke:#181818;stroke-width:0.5;" x1="893.5" x2="1280.5" y1="361.1" y2="361.1"/><ellipse cx="903.5" cy="374.8441" fill="#84BE84" rx="3" ry="3" style="stroke:#038048;stroke-width:1.0;"/><text fill="#000000" font-family="sans-serif" font-size="14" lengthAdjust="spacing" textLength="182" x="912.5" y="378.6352">SplineQtdPto(inc:int) : void</text><ellipse cx="903.5" cy="391.3324" fill="#84BE84" rx="3" ry="3" style="stroke:#038048;stroke-width:1.0;"/><text fill="#000000" font-family="sans-serif" font-size="14" lengthAdjust="spacing" textLength="236" x="912.5" y="395.1234">Spline(paiRef:Objeto, _rotulo:char)</text><ellipse cx="903.5" cy="407.8207" fill="#84BE84" rx="3" ry="3" style="stroke:#038048;stroke-width:1.0;"/><text fill="#000000" font-family="sans-serif" font-size="14" lengthAdjust="spacing" textLength="113" x="912.5" y="411.6117">Atualizar() : void</text><ellipse cx="903.5" cy="424.309" fill="#84BE84" rx="3" ry="3" style="stroke:#038048;stroke-width:1.0;"/><text fill="#000000" font-family="sans-serif" font-size="14" lengthAdjust="spacing" textLength="363" x="912.5" y="428.1">AtualizarSpline(ptoInc:Ponto4D, proximo:bool) : void</text><ellipse cx="903.5" cy="440.7973" fill="#84BE84" rx="3" ry="3" style="stroke:#038048;stroke-width:1.0;"/><text fill="#000000" font-family="sans-serif" font-size="14" lengthAdjust="spacing" textLength="196" x="912.5" y="444.5883">&#171;override&#187; ToString() : string</text></g><!--class Retangulo--><g id="elem_Retangulo"><rect codeLine="1" fill="#F1F1F1" height="80.9766" id="Retangulo" rx="2.5" ry="2.5" style="stroke:#181818;stroke-width:0.5;" width="566" x="1317" y="345.84"/><ellipse cx="1560.75" cy="361.84" fill="#ADD1B2" rx="11" ry="11" style="stroke:#181818;stroke-width:1.0;"/><path d="M1563.2231,367.9831 Q1562.6421,368.2819 1562.0029,368.4313 Q1561.3638,368.5807 1560.6582,368.5807 Q1558.1514,368.5807 1556.8315,366.9289 Q1555.5117,365.277 1555.5117,362.1559 Q1555.5117,359.0265 1556.8315,357.3747 Q1558.1514,355.7228 1560.6582,355.7228 Q1561.3638,355.7228 1562.0112,355.8722 Q1562.6587,356.0216 1563.2231,356.3205 L1563.2231,359.0431 Q1562.5923,358.4621 1561.9988,358.1923 Q1561.4053,357.9225 1560.7744,357.9225 Q1559.4297,357.9225 1558.7449,358.9892 Q1558.0601,360.0558 1558.0601,362.1559 Q1558.0601,364.2477 1558.7449,365.3144 Q1559.4297,366.381 1560.7744,366.381 Q1561.4053,366.381 1561.9988,366.1112 Q1562.5923,365.8415 1563.2231,365.2604 Z " fill="#000000"/><text fill="#000000" font-family="sans-serif" font-size="14" lengthAdjust="spacing" textLength="70" x="1581.25" y="367.131">Retangulo</text><line style="stroke:#181818;stroke-width:0.5;" x1="1318" x2="1882" y1="377.84" y2="377.84"/><line style="stroke:#181818;stroke-width:0.5;" x1="1318" x2="1882" y1="385.84" y2="385.84"/><ellipse cx="1328" cy="399.5841" fill="#84BE84" rx="3" ry="3" style="stroke:#038048;stroke-width:1.0;"/><text fill="#000000" font-family="sans-serif" font-size="14" lengthAdjust="spacing" textLength="540" x="1337" y="403.3752">Retangulo(paiRef:Objeto, _rotulo:char, ptoInfEsq:Ponto4D, ptoSupDir:Ponto4D)</text><ellipse cx="1328" cy="416.0724" fill="#84BE84" rx="3" ry="3" style="stroke:#038048;stroke-width:1.0;"/><text fill="#000000" font-family="sans-serif" font-size="14" lengthAdjust="spacing" textLength="196" x="1337" y="419.8634">&#171;override&#187; ToString() : string</text></g><!--class PrimitiveType--><g id="elem_PrimitiveType"><rect fill="#F1F1F1" height="48" id="PrimitiveType" rx="2.5" ry="2.5" style="stroke:#181818;stroke-width:0.5;" width="124" x="1918" y="362.33"/><ellipse cx="1933" cy="378.33" fill="#ADD1B2" rx="11" ry="11" style="stroke:#181818;stroke-width:1.0;"/><path d="M1935.4731,384.4731 Q1934.8921,384.7719 1934.2529,384.9213 Q1933.6138,385.0707 1932.9082,385.0707 Q1930.4014,385.0707 1929.0815,383.4189 Q1927.7617,381.767 1927.7617,378.6459 Q1927.7617,375.5165 1929.0815,373.8647 Q1930.4014,372.2128 1932.9082,372.2128 Q1933.6138,372.2128 1934.2612,372.3622 Q1934.9087,372.5116 1935.4731,372.8105 L1935.4731,375.5331 Q1934.8423,374.9521 1934.2488,374.6823 Q1933.6553,374.4125 1933.0244,374.4125 Q1931.6797,374.4125 1930.9949,375.4792 Q1930.3101,376.5458 1930.3101,378.6459 Q1930.3101,380.7377 1930.9949,381.8044 Q1931.6797,382.871 1933.0244,382.871 Q1933.6553,382.871 1934.2488,382.6012 Q1934.8423,382.3315 1935.4731,381.7504 Z " fill="#000000"/><text fill="#000000" font-family="sans-serif" font-size="14" lengthAdjust="spacing" textLength="92" x="1947" y="383.621">PrimitiveType</text><line style="stroke:#181818;stroke-width:0.5;" x1="1919" x2="2041" y1="394.33" y2="394.33"/><line style="stroke:#181818;stroke-width:0.5;" x1="1919" x2="2041" y1="402.33" y2="402.33"/></g><!--class Shader--><g id="elem_Shader"><rect fill="#F1F1F1" height="48" id="Shader" rx="2.5" ry="2.5" style="stroke:#181818;stroke-width:0.5;" width="80" x="2077" y="362.33"/><ellipse cx="2092" cy="378.33" fill="#ADD1B2" rx="11" ry="11" style="stroke:#181818;stroke-width:1.0;"/><path d="M2094.4731,384.4731 Q2093.8921,384.7719 2093.2529,384.9213 Q2092.6138,385.0707 2091.9082,385.0707 Q2089.4014,385.0707 2088.0815,383.4189 Q2086.7617,381.767 2086.7617,378.6459 Q2086.7617,375.5165 2088.0815,373.8647 Q2089.4014,372.2128 2091.9082,372.2128 Q2092.6138,372.2128 2093.2612,372.3622 Q2093.9087,372.5116 2094.4731,372.8105 L2094.4731,375.5331 Q2093.8423,374.9521 2093.2488,374.6823 Q2092.6553,374.4125 2092.0244,374.4125 Q2090.6797,374.4125 2089.9949,375.4792 Q2089.3101,376.5458 2089.3101,378.6459 Q2089.3101,380.7377 2089.9949,381.8044 Q2090.6797,382.871 2092.0244,382.871 Q2092.6553,382.871 2093.2488,382.6012 Q2093.8423,382.3315 2094.4731,381.7504 Z " fill="#000000"/><text fill="#000000" font-family="sans-serif" font-size="14" lengthAdjust="spacing" textLength="48" x="2106" y="383.621">Shader</text><line style="stroke:#181818;stroke-width:0.5;" x1="2078" x2="2156" y1="394.33" y2="394.33"/><line style="stroke:#181818;stroke-width:0.5;" x1="2078" x2="2156" y1="402.33" y2="402.33"/></g><!--class Ponto--><g id="elem_Ponto"><rect codeLine="1" fill="#F1F1F1" height="97.4648" id="Ponto" rx="2.5" ry="2.5" style="stroke:#181818;stroke-width:0.5;" width="354" x="2192" y="337.59"/><ellipse cx="2344.75" cy="353.59" fill="#ADD1B2" rx="11" ry="11" style="stroke:#181818;stroke-width:1.0;"/><path d="M2347.2231,359.7331 Q2346.6421,360.0319 2346.0029,360.1813 Q2345.3638,360.3307 2344.6582,360.3307 Q2342.1514,360.3307 2340.8315,358.6789 Q2339.5117,357.027 2339.5117,353.9059 Q2339.5117,350.7765 2340.8315,349.1247 Q2342.1514,347.4728 2344.6582,347.4728 Q2345.3638,347.4728 2346.0112,347.6222 Q2346.6587,347.7716 2347.2231,348.0705 L2347.2231,350.7931 Q2346.5923,350.2121 2345.9988,349.9423 Q2345.4053,349.6725 2344.7744,349.6725 Q2343.4297,349.6725 2342.7449,350.7392 Q2342.0601,351.8058 2342.0601,353.9059 Q2342.0601,355.9977 2342.7449,357.0644 Q2343.4297,358.131 2344.7744,358.131 Q2345.4053,358.131 2345.9988,357.8612 Q2346.5923,357.5915 2347.2231,357.0104 Z " fill="#000000"/><text fill="#000000" font-family="sans-serif" font-size="14" lengthAdjust="spacing" textLength="40" x="2365.25" y="358.881">Ponto</text><line style="stroke:#181818;stroke-width:0.5;" x1="2193" x2="2545" y1="369.59" y2="369.59"/><line style="stroke:#181818;stroke-width:0.5;" x1="2193" x2="2545" y1="377.59" y2="377.59"/><ellipse cx="2203" cy="391.3341" fill="#84BE84" rx="3" ry="3" style="stroke:#038048;stroke-width:1.0;"/><text fill="#000000" font-family="sans-serif" font-size="14" lengthAdjust="spacing" textLength="328" x="2212" y="395.1252">Ponto(paiRef:Objeto, _rotulo:char, pto:Ponto4D)</text><ellipse cx="2203" cy="407.8224" fill="#84BE84" rx="3" ry="3" style="stroke:#038048;stroke-width:1.0;"/><text fill="#000000" font-family="sans-serif" font-size="14" lengthAdjust="spacing" textLength="113" x="2212" y="411.6134">Atualizar() : void</text><ellipse cx="2203" cy="424.3107" fill="#84BE84" rx="3" ry="3" style="stroke:#038048;stroke-width:1.0;"/><text fill="#000000" font-family="sans-serif" font-size="14" lengthAdjust="spacing" textLength="196" x="2212" y="428.1017">&#171;override&#187; ToString() : string</text></g><!--class Circulo--><g id="elem_Circulo"><rect codeLine="1" fill="#F1F1F1" height="97.4648" id="Circulo" rx="2.5" ry="2.5" style="stroke:#181818;stroke-width:0.5;" width="554" x="2581" y="337.59"/><ellipse cx="2829.25" cy="353.59" fill="#ADD1B2" rx="11" ry="11" style="stroke:#181818;stroke-width:1.0;"/><path d="M2831.7231,359.7331 Q2831.1421,360.0319 2830.5029,360.1813 Q2829.8638,360.3307 2829.1582,360.3307 Q2826.6514,360.3307 2825.3315,358.6789 Q2824.0117,357.027 2824.0117,353.9059 Q2824.0117,350.7765 2825.3315,349.1247 Q2826.6514,347.4728 2829.1582,347.4728 Q2829.8638,347.4728 2830.5112,347.6222 Q2831.1587,347.7716 2831.7231,348.0705 L2831.7231,350.7931 Q2831.0923,350.2121 2830.4988,349.9423 Q2829.9053,349.6725 2829.2744,349.6725 Q2827.9297,349.6725 2827.2449,350.7392 Q2826.5601,351.8058 2826.5601,353.9059 Q2826.5601,355.9977 2827.2449,357.0644 Q2827.9297,358.131 2829.2744,358.131 Q2829.9053,358.131 2830.4988,357.8612 Q2831.0923,357.5915 2831.7231,357.0104 Z " fill="#000000"/><text fill="#000000" font-family="sans-serif" font-size="14" lengthAdjust="spacing" textLength="49" x="2849.75" y="358.881">Circulo</text><line style="stroke:#181818;stroke-width:0.5;" x1="2582" x2="3134" y1="369.59" y2="369.59"/><line style="stroke:#181818;stroke-width:0.5;" x1="2582" x2="3134" y1="377.59" y2="377.59"/><ellipse cx="2592" cy="391.3341" fill="#84BE84" rx="3" ry="3" style="stroke:#038048;stroke-width:1.0;"/><text fill="#000000" font-family="sans-serif" font-size="14" lengthAdjust="spacing" textLength="528" x="2601" y="395.1252">Circulo(paiRef:Objeto, _rotulo:char, _raio:double, ptoDeslocamento:Ponto4D)</text><ellipse cx="2592" cy="407.8224" fill="#84BE84" rx="3" ry="3" style="stroke:#038048;stroke-width:1.0;"/><text fill="#000000" font-family="sans-serif" font-size="14" lengthAdjust="spacing" textLength="296" x="2601" y="411.6134">Atualizar(ptoDeslocamento:Ponto4D) : void</text><ellipse cx="2592" cy="424.3107" fill="#84BE84" rx="3" ry="3" style="stroke:#038048;stroke-width:1.0;"/><text fill="#000000" font-family="sans-serif" font-size="14" lengthAdjust="spacing" textLength="196" x="2601" y="428.1017">&#171;override&#187; ToString() : string</text></g><!--class SegReta--><g id="elem_SegReta"><rect codeLine="1" fill="#F1F1F1" height="80.9766" id="SegReta" rx="2.5" ry="2.5" style="stroke:#181818;stroke-width:0.5;" width="505" x="3169.5" y="345.84"/><ellipse cx="3390.25" cy="361.84" fill="#ADD1B2" rx="11" ry="11" style="stroke:#181818;stroke-width:1.0;"/><path d="M3392.7231,367.9831 Q3392.1421,368.2819 3391.5029,368.4313 Q3390.8638,368.5807 3390.1582,368.5807 Q3387.6514,368.5807 3386.3315,366.9289 Q3385.0117,365.277 3385.0117,362.1559 Q3385.0117,359.0265 3386.3315,357.3747 Q3387.6514,355.7228 3390.1582,355.7228 Q3390.8638,355.7228 3391.5112,355.8722 Q3392.1587,356.0216 3392.7231,356.3205 L3392.7231,359.0431 Q3392.0923,358.4621 3391.4988,358.1923 Q3390.9053,357.9225 3390.2744,357.9225 Q3388.9297,357.9225 3388.2449,358.9892 Q3387.5601,360.0558 3387.5601,362.1559 Q3387.5601,364.2477 3388.2449,365.3144 Q3388.9297,366.381 3390.2744,366.381 Q3390.9053,366.381 3391.4988,366.1112 Q3392.0923,365.8415 3392.7231,365.2604 Z " fill="#000000"/><text fill="#000000" font-family="sans-serif" font-size="14" lengthAdjust="spacing" textLength="55" x="3410.75" y="367.131">SegReta</text><line style="stroke:#181818;stroke-width:0.5;" x1="3170.5" x2="3673.5" y1="377.84" y2="377.84"/><line style="stroke:#181818;stroke-width:0.5;" x1="3170.5" x2="3673.5" y1="385.84" y2="385.84"/><ellipse cx="3180.5" cy="399.5841" fill="#84BE84" rx="3" ry="3" style="stroke:#038048;stroke-width:1.0;"/><text fill="#000000" font-family="sans-serif" font-size="14" lengthAdjust="spacing" textLength="479" x="3189.5" y="403.3752">SegReta(paiRef:Objeto, _rotulo:char, ptoIni:Ponto4D, ptoFim:Ponto4D)</text><ellipse cx="3180.5" cy="416.0724" fill="#84BE84" rx="3" ry="3" style="stroke:#038048;stroke-width:1.0;"/><text fill="#000000" font-family="sans-serif" font-size="14" lengthAdjust="spacing" textLength="196" x="3189.5" y="419.8634">&#171;override&#187; ToString() : string</text></g><!--class Program--><g id="elem_Program"><rect codeLine="1" fill="#F1F1F1" height="56.6211" id="Program" rx="2.5" ry="2.5" style="stroke:#181818;stroke-width:0.5;" width="91" x="4155.5" y="101.62"/><ellipse cx="4170.5" cy="121.9305" fill="#ADD1B2" rx="11" ry="11" style="stroke:#181818;stroke-width:1.0;"/><path d="M4172.9731,128.0736 Q4172.3921,128.3724 4171.7529,128.5219 Q4171.1138,128.6713 4170.4082,128.6713 Q4167.9014,128.6713 4166.5815,127.0194 Q4165.2617,125.3676 4165.2617,122.2465 Q4165.2617,119.1171 4166.5815,117.4652 Q4167.9014,115.8134 4170.4082,115.8134 Q4171.1138,115.8134 4171.7612,115.9628 Q4172.4087,116.1122 4172.9731,116.411 L4172.9731,119.1337 Q4172.3423,118.5526 4171.7488,118.2828 Q4171.1553,118.0131 4170.5244,118.0131 Q4169.1797,118.0131 4168.4949,119.0797 Q4167.8101,120.1464 4167.8101,122.2465 Q4167.8101,124.3383 4168.4949,125.4049 Q4169.1797,126.4716 4170.5244,126.4716 Q4171.1553,126.4716 4171.7488,126.2018 Q4172.3423,125.932 4172.9731,125.351 Z " fill="#000000"/><text fill="#000000" font-family="sans-serif" font-size="12" font-style="italic" lengthAdjust="spacing" textLength="42" x="4193" y="118.2216">&#171;static&#187;</text><text fill="#000000" font-family="sans-serif" font-size="14" lengthAdjust="spacing" textLength="59" x="4184.5" y="134.288">Program</text><line style="stroke:#181818;stroke-width:0.5;" x1="4156.5" x2="4245.5" y1="142.2411" y2="142.2411"/><line style="stroke:#181818;stroke-width:0.5;" x1="4156.5" x2="4245.5" y1="150.2411" y2="150.2411"/></g><!--reverse link Objeto to Poligono--><g id="link_Objeto_Poligono"><path codeLine="5" d="M1760.5811,149.0787 C1479.4311,174.1487 972.2,226.59 531,312.86 C486.31,321.6 438.11,333.62 394.94,345.36 " fill="none" id="Objeto-backto-Poligono" style="stroke:#181818;stroke-width:1.0;"/><polygon fill="none" points="1778.51,147.48,1760.0482,143.1024,1761.114,155.055,1778.51,147.48" style="stroke:#181818;stroke-width:1.0;"/></g><!--reverse link Objeto to SrPalito--><g id="link_Objeto_SrPalito"><path codeLine="9" d="M1760.8538,151.6003 C1536.9538,175.7503 1183.92,223.71 875,312.86 C869.24,314.52 863.42,316.32 857.56,318.23 " fill="none" id="Objeto-backto-SrPalito" style="stroke:#181818;stroke-width:1.0;"/><polygon fill="none" points="1778.75,149.67,1760.2104,145.6349,1761.4972,157.5657,1778.75,149.67" style="stroke:#181818;stroke-width:1.0;"/></g><!--reverse link GameWindow to Mundo--><g id="link_GameWindow_Mundo"><path codeLine="4" d="M4058,172.41 C4058,218.29 4058,301.88 4058,353.65 " fill="none" id="GameWindow-backto-Mundo" style="stroke:#181818;stroke-width:1.0;"/><polygon fill="none" points="4058,154.41,4052,172.41,4064,172.41,4058,154.41" style="stroke:#181818;stroke-width:1.0;"/></g><!--reverse link Objeto to Spline--><g id="link_Objeto_Spline"><path codeLine="8" d="M1761.1012,185.5395 C1625.2512,220.2795 1459.77,264.37 1300,312.86 C1291.78,315.36 1283.39,317.96 1274.94,320.63 " fill="none" id="Objeto-backto-Spline" style="stroke:#181818;stroke-width:1.0;"/><polygon fill="none" points="1778.54,181.08,1759.6147,179.7266,1762.5877,191.3525,1778.54,181.08" style="stroke:#181818;stroke-width:1.0;"/></g><!--reverse link Objeto to Retangulo--><g id="link_Objeto_Retangulo"><path codeLine="5" d="M1782.273,263.2944 C1732.463,296.6444 1696.94,320.43 1659.52,345.48 " fill="none" id="Objeto-backto-Retangulo" style="stroke:#181818;stroke-width:1.0;"/><polygon fill="none" points="1797.23,253.28,1778.9349,258.3087,1785.6111,268.2801,1797.23,253.28" style="stroke:#181818;stroke-width:1.0;"/></g><!--link Objeto to PrimitiveType--><g id="link_Objeto_PrimitiveType"><path codeLine="15" d="M1980,253.28 C1980,294.78 1980,330.96 1980,356.14 " fill="none" id="Objeto-to-PrimitiveType" style="stroke:#181818;stroke-width:1.0;"/><polygon fill="#181818" points="1980,362.14,1984,353.14,1980,357.14,1976,353.14,1980,362.14" style="stroke:#181818;stroke-width:1.0;"/><text fill="#000000" font-family="sans-serif" font-size="13" lengthAdjust="spacing" textLength="83" x="1886.3656" y="351.6276">PrimitivaTipo</text></g><!--link Objeto to Shader--><g id="link_Objeto_Shader"><path codeLine="16" d="M2045.89,253.28 C2068.24,294.78 2088.1168,331.6764 2101.6668,356.8564 " fill="none" id="Objeto-to-Shader" style="stroke:#181818;stroke-width:1.0;"/><polygon fill="#181818" points="2104.51,362.14,2103.7675,352.3192,2102.1406,357.737,2096.7228,356.1101,2104.51,362.14" style="stroke:#181818;stroke-width:1.0;"/><text fill="#000000" font-family="sans-serif" font-size="13" lengthAdjust="spacing" textLength="84" x="2041.6011" y="351.5657">shaderObjeto</text></g><!--reverse link Objeto to Ponto--><g id="link_Objeto_Ponto"><path codeLine="6" d="M2182.1543,263.1322 C2227.7043,292.9222 2258.73,313.21 2295.35,337.16 " fill="none" id="Objeto-backto-Ponto" style="stroke:#181818;stroke-width:1.0;"/><polygon fill="none" points="2167.09,253.28,2178.8703,268.1536,2185.4384,258.1107,2167.09,253.28" style="stroke:#181818;stroke-width:1.0;"/></g><!--reverse link Objeto to Circulo--><g id="link_Objeto_Circulo"><path codeLine="6" d="M2198.7188,194.2997 C2353.2588,239.0797 2546.72,295.14 2691.73,337.15 " fill="none" id="Objeto-backto-Circulo" style="stroke:#181818;stroke-width:1.0;"/><polygon fill="none" points="2181.43,189.29,2197.0489,200.0626,2200.3887,188.5367,2181.43,189.29" style="stroke:#181818;stroke-width:1.0;"/></g><!--reverse link Objeto to SegReta--><g id="link_Objeto_SegReta"><path codeLine="5" d="M2199.1735,157.7322 C2433.6135,187.8322 2814.04,241.5 3152,312.86 C3195.45,322.04 3242.33,333.91 3284.64,345.38 " fill="none" id="Objeto-backto-SegReta" style="stroke:#181818;stroke-width:1.0;"/><polygon fill="none" points="2181.32,155.44,2198.4094,163.6834,2199.9375,151.7811,2181.32,155.44" style="stroke:#181818;stroke-width:1.0;"/></g><!--SRC=[dOun3u8m48LtVuNifXWNN1m84kEW4ZMkXCBPbBHtJMcD_djrC0v5YQxltVlkYoJMoZSmPd51IWf2OiPhDOhUnS4MbP8kB3OUcvvpeoH24E_1LIYy2WSxta8FlI3iIJDfwpx80SJpGqYn96obWvnu6o-1Un4Zk3cRncoR7pEoa1epEO7j9E7YyYXOsdMWkRgbpbd9lODk69QjoksipA-WpSFrHLZZcRvlaqyYoHyYoKlaHu41-Ji0]--></g></svg>