<?xml version="1.0" encoding="us-ascii" standalone="no"?><svg xmlns="http://www.w3.org/2000/svg" xmlns:xlink="http://www.w3.org/1999/xlink" contentStyleType="text/css" height="202px" preserveAspectRatio="none" style="width:520px;height:202px;background:#FFFFFF;" version="1.1" viewBox="0 0 520 202" width="520px" zoomAndPan="magnify"><defs/><g><!--class Poligono--><g id="elem_Poligono"><rect codeLine="1" fill="#F1F1F1" height="80.9766" id="Poligono" rx="2.5" ry="2.5" style="stroke:#181818;stroke-width:0.5;" width="506" x="7" y="115"/><ellipse cx="225.25" cy="131" fill="#ADD1B2" rx="11" ry="11" style="stroke:#181818;stroke-width:1.0;"/><path d="M227.7231,137.1431 Q227.1421,137.4419 226.5029,137.5913 Q225.8638,137.7407 225.1582,137.7407 Q222.6514,137.7407 221.3315,136.0889 Q220.0117,134.437 220.0117,131.3159 Q220.0117,128.1865 221.3315,126.5347 Q222.6514,124.8828 225.1582,124.8828 Q225.8638,124.8828 226.5112,125.0322 Q227.1587,125.1816 227.7231,125.4805 L227.7231,128.2031 Q227.0923,127.6221 226.4988,127.3523 Q225.9053,127.0825 225.2744,127.0825 Q223.9297,127.0825 223.2449,128.1492 Q222.5601,129.2158 222.5601,131.3159 Q222.5601,133.4077 223.2449,134.4744 Q223.9297,135.541 225.2744,135.541 Q225.9053,135.541 226.4988,135.2712 Q227.0923,135.0015 227.7231,134.4204 Z " fill="#000000"/><text fill="#000000" font-family="sans-serif" font-size="14" lengthAdjust="spacing" textLength="61" x="245.75" y="136.291">Poligono</text><line style="stroke:#181818;stroke-width:0.5;" x1="8" x2="512" y1="147" y2="147"/><line style="stroke:#181818;stroke-width:0.5;" x1="8" x2="512" y1="155" y2="155"/><ellipse cx="18" cy="168.7441" fill="#84BE84" rx="3" ry="3" style="stroke:#038048;stroke-width:1.0;"/><text fill="#000000" font-family="sans-serif" font-size="14" lengthAdjust="spacing" textLength="480" x="27" y="172.5352">Poligono(paiRef:Objeto, _rotulo:char, pontosPoligono:List&lt;Ponto4D&gt;)</text><ellipse cx="18" cy="185.2324" fill="#84BE84" rx="3" ry="3" style="stroke:#038048;stroke-width:1.0;"/><text fill="#000000" font-family="sans-serif" font-size="14" lengthAdjust="spacing" textLength="196" x="27" y="189.0234">&#171;override&#187; ToString() : string</text></g><!--class Objeto--><g id="elem_Objeto"><rect fill="#F1F1F1" height="48" id="Objeto" rx="2.5" ry="2.5" style="stroke:#181818;stroke-width:0.5;" width="78" x="221" y="7"/><ellipse cx="236" cy="23" fill="#ADD1B2" rx="11" ry="11" style="stroke:#181818;stroke-width:1.0;"/><path d="M238.4731,29.1431 Q237.8921,29.4419 237.2529,29.5913 Q236.6138,29.7407 235.9082,29.7407 Q233.4014,29.7407 232.0815,28.0889 Q230.7617,26.437 230.7617,23.3159 Q230.7617,20.1865 232.0815,18.5347 Q233.4014,16.8828 235.9082,16.8828 Q236.6138,16.8828 237.2612,17.0322 Q237.9087,17.1816 238.4731,17.4805 L238.4731,20.2031 Q237.8423,19.6221 237.2488,19.3523 Q236.6553,19.0825 236.0244,19.0825 Q234.6797,19.0825 233.9949,20.1492 Q233.3101,21.2158 233.3101,23.3159 Q233.3101,25.4077 233.9949,26.4744 Q234.6797,27.541 236.0244,27.541 Q236.6553,27.541 237.2488,27.2712 Q237.8423,27.0015 238.4731,26.4204 Z " fill="#000000"/><text fill="#000000" font-family="sans-serif" font-size="14" lengthAdjust="spacing" textLength="46" x="250" y="28.291">Objeto</text><line style="stroke:#181818;stroke-width:0.5;" x1="222" x2="298" y1="39" y2="39"/><line style="stroke:#181818;stroke-width:0.5;" x1="222" x2="298" y1="47" y2="47"/></g><!--reverse link Objeto to Poligono--><g id="link_Objeto_Poligono"><path codeLine="5" d="M260,73.33 C260,90.13 260,95.2 260,114.86 " fill="none" id="Objeto-backto-Poligono" style="stroke:#181818;stroke-width:1.0;"/><polygon fill="none" points="260,55.33,254,73.33,266,73.33,260,55.33" style="stroke:#181818;stroke-width:1.0;"/></g><!--SRC=[Iyv9B2vM2CZFoKpFpyjNgEPI009jk816GM9cK6gQbNzILcf9lev2V55-IMbElbLoHcAHZa91Vbv9VZ5ChPLFPd69JG18pCJ5JXDgaerDVbbgKL5cIggTdK98Vd19KMPUkeQcWfL2CPZ9LSi5CLp1faPN5sun0000]--></g></svg>