<?xml version="1.0" encoding="us-ascii" standalone="no"?><svg xmlns="http://www.w3.org/2000/svg" xmlns:xlink="http://www.w3.org/1999/xlink" contentStyleType="text/css" height="202px" preserveAspectRatio="none" style="width:519px;height:202px;background:#FFFFFF;" version="1.1" viewBox="0 0 519 202" width="519px" zoomAndPan="magnify"><defs/><g><!--class SegReta--><g id="elem_SegReta"><rect codeLine="1" fill="#F1F1F1" height="80.9766" id="SegReta" rx="2.5" ry="2.5" style="stroke:#181818;stroke-width:0.5;" width="505" x="7" y="115"/><ellipse cx="227.75" cy="131" fill="#ADD1B2" rx="11" ry="11" style="stroke:#181818;stroke-width:1.0;"/><path d="M230.2231,137.1431 Q229.6421,137.4419 229.0029,137.5913 Q228.3638,137.7407 227.6582,137.7407 Q225.1514,137.7407 223.8315,136.0889 Q222.5117,134.437 222.5117,131.3159 Q222.5117,128.1865 223.8315,126.5347 Q225.1514,124.8828 227.6582,124.8828 Q228.3638,124.8828 229.0112,125.0322 Q229.6587,125.1816 230.2231,125.4805 L230.2231,128.2031 Q229.5923,127.6221 228.9988,127.3523 Q228.4053,127.0825 227.7744,127.0825 Q226.4297,127.0825 225.7449,128.1492 Q225.0601,129.2158 225.0601,131.3159 Q225.0601,133.4077 225.7449,134.4744 Q226.4297,135.541 227.7744,135.541 Q228.4053,135.541 228.9988,135.2712 Q229.5923,135.0015 230.2231,134.4204 Z " fill="#000000"/><text fill="#000000" font-family="sans-serif" font-size="14" lengthAdjust="spacing" textLength="55" x="248.25" y="136.291">SegReta</text><line style="stroke:#181818;stroke-width:0.5;" x1="8" x2="511" y1="147" y2="147"/><line style="stroke:#181818;stroke-width:0.5;" x1="8" x2="511" y1="155" y2="155"/><ellipse cx="18" cy="168.7441" fill="#84BE84" rx="3" ry="3" style="stroke:#038048;stroke-width:1.0;"/><text fill="#000000" font-family="sans-serif" font-size="14" lengthAdjust="spacing" textLength="479" x="27" y="172.5352">SegReta(paiRef:Objeto, _rotulo:char, ptoIni:Ponto4D, ptoFim:Ponto4D)</text><ellipse cx="18" cy="185.2324" fill="#84BE84" rx="3" ry="3" style="stroke:#038048;stroke-width:1.0;"/><text fill="#000000" font-family="sans-serif" font-size="14" lengthAdjust="spacing" textLength="196" x="27" y="189.0234">&#171;override&#187; ToString() : string</text></g><!--class Objeto--><g id="elem_Objeto"><rect fill="#F1F1F1" height="48" id="Objeto" rx="2.5" ry="2.5" style="stroke:#181818;stroke-width:0.5;" width="78" x="220.5" y="7"/><ellipse cx="235.5" cy="23" fill="#ADD1B2" rx="11" ry="11" style="stroke:#181818;stroke-width:1.0;"/><path d="M237.9731,29.1431 Q237.3921,29.4419 236.7529,29.5913 Q236.1138,29.7407 235.4082,29.7407 Q232.9014,29.7407 231.5815,28.0889 Q230.2617,26.437 230.2617,23.3159 Q230.2617,20.1865 231.5815,18.5347 Q232.9014,16.8828 235.4082,16.8828 Q236.1138,16.8828 236.7612,17.0322 Q237.4087,17.1816 237.9731,17.4805 L237.9731,20.2031 Q237.3423,19.6221 236.7488,19.3523 Q236.1553,19.0825 235.5244,19.0825 Q234.1797,19.0825 233.4949,20.1492 Q232.8101,21.2158 232.8101,23.3159 Q232.8101,25.4077 233.4949,26.4744 Q234.1797,27.541 235.5244,27.541 Q236.1553,27.541 236.7488,27.2712 Q237.3423,27.0015 237.9731,26.4204 Z " fill="#000000"/><text fill="#000000" font-family="sans-serif" font-size="14" lengthAdjust="spacing" textLength="46" x="249.5" y="28.291">Objeto</text><line style="stroke:#181818;stroke-width:0.5;" x1="221.5" x2="297.5" y1="39" y2="39"/><line style="stroke:#181818;stroke-width:0.5;" x1="221.5" x2="297.5" y1="47" y2="47"/></g><!--reverse link Objeto to SegReta--><g id="link_Objeto_SegReta"><path codeLine="5" d="M259.5,73.33 C259.5,90.13 259.5,95.2 259.5,114.86 " fill="none" id="Objeto-backto-SegReta" style="stroke:#181818;stroke-width:1.0;"/><polygon fill="none" points="259.5,55.33,253.5,73.33,265.5,73.33,259.5,55.33" style="stroke:#181818;stroke-width:1.0;"/></g><!--SRC=[Iyv9B2vM24vD3qejILIevb800cqONwCWCJCeDStAFoahjIHVHo6-AB-aD2VVAZaZiKX7eQ0atpClqoeWFwyatyG5p7VBp8NnDQ56sTZabwKM5MMcfDhPAOJa1vSKPUQbQsWgM2aKWvbSjLmGunLiQdHrOJO30000]--></g></svg>