<?xml version="1.0" encoding="us-ascii" standalone="no"?><svg xmlns="http://www.w3.org/2000/svg" xmlns:xlink="http://www.w3.org/1999/xlink" contentStyleType="text/css" height="351px" preserveAspectRatio="none" style="width:519px;height:351px;background:#FFFFFF;" version="1.1" viewBox="0 0 519 351" width="519px" zoomAndPan="magnify"><defs/><g><!--class BBox--><g id="elem_BBox"><rect codeLine="1" fill="#F1F1F1" height="229.3711" id="BBox" rx="2.5" ry="2.5" style="stroke:#181818;stroke-width:0.5;" width="505" x="7" y="7"/><ellipse cx="238.25" cy="23" fill="#ADD1B2" rx="11" ry="11" style="stroke:#181818;stroke-width:1.0;"/><path d="M240.7231,29.1431 Q240.1421,29.4419 239.5029,29.5913 Q238.8638,29.7407 238.1582,29.7407 Q235.6514,29.7407 234.3315,28.0889 Q233.0117,26.437 233.0117,23.3159 Q233.0117,20.1865 234.3315,18.5347 Q235.6514,16.8828 238.1582,16.8828 Q238.8638,16.8828 239.5112,17.0322 Q240.1587,17.1816 240.7231,17.4805 L240.7231,20.2031 Q240.0923,19.6221 239.4988,19.3523 Q238.9053,19.0825 238.2744,19.0825 Q236.9297,19.0825 236.2449,20.1492 Q235.5601,21.2158 235.5601,23.3159 Q235.5601,25.4077 236.2449,26.4744 Q236.9297,27.541 238.2744,27.541 Q238.9053,27.541 239.4988,27.2712 Q240.0923,27.0015 240.7231,26.4204 Z " fill="#000000"/><text fill="#000000" font-family="sans-serif" font-size="14" lengthAdjust="spacing" textLength="34" x="258.75" y="28.291">BBox</text><line style="stroke:#181818;stroke-width:0.5;" x1="8" x2="511" y1="39" y2="39"/><ellipse cx="18" cy="52.7441" fill="none" rx="3" ry="3" style="stroke:#038048;stroke-width:1.0;"/><text fill="#000000" font-family="sans-serif" font-size="14" lengthAdjust="spacing" textLength="192" x="27" y="56.5352">ObterMenorX : double &#171;get&#187;</text><ellipse cx="18" cy="69.2324" fill="none" rx="3" ry="3" style="stroke:#038048;stroke-width:1.0;"/><text fill="#000000" font-family="sans-serif" font-size="14" lengthAdjust="spacing" textLength="192" x="27" y="73.0234">ObterMenorY : double &#171;get&#187;</text><ellipse cx="18" cy="85.7207" fill="none" rx="3" ry="3" style="stroke:#038048;stroke-width:1.0;"/><text fill="#000000" font-family="sans-serif" font-size="14" lengthAdjust="spacing" textLength="191" x="27" y="89.5117">ObterMenorZ : double &#171;get&#187;</text><ellipse cx="18" cy="102.209" fill="none" rx="3" ry="3" style="stroke:#038048;stroke-width:1.0;"/><text fill="#000000" font-family="sans-serif" font-size="14" lengthAdjust="spacing" textLength="187" x="27" y="106">ObterMaiorX : double &#171;get&#187;</text><ellipse cx="18" cy="118.6973" fill="none" rx="3" ry="3" style="stroke:#038048;stroke-width:1.0;"/><text fill="#000000" font-family="sans-serif" font-size="14" lengthAdjust="spacing" textLength="187" x="27" y="122.4883">ObterMaiorY : double &#171;get&#187;</text><ellipse cx="18" cy="135.1855" fill="none" rx="3" ry="3" style="stroke:#038048;stroke-width:1.0;"/><text fill="#000000" font-family="sans-serif" font-size="14" lengthAdjust="spacing" textLength="186" x="27" y="138.9766">ObterMaiorZ : double &#171;get&#187;</text><line style="stroke:#181818;stroke-width:0.5;" x1="8" x2="511" y1="145.9297" y2="145.9297"/><ellipse cx="18" cy="159.6738" fill="#84BE84" rx="3" ry="3" style="stroke:#038048;stroke-width:1.0;"/><text fill="#000000" font-family="sans-serif" font-size="14" lengthAdjust="spacing" textLength="44" x="27" y="163.4648">BBox()</text><ellipse cx="18" cy="176.1621" fill="#84BE84" rx="3" ry="3" style="stroke:#038048;stroke-width:1.0;"/><text fill="#000000" font-family="sans-serif" font-size="14" lengthAdjust="spacing" textLength="479" x="27" y="179.9531">Atualizar(matriz:Transformacao4D, pontosLista:List&lt;Ponto4D&gt;) : void</text><ellipse cx="18" cy="192.6504" fill="#84BE84" rx="3" ry="3" style="stroke:#038048;stroke-width:1.0;"/><text fill="#000000" font-family="sans-serif" font-size="14" lengthAdjust="spacing" textLength="186" x="27" y="196.4414">Dentro(pto:Ponto4D) : bool</text><ellipse cx="18" cy="209.1387" fill="#84BE84" rx="3" ry="3" style="stroke:#038048;stroke-width:1.0;"/><text fill="#000000" font-family="sans-serif" font-size="14" lengthAdjust="spacing" textLength="325" x="27" y="212.9297">Desenhar(matrizGrafo:Transformacao4D) : void</text><ellipse cx="18" cy="225.627" fill="#84BE84" rx="3" ry="3" style="stroke:#038048;stroke-width:1.0;"/><text fill="#000000" font-family="sans-serif" font-size="14" lengthAdjust="spacing" textLength="196" x="27" y="229.418">&#171;override&#187; ToString() : string</text></g><!--class Ponto4D--><g id="elem_Ponto4D"><rect fill="#F1F1F1" height="48" id="Ponto4D" rx="2.5" ry="2.5" style="stroke:#181818;stroke-width:0.5;" width="91" x="214" y="296.37"/><ellipse cx="229" cy="312.37" fill="#ADD1B2" rx="11" ry="11" style="stroke:#181818;stroke-width:1.0;"/><path d="M231.4731,318.5131 Q230.8921,318.8119 230.2529,318.9613 Q229.6138,319.1107 228.9082,319.1107 Q226.4014,319.1107 225.0815,317.4589 Q223.7617,315.807 223.7617,312.6859 Q223.7617,309.5565 225.0815,307.9047 Q226.4014,306.2528 228.9082,306.2528 Q229.6138,306.2528 230.2612,306.4022 Q230.9087,306.5516 231.4731,306.8505 L231.4731,309.5731 Q230.8423,308.9921 230.2488,308.7223 Q229.6553,308.4525 229.0244,308.4525 Q227.6797,308.4525 226.9949,309.5192 Q226.3101,310.5858 226.3101,312.6859 Q226.3101,314.7777 226.9949,315.8444 Q227.6797,316.911 229.0244,316.911 Q229.6553,316.911 230.2488,316.6412 Q230.8423,316.3715 231.4731,315.7904 Z " fill="#000000"/><text fill="#000000" font-family="sans-serif" font-size="14" lengthAdjust="spacing" textLength="59" x="243" y="317.661">Ponto4D</text><line style="stroke:#181818;stroke-width:0.5;" x1="215" x2="304" y1="328.37" y2="328.37"/><line style="stroke:#181818;stroke-width:0.5;" x1="215" x2="304" y1="336.37" y2="336.37"/></g><!--link BBox to Ponto4D--><g id="link_BBox_Ponto4D"><path codeLine="14" d="M259.5,236.81 C259.5,259.35 259.5,274.75 259.5,290.12 " fill="none" id="BBox-to-Ponto4D" style="stroke:#181818;stroke-width:1.0;"/><polygon fill="#181818" points="259.5,296.12,263.5,287.12,259.5,291.12,255.5,287.12,259.5,296.12" style="stroke:#181818;stroke-width:1.0;"/><text fill="#000000" font-family="sans-serif" font-size="13" lengthAdjust="spacing" textLength="77" x="172.6344" y="285.5922">ObterCentro</text></g><!--SRC=[XP71Yi8m443l_Oh1KyNrvgc4mBg5lQmew47tDhLJ3TICJAA8uhzl4y8U56qEOIRp9XDUjYqw1zCfN-2MGRT6CSc7AVdq9spD5IK_e1TpBLQ2rZKi1zmYJyeFEBBrx7wCyrY4NIt2mQJKGoZWpAPEDvLalN1-z5ma8W0LSvk0UUL9PcHPrbsXvbFL4YYr8w_r4xBfHtxV8sXw1mLaqu-y75II8xl_T_SjsF2Zm0TBIl6PH4nDMiEAbrsVtUK1SZ7CxbdyhF5Omo0-uIjw7K2I-WS0]--></g></svg>