<?xml version="1.0" encoding="us-ascii" standalone="no"?><svg xmlns="http://www.w3.org/2000/svg" xmlns:xlink="http://www.w3.org/1999/xlink" contentStyleType="text/css" height="565px" preserveAspectRatio="none" style="width:2589px;height:565px;background:#FFFFFF;" version="1.1" viewBox="0 0 2589 565" width="2589px" zoomAndPan="magnify"><defs/><g><!--class Camera--><g id="elem_Camera"><rect codeLine="1" fill="#F1F1F1" height="163.418" id="Camera" rx="2.5" ry="2.5" style="stroke:#181818;stroke-width:0.5;" width="324" x="1718" y="81.2"/><ellipse cx="1849.25" cy="97.2" fill="#ADD1B2" rx="11" ry="11" style="stroke:#181818;stroke-width:1.0;"/><path d="M1851.7231,103.3431 Q1851.1421,103.6419 1850.5029,103.7913 Q1849.8638,103.9407 1849.1582,103.9407 Q1846.6514,103.9407 1845.3315,102.2889 Q1844.0117,100.637 1844.0117,97.5159 Q1844.0117,94.3865 1845.3315,92.7347 Q1846.6514,91.0828 1849.1582,91.0828 Q1849.8638,91.0828 1850.5112,91.2322 Q1851.1587,91.3816 1851.7231,91.6805 L1851.7231,94.4031 Q1851.0923,93.8221 1850.4988,93.5523 Q1849.9053,93.2825 1849.2744,93.2825 Q1847.9297,93.2825 1847.2449,94.3492 Q1846.5601,95.4158 1846.5601,97.5159 Q1846.5601,99.6077 1847.2449,100.6744 Q1847.9297,101.741 1849.2744,101.741 Q1849.9053,101.741 1850.4988,101.4712 Q1851.0923,101.2015 1851.7231,100.6204 Z " fill="#000000"/><text fill="#000000" font-family="sans-serif" font-size="14" lengthAdjust="spacing" textLength="53" x="1869.75" y="102.491">Camera</text><line style="stroke:#181818;stroke-width:0.5;" x1="1719" x2="2041" y1="113.2" y2="113.2"/><ellipse cx="1729" cy="126.9441" fill="none" rx="3" ry="3" style="stroke:#038048;stroke-width:1.0;"/><text fill="#000000" font-family="sans-serif" font-size="14" lengthAdjust="spacing" textLength="162" x="1738" y="130.7352">AspectRatio : float &#171;set&#187;</text><ellipse cx="1729" cy="143.4324" fill="none" rx="3" ry="3" style="stroke:#038048;stroke-width:1.0;"/><text fill="#000000" font-family="sans-serif" font-size="14" lengthAdjust="spacing" textLength="154" x="1738" y="147.2234">Pitch : float &#171;get&#187; &#171;set&#187;</text><ellipse cx="1729" cy="159.9207" fill="none" rx="3" ry="3" style="stroke:#038048;stroke-width:1.0;"/><text fill="#000000" font-family="sans-serif" font-size="14" lengthAdjust="spacing" textLength="149" x="1738" y="163.7117">Yaw : float &#171;get&#187; &#171;set&#187;</text><ellipse cx="1729" cy="176.409" fill="none" rx="3" ry="3" style="stroke:#038048;stroke-width:1.0;"/><text fill="#000000" font-family="sans-serif" font-size="14" lengthAdjust="spacing" textLength="145" x="1738" y="180.2">Fov : float &#171;get&#187; &#171;set&#187;</text><line style="stroke:#181818;stroke-width:0.5;" x1="1719" x2="2041" y1="187.1531" y2="187.1531"/><ellipse cx="1729" cy="200.8973" fill="#84BE84" rx="3" ry="3" style="stroke:#038048;stroke-width:1.0;"/><text fill="#000000" font-family="sans-serif" font-size="14" lengthAdjust="spacing" textLength="298" x="1738" y="204.6883">Camera(position:Vector3, aspectRatio:float)</text><ellipse cx="1729" cy="217.3855" fill="#84BE84" rx="3" ry="3" style="stroke:#038048;stroke-width:1.0;"/><text fill="#000000" font-family="sans-serif" font-size="14" lengthAdjust="spacing" textLength="174" x="1738" y="221.1766">GetViewMatrix() : Matrix4</text><ellipse cx="1729" cy="233.8738" fill="#84BE84" rx="3" ry="3" style="stroke:#038048;stroke-width:1.0;"/><text fill="#000000" font-family="sans-serif" font-size="14" lengthAdjust="spacing" textLength="211" x="1738" y="237.6648">GetProjectionMatrix() : Matrix4</text></g><!--class Vector3--><g id="elem_Vector3"><rect fill="#F1F1F1" height="48" id="Vector3" rx="2.5" ry="2.5" style="stroke:#181818;stroke-width:0.5;" width="85" x="1837.5" y="444.77"/><ellipse cx="1852.5" cy="460.77" fill="#ADD1B2" rx="11" ry="11" style="stroke:#181818;stroke-width:1.0;"/><path d="M1854.9731,466.9131 Q1854.3921,467.2119 1853.7529,467.3613 Q1853.1138,467.5107 1852.4082,467.5107 Q1849.9014,467.5107 1848.5815,465.8589 Q1847.2617,464.207 1847.2617,461.0859 Q1847.2617,457.9565 1848.5815,456.3047 Q1849.9014,454.6528 1852.4082,454.6528 Q1853.1138,454.6528 1853.7612,454.8022 Q1854.4087,454.9516 1854.9731,455.2505 L1854.9731,457.9731 Q1854.3423,457.3921 1853.7488,457.1223 Q1853.1553,456.8525 1852.5244,456.8525 Q1851.1797,456.8525 1850.4949,457.9192 Q1849.8101,458.9858 1849.8101,461.0859 Q1849.8101,463.1777 1850.4949,464.2444 Q1851.1797,465.311 1852.5244,465.311 Q1853.1553,465.311 1853.7488,465.0412 Q1854.3423,464.7715 1854.9731,464.1904 Z " fill="#000000"/><text fill="#000000" font-family="sans-serif" font-size="14" lengthAdjust="spacing" textLength="53" x="1866.5" y="466.061">Vector3</text><line style="stroke:#181818;stroke-width:0.5;" x1="1838.5" x2="1921.5" y1="476.77" y2="476.77"/><line style="stroke:#181818;stroke-width:0.5;" x1="1838.5" x2="1921.5" y1="484.77" y2="484.77"/></g><!--class Utilitario--><g id="elem_Utilitario"><rect codeLine="1" fill="#F1F1F1" height="130.4414" id="Utilitario" rx="2.5" ry="2.5" style="stroke:#181818;stroke-width:0.5;" width="514" x="7" y="97.69"/><ellipse cx="230.25" cy="113.69" fill="#A9DCDF" rx="11" ry="11" style="stroke:#181818;stroke-width:1.0;"/><path d="M230.1133,109.0381 L228.9595,114.1099 L231.2754,114.1099 Z M228.6191,106.7969 L231.6157,106.7969 L234.9609,119.19 L232.5122,119.19 L231.7485,116.127 L228.4697,116.127 L227.7227,119.19 L225.2739,119.19 Z " fill="#000000"/><text fill="#000000" font-family="sans-serif" font-size="14" font-style="italic" lengthAdjust="spacing" textLength="59" x="250.75" y="118.981">Utilitario</text><line style="stroke:#181818;stroke-width:0.5;" x1="8" x2="520" y1="129.69" y2="129.69"/><line style="stroke:#181818;stroke-width:0.5;" x1="8" x2="520" y1="137.69" y2="137.69"/><ellipse cx="18" cy="151.4341" fill="#84BE84" rx="3" ry="3" style="stroke:#038048;stroke-width:1.0;"/><text fill="#000000" font-family="sans-serif" font-size="14" lengthAdjust="spacing" text-decoration="underline" textLength="211" x="27" y="155.2252">CharProximo(atual:char) : char</text><ellipse cx="18" cy="167.9224" fill="#84BE84" rx="3" ry="3" style="stroke:#038048;stroke-width:1.0;"/><text fill="#000000" font-family="sans-serif" font-size="14" lengthAdjust="spacing" text-decoration="underline" textLength="428" x="27" y="171.7134">TeclaUpperConsole(msg:string, Control:bool, Shift:bool) : char</text><ellipse cx="18" cy="184.4107" fill="#84BE84" rx="3" ry="3" style="stroke:#038048;stroke-width:1.0;"/><text fill="#000000" font-family="sans-serif" font-size="14" lengthAdjust="spacing" text-decoration="underline" textLength="488" x="27" y="188.2017">NDC_TelaSRU(largura:int, altura:int, mousePosition:Ponto4D) : Ponto4D</text><ellipse cx="18" cy="200.899" fill="#84BE84" rx="3" ry="3" style="stroke:#038048;stroke-width:1.0;"/><text fill="#000000" font-family="sans-serif" font-size="14" lengthAdjust="spacing" text-decoration="underline" textLength="145" x="27" y="204.69">AjudaTeclado() : void</text><ellipse cx="18" cy="217.3873" fill="#84BE84" rx="3" ry="3" style="stroke:#038048;stroke-width:1.0;"/><text fill="#000000" font-family="sans-serif" font-size="14" lengthAdjust="spacing" text-decoration="underline" textLength="110" x="27" y="221.1783">Diretivas() : void</text></g><!--class Transformacao4D--><g id="elem_Transformacao4D"><rect codeLine="1" fill="#F1F1F1" height="311.8125" id="Transformacao4D" rx="2.5" ry="2.5" style="stroke:#181818;stroke-width:0.5;" width="584" x="556" y="7"/><ellipse cx="782.25" cy="23" fill="#ADD1B2" rx="11" ry="11" style="stroke:#181818;stroke-width:1.0;"/><path d="M784.7231,29.1431 Q784.1421,29.4419 783.5029,29.5913 Q782.8638,29.7407 782.1582,29.7407 Q779.6514,29.7407 778.3315,28.0889 Q777.0117,26.437 777.0117,23.3159 Q777.0117,20.1865 778.3315,18.5347 Q779.6514,16.8828 782.1582,16.8828 Q782.8638,16.8828 783.5112,17.0322 Q784.1587,17.1816 784.7231,17.4805 L784.7231,20.2031 Q784.0923,19.6221 783.4988,19.3523 Q782.9053,19.0825 782.2744,19.0825 Q780.9297,19.0825 780.2449,20.1492 Q779.5601,21.2158 779.5601,23.3159 Q779.5601,25.4077 780.2449,26.4744 Q780.9297,27.541 782.2744,27.541 Q782.9053,27.541 783.4988,27.2712 Q784.0923,27.0015 784.7231,26.4204 Z " fill="#000000"/><text fill="#000000" font-family="sans-serif" font-size="14" lengthAdjust="spacing" textLength="123" x="802.75" y="28.291">Transformacao4D</text><line style="stroke:#181818;stroke-width:0.5;" x1="557" x2="1139" y1="39" y2="39"/><ellipse cx="567" cy="52.7441" fill="none" rx="3" ry="3" style="stroke:#038048;stroke-width:1.0;"/><text fill="#000000" font-family="sans-serif" font-size="14" lengthAdjust="spacing" text-decoration="underline" textLength="558" x="576" y="56.5352">&#171;readonly&#187; DEG_TO_RAD : double = 0.017453292519943295769236907684886</text><line style="stroke:#181818;stroke-width:0.5;" x1="557" x2="1139" y1="63.4883" y2="63.4883"/><ellipse cx="567" cy="77.2324" fill="#84BE84" rx="3" ry="3" style="stroke:#038048;stroke-width:1.0;"/><text fill="#000000" font-family="sans-serif" font-size="14" lengthAdjust="spacing" textLength="133" x="576" y="81.0234">Transformacao4D()</text><ellipse cx="567" cy="93.7207" fill="#84BE84" rx="3" ry="3" style="stroke:#038048;stroke-width:1.0;"/><text fill="#000000" font-family="sans-serif" font-size="14" lengthAdjust="spacing" textLength="212" x="576" y="97.5117">ObterDadosOpenTK() : Matrix4</text><ellipse cx="567" cy="110.209" fill="#84BE84" rx="3" ry="3" style="stroke:#038048;stroke-width:1.0;"/><text fill="#000000" font-family="sans-serif" font-size="14" lengthAdjust="spacing" textLength="177" x="576" y="114">AtribuirIdentidade() : void</text><ellipse cx="567" cy="126.6973" fill="#84BE84" rx="3" ry="3" style="stroke:#038048;stroke-width:1.0;"/><text fill="#000000" font-family="sans-serif" font-size="14" lengthAdjust="spacing" textLength="390" x="576" y="130.4883">AtribuirTranslacao(tx:double, ty:double, tz:double) : void</text><ellipse cx="567" cy="143.1855" fill="#84BE84" rx="3" ry="3" style="stroke:#038048;stroke-width:1.0;"/><text fill="#000000" font-family="sans-serif" font-size="14" lengthAdjust="spacing" textLength="365" x="576" y="146.9766">AtribuirEscala(sX:double, sY:double, sZ:double) : void</text><ellipse cx="567" cy="159.6738" fill="#84BE84" rx="3" ry="3" style="stroke:#038048;stroke-width:1.0;"/><text fill="#000000" font-family="sans-serif" font-size="14" lengthAdjust="spacing" textLength="271" x="576" y="163.4648">AtribuirRotacaoX(radians:double) : void</text><ellipse cx="567" cy="176.1621" fill="#84BE84" rx="3" ry="3" style="stroke:#038048;stroke-width:1.0;"/><text fill="#000000" font-family="sans-serif" font-size="14" lengthAdjust="spacing" textLength="271" x="576" y="179.9531">AtribuirRotacaoY(radians:double) : void</text><ellipse cx="567" cy="192.6504" fill="#84BE84" rx="3" ry="3" style="stroke:#038048;stroke-width:1.0;"/><text fill="#000000" font-family="sans-serif" font-size="14" lengthAdjust="spacing" textLength="270" x="576" y="196.4414">AtribuirRotacaoZ(radians:double) : void</text><ellipse cx="567" cy="209.1387" fill="#84BE84" rx="3" ry="3" style="stroke:#038048;stroke-width:1.0;"/><text fill="#000000" font-family="sans-serif" font-size="14" lengthAdjust="spacing" textLength="279" x="576" y="212.9297">MultiplicarPonto(pto:Ponto4D) : Ponto4D</text><ellipse cx="567" cy="225.627" fill="#84BE84" rx="3" ry="3" style="stroke:#038048;stroke-width:1.0;"/><text fill="#000000" font-family="sans-serif" font-size="14" lengthAdjust="spacing" textLength="392" x="576" y="229.418">MultiplicarMatriz(t:Transformacao4D) : Transformacao4D</text><ellipse cx="567" cy="242.1152" fill="#84BE84" rx="3" ry="3" style="stroke:#038048;stroke-width:1.0;"/><text fill="#000000" font-family="sans-serif" font-size="14" lengthAdjust="spacing" textLength="234" x="576" y="245.9063">ObterElemento(index:int) : double</text><ellipse cx="567" cy="258.6035" fill="#84BE84" rx="3" ry="3" style="stroke:#038048;stroke-width:1.0;"/><text fill="#000000" font-family="sans-serif" font-size="14" lengthAdjust="spacing" textLength="325" x="576" y="262.3945">AtribuirElemento(index:int, value:double) : void</text><ellipse cx="567" cy="275.0918" fill="#84BE84" rx="3" ry="3" style="stroke:#038048;stroke-width:1.0;"/><text fill="#000000" font-family="sans-serif" font-size="14" lengthAdjust="spacing" textLength="162" x="576" y="278.8828">ObterDados() : double[]</text><ellipse cx="567" cy="291.5801" fill="#84BE84" rx="3" ry="3" style="stroke:#038048;stroke-width:1.0;"/><text fill="#000000" font-family="sans-serif" font-size="14" lengthAdjust="spacing" textLength="239" x="576" y="295.3711">AtribuirDados(data:double[]) : void</text><ellipse cx="567" cy="308.0684" fill="#84BE84" rx="3" ry="3" style="stroke:#038048;stroke-width:1.0;"/><text fill="#000000" font-family="sans-serif" font-size="14" lengthAdjust="spacing" textLength="196" x="576" y="311.8594">&#171;override&#187; ToString() : string</text></g><!--class BBox--><g id="elem_BBox"><rect codeLine="1" fill="#F1F1F1" height="229.3711" id="BBox" rx="2.5" ry="2.5" style="stroke:#181818;stroke-width:0.5;" width="505" x="2077.5" y="48.22"/><ellipse cx="2308.75" cy="64.22" fill="#ADD1B2" rx="11" ry="11" style="stroke:#181818;stroke-width:1.0;"/><path d="M2311.2231,70.3631 Q2310.6421,70.6619 2310.0029,70.8113 Q2309.3638,70.9607 2308.6582,70.9607 Q2306.1514,70.9607 2304.8315,69.3089 Q2303.5117,67.657 2303.5117,64.5359 Q2303.5117,61.4065 2304.8315,59.7547 Q2306.1514,58.1028 2308.6582,58.1028 Q2309.3638,58.1028 2310.0112,58.2522 Q2310.6587,58.4016 2311.2231,58.7005 L2311.2231,61.4231 Q2310.5923,60.8421 2309.9988,60.5723 Q2309.4053,60.3025 2308.7744,60.3025 Q2307.4297,60.3025 2306.7449,61.3692 Q2306.0601,62.4358 2306.0601,64.5359 Q2306.0601,66.6277 2306.7449,67.6944 Q2307.4297,68.761 2308.7744,68.761 Q2309.4053,68.761 2309.9988,68.4912 Q2310.5923,68.2215 2311.2231,67.6404 Z " fill="#000000"/><text fill="#000000" font-family="sans-serif" font-size="14" lengthAdjust="spacing" textLength="34" x="2329.25" y="69.511">BBox</text><line style="stroke:#181818;stroke-width:0.5;" x1="2078.5" x2="2581.5" y1="80.22" y2="80.22"/><ellipse cx="2088.5" cy="93.9641" fill="none" rx="3" ry="3" style="stroke:#038048;stroke-width:1.0;"/><text fill="#000000" font-family="sans-serif" font-size="14" lengthAdjust="spacing" textLength="192" x="2097.5" y="97.7552">ObterMenorX : double &#171;get&#187;</text><ellipse cx="2088.5" cy="110.4524" fill="none" rx="3" ry="3" style="stroke:#038048;stroke-width:1.0;"/><text fill="#000000" font-family="sans-serif" font-size="14" lengthAdjust="spacing" textLength="192" x="2097.5" y="114.2434">ObterMenorY : double &#171;get&#187;</text><ellipse cx="2088.5" cy="126.9407" fill="none" rx="3" ry="3" style="stroke:#038048;stroke-width:1.0;"/><text fill="#000000" font-family="sans-serif" font-size="14" lengthAdjust="spacing" textLength="191" x="2097.5" y="130.7317">ObterMenorZ : double &#171;get&#187;</text><ellipse cx="2088.5" cy="143.429" fill="none" rx="3" ry="3" style="stroke:#038048;stroke-width:1.0;"/><text fill="#000000" font-family="sans-serif" font-size="14" lengthAdjust="spacing" textLength="187" x="2097.5" y="147.22">ObterMaiorX : double &#171;get&#187;</text><ellipse cx="2088.5" cy="159.9173" fill="none" rx="3" ry="3" style="stroke:#038048;stroke-width:1.0;"/><text fill="#000000" font-family="sans-serif" font-size="14" lengthAdjust="spacing" textLength="187" x="2097.5" y="163.7083">ObterMaiorY : double &#171;get&#187;</text><ellipse cx="2088.5" cy="176.4055" fill="none" rx="3" ry="3" style="stroke:#038048;stroke-width:1.0;"/><text fill="#000000" font-family="sans-serif" font-size="14" lengthAdjust="spacing" textLength="186" x="2097.5" y="180.1966">ObterMaiorZ : double &#171;get&#187;</text><line style="stroke:#181818;stroke-width:0.5;" x1="2078.5" x2="2581.5" y1="187.1497" y2="187.1497"/><ellipse cx="2088.5" cy="200.8938" fill="#84BE84" rx="3" ry="3" style="stroke:#038048;stroke-width:1.0;"/><text fill="#000000" font-family="sans-serif" font-size="14" lengthAdjust="spacing" textLength="44" x="2097.5" y="204.6848">BBox()</text><ellipse cx="2088.5" cy="217.3821" fill="#84BE84" rx="3" ry="3" style="stroke:#038048;stroke-width:1.0;"/><text fill="#000000" font-family="sans-serif" font-size="14" lengthAdjust="spacing" textLength="479" x="2097.5" y="221.1731">Atualizar(matriz:Transformacao4D, pontosLista:List&lt;Ponto4D&gt;) : void</text><ellipse cx="2088.5" cy="233.8704" fill="#84BE84" rx="3" ry="3" style="stroke:#038048;stroke-width:1.0;"/><text fill="#000000" font-family="sans-serif" font-size="14" lengthAdjust="spacing" textLength="186" x="2097.5" y="237.6614">Dentro(pto:Ponto4D) : bool</text><ellipse cx="2088.5" cy="250.3587" fill="#84BE84" rx="3" ry="3" style="stroke:#038048;stroke-width:1.0;"/><text fill="#000000" font-family="sans-serif" font-size="14" lengthAdjust="spacing" textLength="325" x="2097.5" y="254.1497">Desenhar(matrizGrafo:Transformacao4D) : void</text><ellipse cx="2088.5" cy="266.847" fill="#84BE84" rx="3" ry="3" style="stroke:#038048;stroke-width:1.0;"/><text fill="#000000" font-family="sans-serif" font-size="14" lengthAdjust="spacing" textLength="196" x="2097.5" y="270.638">&#171;override&#187; ToString() : string</text></g><!--class Ponto4D--><g id="elem_Ponto4D"><rect codeLine="1" fill="#F1F1F1" height="163.418" id="Ponto4D" rx="2.5" ry="2.5" style="stroke:#181818;stroke-width:0.5;" width="362" x="2149" y="387.06"/><ellipse cx="2296.25" cy="403.06" fill="#ADD1B2" rx="11" ry="11" style="stroke:#181818;stroke-width:1.0;"/><path d="M2298.7231,409.2031 Q2298.1421,409.5019 2297.5029,409.6513 Q2296.8638,409.8007 2296.1582,409.8007 Q2293.6514,409.8007 2292.3315,408.1489 Q2291.0117,406.497 2291.0117,403.3759 Q2291.0117,400.2465 2292.3315,398.5947 Q2293.6514,396.9428 2296.1582,396.9428 Q2296.8638,396.9428 2297.5112,397.0922 Q2298.1587,397.2416 2298.7231,397.5405 L2298.7231,400.2631 Q2298.0923,399.6821 2297.4988,399.4123 Q2296.9053,399.1425 2296.2744,399.1425 Q2294.9297,399.1425 2294.2449,400.2092 Q2293.5601,401.2758 2293.5601,403.3759 Q2293.5601,405.4677 2294.2449,406.5344 Q2294.9297,407.601 2296.2744,407.601 Q2296.9053,407.601 2297.4988,407.3312 Q2298.0923,407.0615 2298.7231,406.4804 Z " fill="#000000"/><text fill="#000000" font-family="sans-serif" font-size="14" lengthAdjust="spacing" textLength="59" x="2316.75" y="408.351">Ponto4D</text><line style="stroke:#181818;stroke-width:0.5;" x1="2150" x2="2510" y1="419.06" y2="419.06"/><ellipse cx="2160" cy="432.8041" fill="none" rx="3" ry="3" style="stroke:#038048;stroke-width:1.0;"/><text fill="#000000" font-family="sans-serif" font-size="14" lengthAdjust="spacing" textLength="147" x="2169" y="436.5952">X : double &#171;get&#187; &#171;set&#187;</text><ellipse cx="2160" cy="449.2924" fill="none" rx="3" ry="3" style="stroke:#038048;stroke-width:1.0;"/><text fill="#000000" font-family="sans-serif" font-size="14" lengthAdjust="spacing" textLength="147" x="2169" y="453.0834">Y : double &#171;get&#187; &#171;set&#187;</text><ellipse cx="2160" cy="465.7807" fill="none" rx="3" ry="3" style="stroke:#038048;stroke-width:1.0;"/><text fill="#000000" font-family="sans-serif" font-size="14" lengthAdjust="spacing" textLength="146" x="2169" y="469.5717">Z : double &#171;get&#187; &#171;set&#187;</text><ellipse cx="2160" cy="482.269" fill="none" rx="3" ry="3" style="stroke:#038048;stroke-width:1.0;"/><text fill="#000000" font-family="sans-serif" font-size="14" lengthAdjust="spacing" textLength="112" x="2169" y="486.06">W : double &#171;get&#187;</text><line style="stroke:#181818;stroke-width:0.5;" x1="2150" x2="2510" y1="493.0131" y2="493.0131"/><ellipse cx="2160" cy="506.7573" fill="#84BE84" rx="3" ry="3" style="stroke:#038048;stroke-width:1.0;"/><text fill="#000000" font-family="sans-serif" font-size="14" lengthAdjust="spacing" textLength="336" x="2169" y="510.5483">Ponto4D(x:double, y:double, z:double, w:double)</text><ellipse cx="2160" cy="523.2455" fill="#84BE84" rx="3" ry="3" style="stroke:#038048;stroke-width:1.0;"/><text fill="#000000" font-family="sans-serif" font-size="14" lengthAdjust="spacing" textLength="155" x="2169" y="527.0366">Ponto4D(pto:Ponto4D)</text><ellipse cx="2160" cy="539.7338" fill="#84BE84" rx="3" ry="3" style="stroke:#038048;stroke-width:1.0;"/><text fill="#000000" font-family="sans-serif" font-size="14" lengthAdjust="spacing" textLength="196" x="2169" y="543.5248">&#171;override&#187; ToString() : string</text></g><!--class Matematica--><g id="elem_Matematica"><rect codeLine="1" fill="#F1F1F1" height="196.3945" id="Matematica" rx="2.5" ry="2.5" style="stroke:#181818;stroke-width:0.5;" width="508" x="1175" y="64.71"/><ellipse cx="1385.75" cy="80.71" fill="#A9DCDF" rx="11" ry="11" style="stroke:#181818;stroke-width:1.0;"/><path d="M1385.6133,76.0581 L1384.4595,81.1299 L1386.7754,81.1299 Z M1384.1191,73.8169 L1387.1157,73.8169 L1390.4609,86.21 L1388.0122,86.21 L1387.2485,83.147 L1383.9697,83.147 L1383.2227,86.21 L1380.7739,86.21 Z " fill="#000000"/><text fill="#000000" font-family="sans-serif" font-size="14" font-style="italic" lengthAdjust="spacing" textLength="78" x="1406.25" y="86.001">Matematica</text><line style="stroke:#181818;stroke-width:0.5;" x1="1176" x2="1682" y1="96.71" y2="96.71"/><line style="stroke:#181818;stroke-width:0.5;" x1="1176" x2="1682" y1="104.71" y2="104.71"/><ellipse cx="1186" cy="118.4541" fill="#84BE84" rx="3" ry="3" style="stroke:#038048;stroke-width:1.0;"/><text fill="#000000" font-family="sans-serif" font-size="14" lengthAdjust="spacing" text-decoration="underline" textLength="384" x="1195" y="122.2452">GerarPtosCirculo(angulo:double, raio:double) : Ponto4D</text><ellipse cx="1186" cy="134.9424" fill="#84BE84" rx="3" ry="3" style="stroke:#038048;stroke-width:1.0;"/><text fill="#000000" font-family="sans-serif" font-size="14" lengthAdjust="spacing" text-decoration="underline" textLength="329" x="1195" y="138.7334">GerarPtosCirculoSimetrico(raio:double) : double</text><ellipse cx="1186" cy="151.4307" fill="#84BE84" rx="3" ry="3" style="stroke:#038048;stroke-width:1.0;"/><text fill="#000000" font-family="sans-serif" font-size="14" lengthAdjust="spacing" text-decoration="underline" textLength="482" x="1195" y="155.2217">InterpolarRetaPonto(ptoA:Ponto4D, ptoB:Ponto4D, t:double) : Ponto4D</text><ellipse cx="1186" cy="167.919" fill="#84BE84" rx="3" ry="3" style="stroke:#038048;stroke-width:1.0;"/><text fill="#000000" font-family="sans-serif" font-size="14" lengthAdjust="spacing" text-decoration="underline" textLength="267" x="1195" y="171.71">Dentro(bBox:BBox, pto:Ponto4D) : bool</text><ellipse cx="1186" cy="184.4073" fill="#84BE84" rx="3" ry="3" style="stroke:#038048;stroke-width:1.0;"/><text fill="#000000" font-family="sans-serif" font-size="14" lengthAdjust="spacing" text-decoration="underline" textLength="399" x="1195" y="188.1983">DistanciaQuadrado(ptoA:Ponto4D, ptoB:Ponto4D) : double</text><ellipse cx="1186" cy="200.8955" fill="#84BE84" rx="3" ry="3" style="stroke:#038048;stroke-width:1.0;"/><text fill="#000000" font-family="sans-serif" font-size="14" lengthAdjust="spacing" text-decoration="underline" textLength="330" x="1195" y="204.6866">Distancia(ptoA:Ponto4D, ptoB:Ponto4D) : double</text><ellipse cx="1186" cy="217.3838" fill="#84BE84" rx="3" ry="3" style="stroke:#038048;stroke-width:1.0;"/><text fill="#000000" font-family="sans-serif" font-size="14" lengthAdjust="spacing" text-decoration="underline" textLength="423" x="1195" y="221.1748">ScanLineInterseccao(yi:double, y1:double, y2:double) : double</text><ellipse cx="1186" cy="233.8721" fill="#84BE84" rx="3" ry="3" style="stroke:#038048;stroke-width:1.0;"/><text fill="#000000" font-family="sans-serif" font-size="14" lengthAdjust="spacing" text-decoration="underline" textLength="421" x="1195" y="237.6631">InterpolarRetaValor(x1:double, x2:double, ti:double) : double</text><ellipse cx="1186" cy="250.3604" fill="#84BE84" rx="3" ry="3" style="stroke:#038048;stroke-width:1.0;"/><text fill="#000000" font-family="sans-serif" font-size="14" lengthAdjust="spacing" text-decoration="underline" textLength="473" x="1195" y="254.1514">ScanLine(ptoClique:Ponto4D, ptoIni:Ponto4D, ptoFim:Ponto4D) : bool</text></g><!--class Shader--><g id="elem_Shader"><rect codeLine="1" fill="#F1F1F1" height="179.9063" id="Shader" rx="2.5" ry="2.5" style="stroke:#181818;stroke-width:0.5;" width="328" x="100" y="378.81"/><ellipse cx="235.75" cy="394.81" fill="#ADD1B2" rx="11" ry="11" style="stroke:#181818;stroke-width:1.0;"/><path d="M238.2231,400.9531 Q237.6421,401.2519 237.0029,401.4013 Q236.3638,401.5507 235.6582,401.5507 Q233.1514,401.5507 231.8315,399.8989 Q230.5117,398.247 230.5117,395.1259 Q230.5117,391.9965 231.8315,390.3447 Q233.1514,388.6928 235.6582,388.6928 Q236.3638,388.6928 237.0112,388.8422 Q237.6587,388.9916 238.2231,389.2905 L238.2231,392.0131 Q237.5923,391.4321 236.9988,391.1623 Q236.4053,390.8925 235.7744,390.8925 Q234.4297,390.8925 233.7449,391.9592 Q233.0601,393.0258 233.0601,395.1259 Q233.0601,397.2177 233.7449,398.2844 Q234.4297,399.351 235.7744,399.351 Q236.4053,399.351 236.9988,399.0812 Q237.5923,398.8115 238.2231,398.2304 Z " fill="#000000"/><text fill="#000000" font-family="sans-serif" font-size="14" lengthAdjust="spacing" textLength="48" x="256.25" y="400.101">Shader</text><line style="stroke:#181818;stroke-width:0.5;" x1="101" x2="427" y1="410.81" y2="410.81"/><ellipse cx="111" cy="424.5541" fill="none" rx="3" ry="3" style="stroke:#038048;stroke-width:1.0;"/><text fill="#000000" font-family="sans-serif" font-size="14" lengthAdjust="spacing" textLength="156" x="120" y="428.3452">&#171;readonly&#187; Handle : int</text><line style="stroke:#181818;stroke-width:0.5;" x1="101" x2="427" y1="435.2983" y2="435.2983"/><ellipse cx="111" cy="449.0424" fill="#84BE84" rx="3" ry="3" style="stroke:#038048;stroke-width:1.0;"/><text fill="#000000" font-family="sans-serif" font-size="14" lengthAdjust="spacing" textLength="268" x="120" y="452.8334">Shader(vertPath:string, fragPath:string)</text><ellipse cx="111" cy="465.5307" fill="#84BE84" rx="3" ry="3" style="stroke:#038048;stroke-width:1.0;"/><text fill="#000000" font-family="sans-serif" font-size="14" lengthAdjust="spacing" textLength="76" x="120" y="469.3217">Use() : void</text><ellipse cx="111" cy="482.019" fill="#84BE84" rx="3" ry="3" style="stroke:#038048;stroke-width:1.0;"/><text fill="#000000" font-family="sans-serif" font-size="14" lengthAdjust="spacing" textLength="280" x="120" y="485.81">GetAttribLocation(attribName:string) : int</text><ellipse cx="111" cy="498.5073" fill="#84BE84" rx="3" ry="3" style="stroke:#038048;stroke-width:1.0;"/><text fill="#000000" font-family="sans-serif" font-size="14" lengthAdjust="spacing" textLength="232" x="120" y="502.2983">SetInt(name:string, data:int) : void</text><ellipse cx="111" cy="514.9955" fill="#84BE84" rx="3" ry="3" style="stroke:#038048;stroke-width:1.0;"/><text fill="#000000" font-family="sans-serif" font-size="14" lengthAdjust="spacing" textLength="261" x="120" y="518.7866">SetFloat(name:string, data:float) : void</text><ellipse cx="111" cy="531.4838" fill="#84BE84" rx="3" ry="3" style="stroke:#038048;stroke-width:1.0;"/><text fill="#000000" font-family="sans-serif" font-size="14" lengthAdjust="spacing" textLength="302" x="120" y="535.2748">SetMatrix4(name:string, data:Matrix4) : void</text><ellipse cx="111" cy="547.9721" fill="#84BE84" rx="3" ry="3" style="stroke:#038048;stroke-width:1.0;"/><text fill="#000000" font-family="sans-serif" font-size="14" lengthAdjust="spacing" textLength="302" x="120" y="551.7631">SetVector3(name:string, data:Vector3) : void</text></g><!--class Texture--><g id="elem_Texture"><rect codeLine="1" fill="#F1F1F1" height="113.9531" id="Texture" rx="2.5" ry="2.5" style="stroke:#181818;stroke-width:0.5;" width="270" x="463" y="411.79"/><ellipse cx="566.75" cy="427.79" fill="#ADD1B2" rx="11" ry="11" style="stroke:#181818;stroke-width:1.0;"/><path d="M569.2231,433.9331 Q568.6421,434.2319 568.0029,434.3813 Q567.3638,434.5307 566.6582,434.5307 Q564.1514,434.5307 562.8315,432.8789 Q561.5117,431.227 561.5117,428.1059 Q561.5117,424.9765 562.8315,423.3247 Q564.1514,421.6728 566.6582,421.6728 Q567.3638,421.6728 568.0112,421.8222 Q568.6587,421.9716 569.2231,422.2705 L569.2231,424.9931 Q568.5923,424.4121 567.9988,424.1423 Q567.4053,423.8725 566.7744,423.8725 Q565.4297,423.8725 564.7449,424.9392 Q564.0601,426.0058 564.0601,428.1059 Q564.0601,430.1977 564.7449,431.2644 Q565.4297,432.331 566.7744,432.331 Q567.4053,432.331 567.9988,432.0612 Q568.5923,431.7915 569.2231,431.2104 Z " fill="#000000"/><text fill="#000000" font-family="sans-serif" font-size="14" lengthAdjust="spacing" textLength="54" x="587.25" y="433.081">Texture</text><line style="stroke:#181818;stroke-width:0.5;" x1="464" x2="732" y1="443.79" y2="443.79"/><ellipse cx="474" cy="457.5341" fill="none" rx="3" ry="3" style="stroke:#038048;stroke-width:1.0;"/><text fill="#000000" font-family="sans-serif" font-size="14" lengthAdjust="spacing" textLength="156" x="483" y="461.3252">&#171;readonly&#187; Handle : int</text><line style="stroke:#181818;stroke-width:0.5;" x1="464" x2="732" y1="468.2783" y2="468.2783"/><ellipse cx="474" cy="482.0224" fill="#84BE84" rx="3" ry="3" style="stroke:#038048;stroke-width:1.0;"/><text fill="#000000" font-family="sans-serif" font-size="14" lengthAdjust="spacing" text-decoration="underline" textLength="244" x="483" y="485.8134">LoadFromFile(path:string) : Texture</text><ellipse cx="474" cy="498.5107" fill="#84BE84" rx="3" ry="3" style="stroke:#038048;stroke-width:1.0;"/><text fill="#000000" font-family="sans-serif" font-size="14" lengthAdjust="spacing" textLength="147" x="483" y="502.3017">Texture(glHandle:int)</text><ellipse cx="474" cy="514.999" fill="#84BE84" rx="3" ry="3" style="stroke:#038048;stroke-width:1.0;"/><text fill="#000000" font-family="sans-serif" font-size="14" lengthAdjust="spacing" textLength="189" x="483" y="518.79">Use(unit:TextureUnit) : void</text></g><!--link Camera to Vector3--><g id="link_Camera_Vector3"><path codeLine="10" d="M1845.05,244.94 C1836.83,311.74 1838.8967,396.5571 1855.7167,438.7171 " fill="none" id="Camera-to-Vector3" style="stroke:#181818;stroke-width:1.0;"/><polygon fill="#181818" points="1857.94,444.29,1858.3202,434.4485,1856.0872,439.6459,1850.8898,437.4129,1857.94,444.29" style="stroke:#181818;stroke-width:1.0;"/><text fill="#000000" font-family="sans-serif" font-size="13" lengthAdjust="spacing" textLength="51" x="1795.3473" y="434.1011">Position</text></g><!--link Camera to Vector3--><g id="link_Camera_Vector3"><path codeLine="11" d="M1868.57,244.94 C1865.89,311.74 1866.5138,396.1804 1872.0138,438.3404 " fill="none" id="Camera-to-Vector3-1" style="stroke:#181818;stroke-width:1.0;"/><polygon fill="#181818" points="1872.79,444.29,1875.5922,434.8482,1872.1432,439.332,1867.6594,435.8831,1872.79,444.29" style="stroke:#181818;stroke-width:1.0;"/><text fill="#000000" font-family="sans-serif" font-size="13" lengthAdjust="spacing" textLength="33" x="1875.0544" y="434.1011">Front</text></g><!--link Camera to Vector3--><g id="link_Camera_Vector3"><path codeLine="12" d="M1892.1,244.94 C1894.94,311.74 1894.2805,396.1864 1888.4605,438.3464 " fill="none" id="Camera-to-Vector3-2" style="stroke:#181818;stroke-width:1.0;"/><polygon fill="#181818" points="1887.64,444.29,1892.8332,435.9215,1888.3237,439.337,1884.9083,434.8276,1887.64,444.29" style="stroke:#181818;stroke-width:1.0;"/><text fill="#000000" font-family="sans-serif" font-size="13" lengthAdjust="spacing" textLength="17" x="1870.4304" y="434.1011">Up</text></g><!--link Camera to Vector3--><g id="link_Camera_Vector3"><path codeLine="13" d="M1915.62,244.94 C1924,311.74 1921.8797,396.5718 1904.7397,438.7318 " fill="none" id="Camera-to-Vector3-3" style="stroke:#181818;stroke-width:1.0;"/><polygon fill="#181818" points="1902.48,444.29,1909.575,437.4591,1904.3631,439.6581,1902.164,434.4462,1902.48,444.29" style="stroke:#181818;stroke-width:1.0;"/><text fill="#000000" font-family="sans-serif" font-size="13" lengthAdjust="spacing" textLength="33" x="1911.9814" y="434.1011">Right</text></g><!--link BBox to Ponto4D--><g id="link_BBox_Ponto4D"><path codeLine="14" d="M2330,277.92 C2330,314.12 2330,347.4 2330,380.78 " fill="none" id="BBox-to-Ponto4D" style="stroke:#181818;stroke-width:1.0;"/><polygon fill="#181818" points="2330,386.78,2334,377.78,2330,381.78,2326,377.78,2330,386.78" style="stroke:#181818;stroke-width:1.0;"/><text fill="#000000" font-family="sans-serif" font-size="13" lengthAdjust="spacing" textLength="77" x="2249.5711" y="376.3921">ObterCentro</text></g><!--SRC=[hO-nRi9038RtFWNiwDA1eGj34b3LWIeIWRNo1KDTtPqZdm_1svC1L5L71GEJ9N-_VtqUK-XSskB853Lu56XGOe-TqW5Ddxnx6VycragE58GuGwr0Y3iM3ntmT9xngk9ZjcmuwAtm4XGzA7MGeTKtR0V3o_mNjtZK9Fa7R7yAGOSGiGYeR-QrC9-BjcR1ikydc-6MECmE0p1bZEYjEvMgGZOfnaVgwlUlYgmZLXpqhnqVOSSth-Teq_vPAd_AxeYS0G00]--></g></svg>