<?xml version="1.0" encoding="us-ascii" standalone="no"?><svg xmlns="http://www.w3.org/2000/svg" xmlns:xlink="http://www.w3.org/1999/xlink" contentStyleType="text/css" height="648px" preserveAspectRatio="none" style="width:1531px;height:648px;background:#FFFFFF;" version="1.1" viewBox="0 0 1531 648" width="1531px" zoomAndPan="magnify"><defs/><g><!--class Poligono--><g id="elem_Poligono"><rect codeLine="1" fill="#F1F1F1" height="80.9766" id="Poligono" rx="2.5" ry="2.5" style="stroke:#181818;stroke-width:0.5;" width="513" x="7" y="560.18"/><ellipse cx="228.75" cy="576.18" fill="#ADD1B2" rx="11" ry="11" style="stroke:#181818;stroke-width:1.0;"/><path d="M231.2231,582.3231 Q230.6421,582.6219 230.0029,582.7713 Q229.3638,582.9207 228.6582,582.9207 Q226.1514,582.9207 224.8315,581.2689 Q223.5117,579.617 223.5117,576.4959 Q223.5117,573.3665 224.8315,571.7147 Q226.1514,570.0628 228.6582,570.0628 Q229.3638,570.0628 230.0112,570.2122 Q230.6587,570.3616 231.2231,570.6605 L231.2231,573.3831 Q230.5923,572.8021 229.9988,572.5323 Q229.4053,572.2625 228.7744,572.2625 Q227.4297,572.2625 226.7449,573.3292 Q226.0601,574.3958 226.0601,576.4959 Q226.0601,578.5877 226.7449,579.6544 Q227.4297,580.721 228.7744,580.721 Q229.4053,580.721 229.9988,580.4512 Q230.5923,580.1815 231.2231,579.6004 Z " fill="#000000"/><text fill="#000000" font-family="sans-serif" font-size="14" lengthAdjust="spacing" textLength="61" x="249.25" y="581.471">Poligono</text><line style="stroke:#181818;stroke-width:0.5;" x1="8" x2="519" y1="592.18" y2="592.18"/><line style="stroke:#181818;stroke-width:0.5;" x1="8" x2="519" y1="600.18" y2="600.18"/><ellipse cx="18" cy="613.9241" fill="#84BE84" rx="3" ry="3" style="stroke:#038048;stroke-width:1.0;"/><text fill="#000000" font-family="sans-serif" font-size="14" lengthAdjust="spacing" textLength="487" x="27" y="617.7152">Poligono(_paiRef:Objeto, _rotulo:char, pontosPoligono:List&lt;Ponto4D&gt;)</text><ellipse cx="18" cy="630.4124" fill="#84BE84" rx="3" ry="3" style="stroke:#038048;stroke-width:1.0;"/><text fill="#000000" font-family="sans-serif" font-size="14" lengthAdjust="spacing" textLength="196" x="27" y="634.2034">&#171;override&#187; ToString() : string</text></g><!--class Objeto--><g id="elem_Objeto"><rect codeLine="1" fill="#F1F1F1" height="493.1836" id="Objeto" rx="2.5" ry="2.5" style="stroke:#181818;stroke-width:0.5;" width="539" x="347" y="7"/><ellipse cx="589.25" cy="23" fill="#ADD1B2" rx="11" ry="11" style="stroke:#181818;stroke-width:1.0;"/><path d="M591.7231,29.1431 Q591.1421,29.4419 590.5029,29.5913 Q589.8638,29.7407 589.1582,29.7407 Q586.6514,29.7407 585.3315,28.0889 Q584.0117,26.437 584.0117,23.3159 Q584.0117,20.1865 585.3315,18.5347 Q586.6514,16.8828 589.1582,16.8828 Q589.8638,16.8828 590.5112,17.0322 Q591.1587,17.1816 591.7231,17.4805 L591.7231,20.2031 Q591.0923,19.6221 590.4988,19.3523 Q589.9053,19.0825 589.2744,19.0825 Q587.9297,19.0825 587.2449,20.1492 Q586.5601,21.2158 586.5601,23.3159 Q586.5601,25.4077 587.2449,26.4744 Q587.9297,27.541 589.2744,27.541 Q589.9053,27.541 590.4988,27.2712 Q591.0923,27.0015 591.7231,26.4204 Z " fill="#000000"/><text fill="#000000" font-family="sans-serif" font-size="14" lengthAdjust="spacing" textLength="46" x="609.75" y="28.291">Objeto</text><line style="stroke:#181818;stroke-width:0.5;" x1="348" x2="885" y1="39" y2="39"/><ellipse cx="358" cy="52.7441" fill="none" rx="3" ry="3" style="stroke:#038048;stroke-width:1.0;"/><text fill="#000000" font-family="sans-serif" font-size="14" lengthAdjust="spacing" textLength="245" x="367" y="56.5352">PrimitivaTamanho : float &#171;get&#187; &#171;set&#187;</text><line style="stroke:#181818;stroke-width:0.5;" x1="348" x2="885" y1="63.4883" y2="63.4883"/><ellipse cx="358" cy="77.2324" fill="#84BE84" rx="3" ry="3" style="stroke:#038048;stroke-width:1.0;"/><text fill="#000000" font-family="sans-serif" font-size="14" lengthAdjust="spacing" textLength="91" x="367" y="81.0234">Bbox() : BBox</text><ellipse cx="358" cy="93.7207" fill="#84BE84" rx="3" ry="3" style="stroke:#038048;stroke-width:1.0;"/><text fill="#000000" font-family="sans-serif" font-size="14" lengthAdjust="spacing" textLength="239" x="367" y="97.5117">TrocaEixoRotacao(eixo:char) : void</text><ellipse cx="358" cy="110.209" fill="#84BE84" rx="3" ry="3" style="stroke:#038048;stroke-width:1.0;"/><text fill="#000000" font-family="sans-serif" font-size="14" lengthAdjust="spacing" textLength="383" x="367" y="114">Objeto(_paiRef:Objeto, _rotulo:char, objetoFilho:Objeto)</text><ellipse cx="358" cy="126.6973" fill="#84BE84" rx="3" ry="3" style="stroke:#038048;stroke-width:1.0;"/><text fill="#000000" font-family="sans-serif" font-size="14" lengthAdjust="spacing" textLength="157" x="367" y="130.4883">ObjetoRemover() : void</text><ellipse cx="358" cy="143.1855" fill="#84BE84" rx="3" ry="3" style="stroke:#038048;stroke-width:1.0;"/><text fill="#000000" font-family="sans-serif" font-size="14" lengthAdjust="spacing" textLength="159" x="367" y="146.9766">ObjetoAtualizar() : void</text><ellipse cx="358" cy="159.6738" fill="#84BE84" rx="3" ry="3" style="stroke:#038048;stroke-width:1.0;"/><text fill="#000000" font-family="sans-serif" font-size="14" lengthAdjust="spacing" textLength="513" x="367" y="163.4648">ObjetoMatrizGlobal(matrizGlobalPai:Transformacao4D) : Transformacao4D</text><ellipse cx="358" cy="176.1621" fill="#84BE84" rx="3" ry="3" style="stroke:#038048;stroke-width:1.0;"/><text fill="#000000" font-family="sans-serif" font-size="14" lengthAdjust="spacing" textLength="510" x="367" y="179.9531">Desenhar(matrizGrafo:Transformacao4D, objetoSelecionado:Objeto) : void</text><ellipse cx="358" cy="192.6504" fill="#84BE84" rx="3" ry="3" style="stroke:#038048;stroke-width:1.0;"/><text fill="#000000" font-family="sans-serif" font-size="14" lengthAdjust="spacing" textLength="232" x="367" y="196.4414">FilhoAdicionar(filho:Objeto) : void</text><ellipse cx="358" cy="209.1387" fill="#84BE84" rx="3" ry="3" style="stroke:#038048;stroke-width:1.0;"/><text fill="#000000" font-family="sans-serif" font-size="14" lengthAdjust="spacing" textLength="176" x="367" y="212.9297">PontosId(id:int) : Ponto4D</text><ellipse cx="358" cy="225.627" fill="#84BE84" rx="3" ry="3" style="stroke:#038048;stroke-width:1.0;"/><text fill="#000000" font-family="sans-serif" font-size="14" lengthAdjust="spacing" textLength="250" x="367" y="229.418">PontosAdicionar(pto:Ponto4D) : void</text><ellipse cx="358" cy="242.1152" fill="#84BE84" rx="3" ry="3" style="stroke:#038048;stroke-width:1.0;"/><text fill="#000000" font-family="sans-serif" font-size="14" lengthAdjust="spacing" textLength="314" x="367" y="245.9063">PontosAlterar(pto:Ponto4D, posicao:int) : void</text><ellipse cx="358" cy="258.6035" fill="#84BE84" rx="3" ry="3" style="stroke:#038048;stroke-width:1.0;"/><text fill="#000000" font-family="sans-serif" font-size="14" lengthAdjust="spacing" textLength="145" x="367" y="262.3945">PontosLimpar() : void</text><ellipse cx="358" cy="275.0918" fill="#84BE84" rx="3" ry="3" style="stroke:#038048;stroke-width:1.0;"/><text fill="#000000" font-family="sans-serif" font-size="14" lengthAdjust="spacing" textLength="378" x="367" y="278.8828">PontoMaisPerto(mousePto:Ponto4D, remover:bool) : int</text><ellipse cx="358" cy="291.5801" fill="#84BE84" rx="3" ry="3" style="stroke:#038048;stroke-width:1.0;"/><text fill="#000000" font-family="sans-serif" font-size="14" lengthAdjust="spacing" textLength="260" x="367" y="295.3711">GrafocenaBusca(_rotulo:char) : Objeto</text><ellipse cx="358" cy="308.0684" fill="#84BE84" rx="3" ry="3" style="stroke:#038048;stroke-width:1.0;"/><text fill="#000000" font-family="sans-serif" font-size="14" lengthAdjust="spacing" textLength="365" x="367" y="311.8594">GrafocenaBuscaProximo(objetoAtual:Objeto) : Objeto</text><ellipse cx="358" cy="324.5566" fill="#84BE84" rx="3" ry="3" style="stroke:#038048;stroke-width:1.0;"/><text fill="#000000" font-family="sans-serif" font-size="14" lengthAdjust="spacing" textLength="242" x="367" y="328.3477">GrafocenaImprimir(idt:string) : void</text><ellipse cx="358" cy="341.0449" fill="#84BE84" rx="3" ry="3" style="stroke:#038048;stroke-width:1.0;"/><text fill="#000000" font-family="sans-serif" font-size="14" lengthAdjust="spacing" textLength="153" x="367" y="344.8359">MatrizImprimir() : void</text><ellipse cx="358" cy="357.5332" fill="#84BE84" rx="3" ry="3" style="stroke:#038048;stroke-width:1.0;"/><text fill="#000000" font-family="sans-serif" font-size="14" lengthAdjust="spacing" textLength="220" x="367" y="361.3242">MatrizAtribuirIdentidade() : void</text><ellipse cx="358" cy="374.0215" fill="#84BE84" rx="3" ry="3" style="stroke:#038048;stroke-width:1.0;"/><text fill="#000000" font-family="sans-serif" font-size="14" lengthAdjust="spacing" textLength="406" x="367" y="377.8125">MatrizTranslacaoXYZ(tx:double, ty:double, tz:double) : void</text><ellipse cx="358" cy="390.5098" fill="#84BE84" rx="3" ry="3" style="stroke:#038048;stroke-width:1.0;"/><text fill="#000000" font-family="sans-serif" font-size="14" lengthAdjust="spacing" textLength="382" x="367" y="394.3008">MatrizEscalaXYZ(Sx:double, Sy:double, Sz:double) : void</text><ellipse cx="358" cy="406.998" fill="#84BE84" rx="3" ry="3" style="stroke:#038048;stroke-width:1.0;"/><text fill="#000000" font-family="sans-serif" font-size="14" lengthAdjust="spacing" textLength="416" x="367" y="410.7891">MatrizEscalaXYZBBox(Sx:double, Sy:double, Sz:double) : void</text><ellipse cx="358" cy="423.4863" fill="#84BE84" rx="3" ry="3" style="stroke:#038048;stroke-width:1.0;"/><text fill="#000000" font-family="sans-serif" font-size="14" lengthAdjust="spacing" textLength="279" x="367" y="427.2773">MatrizRotacaoEixo(angulo:double) : void</text><ellipse cx="358" cy="439.9746" fill="#84BE84" rx="3" ry="3" style="stroke:#038048;stroke-width:1.0;"/><text fill="#000000" font-family="sans-serif" font-size="14" lengthAdjust="spacing" textLength="249" x="367" y="443.7656">MatrizRotacao(angulo:double) : void</text><ellipse cx="358" cy="456.4629" fill="#84BE84" rx="3" ry="3" style="stroke:#038048;stroke-width:1.0;"/><text fill="#000000" font-family="sans-serif" font-size="14" lengthAdjust="spacing" textLength="291" x="367" y="460.2539">MatrizRotacaoZBBox(angulo:double) : void</text><ellipse cx="358" cy="472.9512" fill="#84BE84" rx="3" ry="3" style="stroke:#038048;stroke-width:1.0;"/><text fill="#000000" font-family="sans-serif" font-size="14" lengthAdjust="spacing" textLength="120" x="367" y="476.7422">OnUnload() : void</text><ellipse cx="358" cy="489.4395" fill="#84BE84" rx="3" ry="3" style="stroke:#038048;stroke-width:1.0;"/><text fill="#000000" font-family="sans-serif" font-size="14" lengthAdjust="spacing" textLength="428" x="367" y="493.2305">ScanLine(ptoClique:Ponto4D, objetoSelecionado:Objeto) : bool</text></g><!--class Mundo--><g id="elem_Mundo"><rect codeLine="1" fill="#F1F1F1" height="64.4883" id="Mundo" rx="2.5" ry="2.5" style="stroke:#181818;stroke-width:0.5;" width="696" x="828.5" y="568.43"/><ellipse cx="1148.25" cy="584.43" fill="#ADD1B2" rx="11" ry="11" style="stroke:#181818;stroke-width:1.0;"/><path d="M1150.7231,590.5731 Q1150.1421,590.8719 1149.5029,591.0213 Q1148.8638,591.1707 1148.1582,591.1707 Q1145.6514,591.1707 1144.3315,589.5189 Q1143.0117,587.867 1143.0117,584.7459 Q1143.0117,581.6165 1144.3315,579.9647 Q1145.6514,578.3128 1148.1582,578.3128 Q1148.8638,578.3128 1149.5112,578.4622 Q1150.1587,578.6116 1150.7231,578.9105 L1150.7231,581.6331 Q1150.0923,581.0521 1149.4988,580.7823 Q1148.9053,580.5125 1148.2744,580.5125 Q1146.9297,580.5125 1146.2449,581.5792 Q1145.5601,582.6458 1145.5601,584.7459 Q1145.5601,586.8377 1146.2449,587.9044 Q1146.9297,588.971 1148.2744,588.971 Q1148.9053,588.971 1149.4988,588.7012 Q1150.0923,588.4315 1150.7231,587.8504 Z " fill="#000000"/><text fill="#000000" font-family="sans-serif" font-size="14" lengthAdjust="spacing" textLength="48" x="1168.75" y="589.721">Mundo</text><line style="stroke:#181818;stroke-width:0.5;" x1="829.5" x2="1523.5" y1="600.43" y2="600.43"/><line style="stroke:#181818;stroke-width:0.5;" x1="829.5" x2="1523.5" y1="608.43" y2="608.43"/><ellipse cx="839.5" cy="622.1741" fill="#84BE84" rx="3" ry="3" style="stroke:#038048;stroke-width:1.0;"/><text fill="#000000" font-family="sans-serif" font-size="14" lengthAdjust="spacing" textLength="670" x="848.5" y="625.9652">Mundo(gameWindowSettings:GameWindowSettings, nativeWindowSettings:NativeWindowSettings)</text></g><!--class GameWindow--><g id="elem_GameWindow"><rect fill="#F1F1F1" height="48" id="GameWindow" rx="2.5" ry="2.5" style="stroke:#181818;stroke-width:0.5;" width="125" x="1114" y="229.59"/><ellipse cx="1129" cy="245.59" fill="#ADD1B2" rx="11" ry="11" style="stroke:#181818;stroke-width:1.0;"/><path d="M1131.4731,251.7331 Q1130.8921,252.0319 1130.2529,252.1813 Q1129.6138,252.3307 1128.9082,252.3307 Q1126.4014,252.3307 1125.0815,250.6789 Q1123.7617,249.027 1123.7617,245.9059 Q1123.7617,242.7765 1125.0815,241.1247 Q1126.4014,239.4728 1128.9082,239.4728 Q1129.6138,239.4728 1130.2612,239.6222 Q1130.9087,239.7716 1131.4731,240.0705 L1131.4731,242.7931 Q1130.8423,242.2121 1130.2488,241.9423 Q1129.6553,241.6725 1129.0244,241.6725 Q1127.6797,241.6725 1126.9949,242.7392 Q1126.3101,243.8058 1126.3101,245.9059 Q1126.3101,247.9977 1126.9949,249.0644 Q1127.6797,250.131 1129.0244,250.131 Q1129.6553,250.131 1130.2488,249.8612 Q1130.8423,249.5915 1131.4731,249.0104 Z " fill="#000000"/><text fill="#000000" font-family="sans-serif" font-size="14" lengthAdjust="spacing" textLength="93" x="1143" y="250.881">GameWindow</text><line style="stroke:#181818;stroke-width:0.5;" x1="1115" x2="1238" y1="261.59" y2="261.59"/><line style="stroke:#181818;stroke-width:0.5;" x1="1115" x2="1238" y1="269.59" y2="269.59"/></g><!--class PrimitiveType--><g id="elem_PrimitiveType"><rect fill="#F1F1F1" height="48" id="PrimitiveType" rx="2.5" ry="2.5" style="stroke:#181818;stroke-width:0.5;" width="124" x="554.5" y="576.67"/><ellipse cx="569.5" cy="592.67" fill="#ADD1B2" rx="11" ry="11" style="stroke:#181818;stroke-width:1.0;"/><path d="M571.9731,598.8131 Q571.3921,599.1119 570.7529,599.2613 Q570.1138,599.4107 569.4082,599.4107 Q566.9014,599.4107 565.5815,597.7589 Q564.2617,596.107 564.2617,592.9859 Q564.2617,589.8565 565.5815,588.2047 Q566.9014,586.5528 569.4082,586.5528 Q570.1138,586.5528 570.7612,586.7022 Q571.4087,586.8516 571.9731,587.1505 L571.9731,589.8731 Q571.3423,589.2921 570.7488,589.0223 Q570.1553,588.7525 569.5244,588.7525 Q568.1797,588.7525 567.4949,589.8192 Q566.8101,590.8858 566.8101,592.9859 Q566.8101,595.0777 567.4949,596.1444 Q568.1797,597.211 569.5244,597.211 Q570.1553,597.211 570.7488,596.9412 Q571.3423,596.6715 571.9731,596.0904 Z " fill="#000000"/><text fill="#000000" font-family="sans-serif" font-size="14" lengthAdjust="spacing" textLength="92" x="583.5" y="597.961">PrimitiveType</text><line style="stroke:#181818;stroke-width:0.5;" x1="555.5" x2="677.5" y1="608.67" y2="608.67"/><line style="stroke:#181818;stroke-width:0.5;" x1="555.5" x2="677.5" y1="616.67" y2="616.67"/></g><!--class Shader--><g id="elem_Shader"><rect fill="#F1F1F1" height="48" id="Shader" rx="2.5" ry="2.5" style="stroke:#181818;stroke-width:0.5;" width="80" x="713.5" y="576.67"/><ellipse cx="728.5" cy="592.67" fill="#ADD1B2" rx="11" ry="11" style="stroke:#181818;stroke-width:1.0;"/><path d="M730.9731,598.8131 Q730.3921,599.1119 729.7529,599.2613 Q729.1138,599.4107 728.4082,599.4107 Q725.9014,599.4107 724.5815,597.7589 Q723.2617,596.107 723.2617,592.9859 Q723.2617,589.8565 724.5815,588.2047 Q725.9014,586.5528 728.4082,586.5528 Q729.1138,586.5528 729.7612,586.7022 Q730.4087,586.8516 730.9731,587.1505 L730.9731,589.8731 Q730.3423,589.2921 729.7488,589.0223 Q729.1553,588.7525 728.5244,588.7525 Q727.1797,588.7525 726.4949,589.8192 Q725.8101,590.8858 725.8101,592.9859 Q725.8101,595.0777 726.4949,596.1444 Q727.1797,597.211 728.5244,597.211 Q729.1553,597.211 729.7488,596.9412 Q730.3423,596.6715 730.9731,596.0904 Z " fill="#000000"/><text fill="#000000" font-family="sans-serif" font-size="14" lengthAdjust="spacing" textLength="48" x="742.5" y="597.961">Shader</text><line style="stroke:#181818;stroke-width:0.5;" x1="714.5" x2="792.5" y1="608.67" y2="608.67"/><line style="stroke:#181818;stroke-width:0.5;" x1="714.5" x2="792.5" y1="616.67" y2="616.67"/></g><!--class Program--><g id="elem_Program"><rect codeLine="1" fill="#F1F1F1" height="56.6211" id="Program" rx="2.5" ry="2.5" style="stroke:#181818;stroke-width:0.5;" width="91" x="1274" y="225.28"/><ellipse cx="1289" cy="245.5905" fill="#ADD1B2" rx="11" ry="11" style="stroke:#181818;stroke-width:1.0;"/><path d="M1291.4731,251.7336 Q1290.8921,252.0324 1290.2529,252.1819 Q1289.6138,252.3313 1288.9082,252.3313 Q1286.4014,252.3313 1285.0815,250.6794 Q1283.7617,249.0276 1283.7617,245.9065 Q1283.7617,242.7771 1285.0815,241.1252 Q1286.4014,239.4734 1288.9082,239.4734 Q1289.6138,239.4734 1290.2612,239.6228 Q1290.9087,239.7722 1291.4731,240.071 L1291.4731,242.7937 Q1290.8423,242.2126 1290.2488,241.9428 Q1289.6553,241.6731 1289.0244,241.6731 Q1287.6797,241.6731 1286.9949,242.7397 Q1286.3101,243.8064 1286.3101,245.9065 Q1286.3101,247.9983 1286.9949,249.0649 Q1287.6797,250.1316 1289.0244,250.1316 Q1289.6553,250.1316 1290.2488,249.8618 Q1290.8423,249.592 1291.4731,249.011 Z " fill="#000000"/><text fill="#000000" font-family="sans-serif" font-size="12" font-style="italic" lengthAdjust="spacing" textLength="42" x="1311.5" y="241.8816">&#171;static&#187;</text><text fill="#000000" font-family="sans-serif" font-size="14" lengthAdjust="spacing" textLength="59" x="1303" y="257.948">Program</text><line style="stroke:#181818;stroke-width:0.5;" x1="1275" x2="1364" y1="265.9011" y2="265.9011"/><line style="stroke:#181818;stroke-width:0.5;" x1="1275" x2="1364" y1="273.9011" y2="273.9011"/></g><!--reverse link Objeto to Poligono--><g id="link_Objeto_Poligono"><path codeLine="5" d="M352.2604,512.9047 C329.2204,535.4347 321.13,543.33 304.32,559.77 " fill="none" id="Objeto-backto-Poligono" style="stroke:#181818;stroke-width:1.0;"/><polygon fill="none" points="365.13,500.32,348.0655,508.6148,356.4553,517.1945,365.13,500.32" style="stroke:#181818;stroke-width:1.0;"/></g><!--reverse link GameWindow to Mundo--><g id="link_GameWindow_Mundo"><path codeLine="4" d="M1176.5,296.04 C1176.5,356.49 1176.5,499.68 1176.5,568.17 " fill="none" id="GameWindow-backto-Mundo" style="stroke:#181818;stroke-width:1.0;"/><polygon fill="none" points="1176.5,278.04,1170.5,296.04,1182.5,296.04,1176.5,278.04" style="stroke:#181818;stroke-width:1.0;"/></g><!--link Objeto to PrimitiveType--><g id="link_Objeto_PrimitiveType"><path codeLine="30" d="M616.5,500.32 C616.5,531.16 616.5,552.16 616.5,570.21 " fill="none" id="Objeto-to-PrimitiveType" style="stroke:#181818;stroke-width:1.0;"/><polygon fill="#181818" points="616.5,576.21,620.5,567.21,616.5,571.21,612.5,567.21,616.5,576.21" style="stroke:#181818;stroke-width:1.0;"/><text fill="#000000" font-family="sans-serif" font-size="13" lengthAdjust="spacing" textLength="83" x="523.3844" y="566.026">PrimitivaTipo</text></g><!--link Objeto to Shader--><g id="link_Objeto_Shader"><path codeLine="31" d="M714.06,500.32 C726.3,531.16 734.8076,552.5828 741.9676,570.6328 " fill="none" id="Objeto-to-Shader" style="stroke:#181818;stroke-width:1.0;"/><polygon fill="#181818" points="744.18,576.21,744.5796,566.3693,742.3364,571.5623,737.1433,569.3191,744.18,576.21" style="stroke:#181818;stroke-width:1.0;"/><text fill="#000000" font-family="sans-serif" font-size="13" lengthAdjust="spacing" textLength="84" x="681.0169" y="565.9641">ShaderObjeto</text></g><!--SRC=[fOwx2i9044LxlyBqEYieOcEnH14BOmgn3LapXWsRcR0F7t-lZLgimSBsNCxX9ffE9bGu196pqJKJGnTQCqW-movG5TEzQj37EBTSsxADEAj6h525MX3w1Km4PEj3oXPbrusEQ9rcMbwU0qZdi5NcBhstMWMFxdUiW2BT5DdqBM_fp5yrYmPBXo_ngcbycy_-VjEJxV_r0000]--></g></svg>