<?xml version="1.0" encoding="us-ascii" standalone="no"?><svg xmlns="http://www.w3.org/2000/svg" xmlns:xlink="http://www.w3.org/1999/xlink" contentStyleType="text/css" height="615px" preserveAspectRatio="none" style="width:553px;height:615px;background:#FFFFFF;" version="1.1" viewBox="0 0 553 615" width="553px" zoomAndPan="magnify"><defs/><g><!--class Objeto--><g id="elem_Objeto"><rect codeLine="1" fill="#F1F1F1" height="493.1836" id="Objeto" rx="2.5" ry="2.5" style="stroke:#181818;stroke-width:0.5;" width="539" x="7" y="7"/><ellipse cx="249.25" cy="23" fill="#ADD1B2" rx="11" ry="11" style="stroke:#181818;stroke-width:1.0;"/><path d="M251.7231,29.1431 Q251.1421,29.4419 250.5029,29.5913 Q249.8638,29.7407 249.1582,29.7407 Q246.6514,29.7407 245.3315,28.0889 Q244.0117,26.437 244.0117,23.3159 Q244.0117,20.1865 245.3315,18.5347 Q246.6514,16.8828 249.1582,16.8828 Q249.8638,16.8828 250.5112,17.0322 Q251.1587,17.1816 251.7231,17.4805 L251.7231,20.2031 Q251.0923,19.6221 250.4988,19.3523 Q249.9053,19.0825 249.2744,19.0825 Q247.9297,19.0825 247.2449,20.1492 Q246.5601,21.2158 246.5601,23.3159 Q246.5601,25.4077 247.2449,26.4744 Q247.9297,27.541 249.2744,27.541 Q249.9053,27.541 250.4988,27.2712 Q251.0923,27.0015 251.7231,26.4204 Z " fill="#000000"/><text fill="#000000" font-family="sans-serif" font-size="14" lengthAdjust="spacing" textLength="46" x="269.75" y="28.291">Objeto</text><line style="stroke:#181818;stroke-width:0.5;" x1="8" x2="545" y1="39" y2="39"/><ellipse cx="18" cy="52.7441" fill="none" rx="3" ry="3" style="stroke:#038048;stroke-width:1.0;"/><text fill="#000000" font-family="sans-serif" font-size="14" lengthAdjust="spacing" textLength="245" x="27" y="56.5352">PrimitivaTamanho : float &#171;get&#187; &#171;set&#187;</text><line style="stroke:#181818;stroke-width:0.5;" x1="8" x2="545" y1="63.4883" y2="63.4883"/><ellipse cx="18" cy="77.2324" fill="#84BE84" rx="3" ry="3" style="stroke:#038048;stroke-width:1.0;"/><text fill="#000000" font-family="sans-serif" font-size="14" lengthAdjust="spacing" textLength="91" x="27" y="81.0234">Bbox() : BBox</text><ellipse cx="18" cy="93.7207" fill="#84BE84" rx="3" ry="3" style="stroke:#038048;stroke-width:1.0;"/><text fill="#000000" font-family="sans-serif" font-size="14" lengthAdjust="spacing" textLength="239" x="27" y="97.5117">TrocaEixoRotacao(eixo:char) : void</text><ellipse cx="18" cy="110.209" fill="#84BE84" rx="3" ry="3" style="stroke:#038048;stroke-width:1.0;"/><text fill="#000000" font-family="sans-serif" font-size="14" lengthAdjust="spacing" textLength="383" x="27" y="114">Objeto(_paiRef:Objeto, _rotulo:char, objetoFilho:Objeto)</text><ellipse cx="18" cy="126.6973" fill="#84BE84" rx="3" ry="3" style="stroke:#038048;stroke-width:1.0;"/><text fill="#000000" font-family="sans-serif" font-size="14" lengthAdjust="spacing" textLength="157" x="27" y="130.4883">ObjetoRemover() : void</text><ellipse cx="18" cy="143.1855" fill="#84BE84" rx="3" ry="3" style="stroke:#038048;stroke-width:1.0;"/><text fill="#000000" font-family="sans-serif" font-size="14" lengthAdjust="spacing" textLength="159" x="27" y="146.9766">ObjetoAtualizar() : void</text><ellipse cx="18" cy="159.6738" fill="#84BE84" rx="3" ry="3" style="stroke:#038048;stroke-width:1.0;"/><text fill="#000000" font-family="sans-serif" font-size="14" lengthAdjust="spacing" textLength="513" x="27" y="163.4648">ObjetoMatrizGlobal(matrizGlobalPai:Transformacao4D) : Transformacao4D</text><ellipse cx="18" cy="176.1621" fill="#84BE84" rx="3" ry="3" style="stroke:#038048;stroke-width:1.0;"/><text fill="#000000" font-family="sans-serif" font-size="14" lengthAdjust="spacing" textLength="510" x="27" y="179.9531">Desenhar(matrizGrafo:Transformacao4D, objetoSelecionado:Objeto) : void</text><ellipse cx="18" cy="192.6504" fill="#84BE84" rx="3" ry="3" style="stroke:#038048;stroke-width:1.0;"/><text fill="#000000" font-family="sans-serif" font-size="14" lengthAdjust="spacing" textLength="232" x="27" y="196.4414">FilhoAdicionar(filho:Objeto) : void</text><ellipse cx="18" cy="209.1387" fill="#84BE84" rx="3" ry="3" style="stroke:#038048;stroke-width:1.0;"/><text fill="#000000" font-family="sans-serif" font-size="14" lengthAdjust="spacing" textLength="176" x="27" y="212.9297">PontosId(id:int) : Ponto4D</text><ellipse cx="18" cy="225.627" fill="#84BE84" rx="3" ry="3" style="stroke:#038048;stroke-width:1.0;"/><text fill="#000000" font-family="sans-serif" font-size="14" lengthAdjust="spacing" textLength="250" x="27" y="229.418">PontosAdicionar(pto:Ponto4D) : void</text><ellipse cx="18" cy="242.1152" fill="#84BE84" rx="3" ry="3" style="stroke:#038048;stroke-width:1.0;"/><text fill="#000000" font-family="sans-serif" font-size="14" lengthAdjust="spacing" textLength="314" x="27" y="245.9063">PontosAlterar(pto:Ponto4D, posicao:int) : void</text><ellipse cx="18" cy="258.6035" fill="#84BE84" rx="3" ry="3" style="stroke:#038048;stroke-width:1.0;"/><text fill="#000000" font-family="sans-serif" font-size="14" lengthAdjust="spacing" textLength="145" x="27" y="262.3945">PontosLimpar() : void</text><ellipse cx="18" cy="275.0918" fill="#84BE84" rx="3" ry="3" style="stroke:#038048;stroke-width:1.0;"/><text fill="#000000" font-family="sans-serif" font-size="14" lengthAdjust="spacing" textLength="378" x="27" y="278.8828">PontoMaisPerto(mousePto:Ponto4D, remover:bool) : int</text><ellipse cx="18" cy="291.5801" fill="#84BE84" rx="3" ry="3" style="stroke:#038048;stroke-width:1.0;"/><text fill="#000000" font-family="sans-serif" font-size="14" lengthAdjust="spacing" textLength="260" x="27" y="295.3711">GrafocenaBusca(_rotulo:char) : Objeto</text><ellipse cx="18" cy="308.0684" fill="#84BE84" rx="3" ry="3" style="stroke:#038048;stroke-width:1.0;"/><text fill="#000000" font-family="sans-serif" font-size="14" lengthAdjust="spacing" textLength="365" x="27" y="311.8594">GrafocenaBuscaProximo(objetoAtual:Objeto) : Objeto</text><ellipse cx="18" cy="324.5566" fill="#84BE84" rx="3" ry="3" style="stroke:#038048;stroke-width:1.0;"/><text fill="#000000" font-family="sans-serif" font-size="14" lengthAdjust="spacing" textLength="242" x="27" y="328.3477">GrafocenaImprimir(idt:string) : void</text><ellipse cx="18" cy="341.0449" fill="#84BE84" rx="3" ry="3" style="stroke:#038048;stroke-width:1.0;"/><text fill="#000000" font-family="sans-serif" font-size="14" lengthAdjust="spacing" textLength="153" x="27" y="344.8359">MatrizImprimir() : void</text><ellipse cx="18" cy="357.5332" fill="#84BE84" rx="3" ry="3" style="stroke:#038048;stroke-width:1.0;"/><text fill="#000000" font-family="sans-serif" font-size="14" lengthAdjust="spacing" textLength="220" x="27" y="361.3242">MatrizAtribuirIdentidade() : void</text><ellipse cx="18" cy="374.0215" fill="#84BE84" rx="3" ry="3" style="stroke:#038048;stroke-width:1.0;"/><text fill="#000000" font-family="sans-serif" font-size="14" lengthAdjust="spacing" textLength="406" x="27" y="377.8125">MatrizTranslacaoXYZ(tx:double, ty:double, tz:double) : void</text><ellipse cx="18" cy="390.5098" fill="#84BE84" rx="3" ry="3" style="stroke:#038048;stroke-width:1.0;"/><text fill="#000000" font-family="sans-serif" font-size="14" lengthAdjust="spacing" textLength="382" x="27" y="394.3008">MatrizEscalaXYZ(Sx:double, Sy:double, Sz:double) : void</text><ellipse cx="18" cy="406.998" fill="#84BE84" rx="3" ry="3" style="stroke:#038048;stroke-width:1.0;"/><text fill="#000000" font-family="sans-serif" font-size="14" lengthAdjust="spacing" textLength="416" x="27" y="410.7891">MatrizEscalaXYZBBox(Sx:double, Sy:double, Sz:double) : void</text><ellipse cx="18" cy="423.4863" fill="#84BE84" rx="3" ry="3" style="stroke:#038048;stroke-width:1.0;"/><text fill="#000000" font-family="sans-serif" font-size="14" lengthAdjust="spacing" textLength="279" x="27" y="427.2773">MatrizRotacaoEixo(angulo:double) : void</text><ellipse cx="18" cy="439.9746" fill="#84BE84" rx="3" ry="3" style="stroke:#038048;stroke-width:1.0;"/><text fill="#000000" font-family="sans-serif" font-size="14" lengthAdjust="spacing" textLength="249" x="27" y="443.7656">MatrizRotacao(angulo:double) : void</text><ellipse cx="18" cy="456.4629" fill="#84BE84" rx="3" ry="3" style="stroke:#038048;stroke-width:1.0;"/><text fill="#000000" font-family="sans-serif" font-size="14" lengthAdjust="spacing" textLength="291" x="27" y="460.2539">MatrizRotacaoZBBox(angulo:double) : void</text><ellipse cx="18" cy="472.9512" fill="#84BE84" rx="3" ry="3" style="stroke:#038048;stroke-width:1.0;"/><text fill="#000000" font-family="sans-serif" font-size="14" lengthAdjust="spacing" textLength="120" x="27" y="476.7422">OnUnload() : void</text><ellipse cx="18" cy="489.4395" fill="#84BE84" rx="3" ry="3" style="stroke:#038048;stroke-width:1.0;"/><text fill="#000000" font-family="sans-serif" font-size="14" lengthAdjust="spacing" textLength="428" x="27" y="493.2305">ScanLine(ptoClique:Ponto4D, objetoSelecionado:Objeto) : bool</text></g><!--class PrimitiveType--><g id="elem_PrimitiveType"><rect fill="#F1F1F1" height="48" id="PrimitiveType" rx="2.5" ry="2.5" style="stroke:#181818;stroke-width:0.5;" width="124" x="146.5" y="560.18"/><ellipse cx="161.5" cy="576.18" fill="#ADD1B2" rx="11" ry="11" style="stroke:#181818;stroke-width:1.0;"/><path d="M163.9731,582.3231 Q163.3921,582.6219 162.7529,582.7713 Q162.1138,582.9207 161.4082,582.9207 Q158.9014,582.9207 157.5815,581.2689 Q156.2617,579.617 156.2617,576.4959 Q156.2617,573.3665 157.5815,571.7147 Q158.9014,570.0628 161.4082,570.0628 Q162.1138,570.0628 162.7612,570.2122 Q163.4087,570.3616 163.9731,570.6605 L163.9731,573.3831 Q163.3423,572.8021 162.7488,572.5323 Q162.1553,572.2625 161.5244,572.2625 Q160.1797,572.2625 159.4949,573.3292 Q158.8101,574.3958 158.8101,576.4959 Q158.8101,578.5877 159.4949,579.6544 Q160.1797,580.721 161.5244,580.721 Q162.1553,580.721 162.7488,580.4512 Q163.3423,580.1815 163.9731,579.6004 Z " fill="#000000"/><text fill="#000000" font-family="sans-serif" font-size="14" lengthAdjust="spacing" textLength="92" x="175.5" y="581.471">PrimitiveType</text><line style="stroke:#181818;stroke-width:0.5;" x1="147.5" x2="269.5" y1="592.18" y2="592.18"/><line style="stroke:#181818;stroke-width:0.5;" x1="147.5" x2="269.5" y1="600.18" y2="600.18"/></g><!--class Shader--><g id="elem_Shader"><rect fill="#F1F1F1" height="48" id="Shader" rx="2.5" ry="2.5" style="stroke:#181818;stroke-width:0.5;" width="80" x="305.5" y="560.18"/><ellipse cx="320.5" cy="576.18" fill="#ADD1B2" rx="11" ry="11" style="stroke:#181818;stroke-width:1.0;"/><path d="M322.9731,582.3231 Q322.3921,582.6219 321.7529,582.7713 Q321.1138,582.9207 320.4082,582.9207 Q317.9014,582.9207 316.5815,581.2689 Q315.2617,579.617 315.2617,576.4959 Q315.2617,573.3665 316.5815,571.7147 Q317.9014,570.0628 320.4082,570.0628 Q321.1138,570.0628 321.7612,570.2122 Q322.4087,570.3616 322.9731,570.6605 L322.9731,573.3831 Q322.3423,572.8021 321.7488,572.5323 Q321.1553,572.2625 320.5244,572.2625 Q319.1797,572.2625 318.4949,573.3292 Q317.8101,574.3958 317.8101,576.4959 Q317.8101,578.5877 318.4949,579.6544 Q319.1797,580.721 320.5244,580.721 Q321.1553,580.721 321.7488,580.4512 Q322.3423,580.1815 322.9731,579.6004 Z " fill="#000000"/><text fill="#000000" font-family="sans-serif" font-size="14" lengthAdjust="spacing" textLength="48" x="334.5" y="581.471">Shader</text><line style="stroke:#181818;stroke-width:0.5;" x1="306.5" x2="384.5" y1="592.18" y2="592.18"/><line style="stroke:#181818;stroke-width:0.5;" x1="306.5" x2="384.5" y1="600.18" y2="600.18"/></g><!--link Objeto to PrimitiveType--><g id="link_Objeto_PrimitiveType"><path codeLine="30" d="M225.66,500.26 C220.7,524.22 217.5948,539.2143 214.5348,554.0143 " fill="none" id="Objeto-to-PrimitiveType" style="stroke:#181818;stroke-width:1.0;"/><polygon fill="#181818" points="213.32,559.89,219.0594,551.8863,214.3324,554.9936,211.2251,550.2665,213.32,559.89" style="stroke:#181818;stroke-width:1.0;"/><text fill="#000000" font-family="sans-serif" font-size="13" lengthAdjust="spacing" textLength="83" x="120.9208" y="549.352">PrimitivaTipo</text></g><!--link Objeto to Shader--><g id="link_Objeto_Shader"><path codeLine="31" d="M328.09,500.26 C333.12,524.22 336.2661,539.2182 339.3761,554.0182 " fill="none" id="Objeto-to-Shader" style="stroke:#181818;stroke-width:1.0;"/><polygon fill="#181818" points="340.61,559.89,342.6737,550.2598,339.5818,554.9969,334.8447,551.9049,340.61,559.89" style="stroke:#181818;stroke-width:1.0;"/><text fill="#000000" font-family="sans-serif" font-size="13" lengthAdjust="spacing" textLength="84" x="278.3796" y="549.44">ShaderObjeto</text></g><!--SRC=[dLHTRzem57tdLrWykHfzsrDK8S7QJKYj6X4cRNkfRf8BtCdnpMm7KQRzzzb988IcNRKynFRrESU-NyuKM2iUqv_eMFmU2Vzz4B6XWXpjO0K5w2sBIAmLWnCtDnjqqwaVRHXR-3pblRpoeFcSzwrjPJY3EzhpaXram1BzFCgsO09mnvItmEPe-LG2BN4TDSk9U3BiAjKm9e9hwsTIMsuHLptw4WlUeP63sZDNWQ83lBBz0CxGuOlY59GipXOnKBGoeEsQJH5y-7WR12vChTOjMjJ-haS50sk-P1_zI51XHgmXFtdJlrZjw2od6cJa-jplFZ9cxTWkSabvHDg5tTfqkbS3wBHAnr6B69IQAOUcZvk8aYrv3uudl23TKr6-36-zzm1aOpG-mmLN5kDpMTDaBKgPLU1w-PPQXoz33VFAPY3FYo40cr0COcF3UofOSfVwiyWD4nT56GhU-22woFhqwSs5AqsDd723kpF_IoioYnorenno7CRLHQ52HNpx_aEwVPHpbIgS2FVSJG_jT53Xplkf8B2JZfrqxEHzxD2j_wNGjdJeRWbw4pBpR_JxaSt5te8_wg_QlqVvPO2J3FGzQGpL-qdHhmgxOdkhzK81ZlwCsbVm-degnjqJI2MFJoyYhfvBx06JhS-qQInZqQp-0W00]--></g></svg>