<?xml version="1.0" encoding="us-ascii" standalone="no"?><svg xmlns="http://www.w3.org/2000/svg" xmlns:xlink="http://www.w3.org/1999/xlink" contentStyleType="text/css" height="235px" preserveAspectRatio="none" style="width:368px;height:235px;background:#FFFFFF;" version="1.1" viewBox="0 0 368 235" width="368px" zoomAndPan="magnify"><defs/><g><!--class Ponto--><g id="elem_Ponto"><rect codeLine="1" fill="#F1F1F1" height="113.9531" id="Ponto" rx="2.5" ry="2.5" style="stroke:#181818;stroke-width:0.5;" width="354" x="7" y="115"/><ellipse cx="159.75" cy="131" fill="#ADD1B2" rx="11" ry="11" style="stroke:#181818;stroke-width:1.0;"/><path d="M162.2231,137.1431 Q161.6421,137.4419 161.0029,137.5913 Q160.3638,137.7407 159.6582,137.7407 Q157.1514,137.7407 155.8315,136.0889 Q154.5117,134.437 154.5117,131.3159 Q154.5117,128.1865 155.8315,126.5347 Q157.1514,124.8828 159.6582,124.8828 Q160.3638,124.8828 161.0112,125.0322 Q161.6587,125.1816 162.2231,125.4805 L162.2231,128.2031 Q161.5923,127.6221 160.9988,127.3523 Q160.4053,127.0825 159.7744,127.0825 Q158.4297,127.0825 157.7449,128.1492 Q157.0601,129.2158 157.0601,131.3159 Q157.0601,133.4077 157.7449,134.4744 Q158.4297,135.541 159.7744,135.541 Q160.4053,135.541 160.9988,135.2712 Q161.5923,135.0015 162.2231,134.4204 Z " fill="#000000"/><text fill="#000000" font-family="sans-serif" font-size="14" lengthAdjust="spacing" textLength="40" x="180.25" y="136.291">Ponto</text><line style="stroke:#181818;stroke-width:0.5;" x1="8" x2="360" y1="147" y2="147"/><line style="stroke:#181818;stroke-width:0.5;" x1="8" x2="360" y1="155" y2="155"/><ellipse cx="18" cy="168.7441" fill="#84BE84" rx="3" ry="3" style="stroke:#038048;stroke-width:1.0;"/><text fill="#000000" font-family="sans-serif" font-size="14" lengthAdjust="spacing" textLength="234" x="27" y="172.5352">Ponto(paiRef:Objeto, _rotulo:char)</text><ellipse cx="18" cy="185.2324" fill="#84BE84" rx="3" ry="3" style="stroke:#038048;stroke-width:1.0;"/><text fill="#000000" font-family="sans-serif" font-size="14" lengthAdjust="spacing" textLength="328" x="27" y="189.0234">Ponto(paiRef:Objeto, _rotulo:char, pto:Ponto4D)</text><ellipse cx="18" cy="201.7207" fill="#84BE84" rx="3" ry="3" style="stroke:#038048;stroke-width:1.0;"/><text fill="#000000" font-family="sans-serif" font-size="14" lengthAdjust="spacing" textLength="113" x="27" y="205.5117">Atualizar() : void</text><ellipse cx="18" cy="218.209" fill="#84BE84" rx="3" ry="3" style="stroke:#038048;stroke-width:1.0;"/><text fill="#000000" font-family="sans-serif" font-size="14" lengthAdjust="spacing" textLength="196" x="27" y="222">&#171;override&#187; ToString() : string</text></g><!--class Objeto--><g id="elem_Objeto"><rect fill="#F1F1F1" height="48" id="Objeto" rx="2.5" ry="2.5" style="stroke:#181818;stroke-width:0.5;" width="78" x="145" y="7"/><ellipse cx="160" cy="23" fill="#ADD1B2" rx="11" ry="11" style="stroke:#181818;stroke-width:1.0;"/><path d="M162.4731,29.1431 Q161.8921,29.4419 161.2529,29.5913 Q160.6138,29.7407 159.9082,29.7407 Q157.4014,29.7407 156.0815,28.0889 Q154.7617,26.437 154.7617,23.3159 Q154.7617,20.1865 156.0815,18.5347 Q157.4014,16.8828 159.9082,16.8828 Q160.6138,16.8828 161.2612,17.0322 Q161.9087,17.1816 162.4731,17.4805 L162.4731,20.2031 Q161.8423,19.6221 161.2488,19.3523 Q160.6553,19.0825 160.0244,19.0825 Q158.6797,19.0825 157.9949,20.1492 Q157.3101,21.2158 157.3101,23.3159 Q157.3101,25.4077 157.9949,26.4744 Q158.6797,27.541 160.0244,27.541 Q160.6553,27.541 161.2488,27.2712 Q161.8423,27.0015 162.4731,26.4204 Z " fill="#000000"/><text fill="#000000" font-family="sans-serif" font-size="14" lengthAdjust="spacing" textLength="46" x="174" y="28.291">Objeto</text><line style="stroke:#181818;stroke-width:0.5;" x1="146" x2="222" y1="39" y2="39"/><line style="stroke:#181818;stroke-width:0.5;" x1="146" x2="222" y1="47" y2="47"/></g><!--reverse link Objeto to Ponto--><g id="link_Objeto_Ponto"><path codeLine="7" d="M184,73.26 C184,89.49 184,93.87 184,114.63 " fill="none" id="Objeto-backto-Ponto" style="stroke:#181818;stroke-width:1.0;"/><polygon fill="none" points="184,55.26,178,73.26,190,73.26,184,55.26" style="stroke:#181818;stroke-width:1.0;"/></g><!--SRC=[Iyv9B2vM2CZFAybNgEPI009j24-Z834pA3NDoZyfAxKaNqSXlYY_f3Gdtoev8x58arY5EWe59VbMO6KcBZ1TZYMbYJcPLOb56feALWfb-PafK0aRc_oorAAYp9HKEpk5aFpWagBCl7Imec8mawkM2sA9WasDhYx4TW00]--></g></svg>