<?xml version="1.0" encoding="us-ascii" standalone="no"?><svg xmlns="http://www.w3.org/2000/svg" xmlns:xlink="http://www.w3.org/1999/xlink" contentStyleType="text/css" height="367px" preserveAspectRatio="none" style="width:519px;height:367px;background:#FFFFFF;" version="1.1" viewBox="0 0 519 367" width="519px" zoomAndPan="magnify"><defs/><g><!--class BBox--><g id="elem_BBox"><rect codeLine="1" fill="#F1F1F1" height="245.8594" id="BBox" rx="2.5" ry="2.5" style="stroke:#181818;stroke-width:0.5;" width="505" x="7" y="7"/><ellipse cx="238.25" cy="23" fill="#ADD1B2" rx="11" ry="11" style="stroke:#181818;stroke-width:1.0;"/><path d="M240.7231,29.1431 Q240.1421,29.4419 239.5029,29.5913 Q238.8638,29.7407 238.1582,29.7407 Q235.6514,29.7407 234.3315,28.0889 Q233.0117,26.437 233.0117,23.3159 Q233.0117,20.1865 234.3315,18.5347 Q235.6514,16.8828 238.1582,16.8828 Q238.8638,16.8828 239.5112,17.0322 Q240.1587,17.1816 240.7231,17.4805 L240.7231,20.2031 Q240.0923,19.6221 239.4988,19.3523 Q238.9053,19.0825 238.2744,19.0825 Q236.9297,19.0825 236.2449,20.1492 Q235.5601,21.2158 235.5601,23.3159 Q235.5601,25.4077 236.2449,26.4744 Q236.9297,27.541 238.2744,27.541 Q238.9053,27.541 239.4988,27.2712 Q240.0923,27.0015 240.7231,26.4204 Z " fill="#000000"/><text fill="#000000" font-family="sans-serif" font-size="14" lengthAdjust="spacing" textLength="34" x="258.75" y="28.291">BBox</text><line style="stroke:#181818;stroke-width:0.5;" x1="8" x2="511" y1="39" y2="39"/><ellipse cx="18" cy="52.7441" fill="none" rx="3" ry="3" style="stroke:#038048;stroke-width:1.0;"/><text fill="#000000" font-family="sans-serif" font-size="14" lengthAdjust="spacing" textLength="190" x="27" y="56.5352">obterMenorX : double &#171;get&#187;</text><ellipse cx="18" cy="69.2324" fill="none" rx="3" ry="3" style="stroke:#038048;stroke-width:1.0;"/><text fill="#000000" font-family="sans-serif" font-size="14" lengthAdjust="spacing" textLength="190" x="27" y="73.0234">obterMenorY : double &#171;get&#187;</text><ellipse cx="18" cy="85.7207" fill="none" rx="3" ry="3" style="stroke:#038048;stroke-width:1.0;"/><text fill="#000000" font-family="sans-serif" font-size="14" lengthAdjust="spacing" textLength="189" x="27" y="89.5117">obterMenorZ : double &#171;get&#187;</text><ellipse cx="18" cy="102.209" fill="none" rx="3" ry="3" style="stroke:#038048;stroke-width:1.0;"/><text fill="#000000" font-family="sans-serif" font-size="14" lengthAdjust="spacing" textLength="185" x="27" y="106">obterMaiorX : double &#171;get&#187;</text><ellipse cx="18" cy="118.6973" fill="none" rx="3" ry="3" style="stroke:#038048;stroke-width:1.0;"/><text fill="#000000" font-family="sans-serif" font-size="14" lengthAdjust="spacing" textLength="185" x="27" y="122.4883">obterMaiorY : double &#171;get&#187;</text><ellipse cx="18" cy="135.1855" fill="none" rx="3" ry="3" style="stroke:#038048;stroke-width:1.0;"/><text fill="#000000" font-family="sans-serif" font-size="14" lengthAdjust="spacing" textLength="184" x="27" y="138.9766">obterMaiorZ : double &#171;get&#187;</text><line style="stroke:#181818;stroke-width:0.5;" x1="8" x2="511" y1="145.9297" y2="145.9297"/><ellipse cx="18" cy="159.6738" fill="#84BE84" rx="3" ry="3" style="stroke:#038048;stroke-width:1.0;"/><text fill="#000000" font-family="sans-serif" font-size="14" lengthAdjust="spacing" textLength="44" x="27" y="163.4648">BBox()</text><ellipse cx="18" cy="176.1621" fill="#84BE84" rx="3" ry="3" style="stroke:#038048;stroke-width:1.0;"/><text fill="#000000" font-family="sans-serif" font-size="14" lengthAdjust="spacing" textLength="479" x="27" y="179.9531">Atualizar(matriz:Transformacao4D, pontosLista:List&lt;Ponto4D&gt;) : void</text><ellipse cx="18" cy="192.6504" fill="#84BE84" rx="3" ry="3" style="stroke:#038048;stroke-width:1.0;"/><text fill="#000000" font-family="sans-serif" font-size="14" lengthAdjust="spacing" textLength="164" x="27" y="196.4414">ProcessarCentro() : void</text><ellipse cx="18" cy="209.1387" fill="#84BE84" rx="3" ry="3" style="stroke:#038048;stroke-width:1.0;"/><text fill="#000000" font-family="sans-serif" font-size="14" lengthAdjust="spacing" textLength="186" x="27" y="212.9297">Dentro(pto:Ponto4D) : bool</text><ellipse cx="18" cy="225.627" fill="#84BE84" rx="3" ry="3" style="stroke:#038048;stroke-width:1.0;"/><text fill="#000000" font-family="sans-serif" font-size="14" lengthAdjust="spacing" textLength="325" x="27" y="229.418">Desenhar(matrizGrafo:Transformacao4D) : void</text><ellipse cx="18" cy="242.1152" fill="#84BE84" rx="3" ry="3" style="stroke:#038048;stroke-width:1.0;"/><text fill="#000000" font-family="sans-serif" font-size="14" lengthAdjust="spacing" textLength="196" x="27" y="245.9063">&#171;override&#187; ToString() : string</text></g><!--class Ponto4D--><g id="elem_Ponto4D"><rect fill="#F1F1F1" height="48" id="Ponto4D" rx="2.5" ry="2.5" style="stroke:#181818;stroke-width:0.5;" width="91" x="214" y="312.86"/><ellipse cx="229" cy="328.86" fill="#ADD1B2" rx="11" ry="11" style="stroke:#181818;stroke-width:1.0;"/><path d="M231.4731,335.0031 Q230.8921,335.3019 230.2529,335.4513 Q229.6138,335.6007 228.9082,335.6007 Q226.4014,335.6007 225.0815,333.9489 Q223.7617,332.297 223.7617,329.1759 Q223.7617,326.0465 225.0815,324.3947 Q226.4014,322.7428 228.9082,322.7428 Q229.6138,322.7428 230.2612,322.8922 Q230.9087,323.0416 231.4731,323.3405 L231.4731,326.0631 Q230.8423,325.4821 230.2488,325.2123 Q229.6553,324.9425 229.0244,324.9425 Q227.6797,324.9425 226.9949,326.0092 Q226.3101,327.0758 226.3101,329.1759 Q226.3101,331.2677 226.9949,332.3344 Q227.6797,333.401 229.0244,333.401 Q229.6553,333.401 230.2488,333.1312 Q230.8423,332.8615 231.4731,332.2804 Z " fill="#000000"/><text fill="#000000" font-family="sans-serif" font-size="14" lengthAdjust="spacing" textLength="59" x="243" y="334.151">Ponto4D</text><line style="stroke:#181818;stroke-width:0.5;" x1="215" x2="304" y1="344.86" y2="344.86"/><line style="stroke:#181818;stroke-width:0.5;" x1="215" x2="304" y1="352.86" y2="352.86"/></g><!--link BBox to Ponto4D--><g id="link_BBox_Ponto4D"><path codeLine="15" d="M259.5,253.1 C259.5,275.9 259.5,291.35 259.5,306.69 " fill="none" id="BBox-to-Ponto4D" style="stroke:#181818;stroke-width:1.0;"/><polygon fill="#181818" points="259.5,312.69,263.5,303.69,259.5,307.69,255.5,303.69,259.5,312.69" style="stroke:#181818;stroke-width:1.0;"/><text fill="#000000" font-family="sans-serif" font-size="13" lengthAdjust="spacing" textLength="75" x="174.8906" y="302.1827">obterCentro</text></g><!--SRC=[XP71QiCm343l-GhHKyhMMq_16DO5UkcWi1xQtPH4RGsfLIItZ8x- -nBNx92nnGTZIS-IUQvRL8N5WZ_XAuDkFSKWdwRW9LomTJUK_8H1tAtO27hTivomHfwNpt1c7rXNJWCM_MxMVM9UsYaKS6NNf4vhuPfKKLx91-5yK2uVsNFW8ZNeWOgvJG1NWUIDFCksApHygLe2OmuKhFs5xCQHZ_yHTAE3UcGtZlmvg2GbV_nHknJSyz3lm98nV2KHrv2riE7txfu_H9KQZzazYtyvcrcOn2SyR4yWIVq6]--></g></svg>