<?xml version="1.0" encoding="us-ascii" standalone="no"?><svg xmlns="http://www.w3.org/2000/svg" xmlns:xlink="http://www.w3.org/1999/xlink" contentStyleType="text/css" height="285px" preserveAspectRatio="none" style="width:338px;height:285px;background:#FFFFFF;" version="1.1" viewBox="0 0 338 285" width="338px" zoomAndPan="magnify"><defs/><g><!--class Camera--><g id="elem_Camera"><rect codeLine="1" fill="#F1F1F1" height="163.418" id="Camera" rx="2.5" ry="2.5" style="stroke:#181818;stroke-width:0.5;" width="324" x="7" y="7"/><ellipse cx="138.25" cy="23" fill="#ADD1B2" rx="11" ry="11" style="stroke:#181818;stroke-width:1.0;"/><path d="M140.7231,29.1431 Q140.1421,29.4419 139.5029,29.5913 Q138.8638,29.7407 138.1582,29.7407 Q135.6514,29.7407 134.3315,28.0889 Q133.0117,26.437 133.0117,23.3159 Q133.0117,20.1865 134.3315,18.5347 Q135.6514,16.8828 138.1582,16.8828 Q138.8638,16.8828 139.5112,17.0322 Q140.1587,17.1816 140.7231,17.4805 L140.7231,20.2031 Q140.0923,19.6221 139.4988,19.3523 Q138.9053,19.0825 138.2744,19.0825 Q136.9297,19.0825 136.2449,20.1492 Q135.5601,21.2158 135.5601,23.3159 Q135.5601,25.4077 136.2449,26.4744 Q136.9297,27.541 138.2744,27.541 Q138.9053,27.541 139.4988,27.2712 Q140.0923,27.0015 140.7231,26.4204 Z " fill="#000000"/><text fill="#000000" font-family="sans-serif" font-size="14" lengthAdjust="spacing" textLength="53" x="158.75" y="28.291">Camera</text><line style="stroke:#181818;stroke-width:0.5;" x1="8" x2="330" y1="39" y2="39"/><ellipse cx="18" cy="52.7441" fill="none" rx="3" ry="3" style="stroke:#038048;stroke-width:1.0;"/><text fill="#000000" font-family="sans-serif" font-size="14" lengthAdjust="spacing" textLength="162" x="27" y="56.5352">AspectRatio : float &#171;set&#187;</text><ellipse cx="18" cy="69.2324" fill="none" rx="3" ry="3" style="stroke:#038048;stroke-width:1.0;"/><text fill="#000000" font-family="sans-serif" font-size="14" lengthAdjust="spacing" textLength="154" x="27" y="73.0234">Pitch : float &#171;get&#187; &#171;set&#187;</text><ellipse cx="18" cy="85.7207" fill="none" rx="3" ry="3" style="stroke:#038048;stroke-width:1.0;"/><text fill="#000000" font-family="sans-serif" font-size="14" lengthAdjust="spacing" textLength="149" x="27" y="89.5117">Yaw : float &#171;get&#187; &#171;set&#187;</text><ellipse cx="18" cy="102.209" fill="none" rx="3" ry="3" style="stroke:#038048;stroke-width:1.0;"/><text fill="#000000" font-family="sans-serif" font-size="14" lengthAdjust="spacing" textLength="145" x="27" y="106">Fov : float &#171;get&#187; &#171;set&#187;</text><line style="stroke:#181818;stroke-width:0.5;" x1="8" x2="330" y1="112.9531" y2="112.9531"/><ellipse cx="18" cy="126.6973" fill="#84BE84" rx="3" ry="3" style="stroke:#038048;stroke-width:1.0;"/><text fill="#000000" font-family="sans-serif" font-size="14" lengthAdjust="spacing" textLength="298" x="27" y="130.4883">Camera(position:Vector3, aspectRatio:float)</text><ellipse cx="18" cy="143.1855" fill="#84BE84" rx="3" ry="3" style="stroke:#038048;stroke-width:1.0;"/><text fill="#000000" font-family="sans-serif" font-size="14" lengthAdjust="spacing" textLength="174" x="27" y="146.9766">GetViewMatrix() : Matrix4</text><ellipse cx="18" cy="159.6738" fill="#84BE84" rx="3" ry="3" style="stroke:#038048;stroke-width:1.0;"/><text fill="#000000" font-family="sans-serif" font-size="14" lengthAdjust="spacing" textLength="211" x="27" y="163.4648">GetProjectionMatrix() : Matrix4</text></g><!--class Vector3--><g id="elem_Vector3"><rect fill="#F1F1F1" height="48" id="Vector3" rx="2.5" ry="2.5" style="stroke:#181818;stroke-width:0.5;" width="85" x="126.5" y="230.42"/><ellipse cx="141.5" cy="246.42" fill="#ADD1B2" rx="11" ry="11" style="stroke:#181818;stroke-width:1.0;"/><path d="M143.9731,252.5631 Q143.3921,252.8619 142.7529,253.0113 Q142.1138,253.1607 141.4082,253.1607 Q138.9014,253.1607 137.5815,251.5089 Q136.2617,249.857 136.2617,246.7359 Q136.2617,243.6065 137.5815,241.9547 Q138.9014,240.3028 141.4082,240.3028 Q142.1138,240.3028 142.7612,240.4522 Q143.4087,240.6016 143.9731,240.9005 L143.9731,243.6231 Q143.3423,243.0421 142.7488,242.7723 Q142.1553,242.5025 141.5244,242.5025 Q140.1797,242.5025 139.4949,243.5692 Q138.8101,244.6358 138.8101,246.7359 Q138.8101,248.8277 139.4949,249.8944 Q140.1797,250.961 141.5244,250.961 Q142.1553,250.961 142.7488,250.6912 Q143.3423,250.4215 143.9731,249.8404 Z " fill="#000000"/><text fill="#000000" font-family="sans-serif" font-size="14" lengthAdjust="spacing" textLength="53" x="155.5" y="251.711">Vector3</text><line style="stroke:#181818;stroke-width:0.5;" x1="127.5" x2="210.5" y1="262.42" y2="262.42"/><line style="stroke:#181818;stroke-width:0.5;" x1="127.5" x2="210.5" y1="270.42" y2="270.42"/></g><!--link Camera to Vector3--><g id="link_Camera_Vector3"><path codeLine="10" d="M130,170.61 C129.89,192.36 130.9608,208.7453 138.1908,224.5253 " fill="none" id="Camera-to-Vector3" style="stroke:#181818;stroke-width:1.0;"/><polygon fill="#181818" points="140.69,229.98,140.5777,220.1318,138.6073,225.4344,133.3047,223.4641,140.69,229.98" style="stroke:#181818;stroke-width:1.0;"/><text fill="#000000" font-family="sans-serif" font-size="13" lengthAdjust="spacing" textLength="51" x="76.5738" y="219.8008">Position</text></g><!--link Camera to Vector3--><g id="link_Camera_Vector3"><path codeLine="11" d="M156.25,170.61 C156.22,192.36 156.4889,208.2665 158.8589,224.0465 " fill="none" id="Camera-to-Vector3-1" style="stroke:#181818;stroke-width:1.0;"/><polygon fill="#181818" points="159.75,229.98,162.3689,220.4857,159.0074,225.0355,154.4576,221.6739,159.75,229.98" style="stroke:#181818;stroke-width:1.0;"/><text fill="#000000" font-family="sans-serif" font-size="13" lengthAdjust="spacing" textLength="33" x="161.5172" y="219.8008">Front</text></g><!--link Camera to Vector3--><g id="link_Camera_Vector3"><path codeLine="12" d="M182.5,170.61 C182.54,192.36 182.2389,208.2739 179.7389,224.0539 " fill="none" id="Camera-to-Vector3-2" style="stroke:#181818;stroke-width:1.0;"/><polygon fill="#181818" points="178.8,229.98,184.159,221.7168,179.5824,225.0416,176.2576,220.465,178.8,229.98" style="stroke:#181818;stroke-width:1.0;"/><text fill="#000000" font-family="sans-serif" font-size="13" lengthAdjust="spacing" textLength="17" x="183.2606" y="219.8008">Up</text></g><!--link Camera to Vector3--><g id="link_Camera_Vector3"><path codeLine="13" d="M208.75,170.61 C208.86,192.36 207.7718,208.765 200.3918,224.545 " fill="none" id="Camera-to-Vector3-3" style="stroke:#181818;stroke-width:1.0;"/><polygon fill="#181818" points="197.85,229.98,205.2861,223.5221,199.9682,225.4508,198.0394,220.133,197.85,229.98" style="stroke:#181818;stroke-width:1.0;"/><text fill="#000000" font-family="sans-serif" font-size="13" lengthAdjust="spacing" textLength="33" x="208.9041" y="219.8008">Right</text></g><!--SRC=[XP312e9048RlFiNWIIbFTH9PYC1EWGW97GVPTCCSsHqoYDwzhHQsGd1EC_Dz0xj_tQ4niCMBr0Zt06mjt1WDP1GhwjDAranwjGGqWsrBjDlqr15ox2us7a0ARmHPPYGBuOn2STr-iUR5_fmZZZD6JjSPOoUvKdBS8sjrYs9hVzgrvuMcitsj_Tc4zGXS64aY82nS126u37vehgddQNGOflUbQbf_yWG0]--></g></svg>