<?xml version="1.0" encoding="us-ascii" standalone="no"?><svg xmlns="http://www.w3.org/2000/svg" xmlns:xlink="http://www.w3.org/1999/xlink" contentStyleType="text/css" height="332px" preserveAspectRatio="none" style="width:605px;height:332px;background:#FFFFFF;" version="1.1" viewBox="0 0 605 332" width="605px" zoomAndPan="magnify"><defs/><g><!--class Transformacao4D--><g id="elem_Transformacao4D"><rect codeLine="1" fill="#F1F1F1" height="311.8125" id="Transformacao4D" rx="2.5" ry="2.5" style="stroke:#181818;stroke-width:0.5;" width="584" x="7" y="7"/><ellipse cx="233.25" cy="23" fill="#ADD1B2" rx="11" ry="11" style="stroke:#181818;stroke-width:1.0;"/><path d="M235.7231,29.1431 Q235.1421,29.4419 234.5029,29.5913 Q233.8638,29.7407 233.1582,29.7407 Q230.6514,29.7407 229.3315,28.0889 Q228.0117,26.437 228.0117,23.3159 Q228.0117,20.1865 229.3315,18.5347 Q230.6514,16.8828 233.1582,16.8828 Q233.8638,16.8828 234.5112,17.0322 Q235.1587,17.1816 235.7231,17.4805 L235.7231,20.2031 Q235.0923,19.6221 234.4988,19.3523 Q233.9053,19.0825 233.2744,19.0825 Q231.9297,19.0825 231.2449,20.1492 Q230.5601,21.2158 230.5601,23.3159 Q230.5601,25.4077 231.2449,26.4744 Q231.9297,27.541 233.2744,27.541 Q233.9053,27.541 234.4988,27.2712 Q235.0923,27.0015 235.7231,26.4204 Z " fill="#000000"/><text fill="#000000" font-family="sans-serif" font-size="14" lengthAdjust="spacing" textLength="123" x="253.75" y="28.291">Transformacao4D</text><line style="stroke:#181818;stroke-width:0.5;" x1="8" x2="590" y1="39" y2="39"/><ellipse cx="18" cy="52.7441" fill="none" rx="3" ry="3" style="stroke:#038048;stroke-width:1.0;"/><text fill="#000000" font-family="sans-serif" font-size="14" lengthAdjust="spacing" text-decoration="underline" textLength="558" x="27" y="56.5352">&#171;readonly&#187; DEG_TO_RAD : double = 0.017453292519943295769236907684886</text><line style="stroke:#181818;stroke-width:0.5;" x1="8" x2="590" y1="63.4883" y2="63.4883"/><ellipse cx="18" cy="77.2324" fill="#84BE84" rx="3" ry="3" style="stroke:#038048;stroke-width:1.0;"/><text fill="#000000" font-family="sans-serif" font-size="14" lengthAdjust="spacing" textLength="133" x="27" y="81.0234">Transformacao4D()</text><ellipse cx="18" cy="93.7207" fill="#84BE84" rx="3" ry="3" style="stroke:#038048;stroke-width:1.0;"/><text fill="#000000" font-family="sans-serif" font-size="14" lengthAdjust="spacing" textLength="212" x="27" y="97.5117">ObterDadosOpenTK() : Matrix4</text><ellipse cx="18" cy="110.209" fill="#84BE84" rx="3" ry="3" style="stroke:#038048;stroke-width:1.0;"/><text fill="#000000" font-family="sans-serif" font-size="14" lengthAdjust="spacing" textLength="177" x="27" y="114">AtribuirIdentidade() : void</text><ellipse cx="18" cy="126.6973" fill="#84BE84" rx="3" ry="3" style="stroke:#038048;stroke-width:1.0;"/><text fill="#000000" font-family="sans-serif" font-size="14" lengthAdjust="spacing" textLength="390" x="27" y="130.4883">AtribuirTranslacao(tx:double, ty:double, tz:double) : void</text><ellipse cx="18" cy="143.1855" fill="#84BE84" rx="3" ry="3" style="stroke:#038048;stroke-width:1.0;"/><text fill="#000000" font-family="sans-serif" font-size="14" lengthAdjust="spacing" textLength="365" x="27" y="146.9766">AtribuirEscala(sX:double, sY:double, sZ:double) : void</text><ellipse cx="18" cy="159.6738" fill="#84BE84" rx="3" ry="3" style="stroke:#038048;stroke-width:1.0;"/><text fill="#000000" font-family="sans-serif" font-size="14" lengthAdjust="spacing" textLength="271" x="27" y="163.4648">AtribuirRotacaoX(radians:double) : void</text><ellipse cx="18" cy="176.1621" fill="#84BE84" rx="3" ry="3" style="stroke:#038048;stroke-width:1.0;"/><text fill="#000000" font-family="sans-serif" font-size="14" lengthAdjust="spacing" textLength="271" x="27" y="179.9531">AtribuirRotacaoY(radians:double) : void</text><ellipse cx="18" cy="192.6504" fill="#84BE84" rx="3" ry="3" style="stroke:#038048;stroke-width:1.0;"/><text fill="#000000" font-family="sans-serif" font-size="14" lengthAdjust="spacing" textLength="270" x="27" y="196.4414">AtribuirRotacaoZ(radians:double) : void</text><ellipse cx="18" cy="209.1387" fill="#84BE84" rx="3" ry="3" style="stroke:#038048;stroke-width:1.0;"/><text fill="#000000" font-family="sans-serif" font-size="14" lengthAdjust="spacing" textLength="279" x="27" y="212.9297">MultiplicarPonto(pto:Ponto4D) : Ponto4D</text><ellipse cx="18" cy="225.627" fill="#84BE84" rx="3" ry="3" style="stroke:#038048;stroke-width:1.0;"/><text fill="#000000" font-family="sans-serif" font-size="14" lengthAdjust="spacing" textLength="392" x="27" y="229.418">MultiplicarMatriz(t:Transformacao4D) : Transformacao4D</text><ellipse cx="18" cy="242.1152" fill="#84BE84" rx="3" ry="3" style="stroke:#038048;stroke-width:1.0;"/><text fill="#000000" font-family="sans-serif" font-size="14" lengthAdjust="spacing" textLength="234" x="27" y="245.9063">ObterElemento(index:int) : double</text><ellipse cx="18" cy="258.6035" fill="#84BE84" rx="3" ry="3" style="stroke:#038048;stroke-width:1.0;"/><text fill="#000000" font-family="sans-serif" font-size="14" lengthAdjust="spacing" textLength="325" x="27" y="262.3945">AtribuirElemento(index:int, value:double) : void</text><ellipse cx="18" cy="275.0918" fill="#84BE84" rx="3" ry="3" style="stroke:#038048;stroke-width:1.0;"/><text fill="#000000" font-family="sans-serif" font-size="14" lengthAdjust="spacing" textLength="162" x="27" y="278.8828">ObterDados() : double[]</text><ellipse cx="18" cy="291.5801" fill="#84BE84" rx="3" ry="3" style="stroke:#038048;stroke-width:1.0;"/><text fill="#000000" font-family="sans-serif" font-size="14" lengthAdjust="spacing" textLength="239" x="27" y="295.3711">AtribuirDados(data:double[]) : void</text><ellipse cx="18" cy="308.0684" fill="#84BE84" rx="3" ry="3" style="stroke:#038048;stroke-width:1.0;"/><text fill="#000000" font-family="sans-serif" font-size="14" lengthAdjust="spacing" textLength="196" x="27" y="311.8594">&#171;override&#187; ToString() : string</text></g><!--SRC=[bP9TQy8m58Rl_HMvZ2Z3ZrhRqWb2POmX3jSBTGmvDja8n4IILFp0_xwqTdRKJRPSlGdFUT-Jv2GSj4Qn0g7VfLf30jA9qB66x3fg0uOb9zH0OQWe42duVZ10qUXX6K-Mqs640aHakk8KtQFMNQlTTthTZj_fjNtViQBNT_rEr_LRVTTpFC_DNHlLD5mlpYShGrLaO_HaGqNyXElMVmn6iPrJ84ExMQLCFH8g32D0Q0vj9ICL8W_XMG8sk-3SPHEPVIaFXVp5OAGJu83rx5AXvwLSt2wUIfD5px02mcmZVwBd_w8Nj-bnoWtRS9Q0UfR2IBmnCiYL4sLe8Q_f_C4Fs0ILRygAAaVV_st4wPfcEKmGkWkOCFNBT5HVzWfjeYtmbFvyat8iS6dv-bOnFGC430HVHCKd3EMMAiK8jJCSonTRA3voIvtBskaJ]--></g></svg>