<?xml version="1.0" encoding="us-ascii" standalone="no"?><svg xmlns="http://www.w3.org/2000/svg" xmlns:xlink="http://www.w3.org/1999/xlink" contentStyleType="text/css" height="516px" preserveAspectRatio="none" style="width:4871px;height:516px;background:#FFFFFF;" version="1.1" viewBox="0 0 4871 516" width="4871px" zoomAndPan="magnify"><defs/><g><!--class Poligono--><g id="elem_Poligono"><rect codeLine="1" fill="#F1F1F1" height="80.9766" id="Poligono" rx="2.5" ry="2.5" style="stroke:#181818;stroke-width:0.5;" width="513" x="7" y="395.3"/><ellipse cx="228.75" cy="411.3" fill="#ADD1B2" rx="11" ry="11" style="stroke:#181818;stroke-width:1.0;"/><path d="M231.2231,417.4431 Q230.6421,417.7419 230.0029,417.8913 Q229.3638,418.0407 228.6582,418.0407 Q226.1514,418.0407 224.8315,416.3889 Q223.5117,414.737 223.5117,411.6159 Q223.5117,408.4865 224.8315,406.8347 Q226.1514,405.1828 228.6582,405.1828 Q229.3638,405.1828 230.0112,405.3322 Q230.6587,405.4816 231.2231,405.7805 L231.2231,408.5031 Q230.5923,407.9221 229.9988,407.6523 Q229.4053,407.3825 228.7744,407.3825 Q227.4297,407.3825 226.7449,408.4492 Q226.0601,409.5158 226.0601,411.6159 Q226.0601,413.7077 226.7449,414.7744 Q227.4297,415.841 228.7744,415.841 Q229.4053,415.841 229.9988,415.5712 Q230.5923,415.3015 231.2231,414.7204 Z " fill="#000000"/><text fill="#000000" font-family="sans-serif" font-size="14" lengthAdjust="spacing" textLength="61" x="249.25" y="416.591">Poligono</text><line style="stroke:#181818;stroke-width:0.5;" x1="8" x2="519" y1="427.3" y2="427.3"/><line style="stroke:#181818;stroke-width:0.5;" x1="8" x2="519" y1="435.3" y2="435.3"/><ellipse cx="18" cy="449.0441" fill="#84BE84" rx="3" ry="3" style="stroke:#038048;stroke-width:1.0;"/><text fill="#000000" font-family="sans-serif" font-size="14" lengthAdjust="spacing" textLength="487" x="27" y="452.8352">Poligono(_paiRef:Objeto, _rotulo:char, pontosPoligono:List&lt;Ponto4D&gt;)</text><ellipse cx="18" cy="465.5324" fill="#84BE84" rx="3" ry="3" style="stroke:#038048;stroke-width:1.0;"/><text fill="#000000" font-family="sans-serif" font-size="14" lengthAdjust="spacing" textLength="196" x="27" y="469.3234">&#171;override&#187; ToString() : string</text></g><!--class Objeto--><g id="elem_Objeto"><rect codeLine="1" fill="#F1F1F1" height="295.3242" id="Objeto" rx="2.5" ry="2.5" style="stroke:#181818;stroke-width:0.5;" width="409" x="1636" y="7"/><ellipse cx="1813.25" cy="23" fill="#ADD1B2" rx="11" ry="11" style="stroke:#181818;stroke-width:1.0;"/><path d="M1815.7231,29.1431 Q1815.1421,29.4419 1814.5029,29.5913 Q1813.8638,29.7407 1813.1582,29.7407 Q1810.6514,29.7407 1809.3315,28.0889 Q1808.0117,26.437 1808.0117,23.3159 Q1808.0117,20.1865 1809.3315,18.5347 Q1810.6514,16.8828 1813.1582,16.8828 Q1813.8638,16.8828 1814.5112,17.0322 Q1815.1587,17.1816 1815.7231,17.4805 L1815.7231,20.2031 Q1815.0923,19.6221 1814.4988,19.3523 Q1813.9053,19.0825 1813.2744,19.0825 Q1811.9297,19.0825 1811.2449,20.1492 Q1810.5601,21.2158 1810.5601,23.3159 Q1810.5601,25.4077 1811.2449,26.4744 Q1811.9297,27.541 1813.2744,27.541 Q1813.9053,27.541 1814.4988,27.2712 Q1815.0923,27.0015 1815.7231,26.4204 Z " fill="#000000"/><text fill="#000000" font-family="sans-serif" font-size="14" lengthAdjust="spacing" textLength="46" x="1833.75" y="28.291">Objeto</text><line style="stroke:#181818;stroke-width:0.5;" x1="1637" x2="2044" y1="39" y2="39"/><ellipse cx="1647" cy="52.7441" fill="none" rx="3" ry="3" style="stroke:#038048;stroke-width:1.0;"/><text fill="#000000" font-family="sans-serif" font-size="14" lengthAdjust="spacing" textLength="245" x="1656" y="56.5352">PrimitivaTamanho : float &#171;get&#187; &#171;set&#187;</text><ellipse cx="1647" cy="69.2324" fill="none" rx="3" ry="3" style="stroke:#038048;stroke-width:1.0;"/><text fill="#000000" font-family="sans-serif" font-size="14" lengthAdjust="spacing" textLength="213" x="1656" y="73.0234">PontosListaTamanho : int &#171;get&#187;</text><line style="stroke:#181818;stroke-width:0.5;" x1="1637" x2="2044" y1="79.9766" y2="79.9766"/><ellipse cx="1647" cy="93.7207" fill="#84BE84" rx="3" ry="3" style="stroke:#038048;stroke-width:1.0;"/><text fill="#000000" font-family="sans-serif" font-size="14" lengthAdjust="spacing" textLength="91" x="1656" y="97.5117">Bbox() : BBox</text><ellipse cx="1647" cy="110.209" fill="#84BE84" rx="3" ry="3" style="stroke:#038048;stroke-width:1.0;"/><text fill="#000000" font-family="sans-serif" font-size="14" lengthAdjust="spacing" textLength="383" x="1656" y="114">Objeto(_paiRef:Objeto, _rotulo:char, objetoFilho:Objeto)</text><ellipse cx="1647" cy="126.6973" fill="#84BE84" rx="3" ry="3" style="stroke:#038048;stroke-width:1.0;"/><text fill="#000000" font-family="sans-serif" font-size="14" lengthAdjust="spacing" textLength="159" x="1656" y="130.4883">ObjetoAtualizar() : void</text><ellipse cx="1647" cy="143.1855" fill="#84BE84" rx="3" ry="3" style="stroke:#038048;stroke-width:1.0;"/><text fill="#000000" font-family="sans-serif" font-size="14" lengthAdjust="spacing" textLength="116" x="1656" y="146.9766">Desenhar() : void</text><ellipse cx="1647" cy="159.6738" fill="#84BE84" rx="3" ry="3" style="stroke:#038048;stroke-width:1.0;"/><text fill="#000000" font-family="sans-serif" font-size="14" lengthAdjust="spacing" textLength="232" x="1656" y="163.4648">FilhoAdicionar(filho:Objeto) : void</text><ellipse cx="1647" cy="176.1621" fill="#84BE84" rx="3" ry="3" style="stroke:#038048;stroke-width:1.0;"/><text fill="#000000" font-family="sans-serif" font-size="14" lengthAdjust="spacing" textLength="176" x="1656" y="179.9531">PontosId(id:int) : Ponto4D</text><ellipse cx="1647" cy="192.6504" fill="#84BE84" rx="3" ry="3" style="stroke:#038048;stroke-width:1.0;"/><text fill="#000000" font-family="sans-serif" font-size="14" lengthAdjust="spacing" textLength="250" x="1656" y="196.4414">PontosAdicionar(pto:Ponto4D) : void</text><ellipse cx="1647" cy="209.1387" fill="#84BE84" rx="3" ry="3" style="stroke:#038048;stroke-width:1.0;"/><text fill="#000000" font-family="sans-serif" font-size="14" lengthAdjust="spacing" textLength="314" x="1656" y="212.9297">PontosAlterar(pto:Ponto4D, posicao:int) : void</text><ellipse cx="1647" cy="225.627" fill="#84BE84" rx="3" ry="3" style="stroke:#038048;stroke-width:1.0;"/><text fill="#000000" font-family="sans-serif" font-size="14" lengthAdjust="spacing" textLength="145" x="1656" y="229.418">PontosLimpar() : void</text><ellipse cx="1647" cy="242.1152" fill="#84BE84" rx="3" ry="3" style="stroke:#038048;stroke-width:1.0;"/><text fill="#000000" font-family="sans-serif" font-size="14" lengthAdjust="spacing" textLength="260" x="1656" y="245.9063">GrafocenaBusca(_rotulo:char) : Objeto</text><ellipse cx="1647" cy="258.6035" fill="#84BE84" rx="3" ry="3" style="stroke:#038048;stroke-width:1.0;"/><text fill="#000000" font-family="sans-serif" font-size="14" lengthAdjust="spacing" textLength="365" x="1656" y="262.3945">GrafocenaBuscaProximo(objetoAtual:Objeto) : Objeto</text><ellipse cx="1647" cy="275.0918" fill="#84BE84" rx="3" ry="3" style="stroke:#038048;stroke-width:1.0;"/><text fill="#000000" font-family="sans-serif" font-size="14" lengthAdjust="spacing" textLength="242" x="1656" y="278.8828">GrafocenaImprimir(idt:string) : void</text><ellipse cx="1647" cy="291.5801" fill="#84BE84" rx="3" ry="3" style="stroke:#038048;stroke-width:1.0;"/><text fill="#000000" font-family="sans-serif" font-size="14" lengthAdjust="spacing" textLength="120" x="1656" y="295.3711">OnUnload() : void</text></g><!--class SrPalito--><g id="elem_SrPalito"><rect codeLine="1" fill="#F1F1F1" height="146.9297" id="SrPalito" rx="2.5" ry="2.5" style="stroke:#181818;stroke-width:0.5;" width="309" x="555" y="362.32"/><ellipse cx="679.25" cy="378.32" fill="#ADD1B2" rx="11" ry="11" style="stroke:#181818;stroke-width:1.0;"/><path d="M681.7231,384.4631 Q681.1421,384.7619 680.5029,384.9113 Q679.8638,385.0607 679.1582,385.0607 Q676.6514,385.0607 675.3315,383.4089 Q674.0117,381.757 674.0117,378.6359 Q674.0117,375.5065 675.3315,373.8547 Q676.6514,372.2028 679.1582,372.2028 Q679.8638,372.2028 680.5112,372.3522 Q681.1587,372.5016 681.7231,372.8005 L681.7231,375.5231 Q681.0923,374.9421 680.4988,374.6723 Q679.9053,374.4025 679.2744,374.4025 Q677.9297,374.4025 677.2449,375.4692 Q676.5601,376.5358 676.5601,378.6359 Q676.5601,380.7277 677.2449,381.7944 Q677.9297,382.861 679.2744,382.861 Q679.9053,382.861 680.4988,382.5912 Q681.0923,382.3215 681.7231,381.7404 Z " fill="#000000"/><text fill="#000000" font-family="sans-serif" font-size="14" lengthAdjust="spacing" textLength="52" x="699.75" y="383.611">SrPalito</text><line style="stroke:#181818;stroke-width:0.5;" x1="556" x2="863" y1="394.32" y2="394.32"/><line style="stroke:#181818;stroke-width:0.5;" x1="556" x2="863" y1="402.32" y2="402.32"/><ellipse cx="566" cy="416.0641" fill="#84BE84" rx="3" ry="3" style="stroke:#038048;stroke-width:1.0;"/><text fill="#000000" font-family="sans-serif" font-size="14" lengthAdjust="spacing" textLength="253" x="575" y="419.8552">SrPalito(_paiRef:Objeto, _rotulo:char)</text><ellipse cx="566" cy="432.5524" fill="#84BE84" rx="3" ry="3" style="stroke:#038048;stroke-width:1.0;"/><text fill="#000000" font-family="sans-serif" font-size="14" lengthAdjust="spacing" textLength="113" x="575" y="436.3434">Atualizar() : void</text><ellipse cx="566" cy="449.0407" fill="#84BE84" rx="3" ry="3" style="stroke:#038048;stroke-width:1.0;"/><text fill="#000000" font-family="sans-serif" font-size="14" lengthAdjust="spacing" textLength="218" x="575" y="452.8317">AtualizarPe(peInc:double) : void</text><ellipse cx="566" cy="465.529" fill="#84BE84" rx="3" ry="3" style="stroke:#038048;stroke-width:1.0;"/><text fill="#000000" font-family="sans-serif" font-size="14" lengthAdjust="spacing" textLength="242" x="575" y="469.32">AtualizarRaio(raioInc:double) : void</text><ellipse cx="566" cy="482.0173" fill="#84BE84" rx="3" ry="3" style="stroke:#038048;stroke-width:1.0;"/><text fill="#000000" font-family="sans-serif" font-size="14" lengthAdjust="spacing" textLength="283" x="575" y="485.8083">AtualizarAngulo(anguloInc:double) : void</text><ellipse cx="566" cy="498.5055" fill="#84BE84" rx="3" ry="3" style="stroke:#038048;stroke-width:1.0;"/><text fill="#000000" font-family="sans-serif" font-size="14" lengthAdjust="spacing" textLength="196" x="575" y="502.2966">&#171;override&#187; ToString() : string</text></g><!--class Mundo--><g id="elem_Mundo"><rect codeLine="1" fill="#F1F1F1" height="64.4883" id="Mundo" rx="2.5" ry="2.5" style="stroke:#181818;stroke-width:0.5;" width="696" x="4168.5" y="403.54"/><ellipse cx="4488.25" cy="419.54" fill="#ADD1B2" rx="11" ry="11" style="stroke:#181818;stroke-width:1.0;"/><path d="M4490.7231,425.6831 Q4490.1421,425.9819 4489.5029,426.1313 Q4488.8638,426.2807 4488.1582,426.2807 Q4485.6514,426.2807 4484.3315,424.6289 Q4483.0117,422.977 4483.0117,419.8559 Q4483.0117,416.7265 4484.3315,415.0747 Q4485.6514,413.4228 4488.1582,413.4228 Q4488.8638,413.4228 4489.5112,413.5722 Q4490.1587,413.7216 4490.7231,414.0205 L4490.7231,416.7431 Q4490.0923,416.1621 4489.4988,415.8923 Q4488.9053,415.6225 4488.2744,415.6225 Q4486.9297,415.6225 4486.2449,416.6892 Q4485.5601,417.7558 4485.5601,419.8559 Q4485.5601,421.9477 4486.2449,423.0144 Q4486.9297,424.081 4488.2744,424.081 Q4488.9053,424.081 4489.4988,423.8112 Q4490.0923,423.5415 4490.7231,422.9604 Z " fill="#000000"/><text fill="#000000" font-family="sans-serif" font-size="14" lengthAdjust="spacing" textLength="48" x="4508.75" y="424.831">Mundo</text><line style="stroke:#181818;stroke-width:0.5;" x1="4169.5" x2="4863.5" y1="435.54" y2="435.54"/><line style="stroke:#181818;stroke-width:0.5;" x1="4169.5" x2="4863.5" y1="443.54" y2="443.54"/><ellipse cx="4179.5" cy="457.2841" fill="#84BE84" rx="3" ry="3" style="stroke:#038048;stroke-width:1.0;"/><text fill="#000000" font-family="sans-serif" font-size="14" lengthAdjust="spacing" textLength="670" x="4188.5" y="461.0752">Mundo(gameWindowSettings:GameWindowSettings, nativeWindowSettings:NativeWindowSettings)</text></g><!--class GameWindow--><g id="elem_GameWindow"><rect fill="#F1F1F1" height="48" id="GameWindow" rx="2.5" ry="2.5" style="stroke:#181818;stroke-width:0.5;" width="125" x="4454" y="130.66"/><ellipse cx="4469" cy="146.66" fill="#ADD1B2" rx="11" ry="11" style="stroke:#181818;stroke-width:1.0;"/><path d="M4471.4731,152.8031 Q4470.8921,153.1019 4470.2529,153.2513 Q4469.6138,153.4007 4468.9082,153.4007 Q4466.4014,153.4007 4465.0815,151.7489 Q4463.7617,150.097 4463.7617,146.9759 Q4463.7617,143.8465 4465.0815,142.1947 Q4466.4014,140.5428 4468.9082,140.5428 Q4469.6138,140.5428 4470.2612,140.6922 Q4470.9087,140.8416 4471.4731,141.1405 L4471.4731,143.8631 Q4470.8423,143.2821 4470.2488,143.0123 Q4469.6553,142.7425 4469.0244,142.7425 Q4467.6797,142.7425 4466.9949,143.8092 Q4466.3101,144.8758 4466.3101,146.9759 Q4466.3101,149.0677 4466.9949,150.1344 Q4467.6797,151.201 4469.0244,151.201 Q4469.6553,151.201 4470.2488,150.9312 Q4470.8423,150.6615 4471.4731,150.0804 Z " fill="#000000"/><text fill="#000000" font-family="sans-serif" font-size="14" lengthAdjust="spacing" textLength="93" x="4483" y="151.951">GameWindow</text><line style="stroke:#181818;stroke-width:0.5;" x1="4455" x2="4578" y1="162.66" y2="162.66"/><line style="stroke:#181818;stroke-width:0.5;" x1="4455" x2="4578" y1="170.66" y2="170.66"/></g><!--class Retangulo--><g id="elem_Retangulo"><rect codeLine="1" fill="#F1F1F1" height="97.4648" id="Retangulo" rx="2.5" ry="2.5" style="stroke:#181818;stroke-width:0.5;" width="573" x="899" y="387.05"/><ellipse cx="1146.25" cy="403.05" fill="#ADD1B2" rx="11" ry="11" style="stroke:#181818;stroke-width:1.0;"/><path d="M1148.7231,409.1931 Q1148.1421,409.4919 1147.5029,409.6413 Q1146.8638,409.7907 1146.1582,409.7907 Q1143.6514,409.7907 1142.3315,408.1389 Q1141.0117,406.487 1141.0117,403.3659 Q1141.0117,400.2365 1142.3315,398.5847 Q1143.6514,396.9328 1146.1582,396.9328 Q1146.8638,396.9328 1147.5112,397.0822 Q1148.1587,397.2316 1148.7231,397.5305 L1148.7231,400.2531 Q1148.0923,399.6721 1147.4988,399.4023 Q1146.9053,399.1325 1146.2744,399.1325 Q1144.9297,399.1325 1144.2449,400.1992 Q1143.5601,401.2658 1143.5601,403.3659 Q1143.5601,405.4577 1144.2449,406.5244 Q1144.9297,407.591 1146.2744,407.591 Q1146.9053,407.591 1147.4988,407.3212 Q1148.0923,407.0515 1148.7231,406.4704 Z " fill="#000000"/><text fill="#000000" font-family="sans-serif" font-size="14" lengthAdjust="spacing" textLength="70" x="1166.75" y="408.341">Retangulo</text><line style="stroke:#181818;stroke-width:0.5;" x1="900" x2="1471" y1="419.05" y2="419.05"/><line style="stroke:#181818;stroke-width:0.5;" x1="900" x2="1471" y1="427.05" y2="427.05"/><ellipse cx="910" cy="440.7941" fill="#84BE84" rx="3" ry="3" style="stroke:#038048;stroke-width:1.0;"/><text fill="#000000" font-family="sans-serif" font-size="14" lengthAdjust="spacing" textLength="271" x="919" y="444.5852">Retangulo(_paiRef:Objeto, _rotulo:char)</text><ellipse cx="910" cy="457.2824" fill="#84BE84" rx="3" ry="3" style="stroke:#038048;stroke-width:1.0;"/><text fill="#000000" font-family="sans-serif" font-size="14" lengthAdjust="spacing" textLength="547" x="919" y="461.0734">Retangulo(_paiRef:Objeto, _rotulo:char, ptoInfEsq:Ponto4D, ptoSupDir:Ponto4D)</text><ellipse cx="910" cy="473.7707" fill="#84BE84" rx="3" ry="3" style="stroke:#038048;stroke-width:1.0;"/><text fill="#000000" font-family="sans-serif" font-size="14" lengthAdjust="spacing" textLength="196" x="919" y="477.5617">&#171;override&#187; ToString() : string</text></g><!--class PrimitiveType--><g id="elem_PrimitiveType"><rect fill="#F1F1F1" height="48" id="PrimitiveType" rx="2.5" ry="2.5" style="stroke:#181818;stroke-width:0.5;" width="124" x="1506.5" y="411.79"/><ellipse cx="1521.5" cy="427.79" fill="#ADD1B2" rx="11" ry="11" style="stroke:#181818;stroke-width:1.0;"/><path d="M1523.9731,433.9331 Q1523.3921,434.2319 1522.7529,434.3813 Q1522.1138,434.5307 1521.4082,434.5307 Q1518.9014,434.5307 1517.5815,432.8789 Q1516.2617,431.227 1516.2617,428.1059 Q1516.2617,424.9765 1517.5815,423.3247 Q1518.9014,421.6728 1521.4082,421.6728 Q1522.1138,421.6728 1522.7612,421.8222 Q1523.4087,421.9716 1523.9731,422.2705 L1523.9731,424.9931 Q1523.3423,424.4121 1522.7488,424.1423 Q1522.1553,423.8725 1521.5244,423.8725 Q1520.1797,423.8725 1519.4949,424.9392 Q1518.8101,426.0058 1518.8101,428.1059 Q1518.8101,430.1977 1519.4949,431.2644 Q1520.1797,432.331 1521.5244,432.331 Q1522.1553,432.331 1522.7488,432.0612 Q1523.3423,431.7915 1523.9731,431.2104 Z " fill="#000000"/><text fill="#000000" font-family="sans-serif" font-size="14" lengthAdjust="spacing" textLength="92" x="1535.5" y="433.081">PrimitiveType</text><line style="stroke:#181818;stroke-width:0.5;" x1="1507.5" x2="1629.5" y1="443.79" y2="443.79"/><line style="stroke:#181818;stroke-width:0.5;" x1="1507.5" x2="1629.5" y1="451.79" y2="451.79"/></g><!--class Shader--><g id="elem_Shader"><rect fill="#F1F1F1" height="48" id="Shader" rx="2.5" ry="2.5" style="stroke:#181818;stroke-width:0.5;" width="80" x="1665.5" y="411.79"/><ellipse cx="1680.5" cy="427.79" fill="#ADD1B2" rx="11" ry="11" style="stroke:#181818;stroke-width:1.0;"/><path d="M1682.9731,433.9331 Q1682.3921,434.2319 1681.7529,434.3813 Q1681.1138,434.5307 1680.4082,434.5307 Q1677.9014,434.5307 1676.5815,432.8789 Q1675.2617,431.227 1675.2617,428.1059 Q1675.2617,424.9765 1676.5815,423.3247 Q1677.9014,421.6728 1680.4082,421.6728 Q1681.1138,421.6728 1681.7612,421.8222 Q1682.4087,421.9716 1682.9731,422.2705 L1682.9731,424.9931 Q1682.3423,424.4121 1681.7488,424.1423 Q1681.1553,423.8725 1680.5244,423.8725 Q1679.1797,423.8725 1678.4949,424.9392 Q1677.8101,426.0058 1677.8101,428.1059 Q1677.8101,430.1977 1678.4949,431.2644 Q1679.1797,432.331 1680.5244,432.331 Q1681.1553,432.331 1681.7488,432.0612 Q1682.3423,431.7915 1682.9731,431.2104 Z " fill="#000000"/><text fill="#000000" font-family="sans-serif" font-size="14" lengthAdjust="spacing" textLength="48" x="1694.5" y="433.081">Shader</text><line style="stroke:#181818;stroke-width:0.5;" x1="1666.5" x2="1744.5" y1="443.79" y2="443.79"/><line style="stroke:#181818;stroke-width:0.5;" x1="1666.5" x2="1744.5" y1="451.79" y2="451.79"/></g><!--class SplineBezier--><g id="elem_SplineBezier"><rect codeLine="1" fill="#F1F1F1" height="130.4414" id="SplineBezier" rx="2.5" ry="2.5" style="stroke:#181818;stroke-width:0.5;" width="389" x="1781" y="370.56"/><ellipse cx="1929.25" cy="386.56" fill="#ADD1B2" rx="11" ry="11" style="stroke:#181818;stroke-width:1.0;"/><path d="M1931.7231,392.7031 Q1931.1421,393.0019 1930.5029,393.1513 Q1929.8638,393.3007 1929.1582,393.3007 Q1926.6514,393.3007 1925.3315,391.6489 Q1924.0117,389.997 1924.0117,386.8759 Q1924.0117,383.7465 1925.3315,382.0947 Q1926.6514,380.4428 1929.1582,380.4428 Q1929.8638,380.4428 1930.5112,380.5922 Q1931.1587,380.7416 1931.7231,381.0405 L1931.7231,383.7631 Q1931.0923,383.1821 1930.4988,382.9123 Q1929.9053,382.6425 1929.2744,382.6425 Q1927.9297,382.6425 1927.2449,383.7092 Q1926.5601,384.7758 1926.5601,386.8759 Q1926.5601,388.9677 1927.2449,390.0344 Q1927.9297,391.101 1929.2744,391.101 Q1929.9053,391.101 1930.4988,390.8312 Q1931.0923,390.5615 1931.7231,389.9804 Z " fill="#000000"/><text fill="#000000" font-family="sans-serif" font-size="14" lengthAdjust="spacing" textLength="84" x="1949.75" y="391.851">SplineBezier</text><line style="stroke:#181818;stroke-width:0.5;" x1="1782" x2="2169" y1="402.56" y2="402.56"/><line style="stroke:#181818;stroke-width:0.5;" x1="1782" x2="2169" y1="410.56" y2="410.56"/><ellipse cx="1792" cy="424.3041" fill="#84BE84" rx="3" ry="3" style="stroke:#038048;stroke-width:1.0;"/><text fill="#000000" font-family="sans-serif" font-size="14" lengthAdjust="spacing" textLength="182" x="1801" y="428.0952">SplineQtdPto(inc:int) : void</text><ellipse cx="1792" cy="440.7924" fill="#84BE84" rx="3" ry="3" style="stroke:#038048;stroke-width:1.0;"/><text fill="#000000" font-family="sans-serif" font-size="14" lengthAdjust="spacing" textLength="285" x="1801" y="444.5834">SplineBezier(_paiRef:Objeto, _rotulo:char)</text><ellipse cx="1792" cy="457.2807" fill="#84BE84" rx="3" ry="3" style="stroke:#038048;stroke-width:1.0;"/><text fill="#000000" font-family="sans-serif" font-size="14" lengthAdjust="spacing" textLength="113" x="1801" y="461.0717">Atualizar() : void</text><ellipse cx="1792" cy="473.769" fill="#84BE84" rx="3" ry="3" style="stroke:#038048;stroke-width:1.0;"/><text fill="#000000" font-family="sans-serif" font-size="14" lengthAdjust="spacing" textLength="363" x="1801" y="477.56">AtualizarSpline(ptoInc:Ponto4D, proximo:bool) : void</text><ellipse cx="1792" cy="490.2573" fill="#84BE84" rx="3" ry="3" style="stroke:#038048;stroke-width:1.0;"/><text fill="#000000" font-family="sans-serif" font-size="14" lengthAdjust="spacing" textLength="196" x="1801" y="494.0483">&#171;override&#187; ToString() : string</text></g><!--class SplineInter--><g id="elem_SplineInter"><rect codeLine="1" fill="#F1F1F1" height="130.4414" id="SplineInter" rx="2.5" ry="2.5" style="stroke:#181818;stroke-width:0.5;" width="389" x="2205" y="370.56"/><ellipse cx="2358.25" cy="386.56" fill="#ADD1B2" rx="11" ry="11" style="stroke:#181818;stroke-width:1.0;"/><path d="M2360.7231,392.7031 Q2360.1421,393.0019 2359.5029,393.1513 Q2358.8638,393.3007 2358.1582,393.3007 Q2355.6514,393.3007 2354.3315,391.6489 Q2353.0117,389.997 2353.0117,386.8759 Q2353.0117,383.7465 2354.3315,382.0947 Q2355.6514,380.4428 2358.1582,380.4428 Q2358.8638,380.4428 2359.5112,380.5922 Q2360.1587,380.7416 2360.7231,381.0405 L2360.7231,383.7631 Q2360.0923,383.1821 2359.4988,382.9123 Q2358.9053,382.6425 2358.2744,382.6425 Q2356.9297,382.6425 2356.2449,383.7092 Q2355.5601,384.7758 2355.5601,386.8759 Q2355.5601,388.9677 2356.2449,390.0344 Q2356.9297,391.101 2358.2744,391.101 Q2358.9053,391.101 2359.4988,390.8312 Q2360.0923,390.5615 2360.7231,389.9804 Z " fill="#000000"/><text fill="#000000" font-family="sans-serif" font-size="14" lengthAdjust="spacing" textLength="74" x="2378.75" y="391.851">SplineInter</text><line style="stroke:#181818;stroke-width:0.5;" x1="2206" x2="2593" y1="402.56" y2="402.56"/><line style="stroke:#181818;stroke-width:0.5;" x1="2206" x2="2593" y1="410.56" y2="410.56"/><ellipse cx="2216" cy="424.3041" fill="#84BE84" rx="3" ry="3" style="stroke:#038048;stroke-width:1.0;"/><text fill="#000000" font-family="sans-serif" font-size="14" lengthAdjust="spacing" textLength="182" x="2225" y="428.0952">SplineQtdPto(inc:int) : void</text><ellipse cx="2216" cy="440.7924" fill="#84BE84" rx="3" ry="3" style="stroke:#038048;stroke-width:1.0;"/><text fill="#000000" font-family="sans-serif" font-size="14" lengthAdjust="spacing" textLength="275" x="2225" y="444.5834">SplineInter(_paiRef:Objeto, _rotulo:char)</text><ellipse cx="2216" cy="457.2807" fill="#84BE84" rx="3" ry="3" style="stroke:#038048;stroke-width:1.0;"/><text fill="#000000" font-family="sans-serif" font-size="14" lengthAdjust="spacing" textLength="113" x="2225" y="461.0717">Atualizar() : void</text><ellipse cx="2216" cy="473.769" fill="#84BE84" rx="3" ry="3" style="stroke:#038048;stroke-width:1.0;"/><text fill="#000000" font-family="sans-serif" font-size="14" lengthAdjust="spacing" textLength="363" x="2225" y="477.56">AtualizarSpline(ptoInc:Ponto4D, proximo:bool) : void</text><ellipse cx="2216" cy="490.2573" fill="#84BE84" rx="3" ry="3" style="stroke:#038048;stroke-width:1.0;"/><text fill="#000000" font-family="sans-serif" font-size="14" lengthAdjust="spacing" textLength="196" x="2225" y="494.0483">&#171;override&#187; ToString() : string</text></g><!--class Ponto--><g id="elem_Ponto"><rect codeLine="1" fill="#F1F1F1" height="113.9531" id="Ponto" rx="2.5" ry="2.5" style="stroke:#181818;stroke-width:0.5;" width="361" x="2629" y="378.81"/><ellipse cx="2785.25" cy="394.81" fill="#ADD1B2" rx="11" ry="11" style="stroke:#181818;stroke-width:1.0;"/><path d="M2787.7231,400.9531 Q2787.1421,401.2519 2786.5029,401.4013 Q2785.8638,401.5507 2785.1582,401.5507 Q2782.6514,401.5507 2781.3315,399.8989 Q2780.0117,398.247 2780.0117,395.1259 Q2780.0117,391.9965 2781.3315,390.3447 Q2782.6514,388.6928 2785.1582,388.6928 Q2785.8638,388.6928 2786.5112,388.8422 Q2787.1587,388.9916 2787.7231,389.2905 L2787.7231,392.0131 Q2787.0923,391.4321 2786.4988,391.1623 Q2785.9053,390.8925 2785.2744,390.8925 Q2783.9297,390.8925 2783.2449,391.9592 Q2782.5601,393.0258 2782.5601,395.1259 Q2782.5601,397.2177 2783.2449,398.2844 Q2783.9297,399.351 2785.2744,399.351 Q2785.9053,399.351 2786.4988,399.0812 Q2787.0923,398.8115 2787.7231,398.2304 Z " fill="#000000"/><text fill="#000000" font-family="sans-serif" font-size="14" lengthAdjust="spacing" textLength="40" x="2805.75" y="400.101">Ponto</text><line style="stroke:#181818;stroke-width:0.5;" x1="2630" x2="2989" y1="410.81" y2="410.81"/><line style="stroke:#181818;stroke-width:0.5;" x1="2630" x2="2989" y1="418.81" y2="418.81"/><ellipse cx="2640" cy="432.5541" fill="#84BE84" rx="3" ry="3" style="stroke:#038048;stroke-width:1.0;"/><text fill="#000000" font-family="sans-serif" font-size="14" lengthAdjust="spacing" textLength="241" x="2649" y="436.3452">Ponto(_paiRef:Objeto, _rotulo:char)</text><ellipse cx="2640" cy="449.0424" fill="#84BE84" rx="3" ry="3" style="stroke:#038048;stroke-width:1.0;"/><text fill="#000000" font-family="sans-serif" font-size="14" lengthAdjust="spacing" textLength="335" x="2649" y="452.8334">Ponto(_paiRef:Objeto, _rotulo:char, pto:Ponto4D)</text><ellipse cx="2640" cy="465.5307" fill="#84BE84" rx="3" ry="3" style="stroke:#038048;stroke-width:1.0;"/><text fill="#000000" font-family="sans-serif" font-size="14" lengthAdjust="spacing" textLength="113" x="2649" y="469.3217">Atualizar() : void</text><ellipse cx="2640" cy="482.019" fill="#84BE84" rx="3" ry="3" style="stroke:#038048;stroke-width:1.0;"/><text fill="#000000" font-family="sans-serif" font-size="14" lengthAdjust="spacing" textLength="196" x="2649" y="485.81">&#171;override&#187; ToString() : string</text></g><!--class Circulo--><g id="elem_Circulo"><rect codeLine="1" fill="#F1F1F1" height="113.9531" id="Circulo" rx="2.5" ry="2.5" style="stroke:#181818;stroke-width:0.5;" width="561" x="3025" y="378.81"/><ellipse cx="3276.75" cy="394.81" fill="#ADD1B2" rx="11" ry="11" style="stroke:#181818;stroke-width:1.0;"/><path d="M3279.2231,400.9531 Q3278.6421,401.2519 3278.0029,401.4013 Q3277.3638,401.5507 3276.6582,401.5507 Q3274.1514,401.5507 3272.8315,399.8989 Q3271.5117,398.247 3271.5117,395.1259 Q3271.5117,391.9965 3272.8315,390.3447 Q3274.1514,388.6928 3276.6582,388.6928 Q3277.3638,388.6928 3278.0112,388.8422 Q3278.6587,388.9916 3279.2231,389.2905 L3279.2231,392.0131 Q3278.5923,391.4321 3277.9988,391.1623 Q3277.4053,390.8925 3276.7744,390.8925 Q3275.4297,390.8925 3274.7449,391.9592 Q3274.0601,393.0258 3274.0601,395.1259 Q3274.0601,397.2177 3274.7449,398.2844 Q3275.4297,399.351 3276.7744,399.351 Q3277.4053,399.351 3277.9988,399.0812 Q3278.5923,398.8115 3279.2231,398.2304 Z " fill="#000000"/><text fill="#000000" font-family="sans-serif" font-size="14" lengthAdjust="spacing" textLength="49" x="3297.25" y="400.101">Circulo</text><line style="stroke:#181818;stroke-width:0.5;" x1="3026" x2="3585" y1="410.81" y2="410.81"/><line style="stroke:#181818;stroke-width:0.5;" x1="3026" x2="3585" y1="418.81" y2="418.81"/><ellipse cx="3036" cy="432.5541" fill="#84BE84" rx="3" ry="3" style="stroke:#038048;stroke-width:1.0;"/><text fill="#000000" font-family="sans-serif" font-size="14" lengthAdjust="spacing" textLength="344" x="3045" y="436.3452">Circulo(_paiRef:Objeto, _rotulo:char, _raio:double)</text><ellipse cx="3036" cy="449.0424" fill="#84BE84" rx="3" ry="3" style="stroke:#038048;stroke-width:1.0;"/><text fill="#000000" font-family="sans-serif" font-size="14" lengthAdjust="spacing" textLength="535" x="3045" y="452.8334">Circulo(_paiRef:Objeto, _rotulo:char, _raio:double, ptoDeslocamento:Ponto4D)</text><ellipse cx="3036" cy="465.5307" fill="#84BE84" rx="3" ry="3" style="stroke:#038048;stroke-width:1.0;"/><text fill="#000000" font-family="sans-serif" font-size="14" lengthAdjust="spacing" textLength="296" x="3045" y="469.3217">Atualizar(ptoDeslocamento:Ponto4D) : void</text><ellipse cx="3036" cy="482.019" fill="#84BE84" rx="3" ry="3" style="stroke:#038048;stroke-width:1.0;"/><text fill="#000000" font-family="sans-serif" font-size="14" lengthAdjust="spacing" textLength="196" x="3045" y="485.81">&#171;override&#187; ToString() : string</text></g><!--class SegReta--><g id="elem_SegReta"><rect codeLine="1" fill="#F1F1F1" height="97.4648" id="SegReta" rx="2.5" ry="2.5" style="stroke:#181818;stroke-width:0.5;" width="512" x="3621.5" y="387.05"/><ellipse cx="3845.75" cy="403.05" fill="#ADD1B2" rx="11" ry="11" style="stroke:#181818;stroke-width:1.0;"/><path d="M3848.2231,409.1931 Q3847.6421,409.4919 3847.0029,409.6413 Q3846.3638,409.7907 3845.6582,409.7907 Q3843.1514,409.7907 3841.8315,408.1389 Q3840.5117,406.487 3840.5117,403.3659 Q3840.5117,400.2365 3841.8315,398.5847 Q3843.1514,396.9328 3845.6582,396.9328 Q3846.3638,396.9328 3847.0112,397.0822 Q3847.6587,397.2316 3848.2231,397.5305 L3848.2231,400.2531 Q3847.5923,399.6721 3846.9988,399.4023 Q3846.4053,399.1325 3845.7744,399.1325 Q3844.4297,399.1325 3843.7449,400.1992 Q3843.0601,401.2658 3843.0601,403.3659 Q3843.0601,405.4577 3843.7449,406.5244 Q3844.4297,407.591 3845.7744,407.591 Q3846.4053,407.591 3846.9988,407.3212 Q3847.5923,407.0515 3848.2231,406.4704 Z " fill="#000000"/><text fill="#000000" font-family="sans-serif" font-size="14" lengthAdjust="spacing" textLength="55" x="3866.25" y="408.341">SegReta</text><line style="stroke:#181818;stroke-width:0.5;" x1="3622.5" x2="4132.5" y1="419.05" y2="419.05"/><line style="stroke:#181818;stroke-width:0.5;" x1="3622.5" x2="4132.5" y1="427.05" y2="427.05"/><ellipse cx="3632.5" cy="440.7941" fill="#84BE84" rx="3" ry="3" style="stroke:#038048;stroke-width:1.0;"/><text fill="#000000" font-family="sans-serif" font-size="14" lengthAdjust="spacing" textLength="256" x="3641.5" y="444.5852">SegReta(_paiRef:Objeto, _rotulo:char)</text><ellipse cx="3632.5" cy="457.2824" fill="#84BE84" rx="3" ry="3" style="stroke:#038048;stroke-width:1.0;"/><text fill="#000000" font-family="sans-serif" font-size="14" lengthAdjust="spacing" textLength="486" x="3641.5" y="461.0734">SegReta(_paiRef:Objeto, _rotulo:char, ptoIni:Ponto4D, ptoFim:Ponto4D)</text><ellipse cx="3632.5" cy="473.7707" fill="#84BE84" rx="3" ry="3" style="stroke:#038048;stroke-width:1.0;"/><text fill="#000000" font-family="sans-serif" font-size="14" lengthAdjust="spacing" textLength="196" x="3641.5" y="477.5617">&#171;override&#187; ToString() : string</text></g><!--class Program--><g id="elem_Program"><rect codeLine="1" fill="#F1F1F1" height="56.6211" id="Program" rx="2.5" ry="2.5" style="stroke:#181818;stroke-width:0.5;" width="91" x="4614" y="126.35"/><ellipse cx="4629" cy="146.6605" fill="#ADD1B2" rx="11" ry="11" style="stroke:#181818;stroke-width:1.0;"/><path d="M4631.4731,152.8036 Q4630.8921,153.1024 4630.2529,153.2519 Q4629.6138,153.4013 4628.9082,153.4013 Q4626.4014,153.4013 4625.0815,151.7494 Q4623.7617,150.0976 4623.7617,146.9765 Q4623.7617,143.8471 4625.0815,142.1952 Q4626.4014,140.5434 4628.9082,140.5434 Q4629.6138,140.5434 4630.2612,140.6928 Q4630.9087,140.8422 4631.4731,141.141 L4631.4731,143.8637 Q4630.8423,143.2826 4630.2488,143.0128 Q4629.6553,142.7431 4629.0244,142.7431 Q4627.6797,142.7431 4626.9949,143.8097 Q4626.3101,144.8764 4626.3101,146.9765 Q4626.3101,149.0683 4626.9949,150.1349 Q4627.6797,151.2016 4629.0244,151.2016 Q4629.6553,151.2016 4630.2488,150.9318 Q4630.8423,150.662 4631.4731,150.081 Z " fill="#000000"/><text fill="#000000" font-family="sans-serif" font-size="12" font-style="italic" lengthAdjust="spacing" textLength="42" x="4651.5" y="142.9516">&#171;static&#187;</text><text fill="#000000" font-family="sans-serif" font-size="14" lengthAdjust="spacing" textLength="59" x="4643" y="159.018">Program</text><line style="stroke:#181818;stroke-width:0.5;" x1="4615" x2="4704" y1="166.9711" y2="166.9711"/><line style="stroke:#181818;stroke-width:0.5;" x1="4615" x2="4704" y1="174.9711" y2="174.9711"/></g><!--reverse link Objeto to Poligono--><g id="link_Objeto_Poligono"><path codeLine="5" d="M1617.796,183.9845 C1360.156,218.1245 922.69,281.06 537.5,362.32 C493.69,371.56 446.4,383.39 403.65,394.8 " fill="none" id="Objeto-backto-Poligono" style="stroke:#181818;stroke-width:1.0;"/><polygon fill="none" points="1635.64,181.62,1617.0078,178.0365,1618.5842,189.9325,1635.64,181.62" style="stroke:#181818;stroke-width:1.0;"/></g><!--reverse link Objeto to SrPalito--><g id="link_Objeto_SrPalito"><path codeLine="9" d="M1617.8445,191.4642 C1421.6945,225.4642 1136.51,281.9 881.5,362.32 C875.78,364.12 869.99,366.04 864.17,368.06 " fill="none" id="Objeto-backto-SrPalito" style="stroke:#181818;stroke-width:1.0;"/><polygon fill="none" points="1635.58,188.39,1616.8197,185.5524,1618.8692,197.3761,1635.58,188.39" style="stroke:#181818;stroke-width:1.0;"/></g><!--reverse link GameWindow to Mundo--><g id="link_GameWindow_Mundo"><path codeLine="4" d="M4516.5,196.98 C4516.5,247.03 4516.5,346.79 4516.5,403.37 " fill="none" id="GameWindow-backto-Mundo" style="stroke:#181818;stroke-width:1.0;"/><polygon fill="none" points="4516.5,178.98,4510.5,196.98,4522.5,196.98,4516.5,178.98" style="stroke:#181818;stroke-width:1.0;"/></g><!--reverse link Objeto to Retangulo--><g id="link_Objeto_Retangulo"><path codeLine="6" d="M1619.3909,249.8866 C1508.0909,297.3166 1391.2,347.13 1298.57,386.6 " fill="none" id="Objeto-backto-Retangulo" style="stroke:#181818;stroke-width:1.0;"/><polygon fill="none" points="1635.95,242.83,1617.0387,244.3669,1621.7431,255.4063,1635.95,242.83" style="stroke:#181818;stroke-width:1.0;"/></g><!--link Objeto to PrimitiveType--><g id="link_Objeto_PrimitiveType"><path codeLine="18" d="M1697.33,302.58 C1655.86,345.13 1619.4778,382.4732 1595.2678,407.3132 " fill="none" id="Objeto-to-PrimitiveType" style="stroke:#181818;stroke-width:1.0;"/><polygon fill="#181818" points="1591.08,411.61,1600.2262,407.9567,1594.5698,408.0294,1594.4972,402.373,1591.08,411.61" style="stroke:#181818;stroke-width:1.0;"/><text fill="#000000" font-family="sans-serif" font-size="13" lengthAdjust="spacing" textLength="83" x="1503.2318" y="401.1001">PrimitivaTipo</text></g><!--link Objeto to Shader--><g id="link_Objeto_Shader"><path codeLine="19" d="M1769.44,302.58 C1748.86,345.13 1731.3317,381.3682 1719.3217,406.2082 " fill="none" id="Objeto-to-Shader" style="stroke:#181818;stroke-width:1.0;"/><polygon fill="#181818" points="1716.71,411.61,1724.2287,405.2485,1718.8864,407.1085,1717.0264,401.7662,1716.71,411.61" style="stroke:#181818;stroke-width:1.0;"/><text fill="#000000" font-family="sans-serif" font-size="13" lengthAdjust="spacing" textLength="84" x="1633.7562" y="401.1163">ShaderObjeto</text></g><!--reverse link Objeto to SplineBezier--><g id="link_Objeto_SplineBezier"><path codeLine="8" d="M1919.3992,318.7833 C1930.8992,342.5533 1934.42,349.84 1944.3,370.27 " fill="none" id="Objeto-backto-SplineBezier" style="stroke:#181818;stroke-width:1.0;"/><polygon fill="none" points="1911.56,302.58,1913.9981,321.3964,1924.8003,316.1702,1911.56,302.58" style="stroke:#181818;stroke-width:1.0;"/></g><!--reverse link Objeto to SplineInter--><g id="link_Objeto_SplineInter"><path codeLine="8" d="M2061.5835,266.0521 C2136.6735,303.5521 2203.41,336.87 2270.06,370.15 " fill="none" id="Objeto-backto-SplineInter" style="stroke:#181818;stroke-width:1.0;"/><polygon fill="none" points="2045.48,258.01,2058.9028,271.42,2064.2643,260.6843,2045.48,258.01" style="stroke:#181818;stroke-width:1.0;"/></g><!--reverse link Objeto to Ponto--><g id="link_Objeto_Ponto"><path codeLine="7" d="M2062.711,209.632 C2218.911,248.742 2421.4,302.19 2611.5,362.32 C2627.21,367.29 2643.51,372.75 2659.71,378.38 " fill="none" id="Objeto-backto-Ponto" style="stroke:#181818;stroke-width:1.0;"/><polygon fill="none" points="2045.25,205.26,2061.2537,215.4523,2064.1683,203.8116,2045.25,205.26" style="stroke:#181818;stroke-width:1.0;"/></g><!--reverse link Objeto to Circulo--><g id="link_Objeto_Circulo"><path codeLine="7" d="M2063.25,190.7981 C2296.89,228.5081 2672.1,291.92 3007.5,362.32 C3031.08,367.27 3055.63,372.73 3080.08,378.38 " fill="none" id="Objeto-backto-Circulo" style="stroke:#181818;stroke-width:1.0;"/><polygon fill="none" points="2045.48,187.93,2062.294,196.7215,2064.2061,184.8748,2045.48,187.93" style="stroke:#181818;stroke-width:1.0;"/></g><!--reverse link Objeto to SegReta--><g id="link_Objeto_SegReta"><path codeLine="6" d="M2063.1464,171.558 C2393.2364,197.088 3044.71,256.23 3603.5,362.32 C3638.43,368.95 3675.46,377.61 3710.64,386.63 " fill="none" id="Objeto-backto-SegReta" style="stroke:#181818;stroke-width:1.0;"/><polygon fill="none" points="2045.2,170.17,2062.6837,177.5402,2063.6091,165.5759,2045.2,170.17" style="stroke:#181818;stroke-width:1.0;"/></g><!--SRC=[XOwz2i8m54PtdyBkaegJYqEj8XsinOfhQTfhI4bkGdv4VNeh8Ww9k7u7pdSIZftmFKn9MYd1cK95j9TYadn1RQfMS1U2lSS-N8_WMcHUXEH01uXeQYqumXeU7CmFMA2Bi4fXH9TpqyNUQs2ljD1Y53Ej37P5XtG3rBCKmIt9F2NbzfGh0vdMipCOonMkhYCWcRKWgRXdpXbElGFxNvRlcdBHR6yWzTZwCHHuUOS_0G00]--></g></svg>