<?xml version="1.0" encoding="us-ascii" standalone="no"?><svg xmlns="http://www.w3.org/2000/svg" xmlns:xlink="http://www.w3.org/1999/xlink" contentStyleType="text/css" height="417px" preserveAspectRatio="none" style="width:423px;height:417px;background:#FFFFFF;" version="1.1" viewBox="0 0 423 417" width="423px" zoomAndPan="magnify"><defs/><g><!--class Objeto--><g id="elem_Objeto"><rect codeLine="1" fill="#F1F1F1" height="295.3242" id="Objeto" rx="2.5" ry="2.5" style="stroke:#181818;stroke-width:0.5;" width="409" x="7" y="7"/><ellipse cx="184.25" cy="23" fill="#ADD1B2" rx="11" ry="11" style="stroke:#181818;stroke-width:1.0;"/><path d="M186.7231,29.1431 Q186.1421,29.4419 185.5029,29.5913 Q184.8638,29.7407 184.1582,29.7407 Q181.6514,29.7407 180.3315,28.0889 Q179.0117,26.437 179.0117,23.3159 Q179.0117,20.1865 180.3315,18.5347 Q181.6514,16.8828 184.1582,16.8828 Q184.8638,16.8828 185.5112,17.0322 Q186.1587,17.1816 186.7231,17.4805 L186.7231,20.2031 Q186.0923,19.6221 185.4988,19.3523 Q184.9053,19.0825 184.2744,19.0825 Q182.9297,19.0825 182.2449,20.1492 Q181.5601,21.2158 181.5601,23.3159 Q181.5601,25.4077 182.2449,26.4744 Q182.9297,27.541 184.2744,27.541 Q184.9053,27.541 185.4988,27.2712 Q186.0923,27.0015 186.7231,26.4204 Z " fill="#000000"/><text fill="#000000" font-family="sans-serif" font-size="14" lengthAdjust="spacing" textLength="46" x="204.75" y="28.291">Objeto</text><line style="stroke:#181818;stroke-width:0.5;" x1="8" x2="415" y1="39" y2="39"/><ellipse cx="18" cy="52.7441" fill="none" rx="3" ry="3" style="stroke:#038048;stroke-width:1.0;"/><text fill="#000000" font-family="sans-serif" font-size="14" lengthAdjust="spacing" textLength="245" x="27" y="56.5352">PrimitivaTamanho : float &#171;get&#187; &#171;set&#187;</text><ellipse cx="18" cy="69.2324" fill="none" rx="3" ry="3" style="stroke:#038048;stroke-width:1.0;"/><text fill="#000000" font-family="sans-serif" font-size="14" lengthAdjust="spacing" textLength="213" x="27" y="73.0234">PontosListaTamanho : int &#171;get&#187;</text><line style="stroke:#181818;stroke-width:0.5;" x1="8" x2="415" y1="79.9766" y2="79.9766"/><ellipse cx="18" cy="93.7207" fill="#84BE84" rx="3" ry="3" style="stroke:#038048;stroke-width:1.0;"/><text fill="#000000" font-family="sans-serif" font-size="14" lengthAdjust="spacing" textLength="91" x="27" y="97.5117">Bbox() : BBox</text><ellipse cx="18" cy="110.209" fill="#84BE84" rx="3" ry="3" style="stroke:#038048;stroke-width:1.0;"/><text fill="#000000" font-family="sans-serif" font-size="14" lengthAdjust="spacing" textLength="383" x="27" y="114">Objeto(_paiRef:Objeto, _rotulo:char, objetoFilho:Objeto)</text><ellipse cx="18" cy="126.6973" fill="#84BE84" rx="3" ry="3" style="stroke:#038048;stroke-width:1.0;"/><text fill="#000000" font-family="sans-serif" font-size="14" lengthAdjust="spacing" textLength="159" x="27" y="130.4883">ObjetoAtualizar() : void</text><ellipse cx="18" cy="143.1855" fill="#84BE84" rx="3" ry="3" style="stroke:#038048;stroke-width:1.0;"/><text fill="#000000" font-family="sans-serif" font-size="14" lengthAdjust="spacing" textLength="116" x="27" y="146.9766">Desenhar() : void</text><ellipse cx="18" cy="159.6738" fill="#84BE84" rx="3" ry="3" style="stroke:#038048;stroke-width:1.0;"/><text fill="#000000" font-family="sans-serif" font-size="14" lengthAdjust="spacing" textLength="232" x="27" y="163.4648">FilhoAdicionar(filho:Objeto) : void</text><ellipse cx="18" cy="176.1621" fill="#84BE84" rx="3" ry="3" style="stroke:#038048;stroke-width:1.0;"/><text fill="#000000" font-family="sans-serif" font-size="14" lengthAdjust="spacing" textLength="176" x="27" y="179.9531">PontosId(id:int) : Ponto4D</text><ellipse cx="18" cy="192.6504" fill="#84BE84" rx="3" ry="3" style="stroke:#038048;stroke-width:1.0;"/><text fill="#000000" font-family="sans-serif" font-size="14" lengthAdjust="spacing" textLength="250" x="27" y="196.4414">PontosAdicionar(pto:Ponto4D) : void</text><ellipse cx="18" cy="209.1387" fill="#84BE84" rx="3" ry="3" style="stroke:#038048;stroke-width:1.0;"/><text fill="#000000" font-family="sans-serif" font-size="14" lengthAdjust="spacing" textLength="314" x="27" y="212.9297">PontosAlterar(pto:Ponto4D, posicao:int) : void</text><ellipse cx="18" cy="225.627" fill="#84BE84" rx="3" ry="3" style="stroke:#038048;stroke-width:1.0;"/><text fill="#000000" font-family="sans-serif" font-size="14" lengthAdjust="spacing" textLength="145" x="27" y="229.418">PontosLimpar() : void</text><ellipse cx="18" cy="242.1152" fill="#84BE84" rx="3" ry="3" style="stroke:#038048;stroke-width:1.0;"/><text fill="#000000" font-family="sans-serif" font-size="14" lengthAdjust="spacing" textLength="260" x="27" y="245.9063">GrafocenaBusca(_rotulo:char) : Objeto</text><ellipse cx="18" cy="258.6035" fill="#84BE84" rx="3" ry="3" style="stroke:#038048;stroke-width:1.0;"/><text fill="#000000" font-family="sans-serif" font-size="14" lengthAdjust="spacing" textLength="365" x="27" y="262.3945">GrafocenaBuscaProximo(objetoAtual:Objeto) : Objeto</text><ellipse cx="18" cy="275.0918" fill="#84BE84" rx="3" ry="3" style="stroke:#038048;stroke-width:1.0;"/><text fill="#000000" font-family="sans-serif" font-size="14" lengthAdjust="spacing" textLength="242" x="27" y="278.8828">GrafocenaImprimir(idt:string) : void</text><ellipse cx="18" cy="291.5801" fill="#84BE84" rx="3" ry="3" style="stroke:#038048;stroke-width:1.0;"/><text fill="#000000" font-family="sans-serif" font-size="14" lengthAdjust="spacing" textLength="120" x="27" y="295.3711">OnUnload() : void</text></g><!--class PrimitiveType--><g id="elem_PrimitiveType"><rect fill="#F1F1F1" height="48" id="PrimitiveType" rx="2.5" ry="2.5" style="stroke:#181818;stroke-width:0.5;" width="124" x="81.5" y="362.32"/><ellipse cx="96.5" cy="378.32" fill="#ADD1B2" rx="11" ry="11" style="stroke:#181818;stroke-width:1.0;"/><path d="M98.9731,384.4631 Q98.3921,384.7619 97.7529,384.9113 Q97.1138,385.0607 96.4082,385.0607 Q93.9014,385.0607 92.5815,383.4089 Q91.2617,381.757 91.2617,378.6359 Q91.2617,375.5065 92.5815,373.8547 Q93.9014,372.2028 96.4082,372.2028 Q97.1138,372.2028 97.7612,372.3522 Q98.4087,372.5016 98.9731,372.8005 L98.9731,375.5231 Q98.3423,374.9421 97.7488,374.6723 Q97.1553,374.4025 96.5244,374.4025 Q95.1797,374.4025 94.4949,375.4692 Q93.8101,376.5358 93.8101,378.6359 Q93.8101,380.7277 94.4949,381.7944 Q95.1797,382.861 96.5244,382.861 Q97.1553,382.861 97.7488,382.5912 Q98.3423,382.3215 98.9731,381.7404 Z " fill="#000000"/><text fill="#000000" font-family="sans-serif" font-size="14" lengthAdjust="spacing" textLength="92" x="110.5" y="383.611">PrimitiveType</text><line style="stroke:#181818;stroke-width:0.5;" x1="82.5" x2="204.5" y1="394.32" y2="394.32"/><line style="stroke:#181818;stroke-width:0.5;" x1="82.5" x2="204.5" y1="402.32" y2="402.32"/></g><!--class Shader--><g id="elem_Shader"><rect fill="#F1F1F1" height="48" id="Shader" rx="2.5" ry="2.5" style="stroke:#181818;stroke-width:0.5;" width="80" x="240.5" y="362.32"/><ellipse cx="255.5" cy="378.32" fill="#ADD1B2" rx="11" ry="11" style="stroke:#181818;stroke-width:1.0;"/><path d="M257.9731,384.4631 Q257.3921,384.7619 256.7529,384.9113 Q256.1138,385.0607 255.4082,385.0607 Q252.9014,385.0607 251.5815,383.4089 Q250.2617,381.757 250.2617,378.6359 Q250.2617,375.5065 251.5815,373.8547 Q252.9014,372.2028 255.4082,372.2028 Q256.1138,372.2028 256.7612,372.3522 Q257.4087,372.5016 257.9731,372.8005 L257.9731,375.5231 Q257.3423,374.9421 256.7488,374.6723 Q256.1553,374.4025 255.5244,374.4025 Q254.1797,374.4025 253.4949,375.4692 Q252.8101,376.5358 252.8101,378.6359 Q252.8101,380.7277 253.4949,381.7944 Q254.1797,382.861 255.5244,382.861 Q256.1553,382.861 256.7488,382.5912 Q257.3423,382.3215 257.9731,381.7404 Z " fill="#000000"/><text fill="#000000" font-family="sans-serif" font-size="14" lengthAdjust="spacing" textLength="48" x="269.5" y="383.611">Shader</text><line style="stroke:#181818;stroke-width:0.5;" x1="241.5" x2="319.5" y1="394.32" y2="394.32"/><line style="stroke:#181818;stroke-width:0.5;" x1="241.5" x2="319.5" y1="402.32" y2="402.32"/></g><!--link Objeto to PrimitiveType--><g id="link_Objeto_PrimitiveType"><path codeLine="18" d="M167.95,302.73 C161.16,325.69 156.6145,341.0272 152.1345,356.1472 " fill="none" id="Objeto-to-PrimitiveType" style="stroke:#181818;stroke-width:1.0;"/><polygon fill="#181818" points="150.43,361.9,156.822,354.4072,151.8504,357.106,149.1516,352.1345,150.43,361.9" style="stroke:#181818;stroke-width:1.0;"/><text fill="#000000" font-family="sans-serif" font-size="13" lengthAdjust="spacing" textLength="83" x="59.0036" y="351.7257">PrimitivaTipo</text></g><!--link Objeto to Shader--><g id="link_Objeto_Shader"><path codeLine="19" d="M255.69,302.73 C262.58,325.69 267.1945,341.0335 271.7345,356.1535 " fill="none" id="Objeto-to-Shader" style="stroke:#181818;stroke-width:1.0;"/><polygon fill="#181818" points="273.46,361.9,274.7028,352.1299,272.0221,357.1112,267.0408,354.4305,273.46,361.9" style="stroke:#181818;stroke-width:1.0;"/><text fill="#000000" font-family="sans-serif" font-size="13" lengthAdjust="spacing" textLength="84" x="210.7709" y="351.5405">ShaderObjeto</text></g><!--SRC=[RP9HQuCm4CVV-ob2doopRtkI8YXber1esRhdSjLORsWk9B6uZNttHKshJlCISlUxk_oFVrA0rknm-UI6sC-2sVF4ZWfBD7Y34vGWSc81ome2mpQRApTXQ6_Tt7USX26zHsq61IWUkCFY2zNUogRYc6eNwmPxPmdunhEWU_hihCXK1GL93ifdr4PViCZ94QjHUMGgAF0RLDlzHfYwz9PhBl9fl6qLfPWW2PlDXft7P2TjbtgO1bPHasr3pziHqFUIXW97pBQA2iFLcFEP98q9q7t2f6YFfPogU5MGKS85n9LEm1lkh24xFRFiKL6D9NdKhsyWVxvmLyh65SfkmWJQA1JNV_yvY0zXNPBs__nTE6Ejro5Rzgv2ISk7oVZfI_8H-9v3obKNMRBkzGS0]--></g></svg>