<?xml version="1.0" encoding="us-ascii" standalone="no"?><svg xmlns="http://www.w3.org/2000/svg" xmlns:xlink="http://www.w3.org/1999/xlink" contentStyleType="text/css" height="219px" preserveAspectRatio="none" style="width:587px;height:219px;background:#FFFFFF;" version="1.1" viewBox="0 0 587 219" width="587px" zoomAndPan="magnify"><defs/><g><!--class Retangulo--><g id="elem_Retangulo"><rect codeLine="1" fill="#F1F1F1" height="97.4648" id="Retangulo" rx="2.5" ry="2.5" style="stroke:#181818;stroke-width:0.5;" width="573" x="7" y="115"/><ellipse cx="254.25" cy="131" fill="#ADD1B2" rx="11" ry="11" style="stroke:#181818;stroke-width:1.0;"/><path d="M256.7231,137.1431 Q256.1421,137.4419 255.5029,137.5913 Q254.8638,137.7407 254.1582,137.7407 Q251.6514,137.7407 250.3315,136.0889 Q249.0117,134.437 249.0117,131.3159 Q249.0117,128.1865 250.3315,126.5347 Q251.6514,124.8828 254.1582,124.8828 Q254.8638,124.8828 255.5112,125.0322 Q256.1587,125.1816 256.7231,125.4805 L256.7231,128.2031 Q256.0923,127.6221 255.4988,127.3523 Q254.9053,127.0825 254.2744,127.0825 Q252.9297,127.0825 252.2449,128.1492 Q251.5601,129.2158 251.5601,131.3159 Q251.5601,133.4077 252.2449,134.4744 Q252.9297,135.541 254.2744,135.541 Q254.9053,135.541 255.4988,135.2712 Q256.0923,135.0015 256.7231,134.4204 Z " fill="#000000"/><text fill="#000000" font-family="sans-serif" font-size="14" lengthAdjust="spacing" textLength="70" x="274.75" y="136.291">Retangulo</text><line style="stroke:#181818;stroke-width:0.5;" x1="8" x2="579" y1="147" y2="147"/><line style="stroke:#181818;stroke-width:0.5;" x1="8" x2="579" y1="155" y2="155"/><ellipse cx="18" cy="168.7441" fill="#84BE84" rx="3" ry="3" style="stroke:#038048;stroke-width:1.0;"/><text fill="#000000" font-family="sans-serif" font-size="14" lengthAdjust="spacing" textLength="271" x="27" y="172.5352">Retangulo(_paiRef:Objeto, _rotulo:char)</text><ellipse cx="18" cy="185.2324" fill="#84BE84" rx="3" ry="3" style="stroke:#038048;stroke-width:1.0;"/><text fill="#000000" font-family="sans-serif" font-size="14" lengthAdjust="spacing" textLength="547" x="27" y="189.0234">Retangulo(_paiRef:Objeto, _rotulo:char, ptoInfEsq:Ponto4D, ptoSupDir:Ponto4D)</text><ellipse cx="18" cy="201.7207" fill="#84BE84" rx="3" ry="3" style="stroke:#038048;stroke-width:1.0;"/><text fill="#000000" font-family="sans-serif" font-size="14" lengthAdjust="spacing" textLength="196" x="27" y="205.5117">&#171;override&#187; ToString() : string</text></g><!--class Objeto--><g id="elem_Objeto"><rect fill="#F1F1F1" height="48" id="Objeto" rx="2.5" ry="2.5" style="stroke:#181818;stroke-width:0.5;" width="78" x="254.5" y="7"/><ellipse cx="269.5" cy="23" fill="#ADD1B2" rx="11" ry="11" style="stroke:#181818;stroke-width:1.0;"/><path d="M271.9731,29.1431 Q271.3921,29.4419 270.7529,29.5913 Q270.1138,29.7407 269.4082,29.7407 Q266.9014,29.7407 265.5815,28.0889 Q264.2617,26.437 264.2617,23.3159 Q264.2617,20.1865 265.5815,18.5347 Q266.9014,16.8828 269.4082,16.8828 Q270.1138,16.8828 270.7612,17.0322 Q271.4087,17.1816 271.9731,17.4805 L271.9731,20.2031 Q271.3423,19.6221 270.7488,19.3523 Q270.1553,19.0825 269.5244,19.0825 Q268.1797,19.0825 267.4949,20.1492 Q266.8101,21.2158 266.8101,23.3159 Q266.8101,25.4077 267.4949,26.4744 Q268.1797,27.541 269.5244,27.541 Q270.1553,27.541 270.7488,27.2712 Q271.3423,27.0015 271.9731,26.4204 Z " fill="#000000"/><text fill="#000000" font-family="sans-serif" font-size="14" lengthAdjust="spacing" textLength="46" x="283.5" y="28.291">Objeto</text><line style="stroke:#181818;stroke-width:0.5;" x1="255.5" x2="331.5" y1="39" y2="39"/><line style="stroke:#181818;stroke-width:0.5;" x1="255.5" x2="331.5" y1="47" y2="47"/></g><!--reverse link Objeto to Retangulo--><g id="link_Objeto_Retangulo"><path codeLine="6" d="M293.5,73.37 C293.5,89.82 293.5,94.42 293.5,114.65 " fill="none" id="Objeto-backto-Retangulo" style="stroke:#181818;stroke-width:1.0;"/><polygon fill="none" points="293.5,55.37,287.5,73.37,299.5,73.37,293.5,55.37" style="stroke:#181818;stroke-width:1.0;"/></g><!--SRC=[Iyv9B2vM24ejISnBByt9LwZcKW02ROI8Hdn1OcPGQfgLVr9MQac-Za9yKNu9KDmgEIEnI9CarJeA1INvddbfhiM5LW7vUINv9YvWeU3I0fVC8fWGp4mRc_oorAAYp9HKEpk5aFpWagBCl7GDJGKhXM8mawkM2sA9WasDhYx22G00]--></g></svg>