<?xml version="1.0" encoding="us-ascii" standalone="no"?><svg xmlns="http://www.w3.org/2000/svg" xmlns:xlink="http://www.w3.org/1999/xlink" contentStyleType="text/css" height="219px" preserveAspectRatio="none" style="width:526px;height:219px;background:#FFFFFF;" version="1.1" viewBox="0 0 526 219" width="526px" zoomAndPan="magnify"><defs/><g><!--class SegReta--><g id="elem_SegReta"><rect codeLine="1" fill="#F1F1F1" height="97.4648" id="SegReta" rx="2.5" ry="2.5" style="stroke:#181818;stroke-width:0.5;" width="512" x="7" y="115"/><ellipse cx="231.25" cy="131" fill="#ADD1B2" rx="11" ry="11" style="stroke:#181818;stroke-width:1.0;"/><path d="M233.7231,137.1431 Q233.1421,137.4419 232.5029,137.5913 Q231.8638,137.7407 231.1582,137.7407 Q228.6514,137.7407 227.3315,136.0889 Q226.0117,134.437 226.0117,131.3159 Q226.0117,128.1865 227.3315,126.5347 Q228.6514,124.8828 231.1582,124.8828 Q231.8638,124.8828 232.5112,125.0322 Q233.1587,125.1816 233.7231,125.4805 L233.7231,128.2031 Q233.0923,127.6221 232.4988,127.3523 Q231.9053,127.0825 231.2744,127.0825 Q229.9297,127.0825 229.2449,128.1492 Q228.5601,129.2158 228.5601,131.3159 Q228.5601,133.4077 229.2449,134.4744 Q229.9297,135.541 231.2744,135.541 Q231.9053,135.541 232.4988,135.2712 Q233.0923,135.0015 233.7231,134.4204 Z " fill="#000000"/><text fill="#000000" font-family="sans-serif" font-size="14" lengthAdjust="spacing" textLength="55" x="251.75" y="136.291">SegReta</text><line style="stroke:#181818;stroke-width:0.5;" x1="8" x2="518" y1="147" y2="147"/><line style="stroke:#181818;stroke-width:0.5;" x1="8" x2="518" y1="155" y2="155"/><ellipse cx="18" cy="168.7441" fill="#84BE84" rx="3" ry="3" style="stroke:#038048;stroke-width:1.0;"/><text fill="#000000" font-family="sans-serif" font-size="14" lengthAdjust="spacing" textLength="256" x="27" y="172.5352">SegReta(_paiRef:Objeto, _rotulo:char)</text><ellipse cx="18" cy="185.2324" fill="#84BE84" rx="3" ry="3" style="stroke:#038048;stroke-width:1.0;"/><text fill="#000000" font-family="sans-serif" font-size="14" lengthAdjust="spacing" textLength="486" x="27" y="189.0234">SegReta(_paiRef:Objeto, _rotulo:char, ptoIni:Ponto4D, ptoFim:Ponto4D)</text><ellipse cx="18" cy="201.7207" fill="#84BE84" rx="3" ry="3" style="stroke:#038048;stroke-width:1.0;"/><text fill="#000000" font-family="sans-serif" font-size="14" lengthAdjust="spacing" textLength="196" x="27" y="205.5117">&#171;override&#187; ToString() : string</text></g><!--class Objeto--><g id="elem_Objeto"><rect fill="#F1F1F1" height="48" id="Objeto" rx="2.5" ry="2.5" style="stroke:#181818;stroke-width:0.5;" width="78" x="224" y="7"/><ellipse cx="239" cy="23" fill="#ADD1B2" rx="11" ry="11" style="stroke:#181818;stroke-width:1.0;"/><path d="M241.4731,29.1431 Q240.8921,29.4419 240.2529,29.5913 Q239.6138,29.7407 238.9082,29.7407 Q236.4014,29.7407 235.0815,28.0889 Q233.7617,26.437 233.7617,23.3159 Q233.7617,20.1865 235.0815,18.5347 Q236.4014,16.8828 238.9082,16.8828 Q239.6138,16.8828 240.2612,17.0322 Q240.9087,17.1816 241.4731,17.4805 L241.4731,20.2031 Q240.8423,19.6221 240.2488,19.3523 Q239.6553,19.0825 239.0244,19.0825 Q237.6797,19.0825 236.9949,20.1492 Q236.3101,21.2158 236.3101,23.3159 Q236.3101,25.4077 236.9949,26.4744 Q237.6797,27.541 239.0244,27.541 Q239.6553,27.541 240.2488,27.2712 Q240.8423,27.0015 241.4731,26.4204 Z " fill="#000000"/><text fill="#000000" font-family="sans-serif" font-size="14" lengthAdjust="spacing" textLength="46" x="253" y="28.291">Objeto</text><line style="stroke:#181818;stroke-width:0.5;" x1="225" x2="301" y1="39" y2="39"/><line style="stroke:#181818;stroke-width:0.5;" x1="225" x2="301" y1="47" y2="47"/></g><!--reverse link Objeto to SegReta--><g id="link_Objeto_SegReta"><path codeLine="6" d="M263,73.37 C263,89.82 263,94.42 263,114.65 " fill="none" id="Objeto-backto-SegReta" style="stroke:#181818;stroke-width:1.0;"/><polygon fill="none" points="263,55.37,257,73.37,269,73.37,263,55.37" style="stroke:#181818;stroke-width:1.0;"/></g><!--SRC=[Iyv9B2vM24vD3qejILIevb800cqONoE-834pA3NDoZyfAxKaNqSXlYY_f3Gdtoev8x58amIrEWe59VcUUPbM0Vbv9VacBc2-MsOkZ0ypoyOcloorg2Wp9TNEJY4aFxYaA3ClNKDJmKgX6CpagkM26AzWKwEh2xCQ0000]--></g></svg>