<?xml version="1.0" encoding="us-ascii" standalone="no"?><svg xmlns="http://www.w3.org/2000/svg" xmlns:xlink="http://www.w3.org/1999/xlink" contentStyleType="text/css" height="235px" preserveAspectRatio="none" style="width:575px;height:235px;background:#FFFFFF;" version="1.1" viewBox="0 0 575 235" width="575px" zoomAndPan="magnify"><defs/><g><!--class Circulo--><g id="elem_Circulo"><rect codeLine="1" fill="#F1F1F1" height="113.9531" id="Circulo" rx="2.5" ry="2.5" style="stroke:#181818;stroke-width:0.5;" width="561" x="7" y="115"/><ellipse cx="258.75" cy="131" fill="#ADD1B2" rx="11" ry="11" style="stroke:#181818;stroke-width:1.0;"/><path d="M261.2231,137.1431 Q260.6421,137.4419 260.0029,137.5913 Q259.3638,137.7407 258.6582,137.7407 Q256.1514,137.7407 254.8315,136.0889 Q253.5117,134.437 253.5117,131.3159 Q253.5117,128.1865 254.8315,126.5347 Q256.1514,124.8828 258.6582,124.8828 Q259.3638,124.8828 260.0112,125.0322 Q260.6587,125.1816 261.2231,125.4805 L261.2231,128.2031 Q260.5923,127.6221 259.9988,127.3523 Q259.4053,127.0825 258.7744,127.0825 Q257.4297,127.0825 256.7449,128.1492 Q256.0601,129.2158 256.0601,131.3159 Q256.0601,133.4077 256.7449,134.4744 Q257.4297,135.541 258.7744,135.541 Q259.4053,135.541 259.9988,135.2712 Q260.5923,135.0015 261.2231,134.4204 Z " fill="#000000"/><text fill="#000000" font-family="sans-serif" font-size="14" lengthAdjust="spacing" textLength="49" x="279.25" y="136.291">Circulo</text><line style="stroke:#181818;stroke-width:0.5;" x1="8" x2="567" y1="147" y2="147"/><line style="stroke:#181818;stroke-width:0.5;" x1="8" x2="567" y1="155" y2="155"/><ellipse cx="18" cy="168.7441" fill="#84BE84" rx="3" ry="3" style="stroke:#038048;stroke-width:1.0;"/><text fill="#000000" font-family="sans-serif" font-size="14" lengthAdjust="spacing" textLength="344" x="27" y="172.5352">Circulo(_paiRef:Objeto, _rotulo:char, _raio:double)</text><ellipse cx="18" cy="185.2324" fill="#84BE84" rx="3" ry="3" style="stroke:#038048;stroke-width:1.0;"/><text fill="#000000" font-family="sans-serif" font-size="14" lengthAdjust="spacing" textLength="535" x="27" y="189.0234">Circulo(_paiRef:Objeto, _rotulo:char, _raio:double, ptoDeslocamento:Ponto4D)</text><ellipse cx="18" cy="201.7207" fill="#84BE84" rx="3" ry="3" style="stroke:#038048;stroke-width:1.0;"/><text fill="#000000" font-family="sans-serif" font-size="14" lengthAdjust="spacing" textLength="296" x="27" y="205.5117">Atualizar(ptoDeslocamento:Ponto4D) : void</text><ellipse cx="18" cy="218.209" fill="#84BE84" rx="3" ry="3" style="stroke:#038048;stroke-width:1.0;"/><text fill="#000000" font-family="sans-serif" font-size="14" lengthAdjust="spacing" textLength="196" x="27" y="222">&#171;override&#187; ToString() : string</text></g><!--class Objeto--><g id="elem_Objeto"><rect fill="#F1F1F1" height="48" id="Objeto" rx="2.5" ry="2.5" style="stroke:#181818;stroke-width:0.5;" width="78" x="248.5" y="7"/><ellipse cx="263.5" cy="23" fill="#ADD1B2" rx="11" ry="11" style="stroke:#181818;stroke-width:1.0;"/><path d="M265.9731,29.1431 Q265.3921,29.4419 264.7529,29.5913 Q264.1138,29.7407 263.4082,29.7407 Q260.9014,29.7407 259.5815,28.0889 Q258.2617,26.437 258.2617,23.3159 Q258.2617,20.1865 259.5815,18.5347 Q260.9014,16.8828 263.4082,16.8828 Q264.1138,16.8828 264.7612,17.0322 Q265.4087,17.1816 265.9731,17.4805 L265.9731,20.2031 Q265.3423,19.6221 264.7488,19.3523 Q264.1553,19.0825 263.5244,19.0825 Q262.1797,19.0825 261.4949,20.1492 Q260.8101,21.2158 260.8101,23.3159 Q260.8101,25.4077 261.4949,26.4744 Q262.1797,27.541 263.5244,27.541 Q264.1553,27.541 264.7488,27.2712 Q265.3423,27.0015 265.9731,26.4204 Z " fill="#000000"/><text fill="#000000" font-family="sans-serif" font-size="14" lengthAdjust="spacing" textLength="46" x="277.5" y="28.291">Objeto</text><line style="stroke:#181818;stroke-width:0.5;" x1="249.5" x2="325.5" y1="39" y2="39"/><line style="stroke:#181818;stroke-width:0.5;" x1="249.5" x2="325.5" y1="47" y2="47"/></g><!--reverse link Objeto to Circulo--><g id="link_Objeto_Circulo"><path codeLine="7" d="M287.5,73.26 C287.5,89.49 287.5,93.87 287.5,114.63 " fill="none" id="Objeto-backto-Circulo" style="stroke:#181818;stroke-width:1.0;"/><polygon fill="none" points="287.5,55.26,281.5,73.26,293.5,73.26,287.5,55.26" style="stroke:#181818;stroke-width:1.0;"/></g><!--SRC=[dOu_3u903CLtFaL7ZB0vNGY9aLsZxgGSLMiEIde7Wt- -kw0okjZXfQ_vlUPPXzx3XjNsJk0UmJZBsSTbXxodazbMLmgIGAaInhkn5zJ98OkffQySBVvE9j05ASWxiTXG6yJiPDHLCRzSXnuTtr3ZNo0O68JhBvzbCf0grvJdS9H3K6xFyGJvznezeqyho1vfEZT-0G00]--></g></svg>