<?xml version="1.0" encoding="us-ascii" standalone="no"?><svg xmlns="http://www.w3.org/2000/svg" xmlns:xlink="http://www.w3.org/1999/xlink" contentStyleType="text/css" height="450px" preserveAspectRatio="none" style="width:1580px;height:450px;background:#FFFFFF;" version="1.1" viewBox="0 0 1580 450" width="1580px" zoomAndPan="magnify"><defs/><g><!--class Mundo--><g id="elem_Mundo"><rect codeLine="1" fill="#F1F1F1" height="64.4883" id="Mundo" rx="2.5" ry="2.5" style="stroke:#181818;stroke-width:0.5;" width="696" x="7" y="354.08"/><ellipse cx="326.75" cy="370.08" fill="#ADD1B2" rx="11" ry="11" style="stroke:#181818;stroke-width:1.0;"/><path d="M329.2231,376.2231 Q328.6421,376.5219 328.0029,376.6713 Q327.3638,376.8207 326.6582,376.8207 Q324.1514,376.8207 322.8315,375.1689 Q321.5117,373.517 321.5117,370.3959 Q321.5117,367.2665 322.8315,365.6147 Q324.1514,363.9628 326.6582,363.9628 Q327.3638,363.9628 328.0112,364.1122 Q328.6587,364.2616 329.2231,364.5605 L329.2231,367.2831 Q328.5923,366.7021 327.9988,366.4323 Q327.4053,366.1625 326.7744,366.1625 Q325.4297,366.1625 324.7449,367.2292 Q324.0601,368.2958 324.0601,370.3959 Q324.0601,372.4877 324.7449,373.5544 Q325.4297,374.621 326.7744,374.621 Q327.4053,374.621 327.9988,374.3512 Q328.5923,374.0815 329.2231,373.5004 Z " fill="#000000"/><text fill="#000000" font-family="sans-serif" font-size="14" lengthAdjust="spacing" textLength="48" x="347.25" y="375.371">Mundo</text><line style="stroke:#181818;stroke-width:0.5;" x1="8" x2="702" y1="386.08" y2="386.08"/><line style="stroke:#181818;stroke-width:0.5;" x1="8" x2="702" y1="394.08" y2="394.08"/><ellipse cx="18" cy="407.8241" fill="#84BE84" rx="3" ry="3" style="stroke:#038048;stroke-width:1.0;"/><text fill="#000000" font-family="sans-serif" font-size="14" lengthAdjust="spacing" textLength="670" x="27" y="411.6152">Mundo(gameWindowSettings:GameWindowSettings, nativeWindowSettings:NativeWindowSettings)</text></g><!--class GameWindow--><g id="elem_GameWindow"><rect fill="#F1F1F1" height="48" id="GameWindow" rx="2.5" ry="2.5" style="stroke:#181818;stroke-width:0.5;" width="125" x="292.5" y="114.17"/><ellipse cx="307.5" cy="130.17" fill="#ADD1B2" rx="11" ry="11" style="stroke:#181818;stroke-width:1.0;"/><path d="M309.9731,136.3131 Q309.3921,136.6119 308.7529,136.7613 Q308.1138,136.9107 307.4082,136.9107 Q304.9014,136.9107 303.5815,135.2589 Q302.2617,133.607 302.2617,130.4859 Q302.2617,127.3565 303.5815,125.7047 Q304.9014,124.0528 307.4082,124.0528 Q308.1138,124.0528 308.7612,124.2022 Q309.4087,124.3516 309.9731,124.6505 L309.9731,127.3731 Q309.3423,126.7921 308.7488,126.5223 Q308.1553,126.2525 307.5244,126.2525 Q306.1797,126.2525 305.4949,127.3192 Q304.8101,128.3858 304.8101,130.4859 Q304.8101,132.5777 305.4949,133.6444 Q306.1797,134.711 307.5244,134.711 Q308.1553,134.711 308.7488,134.4412 Q309.3423,134.1715 309.9731,133.5904 Z " fill="#000000"/><text fill="#000000" font-family="sans-serif" font-size="14" lengthAdjust="spacing" textLength="93" x="321.5" y="135.461">GameWindow</text><line style="stroke:#181818;stroke-width:0.5;" x1="293.5" x2="416.5" y1="146.17" y2="146.17"/><line style="stroke:#181818;stroke-width:0.5;" x1="293.5" x2="416.5" y1="154.17" y2="154.17"/></g><!--class Objeto--><g id="elem_Objeto"><rect codeLine="1" fill="#F1F1F1" height="262.3477" id="Objeto" rx="2.5" ry="2.5" style="stroke:#181818;stroke-width:0.5;" width="409" x="732.5" y="7"/><ellipse cx="909.75" cy="23" fill="#ADD1B2" rx="11" ry="11" style="stroke:#181818;stroke-width:1.0;"/><path d="M912.2231,29.1431 Q911.6421,29.4419 911.0029,29.5913 Q910.3638,29.7407 909.6582,29.7407 Q907.1514,29.7407 905.8315,28.0889 Q904.5117,26.437 904.5117,23.3159 Q904.5117,20.1865 905.8315,18.5347 Q907.1514,16.8828 909.6582,16.8828 Q910.3638,16.8828 911.0112,17.0322 Q911.6587,17.1816 912.2231,17.4805 L912.2231,20.2031 Q911.5923,19.6221 910.9988,19.3523 Q910.4053,19.0825 909.7744,19.0825 Q908.4297,19.0825 907.7449,20.1492 Q907.0601,21.2158 907.0601,23.3159 Q907.0601,25.4077 907.7449,26.4744 Q908.4297,27.541 909.7744,27.541 Q910.4053,27.541 910.9988,27.2712 Q911.5923,27.0015 912.2231,26.4204 Z " fill="#000000"/><text fill="#000000" font-family="sans-serif" font-size="14" lengthAdjust="spacing" textLength="46" x="930.25" y="28.291">Objeto</text><line style="stroke:#181818;stroke-width:0.5;" x1="733.5" x2="1140.5" y1="39" y2="39"/><ellipse cx="743.5" cy="52.7441" fill="none" rx="3" ry="3" style="stroke:#038048;stroke-width:1.0;"/><text fill="#000000" font-family="sans-serif" font-size="14" lengthAdjust="spacing" textLength="245" x="752.5" y="56.5352">PrimitivaTamanho : float &#171;get&#187; &#171;set&#187;</text><line style="stroke:#181818;stroke-width:0.5;" x1="733.5" x2="1140.5" y1="63.4883" y2="63.4883"/><ellipse cx="743.5" cy="77.2324" fill="#84BE84" rx="3" ry="3" style="stroke:#038048;stroke-width:1.0;"/><text fill="#000000" font-family="sans-serif" font-size="14" lengthAdjust="spacing" textLength="91" x="752.5" y="81.0234">Bbox() : BBox</text><ellipse cx="743.5" cy="93.7207" fill="#84BE84" rx="3" ry="3" style="stroke:#038048;stroke-width:1.0;"/><text fill="#000000" font-family="sans-serif" font-size="14" lengthAdjust="spacing" textLength="383" x="752.5" y="97.5117">Objeto(_paiRef:Objeto, _rotulo:char, objetoFilho:Objeto)</text><ellipse cx="743.5" cy="110.209" fill="#84BE84" rx="3" ry="3" style="stroke:#038048;stroke-width:1.0;"/><text fill="#000000" font-family="sans-serif" font-size="14" lengthAdjust="spacing" textLength="159" x="752.5" y="114">ObjetoAtualizar() : void</text><ellipse cx="743.5" cy="126.6973" fill="#84BE84" rx="3" ry="3" style="stroke:#038048;stroke-width:1.0;"/><text fill="#000000" font-family="sans-serif" font-size="14" lengthAdjust="spacing" textLength="116" x="752.5" y="130.4883">Desenhar() : void</text><ellipse cx="743.5" cy="143.1855" fill="#84BE84" rx="3" ry="3" style="stroke:#038048;stroke-width:1.0;"/><text fill="#000000" font-family="sans-serif" font-size="14" lengthAdjust="spacing" textLength="232" x="752.5" y="146.9766">FilhoAdicionar(filho:Objeto) : void</text><ellipse cx="743.5" cy="159.6738" fill="#84BE84" rx="3" ry="3" style="stroke:#038048;stroke-width:1.0;"/><text fill="#000000" font-family="sans-serif" font-size="14" lengthAdjust="spacing" textLength="176" x="752.5" y="163.4648">PontosId(id:int) : Ponto4D</text><ellipse cx="743.5" cy="176.1621" fill="#84BE84" rx="3" ry="3" style="stroke:#038048;stroke-width:1.0;"/><text fill="#000000" font-family="sans-serif" font-size="14" lengthAdjust="spacing" textLength="250" x="752.5" y="179.9531">PontosAdicionar(pto:Ponto4D) : void</text><ellipse cx="743.5" cy="192.6504" fill="#84BE84" rx="3" ry="3" style="stroke:#038048;stroke-width:1.0;"/><text fill="#000000" font-family="sans-serif" font-size="14" lengthAdjust="spacing" textLength="314" x="752.5" y="196.4414">PontosAlterar(pto:Ponto4D, posicao:int) : void</text><ellipse cx="743.5" cy="209.1387" fill="#84BE84" rx="3" ry="3" style="stroke:#038048;stroke-width:1.0;"/><text fill="#000000" font-family="sans-serif" font-size="14" lengthAdjust="spacing" textLength="260" x="752.5" y="212.9297">GrafocenaBusca(_rotulo:char) : Objeto</text><ellipse cx="743.5" cy="225.627" fill="#84BE84" rx="3" ry="3" style="stroke:#038048;stroke-width:1.0;"/><text fill="#000000" font-family="sans-serif" font-size="14" lengthAdjust="spacing" textLength="365" x="752.5" y="229.418">GrafocenaBuscaProximo(objetoAtual:Objeto) : Objeto</text><ellipse cx="743.5" cy="242.1152" fill="#84BE84" rx="3" ry="3" style="stroke:#038048;stroke-width:1.0;"/><text fill="#000000" font-family="sans-serif" font-size="14" lengthAdjust="spacing" textLength="243" x="752.5" y="245.9063">GrafocenaImprimir(idt:String) : void</text><ellipse cx="743.5" cy="258.6035" fill="#84BE84" rx="3" ry="3" style="stroke:#038048;stroke-width:1.0;"/><text fill="#000000" font-family="sans-serif" font-size="14" lengthAdjust="spacing" textLength="120" x="752.5" y="262.3945">OnUnload() : void</text></g><!--class PrimitiveType--><g id="elem_PrimitiveType"><rect fill="#F1F1F1" height="48" id="PrimitiveType" rx="2.5" ry="2.5" style="stroke:#181818;stroke-width:0.5;" width="124" x="738" y="362.32"/><ellipse cx="753" cy="378.32" fill="#ADD1B2" rx="11" ry="11" style="stroke:#181818;stroke-width:1.0;"/><path d="M755.4731,384.4631 Q754.8921,384.7619 754.2529,384.9113 Q753.6138,385.0607 752.9082,385.0607 Q750.4014,385.0607 749.0815,383.4089 Q747.7617,381.757 747.7617,378.6359 Q747.7617,375.5065 749.0815,373.8547 Q750.4014,372.2028 752.9082,372.2028 Q753.6138,372.2028 754.2612,372.3522 Q754.9087,372.5016 755.4731,372.8005 L755.4731,375.5231 Q754.8423,374.9421 754.2488,374.6723 Q753.6553,374.4025 753.0244,374.4025 Q751.6797,374.4025 750.9949,375.4692 Q750.3101,376.5358 750.3101,378.6359 Q750.3101,380.7277 750.9949,381.7944 Q751.6797,382.861 753.0244,382.861 Q753.6553,382.861 754.2488,382.5912 Q754.8423,382.3215 755.4731,381.7404 Z " fill="#000000"/><text fill="#000000" font-family="sans-serif" font-size="14" lengthAdjust="spacing" textLength="92" x="767" y="383.611">PrimitiveType</text><line style="stroke:#181818;stroke-width:0.5;" x1="739" x2="861" y1="394.32" y2="394.32"/><line style="stroke:#181818;stroke-width:0.5;" x1="739" x2="861" y1="402.32" y2="402.32"/></g><!--class Shader--><g id="elem_Shader"><rect fill="#F1F1F1" height="48" id="Shader" rx="2.5" ry="2.5" style="stroke:#181818;stroke-width:0.5;" width="80" x="897" y="362.32"/><ellipse cx="912" cy="378.32" fill="#ADD1B2" rx="11" ry="11" style="stroke:#181818;stroke-width:1.0;"/><path d="M914.4731,384.4631 Q913.8921,384.7619 913.2529,384.9113 Q912.6138,385.0607 911.9082,385.0607 Q909.4014,385.0607 908.0815,383.4089 Q906.7617,381.757 906.7617,378.6359 Q906.7617,375.5065 908.0815,373.8547 Q909.4014,372.2028 911.9082,372.2028 Q912.6138,372.2028 913.2612,372.3522 Q913.9087,372.5016 914.4731,372.8005 L914.4731,375.5231 Q913.8423,374.9421 913.2488,374.6723 Q912.6553,374.4025 912.0244,374.4025 Q910.6797,374.4025 909.9949,375.4692 Q909.3101,376.5358 909.3101,378.6359 Q909.3101,380.7277 909.9949,381.7944 Q910.6797,382.861 912.0244,382.861 Q912.6553,382.861 913.2488,382.5912 Q913.8423,382.3215 914.4731,381.7404 Z " fill="#000000"/><text fill="#000000" font-family="sans-serif" font-size="14" lengthAdjust="spacing" textLength="48" x="926" y="383.611">Shader</text><line style="stroke:#181818;stroke-width:0.5;" x1="898" x2="976" y1="394.32" y2="394.32"/><line style="stroke:#181818;stroke-width:0.5;" x1="898" x2="976" y1="402.32" y2="402.32"/></g><!--class Circulo--><g id="elem_Circulo"><rect codeLine="1" fill="#F1F1F1" height="113.9531" id="Circulo" rx="2.5" ry="2.5" style="stroke:#181818;stroke-width:0.5;" width="561" x="1012.5" y="329.35"/><ellipse cx="1264.25" cy="345.35" fill="#ADD1B2" rx="11" ry="11" style="stroke:#181818;stroke-width:1.0;"/><path d="M1266.7231,351.4931 Q1266.1421,351.7919 1265.5029,351.9413 Q1264.8638,352.0907 1264.1582,352.0907 Q1261.6514,352.0907 1260.3315,350.4389 Q1259.0117,348.787 1259.0117,345.6659 Q1259.0117,342.5365 1260.3315,340.8847 Q1261.6514,339.2328 1264.1582,339.2328 Q1264.8638,339.2328 1265.5112,339.3822 Q1266.1587,339.5316 1266.7231,339.8305 L1266.7231,342.5531 Q1266.0923,341.9721 1265.4988,341.7023 Q1264.9053,341.4325 1264.2744,341.4325 Q1262.9297,341.4325 1262.2449,342.4992 Q1261.5601,343.5658 1261.5601,345.6659 Q1261.5601,347.7577 1262.2449,348.8244 Q1262.9297,349.891 1264.2744,349.891 Q1264.9053,349.891 1265.4988,349.6212 Q1266.0923,349.3515 1266.7231,348.7704 Z " fill="#000000"/><text fill="#000000" font-family="sans-serif" font-size="14" lengthAdjust="spacing" textLength="49" x="1284.75" y="350.641">Circulo</text><line style="stroke:#181818;stroke-width:0.5;" x1="1013.5" x2="1572.5" y1="361.35" y2="361.35"/><line style="stroke:#181818;stroke-width:0.5;" x1="1013.5" x2="1572.5" y1="369.35" y2="369.35"/><ellipse cx="1023.5" cy="383.0941" fill="#84BE84" rx="3" ry="3" style="stroke:#038048;stroke-width:1.0;"/><text fill="#000000" font-family="sans-serif" font-size="14" lengthAdjust="spacing" textLength="344" x="1032.5" y="386.8852">Circulo(_paiRef:Objeto, _rotulo:char, _raio:double)</text><ellipse cx="1023.5" cy="399.5824" fill="#84BE84" rx="3" ry="3" style="stroke:#038048;stroke-width:1.0;"/><text fill="#000000" font-family="sans-serif" font-size="14" lengthAdjust="spacing" textLength="535" x="1032.5" y="403.3734">Circulo(_paiRef:Objeto, _rotulo:char, _raio:double, ptoDeslocamento:Ponto4D)</text><ellipse cx="1023.5" cy="416.0707" fill="#84BE84" rx="3" ry="3" style="stroke:#038048;stroke-width:1.0;"/><text fill="#000000" font-family="sans-serif" font-size="14" lengthAdjust="spacing" textLength="296" x="1032.5" y="419.8617">Atualizar(ptoDeslocamento:Ponto4D) : void</text><ellipse cx="1023.5" cy="432.559" fill="#84BE84" rx="3" ry="3" style="stroke:#038048;stroke-width:1.0;"/><text fill="#000000" font-family="sans-serif" font-size="14" lengthAdjust="spacing" textLength="196" x="1032.5" y="436.35">&#171;override&#187; ToString() : string</text></g><!--class Program--><g id="elem_Program"><rect codeLine="1" fill="#F1F1F1" height="56.6211" id="Program" rx="2.5" ry="2.5" style="stroke:#181818;stroke-width:0.5;" width="91" x="1176.5" y="109.86"/><ellipse cx="1191.5" cy="130.1705" fill="#ADD1B2" rx="11" ry="11" style="stroke:#181818;stroke-width:1.0;"/><path d="M1193.9731,136.3136 Q1193.3921,136.6124 1192.7529,136.7619 Q1192.1138,136.9113 1191.4082,136.9113 Q1188.9014,136.9113 1187.5815,135.2594 Q1186.2617,133.6076 1186.2617,130.4865 Q1186.2617,127.3571 1187.5815,125.7052 Q1188.9014,124.0534 1191.4082,124.0534 Q1192.1138,124.0534 1192.7612,124.2028 Q1193.4087,124.3522 1193.9731,124.651 L1193.9731,127.3737 Q1193.3423,126.7926 1192.7488,126.5228 Q1192.1553,126.2531 1191.5244,126.2531 Q1190.1797,126.2531 1189.4949,127.3197 Q1188.8101,128.3864 1188.8101,130.4865 Q1188.8101,132.5783 1189.4949,133.6449 Q1190.1797,134.7116 1191.5244,134.7116 Q1192.1553,134.7116 1192.7488,134.4418 Q1193.3423,134.172 1193.9731,133.591 Z " fill="#000000"/><text fill="#000000" font-family="sans-serif" font-size="12" font-style="italic" lengthAdjust="spacing" textLength="42" x="1214" y="126.4616">&#171;static&#187;</text><text fill="#000000" font-family="sans-serif" font-size="14" lengthAdjust="spacing" textLength="59" x="1205.5" y="142.528">Program</text><line style="stroke:#181818;stroke-width:0.5;" x1="1177.5" x2="1266.5" y1="150.4811" y2="150.4811"/><line style="stroke:#181818;stroke-width:0.5;" x1="1177.5" x2="1266.5" y1="158.4811" y2="158.4811"/></g><!--reverse link GameWindow to Mundo--><g id="link_GameWindow_Mundo"><path codeLine="4" d="M355,180.33 C355,224.61 355,303.35 355,353.6 " fill="none" id="GameWindow-backto-Mundo" style="stroke:#181818;stroke-width:1.0;"/><polygon fill="none" points="355,162.33,349,180.33,361,180.33,355,162.33" style="stroke:#181818;stroke-width:1.0;"/></g><!--link Objeto to PrimitiveType--><g id="link_Objeto_PrimitiveType"><path codeLine="16" d="M864.29,269.82 C844.43,305.49 827.9797,335.0683 815.7697,356.9883 " fill="none" id="Objeto-to-PrimitiveType" style="stroke:#181818;stroke-width:1.0;"/><polygon fill="#181818" points="812.85,362.23,820.7241,356.314,815.2831,357.8619,813.7352,352.421,812.85,362.23" style="stroke:#181818;stroke-width:1.0;"/><text fill="#000000" font-family="sans-serif" font-size="13" lengthAdjust="spacing" textLength="83" x="722.5084" y="351.7432">PrimitivaTipo</text></g><!--link Objeto to Shader--><g id="link_Objeto_Shader"><path codeLine="17" d="M937,269.82 C937,305.49 937,334.31 937,356.23 " fill="none" id="Objeto-to-Shader" style="stroke:#181818;stroke-width:1.0;"/><polygon fill="#181818" points="937,362.23,941,353.23,937,357.23,933,353.23,937,362.23" style="stroke:#181818;stroke-width:1.0;"/><text fill="#000000" font-family="sans-serif" font-size="13" lengthAdjust="spacing" textLength="84" x="868.1586" y="351.5951">shaderObjeto</text></g><!--reverse link Objeto to Circulo--><g id="link_Objeto_Circulo"><path codeLine="7" d="M1140.7569,280.055 C1170.8769,300.875 1185.77,311.18 1211.58,329.03 " fill="none" id="Objeto-backto-Circulo" style="stroke:#181818;stroke-width:1.0;"/><polygon fill="none" points="1125.95,269.82,1137.3452,284.9907,1144.1686,275.1194,1125.95,269.82" style="stroke:#181818;stroke-width:1.0;"/></g><!--SRC=[KypCIyufJKbLqDFtBSrBoTShACtDuL94YFedPQMMO0exPnObb-PWYWSKvQSN9UPYYESdPUcxf2QLfkldfPPOw1dew_cvXZZd5wKw5XJeXAKM5MVcvzcM0INq78kBKtEJSYeTIqgACfDAIrAB2Hlcx1xlPnHl2DVhcPS6SHe0]--></g></svg>