<?xml version="1.0" encoding="us-ascii" standalone="no"?><svg xmlns="http://www.w3.org/2000/svg" xmlns:xlink="http://www.w3.org/1999/xlink" contentStyleType="text/css" height="384px" preserveAspectRatio="none" style="width:423px;height:384px;background:#FFFFFF;" version="1.1" viewBox="0 0 423 384" width="423px" zoomAndPan="magnify"><defs/><g><!--class Objeto--><g id="elem_Objeto"><rect codeLine="1" fill="#F1F1F1" height="262.3477" id="Objeto" rx="2.5" ry="2.5" style="stroke:#181818;stroke-width:0.5;" width="409" x="7" y="7"/><ellipse cx="184.25" cy="23" fill="#ADD1B2" rx="11" ry="11" style="stroke:#181818;stroke-width:1.0;"/><path d="M186.7231,29.1431 Q186.1421,29.4419 185.5029,29.5913 Q184.8638,29.7407 184.1582,29.7407 Q181.6514,29.7407 180.3315,28.0889 Q179.0117,26.437 179.0117,23.3159 Q179.0117,20.1865 180.3315,18.5347 Q181.6514,16.8828 184.1582,16.8828 Q184.8638,16.8828 185.5112,17.0322 Q186.1587,17.1816 186.7231,17.4805 L186.7231,20.2031 Q186.0923,19.6221 185.4988,19.3523 Q184.9053,19.0825 184.2744,19.0825 Q182.9297,19.0825 182.2449,20.1492 Q181.5601,21.2158 181.5601,23.3159 Q181.5601,25.4077 182.2449,26.4744 Q182.9297,27.541 184.2744,27.541 Q184.9053,27.541 185.4988,27.2712 Q186.0923,27.0015 186.7231,26.4204 Z " fill="#000000"/><text fill="#000000" font-family="sans-serif" font-size="14" lengthAdjust="spacing" textLength="46" x="204.75" y="28.291">Objeto</text><line style="stroke:#181818;stroke-width:0.5;" x1="8" x2="415" y1="39" y2="39"/><ellipse cx="18" cy="52.7441" fill="none" rx="3" ry="3" style="stroke:#038048;stroke-width:1.0;"/><text fill="#000000" font-family="sans-serif" font-size="14" lengthAdjust="spacing" textLength="245" x="27" y="56.5352">PrimitivaTamanho : float &#171;get&#187; &#171;set&#187;</text><line style="stroke:#181818;stroke-width:0.5;" x1="8" x2="415" y1="63.4883" y2="63.4883"/><ellipse cx="18" cy="77.2324" fill="#84BE84" rx="3" ry="3" style="stroke:#038048;stroke-width:1.0;"/><text fill="#000000" font-family="sans-serif" font-size="14" lengthAdjust="spacing" textLength="91" x="27" y="81.0234">Bbox() : BBox</text><ellipse cx="18" cy="93.7207" fill="#84BE84" rx="3" ry="3" style="stroke:#038048;stroke-width:1.0;"/><text fill="#000000" font-family="sans-serif" font-size="14" lengthAdjust="spacing" textLength="383" x="27" y="97.5117">Objeto(_paiRef:Objeto, _rotulo:char, objetoFilho:Objeto)</text><ellipse cx="18" cy="110.209" fill="#84BE84" rx="3" ry="3" style="stroke:#038048;stroke-width:1.0;"/><text fill="#000000" font-family="sans-serif" font-size="14" lengthAdjust="spacing" textLength="159" x="27" y="114">ObjetoAtualizar() : void</text><ellipse cx="18" cy="126.6973" fill="#84BE84" rx="3" ry="3" style="stroke:#038048;stroke-width:1.0;"/><text fill="#000000" font-family="sans-serif" font-size="14" lengthAdjust="spacing" textLength="116" x="27" y="130.4883">Desenhar() : void</text><ellipse cx="18" cy="143.1855" fill="#84BE84" rx="3" ry="3" style="stroke:#038048;stroke-width:1.0;"/><text fill="#000000" font-family="sans-serif" font-size="14" lengthAdjust="spacing" textLength="232" x="27" y="146.9766">FilhoAdicionar(filho:Objeto) : void</text><ellipse cx="18" cy="159.6738" fill="#84BE84" rx="3" ry="3" style="stroke:#038048;stroke-width:1.0;"/><text fill="#000000" font-family="sans-serif" font-size="14" lengthAdjust="spacing" textLength="176" x="27" y="163.4648">PontosId(id:int) : Ponto4D</text><ellipse cx="18" cy="176.1621" fill="#84BE84" rx="3" ry="3" style="stroke:#038048;stroke-width:1.0;"/><text fill="#000000" font-family="sans-serif" font-size="14" lengthAdjust="spacing" textLength="250" x="27" y="179.9531">PontosAdicionar(pto:Ponto4D) : void</text><ellipse cx="18" cy="192.6504" fill="#84BE84" rx="3" ry="3" style="stroke:#038048;stroke-width:1.0;"/><text fill="#000000" font-family="sans-serif" font-size="14" lengthAdjust="spacing" textLength="314" x="27" y="196.4414">PontosAlterar(pto:Ponto4D, posicao:int) : void</text><ellipse cx="18" cy="209.1387" fill="#84BE84" rx="3" ry="3" style="stroke:#038048;stroke-width:1.0;"/><text fill="#000000" font-family="sans-serif" font-size="14" lengthAdjust="spacing" textLength="260" x="27" y="212.9297">GrafocenaBusca(_rotulo:char) : Objeto</text><ellipse cx="18" cy="225.627" fill="#84BE84" rx="3" ry="3" style="stroke:#038048;stroke-width:1.0;"/><text fill="#000000" font-family="sans-serif" font-size="14" lengthAdjust="spacing" textLength="365" x="27" y="229.418">GrafocenaBuscaProximo(objetoAtual:Objeto) : Objeto</text><ellipse cx="18" cy="242.1152" fill="#84BE84" rx="3" ry="3" style="stroke:#038048;stroke-width:1.0;"/><text fill="#000000" font-family="sans-serif" font-size="14" lengthAdjust="spacing" textLength="243" x="27" y="245.9063">GrafocenaImprimir(idt:String) : void</text><ellipse cx="18" cy="258.6035" fill="#84BE84" rx="3" ry="3" style="stroke:#038048;stroke-width:1.0;"/><text fill="#000000" font-family="sans-serif" font-size="14" lengthAdjust="spacing" textLength="120" x="27" y="262.3945">OnUnload() : void</text></g><!--class PrimitiveType--><g id="elem_PrimitiveType"><rect fill="#F1F1F1" height="48" id="PrimitiveType" rx="2.5" ry="2.5" style="stroke:#181818;stroke-width:0.5;" width="124" x="81.5" y="329.35"/><ellipse cx="96.5" cy="345.35" fill="#ADD1B2" rx="11" ry="11" style="stroke:#181818;stroke-width:1.0;"/><path d="M98.9731,351.4931 Q98.3921,351.7919 97.7529,351.9413 Q97.1138,352.0907 96.4082,352.0907 Q93.9014,352.0907 92.5815,350.4389 Q91.2617,348.787 91.2617,345.6659 Q91.2617,342.5365 92.5815,340.8847 Q93.9014,339.2328 96.4082,339.2328 Q97.1138,339.2328 97.7612,339.3822 Q98.4087,339.5316 98.9731,339.8305 L98.9731,342.5531 Q98.3423,341.9721 97.7488,341.7023 Q97.1553,341.4325 96.5244,341.4325 Q95.1797,341.4325 94.4949,342.4992 Q93.8101,343.5658 93.8101,345.6659 Q93.8101,347.7577 94.4949,348.8244 Q95.1797,349.891 96.5244,349.891 Q97.1553,349.891 97.7488,349.6212 Q98.3423,349.3515 98.9731,348.7704 Z " fill="#000000"/><text fill="#000000" font-family="sans-serif" font-size="14" lengthAdjust="spacing" textLength="92" x="110.5" y="350.641">PrimitiveType</text><line style="stroke:#181818;stroke-width:0.5;" x1="82.5" x2="204.5" y1="361.35" y2="361.35"/><line style="stroke:#181818;stroke-width:0.5;" x1="82.5" x2="204.5" y1="369.35" y2="369.35"/></g><!--class Shader--><g id="elem_Shader"><rect fill="#F1F1F1" height="48" id="Shader" rx="2.5" ry="2.5" style="stroke:#181818;stroke-width:0.5;" width="80" x="240.5" y="329.35"/><ellipse cx="255.5" cy="345.35" fill="#ADD1B2" rx="11" ry="11" style="stroke:#181818;stroke-width:1.0;"/><path d="M257.9731,351.4931 Q257.3921,351.7919 256.7529,351.9413 Q256.1138,352.0907 255.4082,352.0907 Q252.9014,352.0907 251.5815,350.4389 Q250.2617,348.787 250.2617,345.6659 Q250.2617,342.5365 251.5815,340.8847 Q252.9014,339.2328 255.4082,339.2328 Q256.1138,339.2328 256.7612,339.3822 Q257.4087,339.5316 257.9731,339.8305 L257.9731,342.5531 Q257.3423,341.9721 256.7488,341.7023 Q256.1553,341.4325 255.5244,341.4325 Q254.1797,341.4325 253.4949,342.4992 Q252.8101,343.5658 252.8101,345.6659 Q252.8101,347.7577 253.4949,348.8244 Q254.1797,349.891 255.5244,349.891 Q256.1553,349.891 256.7488,349.6212 Q257.3423,349.3515 257.9731,348.7704 Z " fill="#000000"/><text fill="#000000" font-family="sans-serif" font-size="14" lengthAdjust="spacing" textLength="48" x="269.5" y="350.641">Shader</text><line style="stroke:#181818;stroke-width:0.5;" x1="241.5" x2="319.5" y1="361.35" y2="361.35"/><line style="stroke:#181818;stroke-width:0.5;" x1="241.5" x2="319.5" y1="369.35" y2="369.35"/></g><!--link Objeto to PrimitiveType--><g id="link_Objeto_PrimitiveType"><path codeLine="16" d="M169.89,269.63 C162.61,292.45 157.6442,308.014 152.7742,323.274 " fill="none" id="Objeto-to-PrimitiveType" style="stroke:#181818;stroke-width:1.0;"/><polygon fill="#181818" points="150.95,328.99,157.4969,321.6321,152.4701,324.2267,149.8756,319.1999,150.95,328.99" style="stroke:#181818;stroke-width:1.0;"/><text fill="#000000" font-family="sans-serif" font-size="13" lengthAdjust="spacing" textLength="83" x="59.2247" y="318.434">PrimitivaTipo</text></g><!--link Objeto to Shader--><g id="link_Objeto_Shader"><path codeLine="17" d="M253.72,269.63 C261.11,292.45 266.1521,308.0217 271.0921,323.2817 " fill="none" id="Objeto-to-Shader" style="stroke:#181818;stroke-width:1.0;"/><polygon fill="#181818" points="272.94,328.99,273.9737,319.1955,271.4001,324.233,266.3626,321.6594,272.94,328.99" style="stroke:#181818;stroke-width:1.0;"/><text fill="#000000" font-family="sans-serif" font-size="13" lengthAdjust="spacing" textLength="84" x="211.3465" y="318.434">shaderObjeto</text></g><!--SRC=[RP9DRuCm38Rl_HLHJrIZjvsY2WbKRUgfQEtEbGkXU0fnb8IARTf_7n_PW8rShBn-_2Pnd4cmbXslRy8H-ronTZsmr6253kzmXWfKIOopGX8ujjlTX8kYDjekUZovKXDiMYX9gF7Qu1XSDE2BAFYm3Td5aAibyQm44pBgrIUK9NbYCokFNGqIFy3qxdV2tAVtmWfL_jTxgpZ734crsMBgF2TJKexi8GymvwXSb-sbn_qC6Bsq8-w9HQjOEc7cNCWqMSo0VawO53qRA2WJ2fBQPX1C-zAHmvqNsTHGWnK5DBPeyiJbmaEbkoyrxMiTFpc3wlRdFaVrgjelpiUEVgtyL6ot4LkF8u6QrhyJ8ixlMin0Mq8kpA2isQdVVGC0]--></g></svg>