<?xml version="1.0" encoding="us-ascii" standalone="no"?><svg xmlns="http://www.w3.org/2000/svg" xmlns:xlink="http://www.w3.org/1999/xlink" contentStyleType="text/css" height="77px" preserveAspectRatio="none" style="width:112px;height:77px;background:#FFFFFF;" version="1.1" viewBox="0 0 112 77" width="112px" zoomAndPan="magnify"><defs/><g><!--class Program--><g id="elem_Program"><rect codeLine="1" fill="#F1F1F1" height="56.6211" id="Program" rx="2.5" ry="2.5" style="stroke:#181818;stroke-width:0.5;" width="91" x="7" y="7"/><ellipse cx="22" cy="27.3105" fill="#ADD1B2" rx="11" ry="11" style="stroke:#181818;stroke-width:1.0;"/><path d="M24.4731,33.4536 Q23.8921,33.7524 23.2529,33.9019 Q22.6138,34.0513 21.9082,34.0513 Q19.4014,34.0513 18.0815,32.3994 Q16.7617,30.7476 16.7617,27.6265 Q16.7617,24.4971 18.0815,22.8452 Q19.4014,21.1934 21.9082,21.1934 Q22.6138,21.1934 23.2612,21.3428 Q23.9087,21.4922 24.4731,21.791 L24.4731,24.5137 Q23.8423,23.9326 23.2488,23.6628 Q22.6553,23.3931 22.0244,23.3931 Q20.6797,23.3931 19.9949,24.4597 Q19.3101,25.5264 19.3101,27.6265 Q19.3101,29.7183 19.9949,30.7849 Q20.6797,31.8516 22.0244,31.8516 Q22.6553,31.8516 23.2488,31.5818 Q23.8423,31.312 24.4731,30.731 Z " fill="#000000"/><text fill="#000000" font-family="sans-serif" font-size="12" font-style="italic" lengthAdjust="spacing" textLength="42" x="44.5" y="23.6016">&#171;static&#187;</text><text fill="#000000" font-family="sans-serif" font-size="14" lengthAdjust="spacing" textLength="59" x="36" y="39.668">Program</text><line style="stroke:#181818;stroke-width:0.5;" x1="8" x2="97" y1="47.6211" y2="47.6211"/><line style="stroke:#181818;stroke-width:0.5;" x1="8" x2="97" y1="55.6211" y2="55.6211"/></g><!--SRC=[Iyv9B2vM22ZAJozAp5MmiIakIIp9JBQpKwZcgWK0]--></g></svg>