<?xml version="1.0" encoding="us-ascii" standalone="no"?><svg xmlns="http://www.w3.org/2000/svg" xmlns:xlink="http://www.w3.org/1999/xlink" contentStyleType="text/css" height="186px" preserveAspectRatio="none" style="width:716px;height:186px;background:#FFFFFF;" version="1.1" viewBox="0 0 716 186" width="716px" zoomAndPan="magnify"><defs/><g><!--class Window--><g id="elem_Window"><rect codeLine="1" fill="#F1F1F1" height="64.4883" id="Window" rx="2.5" ry="2.5" style="stroke:#181818;stroke-width:0.5;" width="702" x="7" y="115"/><ellipse cx="326.75" cy="131" fill="#ADD1B2" rx="11" ry="11" style="stroke:#181818;stroke-width:1.0;"/><path d="M329.2231,137.1431 Q328.6421,137.4419 328.0029,137.5913 Q327.3638,137.7407 326.6582,137.7407 Q324.1514,137.7407 322.8315,136.0889 Q321.5117,134.437 321.5117,131.3159 Q321.5117,128.1865 322.8315,126.5347 Q324.1514,124.8828 326.6582,124.8828 Q327.3638,124.8828 328.0112,125.0322 Q328.6587,125.1816 329.2231,125.4805 L329.2231,128.2031 Q328.5923,127.6221 327.9988,127.3523 Q327.4053,127.0825 326.7744,127.0825 Q325.4297,127.0825 324.7449,128.1492 Q324.0601,129.2158 324.0601,131.3159 Q324.0601,133.4077 324.7449,134.4744 Q325.4297,135.541 326.7744,135.541 Q327.4053,135.541 327.9988,135.2712 Q328.5923,135.0015 329.2231,134.4204 Z " fill="#000000"/><text fill="#000000" font-family="sans-serif" font-size="14" lengthAdjust="spacing" textLength="54" x="347.25" y="136.291">Window</text><line style="stroke:#181818;stroke-width:0.5;" x1="8" x2="708" y1="147" y2="147"/><line style="stroke:#181818;stroke-width:0.5;" x1="8" x2="708" y1="155" y2="155"/><ellipse cx="18" cy="168.7441" fill="#84BE84" rx="3" ry="3" style="stroke:#038048;stroke-width:1.0;"/><text fill="#000000" font-family="sans-serif" font-size="14" lengthAdjust="spacing" textLength="676" x="27" y="172.5352">Window(gameWindowSettings:GameWindowSettings, nativeWindowSettings:NativeWindowSettings)</text></g><!--class GameWindow--><g id="elem_GameWindow"><rect fill="#F1F1F1" height="48" id="GameWindow" rx="2.5" ry="2.5" style="stroke:#181818;stroke-width:0.5;" width="125" x="295.5" y="7"/><ellipse cx="310.5" cy="23" fill="#ADD1B2" rx="11" ry="11" style="stroke:#181818;stroke-width:1.0;"/><path d="M312.9731,29.1431 Q312.3921,29.4419 311.7529,29.5913 Q311.1138,29.7407 310.4082,29.7407 Q307.9014,29.7407 306.5815,28.0889 Q305.2617,26.437 305.2617,23.3159 Q305.2617,20.1865 306.5815,18.5347 Q307.9014,16.8828 310.4082,16.8828 Q311.1138,16.8828 311.7612,17.0322 Q312.4087,17.1816 312.9731,17.4805 L312.9731,20.2031 Q312.3423,19.6221 311.7488,19.3523 Q311.1553,19.0825 310.5244,19.0825 Q309.1797,19.0825 308.4949,20.1492 Q307.8101,21.2158 307.8101,23.3159 Q307.8101,25.4077 308.4949,26.4744 Q309.1797,27.541 310.5244,27.541 Q311.1553,27.541 311.7488,27.2712 Q312.3423,27.0015 312.9731,26.4204 Z " fill="#000000"/><text fill="#000000" font-family="sans-serif" font-size="14" lengthAdjust="spacing" textLength="93" x="324.5" y="28.291">GameWindow</text><line style="stroke:#181818;stroke-width:0.5;" x1="296.5" x2="419.5" y1="39" y2="39"/><line style="stroke:#181818;stroke-width:0.5;" x1="296.5" x2="419.5" y1="47" y2="47"/></g><!--reverse link GameWindow to Window--><g id="link_GameWindow_Window"><path codeLine="4" d="M358,73.4 C358,90.5 358,95.89 358,114.65 " fill="none" id="GameWindow-backto-Window" style="stroke:#181818;stroke-width:1.0;"/><polygon fill="none" points="358,55.4,352,73.4,364,73.4,358,55.4" style="stroke:#181818;stroke-width:1.0;"/></g><!--SRC=[Iyv9B2vM2C_CIyalLwZcKW02RIXN8pqnDnN234ujASdCIo-sSiSGqb78Iop9B4DNw8T5K9EhbWjXW89DZQukr2e0]--></g></svg>